<?xml version="1.0" encoding="UTF-8"?>
<svg version="1.1" xmlns="http://www.w3.org/2000/svg" width="1920" height="650">
<path d="M0 0 C633.6 0 1267.2 0 1920 0 C1920 157.74 1920 315.48 1920 478 C1903.80328117 484.94145093 1903.80328117 484.94145093 1897.68359375 487.3046875 C1896.96120514 487.58534561 1896.23881653 487.86600372 1895.49453735 488.15516663 C1893.14377156 489.06593754 1890.79102047 489.97137247 1888.4375 490.875 C1887.60564178 491.19469757 1886.77378357 491.51439514 1885.91671753 491.84378052 C1782.05329817 531.67689759 1674.70976262 562.57057829 1131.30092621 644.06180191 C1129.21862519 644.1820915 1127.13643634 644.30417478 1125.05426025 644.42660522 C1114.70611124 645.02743109 1104.35525958 645.53837387 1094 646 C1092.56038469 646.06488302 1092.56038469 646.06488302 1091.09168625 646.13107681 C1048.01381764 648.05496118 1004.98538798 648.36366215 961.8733654 648.31498528 C958.41657323 648.31163052 954.95978144 648.31039318 951.50298798 648.3090812 C902.62069049 648.28862056 853.79966356 648.04850712 804.98413086 645.22784424 C800.92545292 644.99573681 796.86625142 644.77697202 792.80664062 644.56201172 C718.73779771 640.615584 644.77143771 633.85518734 56.375 501.75 C54.9564975 501.23036179 54.9564975 501.23036179 53.50933838 500.70022583 C35.54967605 494.10162093 17.80769648 487.01515316 0 480 C0 321.6 0 163.2 0 0 Z " fill="#3445CC" transform="translate(0,0)"/>
</svg>
