<?xml version="1.0" encoding="utf-8"?>
<!-- Generator: Adobe Illustrator 27.5.0, SVG Export Plug-In . SVG Version: 6.00 Build 0)  -->
<svg version="1.1" xmlns="http://www.w3.org/2000/svg" xmlns:xlink="http://www.w3.org/1999/xlink" x="0px" y="0px"
	 viewBox="0 0 800 800" style="enable-background:new 0 0 800 800;" xml:space="preserve">
<g id="background">
	<rect style="fill:#FFFFFF;stroke:#231F20;stroke-miterlimit:10;" width="800" height="800"/>
</g>
<g id="object">
	<g>
		<g>
			<circle style="fill:#FFFFFF;stroke:#231F20;stroke-width:3;stroke-miterlimit:10;" cx="638.293" cy="215.125" r="57.922"/>
			<circle style="fill:#4CD0DC;" cx="638.293" cy="215.125" r="41.856"/>
			<circle style="fill:#FFFFFF;" cx="638.293" cy="215.125" r="25.977"/>
			<circle style="fill:#4CD0DC;" cx="638.293" cy="215.125" r="13.773"/>
		</g>
		<polygon style="fill:#AFDCDA;" points="356.631,608.581 523.376,454.258 690.12,608.581 		"/>
		<path style="fill:none;stroke:#000000;stroke-width:4;stroke-linecap:round;stroke-miterlimit:10;stroke-dasharray:0,9;" d="
			M436.932,494.824h49.104c24.795,0,44.896-20.1,44.896-44.896v-88.171"/>
		<g>
			<path style="fill:#FFFFFF;stroke:#231F20;stroke-width:3;stroke-miterlimit:10;" d="M450.873,522.51H290.875
				c-2.394,0-4.334-1.94-4.334-4.334V404.608c0-2.394,1.94-4.334,4.334-4.334h159.999c2.394,0,4.334,1.94,4.334,4.334v113.568
				C455.207,520.57,453.267,522.51,450.873,522.51z"/>
			<rect x="295.008" y="409.91" style="fill:#FDC33D;" width="151.731" height="89.226"/>
			
				<rect x="359.977" y="522.51" style="fill:#FFFFFF;stroke:#231F20;stroke-width:3;stroke-miterlimit:10;" width="30.322" height="20.846"/>
			
				<rect x="352.946" y="543.357" style="fill:#FFFFFF;stroke:#231F20;stroke-width:3;stroke-miterlimit:10;" width="44.384" height="6.279"/>
		</g>
		<g>
			<path style="fill:#4CD0DC;" d="M580.667,423.908h-84.036c-3.245,0-5.875-2.63-5.875-5.875v-63.036
				c0-3.245,2.63-5.875,5.875-5.875h84.036c3.245,0,5.875,2.63,5.875,5.875v63.036C586.542,421.278,583.912,423.908,580.667,423.908
				z"/>
			<path style="fill:none;stroke:#231F20;stroke-width:3;stroke-miterlimit:10;" d="M573.843,417.847h-84.036
				c-3.245,0-5.875-2.63-5.875-5.875v-63.036c0-3.245,2.63-5.875,5.875-5.875h84.036c3.245,0,5.875,2.63,5.875,5.875v63.036
				C579.718,415.217,577.088,417.847,573.843,417.847z"/>
			<path style="fill:none;stroke:#231F20;stroke-width:3;stroke-miterlimit:10;" d="M572.164,343.061h-80.679
				c-4.172,0-7.554,3.382-7.554,7.554v15.912l47.893,13.928l47.893-13.473v-16.367C579.718,346.443,576.336,343.061,572.164,343.061
				z"/>
			<path style="fill:none;stroke:#231F20;stroke-width:3;stroke-miterlimit:10;" d="M515.619,341.561v-5.112
				c0-3.922,3.18-7.102,7.102-7.102h13.493c3.922,0,7.102,3.18,7.102,7.102v5.112"/>
			<rect x="521.643" y="392.264" style="fill:#FFFFFF;" width="20.364" height="10.596"/>
		</g>
		<g>
			<path style="fill:#8F9B23;" d="M665.83,350.393c-22.611,0-40.941,12.521-40.941,27.967c0,10.996,9.295,20.506,22.807,25.074
				l-10.769,14.065l19.043-11.994c3.159,0.534,6.46,0.822,9.86,0.822c22.611,0,40.941-12.521,40.941-27.967
				C706.771,362.914,688.441,350.393,665.83,350.393z"/>
			<g>
				<circle style="fill:#FFFFFF;" cx="638.699" cy="378.36" r="2.811"/>
				<circle style="fill:#FFFFFF;" cx="657.83" cy="378.36" r="2.811"/>
				<circle style="fill:#FFFFFF;" cx="676.961" cy="378.36" r="2.811"/>
			</g>
			<path style="fill:none;stroke:#231F20;stroke-width:3;stroke-miterlimit:10;" d="M657.83,350.393
				c-22.611,0-40.941,12.521-40.941,27.967c0,10.996,9.295,20.506,22.807,25.074l-10.769,14.065l19.043-11.994
				c3.159,0.534,6.46,0.822,9.86,0.822c22.611,0,40.941-12.521,40.941-27.967C698.771,362.914,680.441,350.393,657.83,350.393z"/>
		</g>
		<g>
			<path style="fill:#D83F25;" d="M674.516,505.469h-57.781c-3.859,0-6.987-3.128-6.987-6.987v-46.359
				c0-3.859,3.128-6.987,6.987-6.987h57.781c3.859,0,6.987,3.128,6.987,6.987v46.359
				C681.504,502.341,678.375,505.469,674.516,505.469z"/>
			<path style="fill:none;stroke:#231F20;stroke-width:3;stroke-miterlimit:10;" d="M667.183,499.136h-57.781
				c-3.859,0-6.987-3.128-6.987-6.987V445.79c0-3.859,3.128-6.987,6.987-6.987h57.781c3.859,0,6.987,3.128,6.987,6.987v46.359
				C674.17,496.007,671.042,499.136,667.183,499.136z"/>
			<polygon style="fill:#FFFFFF;" points="627.649,454.258 653.13,468.969 627.649,483.68 			"/>
		</g>
		<g>
			<circle style="fill:#FDC33D;" cx="138.812" cy="460.969" r="24.516"/>
			
				<circle style="fill:none;stroke:#231F20;stroke-width:3;stroke-linecap:round;stroke-miterlimit:10;" cx="138.812" cy="460.969" r="32.867"/>
			
				<circle style="fill:none;stroke:#231F20;stroke-width:3;stroke-linecap:round;stroke-miterlimit:10;" cx="138.812" cy="460.969" r="16.919"/>
			<g>
				<g>
					
						<line style="fill:none;stroke:#231F20;stroke-width:3;stroke-linecap:round;stroke-miterlimit:10;" x1="138.812" y1="437.585" x2="138.812" y2="415.386"/>
					
						<line style="fill:none;stroke:#231F20;stroke-width:3;stroke-linecap:round;stroke-miterlimit:10;" x1="138.812" y1="506.552" x2="138.812" y2="484.353"/>
				</g>
				<g>
					
						<line style="fill:none;stroke:#231F20;stroke-width:3;stroke-linecap:round;stroke-miterlimit:10;" x1="162.197" y1="460.969" x2="184.396" y2="460.969"/>
					
						<line style="fill:none;stroke:#231F20;stroke-width:3;stroke-linecap:round;stroke-miterlimit:10;" x1="93.229" y1="460.969" x2="115.428" y2="460.969"/>
				</g>
			</g>
		</g>
		<g>
			<rect x="169.068" y="288.92" style="fill:#FDC33D;" width="67.742" height="49.379"/>
			
				<rect x="161.735" y="281.518" style="fill:none;stroke:#231F20;stroke-width:3;stroke-miterlimit:10;" width="67.742" height="49.379"/>
			<polygon style="fill:none;stroke:#231F20;stroke-width:3;stroke-miterlimit:10;" points="161.735,296.36 195.606,314.343 
				229.477,296.36 229.477,281.518 161.735,281.518 			"/>
		</g>
		<g>
			<path style="fill:none;stroke:#231F20;stroke-width:3;stroke-miterlimit:10;" d="M527.046,314.222H423.483
				c-2.747,0-4.975-2.227-4.975-4.975v-64.421c0-2.747,2.227-4.975,4.975-4.975h103.564c2.747,0,4.975,2.227,4.975,4.975v64.421
				C532.021,311.995,529.794,314.222,527.046,314.222z"/>
			<rect x="423.792" y="246.017" style="fill:#ADB72A;" width="102.455" height="38.457"/>
			<rect x="456.311" y="287.997" style="fill:#ADB72A;" width="37.908" height="22.311"/>
			<path style="fill:none;stroke:#231F20;stroke-width:3;stroke-miterlimit:10;" d="M536.126,211.306h-60.862h-60.862
				c-2.024,0-3.453,1.983-2.813,3.903l6.083,18.25c0.499,1.497,1.9,2.507,3.478,2.507h54.114h54.114c1.578,0,2.979-1.01,3.478-2.507
				l6.083-18.25C539.58,213.289,538.151,211.306,536.126,211.306z"/>
			<path style="fill:#ADB72A;" d="M531.87,215.125h-56.605H418.66c-1.883,0-3.212,1.387-2.617,2.73l5.658,12.766
				c0.464,1.047,1.767,1.753,3.235,1.753h50.329h50.329c1.468,0,2.771-0.706,3.235-1.753l5.658-12.766
				C535.081,216.512,533.752,215.125,531.87,215.125z"/>
		</g>
		<g>
			<path style="fill:#FFFFFF;stroke:#231F20;stroke-width:3;stroke-miterlimit:10;" d="M309.941,367.261h-39.204
				c-1.536,0-2.782-1.245-2.782-2.782v-80.591c0-1.536,1.245-2.782,2.782-2.782h39.204c1.536,0,2.782,1.245,2.782,2.782v80.591
				C312.723,366.016,311.478,367.261,309.941,367.261z"/>
			<rect x="271.922" y="287.563" style="fill:#4CD0DC;" width="36.835" height="67.452"/>
			<circle style="fill:#4CD0DC;" cx="290.34" cy="360.017" r="2.752"/>
		</g>
		<g>
			<rect x="121.155" y="531.017" style="fill:#ADB72A;" width="25.343" height="77.06"/>
			<rect x="156.388" y="506.188" style="fill:#ADB72A;" width="25.343" height="101.889"/>
			<rect x="192.858" y="520.264" style="fill:#ADB72A;" width="25.343" height="87.812"/>
			<rect x="228.091" y="491.971" style="fill:#ADB72A;" width="25.343" height="116.106"/>
		</g>
		<g>
			<circle style="fill:#FFFFFF;stroke:#231F20;stroke-width:3;stroke-miterlimit:10;" cx="586.542" cy="290.486" r="19.271"/>
			<path style="fill:#FDC33D;" d="M586.542,290.486c-2.301,7.868-11.084,5.62-11.084,5.62l7.904,13.385l3.18,0.266l3.18-0.266
				l7.904-13.385C597.626,296.106,588.844,298.354,586.542,290.486z"/>
			<path style="fill:#4CD0DC;" d="M588.069,324.646h-3.053c-3.728,0-6.75-3.022-6.75-6.75V304.28h16.553v13.616
				C594.819,321.624,591.797,324.646,588.069,324.646z"/>
		</g>
		<g>
			
				<line style="fill:none;stroke:#231F20;stroke-width:3;stroke-linecap:round;stroke-miterlimit:10;" x1="116.918" y1="608.076" x2="690.104" y2="608.076"/>
			
				<text transform="matrix(1 0 0 1 142.5658 608.0762)" style="font-family:'OpenSans-Extrabold'; font-size:80.2385px; letter-spacing:6;">MARKETING</text>
		</g>
		<g>
			<g>
				
					<line style="fill:none;stroke:#000000;stroke-width:4;stroke-linecap:round;stroke-miterlimit:10;" x1="140.527" y1="147" x2="140.527" y2="147"/>
				
					<line style="fill:none;stroke:#000000;stroke-width:4;stroke-linecap:round;stroke-miterlimit:10;stroke-dasharray:0,9.2173;" x1="149.744" y1="147" x2="311.046" y2="147"/>
				
					<line style="fill:none;stroke:#000000;stroke-width:4;stroke-linecap:round;stroke-miterlimit:10;" x1="315.655" y1="147" x2="315.655" y2="147"/>
			</g>
		</g>
		<g>
			<rect x="165.898" y="369.491" style="fill:#ADB72A;" width="90.068" height="43.691"/>
			
				<rect x="160.118" y="364.081" style="fill:none;stroke:#231F20;stroke-width:3;stroke-miterlimit:10;" width="87.536" height="40.419"/>
			<circle style="fill:#FFFFFF;" cx="203.887" cy="384.291" r="12.375"/>
		</g>
		<g>
			<circle style="fill:#FFFFFF;stroke:#231F20;stroke-width:3;stroke-miterlimit:10;" cx="366.672" cy="280.241" r="30.658"/>
			
				<rect x="363.128" y="316.424" style="fill:#FFFFFF;stroke:#231F20;stroke-width:3;stroke-miterlimit:10;" width="7.089" height="46.408"/>
			<circle style="fill:#FDC33D;" cx="366.672" cy="280.241" r="24.967"/>
			<circle style="fill:#FFFFFF;" cx="374.172" cy="271.358" r="7.5"/>
		</g>
		<g>
			<circle style="fill:none;stroke:#231F20;stroke-width:3;stroke-miterlimit:10;" cx="260.268" cy="220.613" r="35.113"/>
			<circle style="fill:#D83F25;" cx="260.268" cy="220.613" r="25.698"/>
			
				<line style="fill:none;stroke:#231F20;stroke-width:3;stroke-linecap:round;stroke-miterlimit:10;" x1="260.268" y1="220.613" x2="260.268" y2="174.5"/>
			
				<line style="fill:none;stroke:#231F20;stroke-width:3;stroke-linecap:round;stroke-miterlimit:10;" x1="260.268" y1="220.613" x2="274.694" y2="235.212"/>
		</g>
		<g>
			<g>
				<g>
					<path style="fill:#ADB72A;" d="M350.757,227.256c-3.997-0.182-7.847-1.077-11.552-2.683v-9.088
						c2.117,1.077,4.416,1.976,6.898,2.696c2.481,0.721,4.662,1.082,6.542,1.082c1.551,0,2.687-0.187,3.408-0.561
						c0.721-0.374,1.081-1,1.081-1.875c0-0.602-0.26-1.113-0.78-1.533c-0.52-0.419-1.387-0.894-2.601-1.423
						c-1.214-0.529-2.852-1.168-4.914-1.917c-2.318-0.857-4.188-1.82-5.612-2.888c-1.423-1.068-2.459-2.263-3.107-3.586
						c-0.648-1.323-0.972-2.97-0.972-4.941c0-3.011,0.967-5.366,2.901-7.063c1.935-1.697,4.836-2.747,8.705-3.148v-3.75h5.667v3.695
						c3.631,0.201,7.291,1.095,10.977,2.683l-3.258,7.802c-3.814-1.715-7.254-2.573-10.32-2.573c-1.46,0-2.487,0.178-3.08,0.534
						c-0.593,0.356-0.89,0.881-0.89,1.574c0,0.602,0.214,1.1,0.644,1.492c0.428,0.393,1.172,0.831,2.231,1.314
						c1.058,0.484,2.527,1.045,4.407,1.684c3.814,1.351,6.552,2.888,8.212,4.613c1.66,1.724,2.491,3.946,2.491,6.666
						c0,3.065-0.972,5.557-2.916,7.473c-1.943,1.917-4.777,3.103-8.5,3.559v5.283h-5.667V227.256z"/>
				</g>
			</g>
			<g>
				<path style="fill:none;stroke:#231F20;stroke-width:3;stroke-miterlimit:10;" d="M345.784,224.897
					c-3.997-0.182-7.847-1.077-11.552-2.683v-9.088c2.117,1.077,4.416,1.976,6.898,2.696c2.481,0.721,4.662,1.082,6.542,1.082
					c1.551,0,2.687-0.187,3.408-0.561c0.721-0.374,1.081-1,1.081-1.875c0-0.602-0.26-1.113-0.78-1.533
					c-0.52-0.419-1.387-0.894-2.601-1.423c-1.214-0.529-2.852-1.168-4.914-1.917c-2.318-0.857-4.188-1.82-5.612-2.888
					c-1.423-1.068-2.459-2.263-3.107-3.586c-0.648-1.323-0.972-2.97-0.972-4.941c0-3.011,0.967-5.366,2.901-7.063
					c1.935-1.697,4.836-2.747,8.705-3.148v-3.75h5.667v3.695c3.631,0.201,7.291,1.095,10.977,2.683l-3.258,7.802
					c-3.814-1.715-7.254-2.573-10.32-2.573c-1.46,0-2.487,0.178-3.08,0.534c-0.593,0.356-0.89,0.881-0.89,1.574
					c0,0.602,0.214,1.1,0.644,1.492c0.428,0.393,1.172,0.831,2.231,1.314c1.058,0.484,2.527,1.045,4.407,1.684
					c3.814,1.351,6.552,2.888,8.212,4.613c1.66,1.724,2.491,3.946,2.491,6.666c0,3.065-0.972,5.557-2.916,7.473
					c-1.943,1.917-4.777,3.103-8.5,3.559v5.283h-5.667V224.897z"/>
			</g>
		</g>
		<g>
			
				<line style="fill:none;stroke:#000000;stroke-width:3;stroke-linecap:round;stroke-miterlimit:10;" x1="200.773" y1="191.264" x2="200.773" y2="269.264"/>
			
				<line style="fill:none;stroke:#000000;stroke-width:3;stroke-linecap:round;stroke-miterlimit:10;" x1="200.773" y1="275.609" x2="200.773" y2="284.097"/>
			
				<line style="fill:none;stroke:#000000;stroke-width:3;stroke-linecap:round;stroke-miterlimit:10;" x1="200.773" y1="290.442" x2="200.773" y2="294.686"/>
			
				<line style="fill:none;stroke:#000000;stroke-width:3;stroke-linecap:round;stroke-miterlimit:10;" x1="200.773" y1="165.345" x2="200.773" y2="173.834"/>
			
				<line style="fill:none;stroke:#000000;stroke-width:3;stroke-linecap:round;stroke-miterlimit:10;" x1="200.773" y1="180.178" x2="200.773" y2="184.423"/>
			
				<line style="fill:none;stroke:#000000;stroke-width:3;stroke-linecap:round;stroke-miterlimit:10;" x1="190.439" y1="191.264" x2="190.439" y2="279.853"/>
		</g>
		<g>
			
				<line style="fill:none;stroke:#000000;stroke-width:3;stroke-linecap:round;stroke-miterlimit:10;" x1="466.788" y1="385.621" x2="388.788" y2="385.621"/>
			
				<line style="fill:none;stroke:#000000;stroke-width:3;stroke-linecap:round;stroke-miterlimit:10;" x1="382.444" y1="385.621" x2="373.955" y2="385.621"/>
			
				<line style="fill:none;stroke:#000000;stroke-width:3;stroke-linecap:round;stroke-miterlimit:10;" x1="367.611" y1="385.621" x2="363.366" y2="385.621"/>
			
				<line style="fill:none;stroke:#000000;stroke-width:3;stroke-linecap:round;stroke-miterlimit:10;" x1="492.707" y1="385.621" x2="484.219" y2="385.621"/>
			
				<line style="fill:none;stroke:#000000;stroke-width:3;stroke-linecap:round;stroke-miterlimit:10;" x1="477.874" y1="385.621" x2="473.63" y2="385.621"/>
			
				<line style="fill:none;stroke:#000000;stroke-width:3;stroke-linecap:round;stroke-miterlimit:10;" x1="466.788" y1="375.287" x2="378.199" y2="375.287"/>
		</g>
		<g>
			
				<line style="fill:none;stroke:#000000;stroke-width:3;stroke-linecap:round;stroke-miterlimit:10;" x1="667.146" y1="644.167" x2="589.146" y2="644.167"/>
			
				<line style="fill:none;stroke:#000000;stroke-width:3;stroke-linecap:round;stroke-miterlimit:10;" x1="582.802" y1="644.167" x2="574.313" y2="644.167"/>
			
				<line style="fill:none;stroke:#000000;stroke-width:3;stroke-linecap:round;stroke-miterlimit:10;" x1="567.968" y1="644.167" x2="563.724" y2="644.167"/>
			
				<line style="fill:none;stroke:#000000;stroke-width:3;stroke-linecap:round;stroke-miterlimit:10;" x1="693.065" y1="644.167" x2="684.577" y2="644.167"/>
			
				<line style="fill:none;stroke:#000000;stroke-width:3;stroke-linecap:round;stroke-miterlimit:10;" x1="678.232" y1="644.167" x2="673.988" y2="644.167"/>
			
				<line style="fill:none;stroke:#000000;stroke-width:3;stroke-linecap:round;stroke-miterlimit:10;" x1="667.146" y1="633.833" x2="578.557" y2="633.833"/>
		</g>
		<g>
			
				<line style="fill:none;stroke:#000000;stroke-width:3;stroke-linecap:round;stroke-miterlimit:10;" x1="299.019" y1="446.966" x2="221.02" y2="446.966"/>
			
				<line style="fill:none;stroke:#000000;stroke-width:3;stroke-linecap:round;stroke-miterlimit:10;" x1="214.675" y1="446.966" x2="206.186" y2="446.966"/>
			
				<line style="fill:none;stroke:#000000;stroke-width:3;stroke-linecap:round;stroke-miterlimit:10;" x1="199.842" y1="446.966" x2="195.597" y2="446.966"/>
			
				<line style="fill:none;stroke:#000000;stroke-width:3;stroke-linecap:round;stroke-miterlimit:10;" x1="324.938" y1="446.966" x2="316.45" y2="446.966"/>
			
				<line style="fill:none;stroke:#000000;stroke-width:3;stroke-linecap:round;stroke-miterlimit:10;" x1="310.105" y1="446.966" x2="305.861" y2="446.966"/>
			
				<line style="fill:none;stroke:#000000;stroke-width:3;stroke-linecap:round;stroke-miterlimit:10;" x1="299.019" y1="436.633" x2="210.431" y2="436.633"/>
			
				<line style="fill:none;stroke:#000000;stroke-width:3;stroke-linecap:round;stroke-miterlimit:10;" x1="299.019" y1="458.737" x2="236.81" y2="458.737"/>
			
				<line style="fill:none;stroke:#000000;stroke-width:3;stroke-linecap:round;stroke-miterlimit:10;" x1="299.019" y1="471.883" x2="255.965" y2="471.883"/>
		</g>
		<g>
			
				<line style="fill:none;stroke:#000000;stroke-width:3;stroke-linecap:round;stroke-miterlimit:10;" x1="665.808" y1="260.401" x2="665.808" y2="338.401"/>
			
				<line style="fill:none;stroke:#000000;stroke-width:3;stroke-linecap:round;stroke-miterlimit:10;" x1="665.808" y1="344.745" x2="665.808" y2="353.234"/>
			
				<line style="fill:none;stroke:#000000;stroke-width:3;stroke-linecap:round;stroke-miterlimit:10;" x1="665.808" y1="359.579" x2="665.808" y2="363.823"/>
			
				<line style="fill:none;stroke:#000000;stroke-width:3;stroke-linecap:round;stroke-miterlimit:10;" x1="665.808" y1="234.482" x2="665.808" y2="242.97"/>
			
				<line style="fill:none;stroke:#000000;stroke-width:3;stroke-linecap:round;stroke-miterlimit:10;" x1="665.808" y1="249.315" x2="665.808" y2="253.559"/>
			
				<line style="fill:none;stroke:#000000;stroke-width:3;stroke-linecap:round;stroke-miterlimit:10;" x1="655.475" y1="260.401" x2="655.475" y2="348.99"/>
		</g>
		<g>
			
				<line style="fill:none;stroke:#000000;stroke-width:3;stroke-linecap:round;stroke-miterlimit:10;" x1="138.812" y1="181.857" x2="152.129" y2="195.174"/>
			
				<line style="fill:none;stroke:#000000;stroke-width:3;stroke-linecap:round;stroke-miterlimit:10;" x1="152.129" y1="181.857" x2="138.812" y2="195.174"/>
		</g>
		<g>
			
				<line style="fill:none;stroke:#000000;stroke-width:3;stroke-linecap:round;stroke-miterlimit:10;" x1="401.655" y1="338.299" x2="414.972" y2="351.617"/>
			
				<line style="fill:none;stroke:#000000;stroke-width:3;stroke-linecap:round;stroke-miterlimit:10;" x1="414.972" y1="338.299" x2="401.655" y2="351.617"/>
		</g>
		<g>
			
				<line style="fill:none;stroke:#000000;stroke-width:3;stroke-linecap:round;stroke-miterlimit:10;" x1="531.991" y1="633.833" x2="545.308" y2="647.151"/>
			
				<line style="fill:none;stroke:#000000;stroke-width:3;stroke-linecap:round;stroke-miterlimit:10;" x1="545.308" y1="633.833" x2="531.991" y2="647.151"/>
		</g>
		
			<circle style="fill:none;stroke:#000000;stroke-width:3;stroke-linecap:round;stroke-miterlimit:10;" cx="145.471" cy="227.447" r="6.699"/>
		
			<circle style="fill:none;stroke:#000000;stroke-width:3;stroke-linecap:round;stroke-miterlimit:10;" cx="627.649" cy="324.646" r="6.699"/>
		
			<circle style="fill:none;stroke:#000000;stroke-width:3;stroke-linecap:round;stroke-miterlimit:10;" cx="365.488" cy="460.969" r="6.699"/>
		<path style="fill:none;stroke:#000000;stroke-width:4;stroke-linecap:round;stroke-miterlimit:10;stroke-dasharray:0,9;" d="
			M401.655,165.345h52.828c21.111,0,38.225,17.114,38.225,38.225v20.066"/>
		<g>
			<path style="fill:#4CD0DC;" d="M641.724,173.321H560.01l-10.538-10.275h-28.739l10.538,10.275h9.66
				c-0.985,0-1.783,0.798-1.783,1.783v1.06c0,0.985,0.798,1.783,1.783,1.783h-9.66l-10.538,10.275h28.739l10.538-10.275h81.714
				c0.985,0,1.783-0.798,1.783-1.783v-1.06C643.508,174.119,642.709,173.321,641.724,173.321z"/>
			<path style="fill:none;stroke:#231F20;stroke-width:3;stroke-miterlimit:10;" d="M638.394,180.804v1.06
				c0,0.985-0.798,1.783-1.783,1.783H535.817c-0.985,0-1.783-0.798-1.783-1.783v-1.06c0-0.985,0.798-1.783,1.783-1.783h100.794
				C637.595,179.021,638.394,179.819,638.394,180.804z"/>
			<polygon style="fill:none;stroke:#231F20;stroke-width:3;stroke-miterlimit:10;" points="554.896,183.647 544.359,193.923 
				515.619,193.923 526.157,183.647 			"/>
			<polygon style="fill:none;stroke:#231F20;stroke-width:3;stroke-miterlimit:10;" points="554.896,179.021 544.359,168.746 
				515.619,168.746 526.157,179.021 			"/>
		</g>
		<g>
			<g>
				
					<line style="fill:none;stroke:#000000;stroke-width:3;stroke-linecap:round;stroke-miterlimit:10;" x1="380.405" y1="634.492" x2="393.723" y2="647.809"/>
				
					<line style="fill:none;stroke:#000000;stroke-width:3;stroke-linecap:round;stroke-miterlimit:10;" x1="393.723" y1="634.492" x2="380.405" y2="647.809"/>
			</g>
			<path style="fill:none;stroke:#000000;stroke-width:4;stroke-linecap:round;stroke-miterlimit:10;stroke-dasharray:0,9;" d="
				M206.186,479.485v110.243c0,28.4,23.023,51.423,51.423,51.423h119.643"/>
		</g>
		<path style="fill:none;stroke:#000000;stroke-width:4;stroke-linecap:round;stroke-miterlimit:10;stroke-dasharray:0,9;" d="
			M184.396,384.291h-25.573c-20.803,0-37.667-16.864-37.667-37.667V239.852"/>
	</g>
</g>
<g id="designed_by_freepik">
	<g>
		<g>
			<g>
				<path d="M288.492,764.343v-0.257c-0.349,0.398-0.692,0.724-1.031,0.973c-0.338,0.251-0.706,0.441-1.102,0.57
					c-0.396,0.132-0.827,0.195-1.296,0.195c-0.621,0-1.196-0.131-1.725-0.393c-0.528-0.263-0.986-0.639-1.372-1.126
					c-0.387-0.487-0.68-1.06-0.879-1.719c-0.199-0.659-0.299-1.371-0.299-2.137c0-1.621,0.396-2.886,1.188-3.791
					c0.792-0.904,1.833-1.357,3.125-1.357c0.747,0,1.377,0.129,1.89,0.384c0.513,0.257,1.013,0.652,1.501,1.183v-3.827
					c0-0.532,0.105-0.934,0.318-1.206c0.211-0.272,0.514-0.408,0.907-0.408c0.393,0,0.694,0.125,0.907,0.375
					c0.212,0.251,0.318,0.618,0.318,1.106v11.436c0,0.494-0.113,0.864-0.342,1.111c-0.228,0.246-0.522,0.37-0.883,0.37
					c-0.354,0-0.647-0.128-0.879-0.384C288.608,765.183,288.492,764.817,288.492,764.343z M283.392,760.534
					c0,0.703,0.109,1.301,0.328,1.795c0.219,0.494,0.518,0.866,0.898,1.115c0.38,0.251,0.795,0.377,1.244,0.377
					c0.456,0,0.872-0.119,1.25-0.357c0.376-0.236,0.677-0.602,0.902-1.091c0.225-0.491,0.337-1.105,0.337-1.839
					c0-0.69-0.112-1.284-0.337-1.782c-0.225-0.496-0.528-0.876-0.912-1.14c-0.383-0.262-0.803-0.393-1.258-0.393
					c-0.475,0-0.899,0.135-1.273,0.403c-0.374,0.269-0.663,0.654-0.869,1.158C283.494,759.285,283.392,759.869,283.392,760.534z"/>
				<path d="M299.926,761.19h-5.071c0.006,0.588,0.124,1.107,0.356,1.557c0.23,0.45,0.538,0.789,0.921,1.017
					c0.383,0.229,0.806,0.341,1.268,0.341c0.31,0,0.593-0.035,0.85-0.107c0.257-0.074,0.505-0.187,0.746-0.343
					c0.241-0.154,0.462-0.321,0.664-0.499c0.202-0.178,0.464-0.419,0.788-0.723c0.133-0.113,0.323-0.171,0.571-0.171
					c0.266,0,0.481,0.074,0.645,0.22c0.165,0.147,0.248,0.351,0.248,0.617c0,0.234-0.093,0.507-0.275,0.821
					c-0.185,0.313-0.462,0.614-0.832,0.902c-0.371,0.288-0.835,0.526-1.397,0.717c-0.56,0.19-1.204,0.285-1.933,0.285
					c-1.665,0-2.96-0.476-3.884-1.425c-0.924-0.949-1.386-2.238-1.386-3.865c0-0.767,0.113-1.478,0.341-2.132
					c0.228-0.656,0.561-1.218,0.997-1.686c0.437-0.469,0.975-0.827,1.615-1.078c0.639-0.25,1.349-0.374,2.127-0.374
					c1.013,0,1.882,0.212,2.606,0.641c0.726,0.427,1.27,0.979,1.63,1.656c0.36,0.678,0.542,1.369,0.542,2.07
					c0,0.653-0.187,1.075-0.56,1.269C301.13,761.093,300.604,761.19,299.926,761.19z M294.855,759.718h4.702
					c-0.063-0.887-0.303-1.551-0.717-1.99c-0.415-0.44-0.96-0.66-1.638-0.66c-0.646,0-1.177,0.223-1.591,0.669
					C295.195,758.183,294.944,758.844,294.855,759.718z"/>
				<path d="M311.741,762.433c0,0.716-0.173,1.329-0.523,1.839c-0.348,0.51-0.862,0.897-1.543,1.159
					c-0.68,0.263-1.508,0.393-2.483,0.393c-0.931,0-1.728-0.143-2.394-0.428c-0.665-0.284-1.156-0.642-1.472-1.067
					c-0.317-0.429-0.475-0.857-0.475-1.288c0-0.285,0.101-0.528,0.304-0.731c0.202-0.202,0.459-0.304,0.77-0.304
					c0.272,0,0.48,0.066,0.626,0.199c0.146,0.133,0.286,0.32,0.417,0.56c0.266,0.464,0.585,0.807,0.956,1.036
					c0.37,0.227,0.874,0.342,1.515,0.342c0.519,0,0.945-0.116,1.277-0.347c0.332-0.232,0.498-0.496,0.498-0.794
					c0-0.456-0.172-0.787-0.518-0.996c-0.345-0.209-0.914-0.409-1.705-0.6c-0.893-0.221-1.619-0.454-2.18-0.698
					c-0.561-0.242-1.008-0.564-1.344-0.963c-0.335-0.399-0.503-0.891-0.503-1.473c0-0.518,0.155-1.01,0.465-1.473
					c0.311-0.461,0.768-0.83,1.374-1.105c0.604-0.276,1.333-0.414,2.188-0.414c0.671,0,1.275,0.069,1.809,0.21
					c0.536,0.138,0.983,0.326,1.34,0.561c0.358,0.233,0.63,0.493,0.816,0.777c0.187,0.285,0.28,0.563,0.28,0.837
					c0,0.297-0.1,0.541-0.298,0.732c-0.199,0.188-0.482,0.285-0.85,0.285c-0.266,0-0.492-0.076-0.679-0.229
					c-0.186-0.151-0.4-0.379-0.641-0.683c-0.196-0.253-0.426-0.456-0.693-0.608c-0.266-0.152-0.627-0.227-1.083-0.227
					c-0.469,0-0.858,0.099-1.168,0.3c-0.31,0.198-0.465,0.446-0.465,0.744c0,0.273,0.114,0.496,0.341,0.67
					c0.229,0.175,0.535,0.319,0.922,0.433c0.386,0.113,0.917,0.252,1.596,0.417c0.803,0.197,1.46,0.432,1.97,0.703
					c0.509,0.271,0.896,0.594,1.16,0.965C311.61,761.536,311.741,761.958,311.741,762.433z"/>
				<path d="M314.39,754.076c-0.361,0-0.669-0.111-0.926-0.333c-0.256-0.221-0.385-0.534-0.385-0.941
					c0-0.368,0.131-0.669,0.394-0.907s0.569-0.356,0.917-0.356c0.336,0,0.633,0.107,0.893,0.323c0.26,0.216,0.39,0.528,0.39,0.94
					c0,0.399-0.127,0.711-0.381,0.936C315.039,753.963,314.738,754.076,314.39,754.076z M315.672,756.754v7.493
					c0,0.519-0.123,0.913-0.371,1.179c-0.247,0.266-0.56,0.398-0.94,0.398s-0.689-0.136-0.926-0.408
					c-0.238-0.273-0.356-0.662-0.356-1.169v-7.418c0-0.512,0.118-0.898,0.356-1.158c0.237-0.26,0.546-0.39,0.926-0.39
					s0.693,0.13,0.94,0.39C315.549,755.931,315.672,756.292,315.672,756.754z"/>
				<path d="M327.031,757.182v7.531c0,0.861-0.093,1.603-0.277,2.224c-0.182,0.619-0.477,1.133-0.883,1.538
					c-0.405,0.404-0.936,0.706-1.59,0.901c-0.655,0.197-1.471,0.295-2.446,0.295c-0.893,0-1.69-0.125-2.394-0.375
					c-0.702-0.251-1.243-0.573-1.624-0.969c-0.379-0.396-0.57-0.803-0.57-1.221c0-0.316,0.108-0.575,0.324-0.773
					c0.215-0.2,0.475-0.3,0.778-0.3c0.38,0,0.712,0.168,0.997,0.503c0.139,0.171,0.283,0.345,0.432,0.519
					c0.149,0.175,0.314,0.323,0.494,0.447c0.181,0.122,0.397,0.214,0.65,0.275c0.253,0.059,0.545,0.09,0.874,0.09
					c0.671,0,1.192-0.093,1.563-0.28c0.371-0.186,0.63-0.448,0.779-0.784c0.149-0.334,0.236-0.693,0.261-1.077
					c0.025-0.384,0.044-0.999,0.057-1.849c-0.399,0.559-0.859,0.983-1.382,1.274c-0.522,0.291-1.145,0.437-1.866,0.437
					c-0.868,0-1.626-0.222-2.275-0.665c-0.648-0.443-1.147-1.063-1.495-1.861c-0.349-0.799-0.522-1.719-0.522-2.764
					c0-0.778,0.105-1.482,0.317-2.108c0.213-0.628,0.515-1.156,0.907-1.587c0.393-0.431,0.845-0.755,1.358-0.974
					c0.513-0.218,1.076-0.327,1.691-0.327c0.734,0,1.371,0.142,1.909,0.422c0.538,0.283,1.039,0.725,1.501,1.326v-0.353
					c0-0.449,0.11-0.797,0.332-1.045c0.222-0.246,0.507-0.37,0.855-0.37c0.5,0,0.832,0.164,0.997,0.489
					C326.948,756.097,327.031,756.567,327.031,757.182z M319.518,760.468c0,1.051,0.229,1.846,0.688,2.384
					c0.459,0.539,1.053,0.808,1.781,0.808c0.43,0,0.837-0.116,1.22-0.347c0.384-0.232,0.695-0.58,0.937-1.045
					c0.24-0.466,0.361-1.03,0.361-1.695c0-1.057-0.233-1.881-0.698-2.469c-0.466-0.589-1.078-0.884-1.838-0.884
					c-0.741,0-1.334,0.282-1.78,0.846C319.741,758.628,319.518,759.43,319.518,760.468z"/>
				<path d="M331.152,756.716v0.313c0.455-0.602,0.954-1.043,1.496-1.325c0.541-0.281,1.163-0.423,1.866-0.423
					c0.684,0,1.295,0.15,1.833,0.447c0.538,0.298,0.941,0.719,1.206,1.262c0.172,0.317,0.282,0.66,0.333,1.026
					c0.051,0.368,0.077,0.836,0.077,1.406v4.824c0,0.519-0.119,0.913-0.357,1.179c-0.237,0.266-0.546,0.398-0.926,0.398
					c-0.387,0-0.7-0.136-0.94-0.408c-0.241-0.273-0.361-0.662-0.361-1.169v-4.321c0-0.854-0.119-1.509-0.357-1.961
					c-0.238-0.452-0.71-0.68-1.42-0.68c-0.461,0-0.883,0.138-1.263,0.413c-0.38,0.276-0.659,0.655-0.836,1.136
					c-0.127,0.387-0.19,1.107-0.19,2.165v3.248c0,0.525-0.123,0.921-0.365,1.184c-0.244,0.263-0.559,0.393-0.945,0.393
					c-0.375,0-0.681-0.136-0.922-0.408c-0.24-0.273-0.361-0.662-0.361-1.169v-7.493c0-0.494,0.107-0.863,0.323-1.107
					c0.215-0.243,0.51-0.365,0.883-0.365c0.229,0,0.435,0.054,0.619,0.162c0.183,0.108,0.331,0.269,0.441,0.483
					C331.097,756.143,331.152,756.406,331.152,756.716z"/>
				<path d="M346.926,761.19h-5.071c0.007,0.588,0.125,1.107,0.357,1.557c0.231,0.45,0.538,0.789,0.921,1.017
					c0.382,0.229,0.805,0.341,1.267,0.341c0.311,0,0.594-0.035,0.851-0.107c0.255-0.074,0.504-0.187,0.746-0.343
					c0.24-0.154,0.461-0.321,0.665-0.499c0.202-0.178,0.464-0.419,0.788-0.723c0.133-0.113,0.323-0.171,0.57-0.171
					c0.266,0,0.482,0.074,0.646,0.22c0.165,0.147,0.247,0.351,0.247,0.617c0,0.234-0.091,0.507-0.275,0.821
					c-0.184,0.313-0.461,0.614-0.831,0.902c-0.371,0.288-0.835,0.526-1.396,0.717c-0.561,0.19-1.205,0.285-1.933,0.285
					c-1.665,0-2.96-0.476-3.885-1.425c-0.923-0.949-1.386-2.238-1.386-3.865c0-0.767,0.114-1.478,0.342-2.132
					c0.228-0.656,0.561-1.218,0.998-1.686c0.437-0.469,0.975-0.827,1.614-1.078c0.639-0.25,1.349-0.374,2.128-0.374
					c1.013,0,1.881,0.212,2.606,0.641c0.726,0.427,1.269,0.979,1.63,1.656c0.36,0.678,0.542,1.369,0.542,2.07
					c0,0.653-0.186,1.075-0.56,1.269C348.13,761.093,347.605,761.19,346.926,761.19z M341.855,759.718h4.701
					c-0.063-0.887-0.302-1.551-0.717-1.99c-0.415-0.44-0.961-0.66-1.638-0.66c-0.646,0-1.177,0.223-1.592,0.669
					C342.194,758.183,341.944,758.844,341.855,759.718z"/>
				<path d="M357.496,764.343v-0.257c-0.348,0.398-0.691,0.724-1.03,0.973c-0.339,0.251-0.706,0.441-1.102,0.57
					c-0.395,0.132-0.828,0.195-1.296,0.195c-0.622,0-1.196-0.131-1.724-0.393c-0.529-0.263-0.986-0.639-1.373-1.126
					c-0.387-0.487-0.679-1.06-0.878-1.719c-0.2-0.659-0.299-1.371-0.299-2.137c0-1.621,0.396-2.886,1.187-3.791
					c0.791-0.904,1.833-1.357,3.125-1.357c0.747,0,1.377,0.129,1.89,0.384c0.513,0.257,1.013,0.652,1.5,1.183v-3.827
					c0-0.532,0.106-0.934,0.319-1.206c0.211-0.272,0.515-0.408,0.907-0.408c0.392,0,0.694,0.125,0.907,0.375
					c0.212,0.251,0.318,0.618,0.318,1.106v11.436c0,0.494-0.114,0.864-0.342,1.111c-0.228,0.246-0.522,0.37-0.883,0.37
					c-0.354,0-0.647-0.128-0.879-0.384C357.612,765.183,357.496,764.817,357.496,764.343z M352.397,760.534
					c0,0.703,0.108,1.301,0.327,1.795c0.218,0.494,0.518,0.866,0.898,1.115c0.379,0.251,0.794,0.377,1.243,0.377
					c0.457,0,0.873-0.119,1.249-0.357c0.377-0.236,0.678-0.602,0.902-1.091c0.225-0.491,0.337-1.105,0.337-1.839
					c0-0.69-0.112-1.284-0.337-1.782c-0.224-0.496-0.528-0.876-0.912-1.14c-0.384-0.262-0.803-0.393-1.259-0.393
					c-0.474,0-0.899,0.135-1.272,0.403c-0.373,0.269-0.663,0.654-0.869,1.158C352.499,759.285,352.397,759.869,352.397,760.534z"/>
				<path d="M368.094,752.907v3.96c0.487-0.506,0.984-0.895,1.491-1.163c0.506-0.269,1.134-0.403,1.881-0.403
					c0.861,0,1.616,0.204,2.266,0.611c0.648,0.41,1.151,1.002,1.51,1.777c0.357,0.775,0.537,1.695,0.537,2.76
					c0,0.785-0.1,1.504-0.299,2.16c-0.2,0.655-0.49,1.224-0.869,1.704c-0.38,0.481-0.841,0.855-1.382,1.117
					c-0.542,0.263-1.139,0.393-1.79,0.393c-0.4,0-0.775-0.047-1.126-0.143c-0.352-0.095-0.651-0.219-0.898-0.375
					c-0.246-0.154-0.457-0.314-0.631-0.479c-0.174-0.164-0.404-0.412-0.689-0.741v0.257c0,0.487-0.117,0.856-0.352,1.107
					c-0.233,0.25-0.531,0.374-0.893,0.374c-0.367,0-0.66-0.124-0.878-0.374c-0.219-0.251-0.328-0.62-0.328-1.107v-11.322
					c0-0.525,0.106-0.923,0.317-1.191c0.212-0.269,0.509-0.403,0.889-0.403c0.399,0,0.706,0.128,0.921,0.384
					C367.986,752.067,368.094,752.432,368.094,752.907z M368.218,760.61c0,1.032,0.236,1.824,0.708,2.378
					c0.472,0.555,1.091,0.833,1.857,0.833c0.652,0,1.214-0.283,1.685-0.851c0.472-0.567,0.708-1.379,0.708-2.437
					c0-0.684-0.097-1.273-0.294-1.767c-0.197-0.494-0.475-0.876-0.835-1.145c-0.361-0.268-0.783-0.403-1.264-0.403
					c-0.494,0-0.935,0.135-1.32,0.403c-0.386,0.269-0.69,0.658-0.912,1.168C368.329,759.3,368.218,759.907,368.218,760.61z"/>
				<path d="M379.14,766.148l0.237-0.58l-3.191-8.035c-0.196-0.461-0.295-0.798-0.295-1.007c0-0.222,0.058-0.427,0.171-0.616
					c0.114-0.19,0.271-0.343,0.47-0.456c0.2-0.115,0.407-0.172,0.622-0.172c0.373,0,0.655,0.119,0.846,0.357
					c0.19,0.237,0.357,0.577,0.503,1.021l2.194,6.383l2.08-5.937c0.164-0.479,0.313-0.857,0.446-1.13
					c0.133-0.273,0.273-0.456,0.422-0.55c0.148-0.096,0.359-0.144,0.632-0.144c0.197,0,0.385,0.052,0.565,0.157
					c0.18,0.105,0.319,0.245,0.417,0.423c0.098,0.177,0.148,0.363,0.148,0.56c-0.026,0.12-0.066,0.291-0.124,0.514
					c-0.058,0.221-0.126,0.447-0.209,0.674l-3.381,8.852c-0.292,0.778-0.577,1.389-0.855,1.832
					c-0.279,0.443-0.647,0.785-1.106,1.021c-0.459,0.238-1.078,0.357-1.857,0.357c-0.759,0-1.33-0.082-1.708-0.246
					c-0.381-0.166-0.57-0.467-0.57-0.903c0-0.297,0.089-0.527,0.271-0.688c0.18-0.161,0.448-0.243,0.801-0.243
					c0.14,0,0.276,0.02,0.409,0.059c0.165,0.037,0.307,0.057,0.427,0.057c0.297,0,0.532-0.044,0.704-0.134
					c0.17-0.088,0.324-0.241,0.461-0.461C378.806,766.893,378.963,766.571,379.14,766.148z"/>
			</g>
			<g>
				<path d="M416.703,755.506h0.618v-0.778c0-0.814,0.1-1.457,0.307-1.938c0.204-0.478,0.556-0.826,1.047-1.045
					c0.49-0.217,1.163-0.326,2.017-0.326c1.52,0,2.272,0.367,2.272,1.114c0,0.238-0.079,0.444-0.24,0.615
					c-0.154,0.169-0.343,0.256-0.558,0.256c-0.1,0-0.278-0.019-0.527-0.06c-0.237-0.033-0.452-0.056-0.623-0.056
					c-0.468,0-0.767,0.141-0.905,0.415c-0.127,0.275-0.195,0.669-0.195,1.185v0.617h0.633c0.991,0,1.481,0.297,1.481,0.896
					c0,0.419-0.127,0.69-0.393,0.805c-0.262,0.114-0.624,0.171-1.089,0.171h-0.633v6.871c0,0.511-0.12,0.9-0.369,1.168
					c-0.241,0.272-0.554,0.406-0.942,0.406c-0.367,0-0.671-0.134-0.918-0.406c-0.244-0.268-0.364-0.657-0.364-1.168v-6.871h-0.714
					c-0.389,0-0.683-0.084-0.893-0.262c-0.209-0.171-0.315-0.399-0.315-0.678C415.399,755.813,415.834,755.506,416.703,755.506"/>
				<path d="M425.192,762.08v2.168c0,0.523-0.133,0.919-0.374,1.18c-0.247,0.266-0.559,0.395-0.938,0.395
					c-0.382,0-0.688-0.131-0.927-0.4c-0.236-0.264-0.36-0.656-0.36-1.174v-7.223c0-1.166,0.42-1.749,1.261-1.749
					c0.434,0,0.743,0.135,0.934,0.408c0.19,0.273,0.295,0.674,0.317,1.208c0.308-0.534,0.624-0.935,0.948-1.208
					c0.332-0.274,0.763-0.408,1.31-0.408c0.549,0,1.072,0.135,1.585,0.408c0.516,0.273,0.771,0.637,0.771,1.085
					c0,0.314-0.11,0.58-0.326,0.781c-0.22,0.209-0.454,0.312-0.706,0.312c-0.1,0-0.331-0.063-0.692-0.18
					c-0.365-0.113-0.688-0.173-0.963-0.173c-0.38,0-0.692,0.102-0.932,0.298c-0.242,0.205-0.431,0.497-0.564,0.887
					c-0.129,0.395-0.219,0.865-0.272,1.404C425.215,760.641,425.192,761.302,425.192,762.08"/>
				<path d="M437.113,761.188h-5.074c0.009,0.588,0.124,1.11,0.354,1.559c0.235,0.446,0.54,0.786,0.925,1.017
					c0.385,0.227,0.804,0.34,1.268,0.34c0.311,0,0.593-0.033,0.85-0.111c0.254-0.069,0.505-0.185,0.745-0.341
					c0.242-0.152,0.46-0.318,0.664-0.5c0.202-0.175,0.467-0.416,0.79-0.719c0.135-0.113,0.324-0.174,0.568-0.174
					c0.269,0,0.482,0.074,0.649,0.222c0.166,0.147,0.243,0.351,0.243,0.617c0,0.235-0.089,0.508-0.268,0.819
					c-0.188,0.317-0.463,0.616-0.836,0.906c-0.374,0.285-0.839,0.527-1.397,0.714c-0.56,0.191-1.206,0.286-1.932,0.286
					c-1.671,0-2.964-0.473-3.887-1.422c-0.924-0.952-1.392-2.242-1.392-3.868c0-0.767,0.117-1.479,0.348-2.135
					c0.225-0.658,0.558-1.216,0.999-1.688c0.436-0.471,0.97-0.828,1.612-1.078c0.638-0.249,1.347-0.374,2.128-0.374
					c1.011,0,1.881,0.214,2.606,0.646c0.724,0.423,1.273,0.977,1.629,1.654c0.361,0.681,0.542,1.368,0.542,2.074
					c0,0.648-0.189,1.07-0.561,1.266C438.315,761.091,437.791,761.188,437.113,761.188 M432.039,759.713h4.701
					c-0.063-0.885-0.298-1.55-0.714-1.986c-0.418-0.442-0.959-0.66-1.641-0.66c-0.646,0-1.177,0.22-1.592,0.669
					C432.38,758.182,432.126,758.84,432.039,759.713"/>
				<path d="M447.9,761.188h-5.073c0.006,0.588,0.125,1.11,0.355,1.559c0.231,0.446,0.539,0.786,0.921,1.017
					c0.383,0.227,0.806,0.34,1.271,0.34c0.308,0,0.593-0.033,0.845-0.111c0.259-0.069,0.506-0.185,0.75-0.341
					c0.242-0.152,0.46-0.318,0.664-0.5c0.199-0.175,0.464-0.416,0.788-0.719c0.135-0.113,0.326-0.174,0.568-0.174
					c0.268,0,0.483,0.074,0.65,0.222c0.165,0.147,0.24,0.351,0.24,0.617c0,0.235-0.087,0.508-0.273,0.819
					c-0.177,0.317-0.455,0.616-0.83,0.906c-0.37,0.285-0.84,0.527-1.396,0.714c-0.558,0.191-1.208,0.286-1.935,0.286
					c-1.667,0-2.959-0.473-3.887-1.422c-0.924-0.952-1.389-2.242-1.389-3.868c0-0.767,0.116-1.479,0.348-2.135
					c0.227-0.658,0.559-1.216,0.996-1.688c0.436-0.471,0.973-0.828,1.614-1.078c0.638-0.249,1.351-0.374,2.129-0.374
					c1.009,0,1.878,0.214,2.613,0.646c0.72,0.423,1.266,0.977,1.621,1.654c0.359,0.681,0.545,1.368,0.545,2.074
					c0,0.648-0.191,1.07-0.561,1.266C449.1,761.091,448.576,761.188,447.9,761.188 M442.827,759.713h4.701
					c-0.063-0.885-0.304-1.55-0.715-1.986c-0.421-0.442-0.962-0.66-1.643-0.66c-0.646,0-1.176,0.22-1.593,0.669
					C443.165,758.182,442.911,758.84,442.827,759.713"/>
				<path d="M453.58,756.735v0.311c0.486-0.601,0.994-1.042,1.524-1.324c0.519-0.284,1.118-0.427,1.782-0.427
					c0.795,0,1.535,0.208,2.207,0.617c0.671,0.414,1.198,1.016,1.589,1.807c0.39,0.795,0.586,1.729,0.586,2.814
					c0,0.796-0.112,1.531-0.336,2.201c-0.224,0.668-0.537,1.227-0.929,1.68c-0.394,0.45-0.855,0.802-1.39,1.046
					c-0.542,0.241-1.111,0.363-1.728,0.363c-0.738,0-1.364-0.148-1.865-0.447c-0.503-0.292-0.982-0.733-1.441-1.306v3.893
					c0,1.136-0.416,1.71-1.244,1.71c-0.49,0-0.809-0.146-0.972-0.439c-0.151-0.299-0.233-0.724-0.233-1.291v-11.193
					c0-0.495,0.106-0.859,0.32-1.107c0.215-0.239,0.512-0.364,0.885-0.364c0.369,0,0.666,0.125,0.896,0.374
					C453.467,755.904,453.58,756.261,453.58,756.735 M458.664,760.503c0-0.685-0.107-1.273-0.315-1.763
					c-0.209-0.492-0.499-0.867-0.866-1.128c-0.367-0.263-0.782-0.396-1.232-0.396c-0.714,0-1.318,0.284-1.809,0.844
					c-0.492,0.566-0.739,1.395-0.739,2.493c0,1.026,0.244,1.833,0.735,2.406c0.487,0.573,1.086,0.858,1.813,0.858
					c0.429,0,0.83-0.126,1.197-0.372c0.371-0.253,0.665-0.627,0.884-1.127C458.553,761.816,458.664,761.211,458.664,760.503"/>
				<path d="M463.88,754.069c-0.362,0-0.669-0.114-0.923-0.335c-0.26-0.223-0.388-0.532-0.388-0.937c0-0.368,0.131-0.67,0.396-0.91
					c0.262-0.234,0.566-0.355,0.914-0.355c0.34,0,0.636,0.106,0.894,0.319c0.26,0.219,0.391,0.534,0.391,0.946
					c0,0.4-0.127,0.711-0.378,0.936C464.532,753.955,464.231,754.069,463.88,754.069 M465.164,756.748v7.502
					c0,0.516-0.124,0.908-0.37,1.172c-0.25,0.27-0.561,0.4-0.941,0.4c-0.381,0-0.685-0.134-0.928-0.406
					c-0.233-0.276-0.355-0.665-0.355-1.166v-7.428c0-0.51,0.122-0.895,0.355-1.154c0.243-0.265,0.547-0.392,0.928-0.392
					c0.381,0,0.691,0.127,0.941,0.392C465.04,755.928,465.164,756.29,465.164,756.748"/>
				<path d="M473.523,764.639l-2.284-3.766l-1.408,1.328v2.065c0,0.499-0.133,0.882-0.396,1.149
					c-0.257,0.272-0.566,0.406-0.906,0.406c-0.398,0-0.715-0.131-0.94-0.4c-0.227-0.264-0.344-0.656-0.344-1.174v-11.063
					c0-0.573,0.114-1.011,0.331-1.314c0.223-0.305,0.545-0.452,0.953-0.452c0.4,0,0.713,0.137,0.949,0.411
					c0.234,0.271,0.353,0.674,0.353,1.202v6.293l2.916-3.063c0.362-0.376,0.633-0.641,0.827-0.778
					c0.19-0.139,0.419-0.208,0.69-0.208c0.326,0,0.594,0.103,0.815,0.309c0.211,0.206,0.32,0.466,0.32,0.773
					c0,0.379-0.353,0.889-1.055,1.521l-1.377,1.263l2.659,4.183c0.193,0.313,0.339,0.544,0.424,0.706
					c0.084,0.159,0.13,0.319,0.13,0.462c0,0.413-0.114,0.734-0.341,0.975c-0.225,0.236-0.523,0.354-0.886,0.354
					c-0.316,0-0.564-0.081-0.733-0.256C474.051,765.393,473.813,765.083,473.523,764.639"/>
				<path d="M479.159,765.822c-0.392,0-0.727-0.126-1.014-0.381c-0.284-0.249-0.429-0.606-0.429-1.065
					c0-0.386,0.138-0.719,0.41-0.995c0.274-0.279,0.607-0.419,1.008-0.419c0.397,0,0.735,0.14,1.022,0.412
					c0.279,0.275,0.422,0.612,0.422,1.002c0,0.452-0.143,0.808-0.422,1.06C479.87,765.696,479.538,765.822,479.159,765.822"/>
				<path d="M492.057,762.612c0,0.32-0.097,0.668-0.291,1.034c-0.191,0.37-0.488,0.718-0.886,1.05
					c-0.395,0.332-0.892,0.603-1.495,0.804c-0.601,0.202-1.28,0.307-2.03,0.307c-1.607,0-2.858-0.47-3.758-1.401
					c-0.896-0.936-1.346-2.189-1.346-3.76c0-1.067,0.204-2.006,0.619-2.824c0.407-0.815,1.004-1.447,1.781-1.894
					c0.779-0.448,1.716-0.67,2.794-0.67c0.674,0,1.288,0.098,1.853,0.295c0.561,0.195,1.032,0.451,1.425,0.759
					c0.387,0.314,0.685,0.644,0.89,0.992c0.207,0.352,0.308,0.681,0.308,0.987c0,0.308-0.113,0.571-0.343,0.787
					c-0.235,0.215-0.516,0.324-0.839,0.324c-0.219,0-0.397-0.057-0.541-0.166c-0.144-0.112-0.305-0.29-0.479-0.542
					c-0.317-0.478-0.646-0.842-0.996-1.079c-0.343-0.243-0.78-0.362-1.314-0.362c-0.762,0-1.384,0.298-1.853,0.897
					c-0.468,0.596-0.703,1.42-0.703,2.454c0,0.488,0.063,0.939,0.183,1.348c0.117,0.407,0.291,0.756,0.521,1.044
					c0.23,0.287,0.504,0.505,0.826,0.654c0.324,0.153,0.681,0.226,1.064,0.226c0.522,0,0.967-0.12,1.337-0.36
					c0.376-0.241,0.702-0.607,0.986-1.103c0.158-0.291,0.327-0.518,0.509-0.684c0.183-0.163,0.409-0.249,0.676-0.249
					c0.316,0,0.58,0.123,0.786,0.362C491.951,762.083,492.057,762.342,492.057,762.612"/>
				<path d="M503.248,760.552c0,0.769-0.122,1.484-0.355,2.139c-0.247,0.652-0.592,1.213-1.05,1.679
					c-0.455,0.469-1.002,0.828-1.632,1.08c-0.64,0.247-1.35,0.375-2.139,0.375c-0.785,0-1.493-0.128-2.121-0.383
					c-0.623-0.249-1.171-0.614-1.626-1.082c-0.461-0.477-0.809-1.034-1.052-1.677c-0.229-0.643-0.351-1.354-0.351-2.131
					c0-0.786,0.124-1.506,0.358-2.158c0.242-0.654,0.589-1.212,1.039-1.673c0.451-0.462,0.993-0.817,1.631-1.07
					c0.643-0.249,1.35-0.374,2.121-0.374c0.784,0,1.498,0.125,2.139,0.382c0.638,0.251,1.183,0.614,1.643,1.079
					c0.458,0.475,0.803,1.029,1.04,1.672C503.128,759.06,503.248,759.77,503.248,760.552 M500.644,760.552
					c0-1.059-0.234-1.881-0.698-2.469c-0.463-0.596-1.09-0.888-1.874-0.888c-0.508,0-0.955,0.132-1.343,0.394
					c-0.387,0.262-0.681,0.649-0.89,1.164c-0.209,0.514-0.316,1.113-0.316,1.799c0,0.679,0.103,1.267,0.31,1.773
					c0.208,0.511,0.502,0.897,0.886,1.166c0.386,0.267,0.835,0.404,1.353,0.404c0.784,0,1.411-0.296,1.874-0.892
					C500.41,762.413,500.644,761.593,500.644,760.552"/>
				<path d="M513.14,760.742v3.446c0,0.547-0.12,0.951-0.369,1.228c-0.25,0.272-0.571,0.408-0.977,0.408
					c-0.393,0-0.714-0.136-0.951-0.408c-0.247-0.276-0.372-0.681-0.372-1.228v-4.131c0-0.653-0.021-1.162-0.063-1.524
					c-0.046-0.354-0.168-0.655-0.362-0.883c-0.196-0.235-0.509-0.352-0.931-0.352c-0.851,0-1.407,0.29-1.677,0.881
					c-0.267,0.576-0.406,1.413-0.406,2.507v3.502c0,0.538-0.122,0.946-0.361,1.224c-0.249,0.273-0.567,0.412-0.965,0.412
					c-0.396,0-0.717-0.139-0.967-0.412c-0.252-0.277-0.376-0.685-0.376-1.224v-7.419c0-0.489,0.111-0.86,0.335-1.111
					c0.229-0.257,0.526-0.382,0.89-0.382c0.356,0,0.651,0.123,0.892,0.355c0.236,0.238,0.354,0.566,0.354,0.984v0.245
					c0.453-0.535,0.935-0.932,1.444-1.181c0.517-0.26,1.082-0.386,1.713-0.386c0.651,0,1.211,0.131,1.678,0.39
					c0.47,0.261,0.853,0.655,1.16,1.177c0.439-0.528,0.909-0.923,1.41-1.181c0.5-0.257,1.053-0.386,1.662-0.386
					c0.706,0,1.321,0.143,1.834,0.419c0.51,0.278,0.893,0.68,1.148,1.195c0.221,0.473,0.33,1.21,0.33,2.217v5.063
					c0,0.547-0.122,0.951-0.367,1.228c-0.246,0.272-0.575,0.408-0.979,0.408c-0.395,0-0.714-0.139-0.965-0.412
					c-0.25-0.277-0.376-0.685-0.376-1.224v-4.361c0-0.559-0.023-1.003-0.069-1.338c-0.047-0.337-0.177-0.62-0.383-0.847
					c-0.212-0.228-0.53-0.344-0.953-0.344c-0.342,0-0.666,0.106-0.974,0.308c-0.307,0.198-0.547,0.477-0.721,0.813
					C513.238,758.857,513.14,759.632,513.14,760.742"/>
			</g>
			<g>
				<path d="M392.435,759.924c-0.002-0.005-0.002-0.01-0.002-0.018C392.433,759.914,392.433,759.919,392.435,759.924z"/>
				<path d="M392.566,760.753c0.002,0,0.002,0,0.003,0c-0.05-0.236-0.088-0.471-0.119-0.702
					C392.48,760.284,392.519,760.52,392.566,760.753z"/>
				<path d="M393.424,763.159c-0.006-0.01-0.011-0.021-0.017-0.033C393.414,763.138,393.418,763.149,393.424,763.159z"/>
				<path d="M393.342,762.999c-0.022-0.044-0.044-0.09-0.065-0.134C393.298,762.912,393.32,762.955,393.342,762.999z"/>
				<path d="M392.807,761.68c0.127,0.4,0.28,0.788,0.457,1.158c-0.18-0.378-0.33-0.767-0.454-1.158
					C392.81,761.68,392.808,761.68,392.807,761.68z"/>
				<path d="M402.473,749.987c0.501,0,0.871,0.04,1.295,0.111l0.12-0.763c0,0-1.171-0.36-2.71-0.234l-0.121-0.415
					c0.479-0.101,0.838-0.526,0.838-1.034c0-0.582-0.474-1.054-1.057-1.054c-0.583,0-1.056,0.472-1.056,1.054
					c0,0.508,0.358,0.934,0.836,1.034l0.134,0.463c-1.634,0.225-2.935,0.862-2.935,0.862l0.23,0.705
					c0.989-0.329,1.846-0.529,2.624-0.613C401.432,750.023,402.005,749.987,402.473,749.987z"/>
				<path d="M393.405,753.846l0.006-0.008c0.038-0.05,0.076-0.097,0.113-0.143l-0.313-0.226l-0.488-0.356
					c-0.027,0.038-0.795,0.744-1.401,2.048c-0.025-0.041-0.056-0.081-0.09-0.119c-0.182-0.198-0.436-0.3-0.758-0.294
					c-0.004,0-0.009,0-0.015,0c-0.2,0-0.337-0.066-0.427-0.147c0.089-0.113,0.143-0.256,0.143-0.413c0-0.368-0.3-0.669-0.669-0.669
					c-0.369,0-0.668,0.301-0.668,0.669c0,0.37,0.3,0.669,0.668,0.669c0.058,0,0.113-0.01,0.167-0.021
					c0.164,0.183,0.425,0.342,0.808,0.334c0.197-0.002,0.341,0.049,0.438,0.155c0.111,0.121,0.148,0.296,0.16,0.428
					c-0.001,0.002-0.001,0.005-0.003,0.005c-0.436,1.19-0.311,2.67-0.311,2.67l1.057,0.042c0.021-0.539,0.099-1.482,0.372-2.23
					C392.719,754.79,393.378,753.884,393.405,753.846z"/>
				<path d="M411.672,750.871c-0.368,0-0.669,0.299-0.669,0.669c0,0.058,0.009,0.112,0.023,0.165
					c-0.184,0.166-0.343,0.428-0.337,0.811c0.003,0.197-0.048,0.34-0.154,0.436c-0.085,0.075-0.191,0.115-0.296,0.141
					c-0.787-1.103-1.756-1.775-1.756-1.775l-0.759,0.814c0.573,0.521,1.159,1.175,1.728,1.99c0.394,0.564,0.799,1.29,1.136,2.015
					l1.024-0.486c0,0-0.468-1.155-1.126-2.191c0.114-0.04,0.229-0.102,0.331-0.192c0.2-0.181,0.299-0.437,0.293-0.758
					c-0.002-0.208,0.066-0.349,0.148-0.441c0.114,0.087,0.257,0.143,0.412,0.143c0.371,0,0.67-0.3,0.67-0.669
					C412.342,751.17,412.043,750.871,411.672,750.871z"/>
				<path d="M409.015,760.073c-1.409,0.687-3.729,1.594-6.781,2.02c-1.198,0.166-2.359,0.228-3.428,0.228
					c-1.391,0-2.62-0.104-3.563-0.223c-1.076-0.136-1.918-0.302-2.432-0.418c0.123,0.392,0.273,0.78,0.454,1.158
					c0.003,0.01,0.008,0.021,0.013,0.027c0.022,0.044,0.043,0.09,0.065,0.134c0.022,0.044,0.043,0.087,0.065,0.127
					c0.006,0.012,0.011,0.023,0.017,0.033c0.303,0.57,0.667,1.095,1.081,1.549c1.44,1.575,2.907,1.824,2.921,1.826l0.023,0.003
					l0.021,0.008c0.013,0.005,1.314,0.425,3.292,0.425c1.945,0,3.854-0.393,5.674-1.167c1.348-0.689,2.622-1.736,3.254-2.67
					c0.488-0.723,0.841-1.493,1.05-2.294c0.111-0.426,0.199-1.108,0.147-1.825C410.49,759.28,409.863,759.66,409.015,760.073z"/>
				<path d="M393.857,754.18c-0.041,0.06-0.652,0.925-1.135,2.253c-0.362,0.995-0.346,2.443-0.346,2.46v0.003
					c0,0.34,0.019,0.677,0.057,1.011c0,0.008,0,0.013,0.002,0.018c0.004,0.043,0.011,0.084,0.015,0.127
					c0.03,0.231,0.069,0.466,0.119,0.702c0.7,0.178,4.878,1.152,9.548,0.502c2.927-0.407,5.149-1.272,6.499-1.927
					c1.121-0.544,1.842-1.036,2.12-1.238c-0.277-1.028-1.042-2.641-1.743-3.646c-2.005-2.865-4.167-3.601-5.277-3.783
					c-0.424-0.069-0.763-0.109-1.243-0.109c-0.447,0-1.002,0.036-1.743,0.114c-0.743,0.077-1.572,0.273-2.532,0.596
					c-1.348,0.451-2.567,1.159-3.527,2.048l-0.033,0.03C394.496,753.47,394.199,753.745,393.857,754.18z M406.127,753.513
					c0.961,0,1.743,0.781,1.743,1.743c0,0.962-0.782,1.744-1.743,1.744c-0.962,0-1.742-0.782-1.742-1.744
					C404.385,754.294,405.165,753.513,406.127,753.513z M397.885,753.443c1.557,0,2.817,1.262,2.817,2.817
					c0,1.556-1.26,2.815-2.817,2.815c-1.555,0-2.816-1.259-2.816-2.815C395.069,754.705,396.331,753.443,397.885,753.443z"/>
			</g>
		</g>
	</g>
</g>
</svg>
