<?xml version="1.0" encoding="utf-8"?>
<!-- Generator: Adobe Illustrator 27.5.0, SVG Export Plug-In . SVG Version: 6.00 Build 0)  -->
<svg version="1.1" xmlns="http://www.w3.org/2000/svg" xmlns:xlink="http://www.w3.org/1999/xlink" x="0px" y="0px"
	 viewBox="0 0 500 500" style="enable-background:new 0 0 500 500;" xml:space="preserve">
<g id="BACKGROUND">
	<rect style="fill:#FFFFFF;" width="500" height="500"/>
</g>
<g id="OBJECTS">
	<g>
		<g>
			<g>
				<path style="fill:#B7D7D9;" d="M90.315,141.7c-33.231,20.533-52.632,31.005-50.252,60.519
					c2.003,24.844,24.351,34.363,46.234,79.023c18.344,37.437-17.815,60.281-5.418,101.934c8.491,28.53,32.266,43.135,61.136,47.211
					c39.142,5.526,60.949-9.397,98.959-20.257c56.35-16.1,69.183-22.428,121.853-4.871c51.424,17.141,93.685-29.397,97.209-62.87
					c3.639-34.568-5.606-57.464-23.108-83.044c-15.561-22.743-25.934-38.493-26.247-65.308c-0.431-36.907,14.555-48.976,8.35-78.228
					c-6.842-32.254-34.219-49.533-49.196-53.106c-58.285-13.902-91.77,29.457-132.583,28.53c-44.051-1-66.709-43.828-104.281-29.432
					S128.43,118.149,90.315,141.7z"/>
			</g>
			<path style="fill:none;stroke:#B7D7D9;stroke-width:0.9834;stroke-miterlimit:10;" d="M103.188,141.788
				c-33.429,18.926-52.888,28.486-51.661,57.578c1.033,24.489,22.635,34.685,42.458,79.396c16.617,37.48-19.777,58.566-9.163,99.965
				c7.27,28.356,30.083,43.603,58.3,48.695c38.256,6.904,60.248-6.939,98.008-16.179c55.98-13.699,68.83-19.434,119.926-0.198
				c49.888,18.781,93.17-25.36,97.893-58.121c4.878-33.832-3.345-56.68-19.58-82.476c-14.435-22.935-24.035-38.803-23.333-65.166
				c0.967-36.284,16.147-47.58,11.151-76.559c-5.509-31.953-31.761-49.964-46.344-54.039
				c-56.752-15.856-91.29,25.491-131.362,23.043c-43.25-2.642-63.903-45.581-101.367-32.849
				C110.65,77.61,141.53,120.08,103.188,141.788z"/>
			<path style="fill:none;stroke:#B7D7D9;stroke-width:0.9834;stroke-miterlimit:10;" d="M82.612,165.632
				c-30.284,23.635-48.126,35.951-42.635,64.547c4.622,24.071,27.489,30.981,53.668,72.291
				c21.946,34.63-10.952,60.837,5.632,100.226c11.359,26.979,36.166,38.707,64.825,39.596c38.856,1.205,58.573-15.721,94.565-30.412
				c53.358-21.78,65.225-29.342,118.594-17.826c52.108,11.243,88.43-38.781,88.285-71.881
				c-0.149-34.182-11.641-55.573-31.492-78.702c-17.65-20.564-29.478-34.848-32.659-61.027c-4.378-36.032,8.977-49.437-0.225-77.367
				c-10.146-30.797-38.761-44.752-53.785-46.639c-58.467-7.34-86.551,38.635-126.547,42.104
				c-43.169,3.745-69.91-35.692-105.095-17.59S117.346,138.524,82.612,165.632z"/>
			<ellipse style="fill:#B7D7D9;" cx="437.686" cy="126.641" rx="13.22" ry="20.178"/>
			<circle style="fill:#B7D7D9;" cx="423.77" cy="93.243" r="3.479"/>
			
				<ellipse transform="matrix(0.3827 -0.9239 0.9239 0.3827 -176.736 551.9149)" style="fill:#B7D7D9;" cx="324.648" cy="408.215" rx="14.226" ry="25.359"/>
			<path style="fill:#B7D7D9;" d="M90.847,303.758c6.196,4.831,4.237,17.701-4.375,28.746
				c-8.612,11.045-20.616,16.082-26.812,11.251c-6.196-4.831-4.237-17.701,4.375-28.746
				C72.646,303.964,84.651,298.927,90.847,303.758z"/>
			<path style="fill:#B7D7D9;" d="M454.01,147.543c0,1.419-1.151,2.57-2.57,2.57c-1.419,0-2.57-1.151-2.57-2.57
				c0-1.419,1.151-2.57,2.57-2.57C452.859,144.973,454.01,146.123,454.01,147.543z"/>
			<circle style="fill:#B7D7D9;" cx="288.226" cy="414.221" r="7.134"/>
			<path style="fill:#B7D7D9;" d="M313.572,427.176c0,2.385-1.933,4.318-4.318,4.318c-2.385,0-4.318-1.933-4.318-4.318
				c0-2.385,1.933-4.318,4.318-4.318C311.639,422.858,313.572,424.791,313.572,427.176z"/>
			<circle style="fill:#B7D7D9;" cx="64.871" cy="292.138" r="9.65"/>
			<path style="fill:#B7D7D9;" d="M45.781,315.633c0,0.811-0.658,1.469-1.469,1.469s-1.468-0.658-1.468-1.469
				s0.657-1.468,1.468-1.468S45.781,314.822,45.781,315.633z"/>
			<path style="fill:#B7D7D9;" d="M40.746,288.782c0,1.738-1.409,3.147-3.147,3.147c-1.738,0-3.147-1.409-3.147-3.147
				c0-1.738,1.409-3.147,3.147-3.147C39.338,285.635,40.746,287.044,40.746,288.782z"/>
			<g>
				<path style="fill:#FFFFFF;" d="M311.753,152.843c0,0.74-0.6,1.34-1.34,1.34c-0.74,0-1.34-0.6-1.34-1.34
					c0-0.74,0.6-1.34,1.34-1.34C311.153,151.502,311.753,152.102,311.753,152.843z"/>
				<path style="fill:#FFFFFF;" d="M348.322,130.633c0,0.634-0.514,1.149-1.149,1.149c-0.634,0-1.149-0.514-1.149-1.149
					c0-0.634,0.514-1.149,1.149-1.149C347.808,129.484,348.322,129.999,348.322,130.633z"/>
				<path style="fill:#FFFFFF;" d="M329.559,157.821c0,0.317-0.257,0.574-0.574,0.574c-0.317,0-0.574-0.257-0.574-0.574
					c0-0.317,0.257-0.574,0.574-0.574C329.302,157.246,329.559,157.503,329.559,157.821z"/>
				<path style="fill:#FFFFFF;" d="M393.244,175.539c0,0.532-0.431,0.963-0.963,0.963c-0.532,0-0.963-0.431-0.963-0.963
					c0-0.532,0.431-0.963,0.963-0.963C392.813,174.576,393.244,175.007,393.244,175.539z"/>
				<circle style="fill:#FFFFFF;" cx="225.903" cy="156.446" r="1.444"/>
				<path style="fill:#FFFFFF;" d="M201.676,154.842c0,0.62-0.503,1.123-1.123,1.123c-0.62,0-1.123-0.503-1.123-1.123
					c0-0.62,0.503-1.123,1.123-1.123C201.174,153.719,201.676,154.221,201.676,154.842z"/>
				<path style="fill:#FFFFFF;" d="M178.252,103.661c0,0.886-0.718,1.604-1.604,1.604c-0.886,0-1.604-0.718-1.604-1.604
					s0.718-1.604,1.604-1.604C177.534,102.056,178.252,102.775,178.252,103.661z"/>
				<path style="fill:#FFFFFF;" d="M141.992,132.219c0,0.354-0.287,0.642-0.642,0.642c-0.354,0-0.642-0.287-0.642-0.642
					s0.287-0.642,0.642-0.642C141.705,131.578,141.992,131.865,141.992,132.219z"/>
				<path style="fill:#FFFFFF;" d="M131.724,159.334c0,0.62-0.503,1.123-1.123,1.123c-0.62,0-1.123-0.503-1.123-1.123
					c0-0.62,0.503-1.123,1.123-1.123C131.221,158.211,131.724,158.714,131.724,159.334z"/>
				<circle style="fill:#FFFFFF;" cx="74.789" cy="236.93" r="1.459"/>
				<circle style="fill:#FFFFFF;" cx="65.123" cy="195.163" r="2.736"/>
				<path style="fill:#FFFFFF;" d="M117.833,307.697c0,0.604-0.49,1.094-1.094,1.094c-0.604,0-1.094-0.49-1.094-1.094
					s0.49-1.094,1.094-1.094C117.343,306.602,117.833,307.092,117.833,307.697z"/>
				<path style="fill:#FFFFFF;" d="M110.537,331.225c0,1.108-0.898,2.006-2.006,2.006c-1.108,0-2.006-0.898-2.006-2.006
					c0-1.108,0.898-2.006,2.006-2.006C109.639,329.218,110.537,330.117,110.537,331.225z"/>
				<path style="fill:#FFFFFF;" d="M130.6,352.382c0,0.705-0.572,1.277-1.277,1.277c-0.705,0-1.277-0.572-1.277-1.277
					c0-0.705,0.572-1.277,1.277-1.277C130.029,351.105,130.6,351.677,130.6,352.382z"/>
				<circle style="fill:#FFFFFF;" cx="354.938" cy="356.212" r="2.189"/>
				<path style="fill:#FFFFFF;" d="M373.542,352.746c0,0.302-0.245,0.547-0.547,0.547c-0.302,0-0.547-0.245-0.547-0.547
					c0-0.302,0.245-0.547,0.547-0.547C373.297,352.199,373.542,352.444,373.542,352.746z"/>
				<circle style="fill:#FFFFFF;" cx="381.02" cy="376.457" r="1.641"/>
				<path style="fill:#FFFFFF;" d="M426.799,304.778c0,0.604-0.49,1.094-1.094,1.094s-1.094-0.49-1.094-1.094
					s0.49-1.094,1.094-1.094S426.799,304.174,426.799,304.778z"/>
				<path style="fill:#FFFFFF;" d="M407.831,294.017c0,0.705-0.572,1.277-1.277,1.277s-1.277-0.572-1.277-1.277
					s0.572-1.277,1.277-1.277S407.831,293.312,407.831,294.017z"/>
				<circle style="fill:#FFFFFF;" cx="438.29" cy="287.816" r="1.641"/>
				<path style="fill:#FFFFFF;" d="M370.259,111.629c0,0.907-0.735,1.642-1.641,1.642c-0.907,0-1.642-0.735-1.642-1.642
					c0-0.907,0.735-1.642,1.642-1.642C369.524,109.987,370.259,110.722,370.259,111.629z"/>
				<circle style="fill:#FFFFFF;" cx="344.177" cy="80.258" r="2.006"/>
				<path style="fill:#FFFFFF;" d="M174.926,353.612c0,0.604-0.49,1.094-1.094,1.094s-1.094-0.49-1.094-1.094
					s0.49-1.094,1.094-1.094S174.926,353.008,174.926,353.612z"/>
				<path style="fill:#FFFFFF;" d="M130.6,397.797c0,1.612-1.307,2.918-2.918,2.918c-1.612,0-2.918-1.306-2.918-2.918
					s1.307-2.918,2.918-2.918C129.294,394.878,130.6,396.185,130.6,397.797z"/>
			</g>
		</g>
		<g>
			<ellipse style="fill:#8DBAB8;" cx="241.721" cy="242.363" rx="136.295" ry="119.832"/>
			<ellipse style="fill:#8DBAB8;" cx="241.721" cy="275.895" rx="136.295" ry="119.832"/>
			<ellipse style="fill:#699A9E;" cx="243.71" cy="373.545" rx="76.104" ry="4.078"/>
			<g>
				<path style="fill:#345B60;" d="M362.547,239.668c13.599-0.507,28.895-10.921,36.802-17.082
					c11.73-9.142,22.243-20.599,26.783-29.187l-2.146-1.135c-8.88,16.798-40.643,44.2-61.529,44.977L362.547,239.668z"/>
				<path style="fill:#4D898D;" d="M432.372,177.744c2.323,9.17-1.676,16.287-9.163,18.331
					C422.131,186.333,426.156,181.076,432.372,177.744z"/>
				<path style="fill:#4D898D;" d="M408.445,214.7c12.643-5.73,23.959-1.796,28.85,8.488
					C423.503,227.268,414.867,222.817,408.445,214.7z"/>
				<path style="fill:#4D898D;" d="M410.387,209.674c-6.222-5.925-6.591-13.332-1.824-18.525
					C414.104,198.117,413.554,204.106,410.387,209.674z"/>
				<path style="fill:#4D898D;" d="M407.775,236.387c-8.166,2.671-14.863-0.514-17.177-7.173
					C399.36,227.636,404.372,230.959,407.775,236.387z"/>
				<path style="fill:#4D898D;" d="M385.209,229.176c-4.466-13.639,0.851-24.826,11.971-28.694
					C399.82,215.115,394.274,223.49,385.209,229.176z"/>
			</g>
			<g>
				<path style="fill:#345B60;" d="M131.65,237.786c-12.517-5.076-23.264-19.969-28.557-28.395
					c-7.851-12.5-13.782-26.749-15.111-36.299l2.387-0.333c2.6,18.679,22.962,54.997,42.187,62.792L131.65,237.786z"/>
				<path style="fill:#4D898D;" d="M87.458,156.373c-5.272,7.769-3.949,15.764,2.345,20.205
					C94.106,167.854,92.131,161.586,87.458,156.373z"/>
				<path style="fill:#4D898D;" d="M97.275,198.954c-9.857-9.626-21.747-9.786-29.791-1.845
					C78.972,205.584,88.536,204.354,97.275,198.954z"/>
				<path style="fill:#4D898D;" d="M97.164,193.607c7.811-3.423,10.662-10.209,7.971-16.667
					C97.607,181.566,96.094,187.339,97.164,193.607z"/>
				<path style="fill:#4D898D;" d="M90.56,219.415c6.715,5.256,14.042,4.551,18.454-0.879
					C101.374,214.099,95.572,215.502,90.56,219.415z"/>
				<path style="fill:#4D898D;" d="M114.056,220.325c8.783-11.214,7.609-23.452-1.458-30.825
					C105.182,202.26,107.523,211.952,114.056,220.325z"/>
			</g>
			<g>
				<path style="fill:#345B60;" d="M162.475,180.525c-5.334-4.47-8.247-13.473-9.509-18.442c-1.872-7.372-2.525-15.297-1.666-20.19
					l1.223,0.214c-1.681,9.57,2.556,30.601,10.749,37.465L162.475,180.525z"/>
				<path style="fill:#4D898D;" d="M153.689,133.613c-3.814,2.975-4.431,7.105-2.047,10.279
					C155.132,140.294,155.156,136.908,153.689,133.613z"/>
				<path style="fill:#4D898D;" d="M151.765,156.045c-3.31-6.28-9.115-8.24-14.316-5.619
					C141.741,156.4,146.625,157.31,151.765,156.045z"/>
				<path style="fill:#4D898D;" d="M152.557,153.406c4.372-0.442,6.843-3.319,6.546-6.911
					C154.679,147.572,153.024,150.163,152.557,153.406z"/>
				<path style="fill:#4D898D;" d="M145.235,165.016c2.461,3.64,6.165,4.454,9.188,2.489
					C151.378,164.12,148.311,163.89,145.235,165.016z"/>
				<path style="fill:#4D898D;" d="M156.611,169.18c6.081-4.109,7.442-10.296,4.163-15.345
					C155.119,158.918,154.733,164.04,156.611,169.18z"/>
			</g>
			<g>
				<path style="fill:#345B60;" d="M336.557,181.457c6.632-2.11,12.745-9.333,15.799-13.451c4.53-6.109,8.144-13.193,9.207-18.046
					l-1.213-0.266c-2.079,9.492-13.983,27.339-24.169,30.578L336.557,181.457z"/>
				<path style="fill:#4D898D;" d="M362.497,141.393c2.399,4.201,1.401,8.255-2.009,10.286
					C358.625,147.026,359.889,143.885,362.497,141.393z"/>
				<path style="fill:#4D898D;" d="M355.76,162.877c5.446-4.553,11.561-4.162,15.377,0.237
					C364.899,167.01,360.035,165.998,355.76,162.877z"/>
				<path style="fill:#4D898D;" d="M356.03,160.134c-3.876-2.069-5.071-5.668-3.432-8.879
					C356.281,153.931,356.829,156.957,356.03,160.134z"/>
				<path style="fill:#4D898D;" d="M358.396,173.655c-3.659,2.433-7.395,1.779-9.445-1.186
					C353.053,170.494,355.977,171.445,358.396,173.655z"/>
				<path style="fill:#4D898D;" d="M346.29,173.188c-4.066-6.11-2.976-12.35,1.975-15.777
					C351.567,164.261,349.979,169.146,346.29,173.188z"/>
			</g>
			<g>
				<path style="fill:#345B60;" d="M353.892,257.482c19.036-5.8,31.527-24.498,27.974-55.859
					C349.041,217.831,349.06,247.518,353.892,257.482z"/>
				<path style="fill:#203936;" d="M353.892,257.482c3.69-3.05,13.214-21.946,24.763-48.388
					C363.958,234.911,354.47,252.426,353.892,257.482z"/>
				<g>
					<g>
						<path style="fill:#203936;" d="M357.089,250.575c-0.334-2.078-2.446-3.98-4.417-3.703c3.147-1.323,4.738,2.58,4.738,2.58
							L357.089,250.575z"/>
						<path style="fill:#203936;" d="M360.3,244.206c-1.762-3.42-4.868-5.212-7.135-5.246c5.373-0.982,7.944,3.744,7.944,3.744
							L360.3,244.206z"/>
						<path style="fill:#203936;" d="M364.49,236.143c-1.209-3.274-4.361-5.788-8.096-6.09c4.506-0.382,7.964,2.656,8.754,5.051
							C364.912,235.663,364.49,236.143,364.49,236.143z"/>
						<path style="fill:#203936;" d="M369.235,226.865c-1.966-3.769-3.322-5.131-7.447-5.86c3.676-0.6,7.694,2.673,8.262,4.448
							C369.747,226.379,369.235,226.865,369.235,226.865z"/>
						<path style="fill:#203936;" d="M373.375,219.439c-0.947-2.023-2.816-3.786-5.08-4.292c2.899-0.007,5.461,3.18,5.461,3.18
							L373.375,219.439z"/>
						<path style="fill:#203936;" d="M376.646,212.965c-0.719-1.313-2.504-2.514-4.239-2.842c2.16-0.23,4.585,2.24,4.585,2.24
							L376.646,212.965z"/>
					</g>
				</g>
				<g>
					<g>
						<path style="fill:#203936;" d="M357.815,251.017c1.878-0.95,4.658-0.358,5.591,1.4c-0.778-3.324-4.871-2.32-4.871-2.32
							L357.815,251.017z"/>
						<path style="fill:#203936;" d="M361.083,244.677c3.802-0.582,7.077,0.879,8.437,2.694c-2.361-4.925-7.696-4.231-7.696-4.231
							L361.083,244.677z"/>
						<path style="fill:#203936;" d="M365.148,236.55c3.36-0.945,7.246,0.13,9.684,2.976c-2.337-3.871-6.827-4.886-9.229-4.118
							C365.289,235.927,365.148,236.55,365.148,236.55z"/>
						<path style="fill:#203936;" d="M369.87,227.261c4.205-0.623,6.104-0.324,9.117,2.585c-1.673-3.328-6.682-4.657-8.453-4.074
							C369.963,226.561,369.87,227.261,369.87,227.261z"/>
						<path style="fill:#203936;" d="M373.449,219.548c2.193-0.422,4.718,0.056,6.457,1.591c-1.697-2.35-5.781-2.552-5.781-2.552
							L373.449,219.548z"/>
						<path style="fill:#203936;" d="M376.767,213.099c1.485-0.189,3.506,0.551,4.79,1.762c-1.082-1.883-4.506-2.395-4.506-2.395
							L376.767,213.099z"/>
					</g>
				</g>
			</g>
			<g>
				<path style="fill:#2D4F4C;" d="M134.093,262.123c-20.481-9.587-45.251-3.308-66.112,25.867
					C108.02,299.284,130.591,274.21,134.093,262.123z"/>
				<path style="fill:#203936;" d="M134.093,262.123c-5.435-0.233-27.852,8.471-57.718,22.003
					C108.424,273.517,129.759,265.951,134.093,262.123z"/>
				<g>
					<g>
						<path style="fill:#203936;" d="M126.14,265.522c-1.299,2.008-0.963,5.221,0.911,6.487c-3.662-1.278-2.036-5.783-2.036-5.783
							L126.14,265.522z"/>
						<path style="fill:#203936;" d="M118.583,268.454c-1.115,4.227,0.144,8.103,2.032,9.857c-5.283-3.259-3.857-9.205-3.857-9.205
							L118.583,268.454z"/>
						<path style="fill:#203936;" d="M108.912,272.073c-1.471,3.683-0.722,8.204,2.2,11.301c-4.094-3.105-4.702-8.301-3.546-10.924
							C108.19,272.157,108.912,272.073,108.912,272.073z"/>
						<path style="fill:#203936;" d="M97.848,276.294c-1.208,4.677-1.099,6.858,1.827,10.613c-3.56-2.29-4.461-8.11-3.589-10.041
							C97.046,276.314,97.848,276.294,97.848,276.294z"/>
						<path style="fill:#203936;" d="M88.703,279.412c-0.74,2.427-0.503,5.338,1.023,7.488c-2.452-2.2-2.19-6.84-2.19-6.84
							L88.703,279.412z"/>
						<path style="fill:#203936;" d="M81.017,282.388c-0.391,1.655,0.201,4.027,1.416,5.624c-1.998-1.449-2.166-5.379-2.166-5.379
							L81.017,282.388z"/>
					</g>
				</g>
				<g>
					<g>
						<path style="fill:#203936;" d="M125.863,264.596c-2.308-0.627-4.204-3.242-3.654-5.436c-1.872,3.397,2.347,5.664,2.347,5.664
							L125.863,264.596z"/>
						<path style="fill:#203936;" d="M118.281,267.461c-3.653-2.401-5.305-6.126-5.072-8.693c-1.755,5.954,3.278,9.427,3.278,9.427
							L118.281,267.461z"/>
						<path style="fill:#203936;" d="M108.666,271.228c-3.555-1.759-6.017-5.624-5.91-9.88c-0.973,5.046,2.045,9.319,4.657,10.498
							C108.072,271.647,108.666,271.228,108.666,271.228z"/>
						<path style="fill:#203936;" d="M97.612,275.476c-4.023-2.674-5.399-4.37-5.728-9.119c-1.12,4.082,2.097,9.015,4.035,9.87
							C97.002,275.997,97.612,275.476,97.612,275.476z"/>
						<path style="fill:#203936;" d="M88.724,279.263c-2.172-1.312-3.94-3.636-4.241-6.256c-0.355,3.275,2.938,6.553,2.938,6.553
							L88.724,279.263z"/>
						<path style="fill:#203936;" d="M81.016,282.183c-1.397-0.97-2.54-3.132-2.703-5.132c-0.52,2.413,1.981,5.45,1.981,5.45
							L81.016,282.183z"/>
					</g>
				</g>
			</g>
			<g>
				<path style="fill:#345B60;" d="M152.547,262.19c-9.835-30.135-40.006-49.442-89.841-42.798
					C89.55,271.161,136.83,270.198,152.547,262.19z"/>
				<path style="fill:#203936;" d="M152.547,262.19c-4.973-5.78-35.367-20.357-77.841-37.92
					C116.284,246.867,144.477,261.429,152.547,262.19z"/>
				<g>
					<g>
						<path style="fill:#203936;" d="M141.446,257.316c-3.299,0.597-6.262,4.021-5.759,7.151c-2.205-4.97,3.96-7.627,3.96-7.627
							L141.446,257.316z"/>
						<path style="fill:#203936;" d="M131.203,252.401c-5.391,2.913-8.148,7.916-8.131,11.529c-1.733-8.526,5.714-12.77,5.714-12.77
							L131.203,252.401z"/>
						<path style="fill:#203936;" d="M118.229,245.982c-5.177,2.028-9.082,7.128-9.445,13.085c-0.751-7.164,3.979-12.767,7.769-14.1
							C117.451,245.325,118.229,245.982,118.229,245.982z"/>
						<path style="fill:#203936;" d="M103.304,238.716c-5.941,3.249-8.067,5.452-9.099,12.044
							c-1.072-5.836,4.016-12.337,6.825-13.297C102.514,237.916,103.304,238.716,103.304,238.716z"/>
						<path style="fill:#203936;" d="M91.347,232.356c-3.192,1.571-5.941,4.604-6.676,8.226c-0.101-4.617,4.893-8.798,4.893-8.798
							L91.347,232.356z"/>
						<path style="fill:#203936;" d="M80.934,227.349c-2.068,1.187-3.925,4.068-4.393,6.841c-0.435-3.432,3.424-7.372,3.424-7.372
							L80.934,227.349z"/>
					</g>
				</g>
				<g>
					<g>
						<path style="fill:#203936;" d="M142.127,256.146c-1.572-2.961-0.716-7.407,2.055-8.949c-5.269,1.343-3.541,7.831-3.541,7.831
							L142.127,256.146z"/>
						<path style="fill:#203936;" d="M131.927,251.14c-1.047-6.037,1.177-11.299,4.025-13.521c-7.77,3.914-6.496,12.39-6.496,12.39
							L131.927,251.14z"/>
						<path style="fill:#203936;" d="M118.857,244.92c-1.61-5.321-0.02-11.545,4.435-15.517c-6.092,3.843-7.568,11.026-6.269,14.828
							C117.859,244.715,118.857,244.92,118.857,244.92z"/>
						<path style="fill:#203936;" d="M103.914,237.692c-1.124-6.677-0.708-9.711,3.831-14.601
							c-5.247,2.769-7.207,10.788-6.223,13.59C102.796,237.566,103.914,237.692,103.914,237.692z"/>
						<path style="fill:#203936;" d="M91.519,232.234c-0.741-3.479-0.06-7.515,2.331-10.334c-3.69,2.777-3.883,9.288-3.883,9.288
							L91.519,232.234z"/>
						<path style="fill:#203936;" d="M81.143,227.152c-0.347-2.359,0.766-5.6,2.656-7.684c-2.965,1.782-3.673,7.251-3.673,7.251
							L81.143,227.152z"/>
					</g>
				</g>
			</g>
			<g>
				<path style="fill:#345B60;" d="M158.934,182.845c0.396-11.738-7.659-22.284-25.851-26.289
					C135.865,177.981,152.447,183.64,158.934,182.845z"/>
				<path style="fill:#203936;" d="M158.934,182.845c-0.999-2.643-9.732-11.571-22.292-23.07
					C148.252,172.913,156.221,181.557,158.934,182.845z"/>
				<g>
					<g>
						<path style="fill:#203936;" d="M155.687,179.741c-1.224-0.21-2.69,0.606-2.911,1.76c-0.138-2.01,2.346-2.153,2.346-2.153
							L155.687,179.741z"/>
						<path style="fill:#203936;" d="M152.744,176.731c-2.246,0.331-3.84,1.723-4.292,2.983c0.478-3.188,3.608-3.721,3.608-3.721
							L152.744,176.731z"/>
						<path style="fill:#203936;" d="M149.041,172.852c-2.059,0.05-4.065,1.33-4.947,3.358c0.647-2.589,3.004-3.94,4.492-3.924
							C148.853,172.524,149.041,172.852,149.041,172.852z"/>
						<path style="fill:#203936;" d="M144.766,168.43c-2.48,0.378-3.5,0.875-4.695,3.039c0.367-2.167,2.962-3.786,4.062-3.764
							C144.593,168.051,144.766,168.43,144.766,168.43z"/>
						<path style="fill:#203936;" d="M141.41,164.7c-1.31,0.142-2.652,0.849-3.367,2.017c0.55-1.62,2.819-2.442,2.819-2.442
							L141.41,164.7z"/>
						<path style="fill:#203936;" d="M138.42,161.637c-0.87,0.151-1.882,0.918-2.396,1.825c0.284-1.25,2.127-2.132,2.127-2.132
							L138.42,161.637z"/>
					</g>
				</g>
				<g>
					<g>
						<path style="fill:#203936;" d="M156.072,179.419c-0.172-1.23,0.69-2.669,1.85-2.855c-2.004-0.201-2.226,2.277-2.226,2.277
							L156.072,179.419z"/>
						<path style="fill:#203936;" d="M153.156,176.384c0.401-2.235,1.842-3.784,3.115-4.197c-3.201,0.378-3.832,3.49-3.832,3.49
							L153.156,176.384z"/>
						<path style="fill:#203936;" d="M149.394,172.561c0.114-2.057,1.457-4.022,3.511-4.84c-2.608,0.566-4.032,2.879-4.062,4.367
							C149.073,172.364,149.394,172.561,149.394,172.561z"/>
						<path style="fill:#203936;" d="M145.109,168.15c0.455-2.467,0.984-3.471,3.185-4.597c-2.178,0.299-3.877,2.842-3.889,3.942
							C144.735,167.965,145.109,168.15,145.109,168.15z"/>
						<path style="fill:#203936;" d="M141.485,164.679c0.183-1.305,0.932-2.624,2.122-3.302c-1.637,0.499-2.529,2.741-2.529,2.741
							L141.485,164.679z"/>
						<path style="fill:#203936;" d="M138.517,161.594c0.178-0.865,0.977-1.852,1.899-2.338c-1.258,0.245-2.198,2.059-2.198,2.059
							L138.517,161.594z"/>
					</g>
				</g>
			</g>
			<g>
				<path style="fill:#345B60;" d="M324.944,184.07c-3.216-11.296,2.058-23.474,18.746-31.749
					C346.158,173.785,331.431,183.277,324.944,184.07z"/>
				<path style="fill:#203936;" d="M324.944,184.07c0.331-2.806,6.653-13.576,16.068-27.766
					C332.914,171.855,327.266,182.165,324.944,184.07z"/>
				<g>
					<g>
						<path style="fill:#203936;" d="M327.346,180.274c1.137-0.499,2.756-0.061,3.25,1.005c-0.351-1.984-2.796-1.524-2.796-1.524
							L327.346,180.274z"/>
						<path style="fill:#203936;" d="M329.476,176.643c2.26-0.221,4.142,0.746,4.885,1.859c-1.232-2.979-4.399-2.741-4.399-2.741
							L329.476,176.643z"/>
						<path style="fill:#203936;" d="M332.133,171.985c2.01-0.449,4.266,0.31,5.611,2.065c-1.252-2.357-3.866-3.099-5.306-2.724
							C332.236,171.622,332.133,171.985,332.133,171.985z"/>
						<path style="fill:#203936;" d="M335.215,166.663c2.498-0.232,3.607,0.005,5.289,1.817c-0.879-2.015-3.788-2.96-4.85-2.673
							C335.292,166.253,335.215,166.663,335.215,166.663z"/>
						<path style="fill:#203936;" d="M337.573,162.234c1.306-0.178,2.778,0.185,3.754,1.145c-0.925-1.44-3.325-1.69-3.325-1.69
							L337.573,162.234z"/>
						<path style="fill:#203936;" d="M339.736,158.54c0.881-0.063,2.048,0.437,2.766,1.193c-0.577-1.145-2.578-1.557-2.578-1.557
							L339.736,158.54z"/>
					</g>
				</g>
				<g>
					<g>
						<path style="fill:#203936;" d="M326.894,180.055c-0.13-1.235-1.313-2.424-2.484-2.325c1.897-0.678,2.709,1.673,2.709,1.673
							L326.894,180.055z"/>
						<path style="fill:#203936;" d="M328.992,176.406c-0.928-2.072-2.701-3.228-4.036-3.321c3.198-0.406,4.561,2.462,4.561,2.462
							L328.992,176.406z"/>
						<path style="fill:#203936;" d="M331.721,171.789c-0.607-1.968-2.384-3.552-4.575-3.85c2.668-0.08,4.608,1.821,4.996,3.258
							C331.985,171.52,331.721,171.789,331.721,171.789z"/>
						<path style="fill:#203936;" d="M334.816,166.475c-1.037-2.284-1.793-3.131-4.2-3.693c2.186-0.235,4.448,1.823,4.725,2.888
							C335.133,166.205,334.816,166.475,334.816,166.475z"/>
						<path style="fill:#203936;" d="M337.495,162.232c-0.493-1.223-1.537-2.322-2.855-2.693c1.709,0.09,3.116,2.05,3.116,2.05
							L337.495,162.232z"/>
						<path style="fill:#203936;" d="M339.631,158.522c-0.382-0.797-1.395-1.562-2.407-1.811c1.28-0.066,2.63,1.468,2.63,1.468
							L339.631,158.522z"/>
					</g>
				</g>
			</g>
			<g>
				<path style="fill:#345B60;" d="M158.853,337.707c0.146,11.744-8.132,22.116-26.405,25.733
					C135.686,342.078,152.385,336.773,158.853,337.707z"/>
				<path style="fill:#203936;" d="M158.853,337.707c-1.055,2.621-9.976,11.361-22.778,22.59
					C147.962,347.409,156.114,338.937,158.853,337.707z"/>
				<g>
					<g>
						<path style="fill:#203936;" d="M155.541,340.741c-1.228,0.184-2.676-0.663-2.873-1.821c-0.18,2.006,2.299,2.203,2.299,2.203
							L155.541,340.741z"/>
						<path style="fill:#203936;" d="M152.535,343.687c-2.238-0.379-3.803-1.804-4.228-3.073c0.41,3.197,3.528,3.797,3.528,3.797
							L152.535,343.687z"/>
						<path style="fill:#203936;" d="M148.75,347.487c-2.058-0.094-4.036-1.416-4.874-3.462c0.592,2.602,2.919,4.003,4.408,4.018
							C148.556,347.81,148.75,347.487,148.75,347.487z"/>
						<path style="fill:#203936;" d="M144.382,351.816c-2.471-0.431-3.48-0.95-4.629-3.139c0.32,2.175,2.881,3.848,3.981,3.85
							C144.201,352.192,144.382,351.816,144.382,351.816z"/>
						<path style="fill:#203936;" d="M140.948,355.474c-1.307-0.17-2.633-0.906-3.323-2.089c0.515,1.632,2.766,2.502,2.766,2.502
							L140.948,355.474z"/>
						<path style="fill:#203936;" d="M137.893,358.473c-0.867-0.17-1.862-0.958-2.357-1.875c0.257,1.256,2.081,2.177,2.081,2.177
							L137.893,358.473z"/>
					</g>
				</g>
				<g>
					<g>
						<path style="fill:#203936;" d="M155.92,341.07c-0.198,1.226,0.633,2.683,1.789,2.894c-2.008,0.158-2.177-2.324-2.177-2.324
							L155.92,341.07z"/>
						<path style="fill:#203936;" d="M152.939,344.043c0.353,2.243,1.761,3.823,3.025,4.262c-3.193-0.446-3.757-3.57-3.757-3.57
							L152.939,344.043z"/>
						<path style="fill:#203936;" d="M149.097,347.784c0.07,2.059,1.371,4.052,3.407,4.913c-2.595-0.621-3.97-2.964-3.968-4.453
							C148.772,347.975,149.097,347.784,149.097,347.784z"/>
						<path style="fill:#203936;" d="M144.719,352.103c0.403,2.476,0.91,3.491,3.086,4.664c-2.171-0.345-3.815-2.924-3.804-4.024
							C144.341,352.28,144.719,352.103,144.719,352.103z"/>
						<path style="fill:#203936;" d="M141.022,355.496c0.155,1.309,0.876,2.643,2.051,3.347c-1.626-0.534-2.47-2.794-2.47-2.794
							L141.022,355.496z"/>
						<path style="fill:#203936;" d="M137.989,358.517c0.16,0.869,0.937,1.873,1.848,2.378c-1.253-0.271-2.154-2.105-2.154-2.105
							L137.989,358.517z"/>
					</g>
				</g>
			</g>
			<g>
				<path style="fill:#2D4F4C;" d="M327.686,277.941c26.619,18.134,62.874,14.934,98.835-21.348
					C372.79,231.616,335.357,261.743,327.686,277.941z"/>
				<path style="fill:#203936;" d="M327.686,277.941c7.589,1.562,41.086-5.582,86.154-17.823
					C366.368,267.754,334.65,273.544,327.686,277.941z"/>
				<g>
					<g>
						<path style="fill:#203936;" d="M339.641,274.97c2.283-2.528,2.541-7.121,0.193-9.328c4.859,2.629,1.549,8.594,1.549,8.594
							L339.641,274.97z"/>
						<path style="fill:#203936;" d="M350.932,272.565c2.528-5.69,1.639-11.426-0.616-14.321c6.687,5.782,3.332,13.819,3.332,13.819
							L350.932,272.565z"/>
						<path style="fill:#203936;" d="M365.353,269.674c2.905-4.845,2.88-11.372-0.526-16.389c5.051,5.296,4.725,12.74,2.504,16.165
							C366.387,269.719,365.353,269.674,365.353,269.674z"/>
						<path style="fill:#203936;" d="M381.869,266.253c2.762-6.301,3.104-9.394-0.158-15.337c4.485,4.029,4.429,12.416,2.765,14.933
							C383.001,266.406,381.869,266.253,381.869,266.253z"/>
						<path style="fill:#203936;" d="M395.435,263.946c1.592-3.245,1.921-7.391,0.264-10.761c2.948,3.651,1.526,10.114,1.526,10.114
							L395.435,263.946z"/>
						<path style="fill:#203936;" d="M406.919,261.509c0.926-2.238,0.632-5.709-0.713-8.23c2.481,2.491,1.823,8.055,1.823,8.055
							L406.919,261.509z"/>
					</g>
				</g>
				<g>
					<g>
						<path style="fill:#203936;" d="M339.82,276.335c3.103,1.406,5.174,5.514,3.903,8.474c3.405-4.351-2.013-8.497-2.013-8.497
							L339.82,276.335z"/>
						<path style="fill:#203936;" d="M351.132,274.029c4.59,4.206,6.067,9.82,5.156,13.375c3.82-7.973-2.466-13.999-2.466-13.999
							L351.132,274.029z"/>
						<path style="fill:#203936;" d="M365.507,270.918c4.599,3.281,7.183,9.274,6.065,15.235c2.514-6.873-0.758-13.567-4.162-15.819
							C366.436,270.463,365.507,270.918,365.507,270.918z"/>
						<path style="fill:#203936;" d="M382.014,267.456c5.049,4.673,6.598,7.372,5.983,14.123c2.502-5.485-0.901-13.152-3.431-14.794
							C382.991,266.863,382.014,267.456,382.014,267.456z"/>
						<path style="fill:#203936;" d="M395.372,264.15c2.756,2.339,4.713,6.008,4.541,9.76c1.244-4.524-2.642-9.882-2.642-9.882
							L395.372,264.15z"/>
						<path style="fill:#203936;" d="M406.874,261.797c1.744,1.682,2.86,4.981,2.634,7.829c1.279-3.275-1.547-8.113-1.547-8.113
							L406.874,261.797z"/>
					</g>
				</g>
			</g>
			<g>
				<polygon style="fill:#D0D0D0;" points="264.658,340.325 215.752,340.325 207.552,369.969 272.858,369.969 				"/>
				<g>
					<polygon style="fill:#C3C3C3;" points="264.658,340.325 215.752,340.325 213.588,348.146 266.822,348.146 					"/>
					<polygon style="fill:#C3C3C3;" points="207.552,369.969 272.858,369.969 271.259,364.188 209.151,364.188 					"/>
				</g>
				<path style="fill:#EBEBEB;" d="M278.882,368.013h-77.654c-1.66,0-3.005,1.345-3.005,3.005v1.509h83.664v-1.509
					C281.887,369.358,280.541,368.013,278.882,368.013z"/>
				<path style="fill:#EBEBEB;" d="M117.844,320.81v15.079c0,3.597,2.916,6.513,6.513,6.513h231.673
					c3.597,0,6.512-2.916,6.512-6.513V320.81H117.844z"/>
				<path style="fill:#393D45;" d="M362.543,181.625c0-3.597-2.915-6.513-6.512-6.513H124.357c-3.597,0-6.513,2.916-6.513,6.513
					V320.81h244.699V181.625z"/>
				<rect x="127.515" y="184.156" style="fill:#DFF3FF;" width="227.217" height="128.135"/>
				<polygon style="fill:#B7D7D9;" points="239.786,312.29 127.515,312.29 127.515,184.156 190.634,184.156 				"/>
				<path style="fill:#FFFFFF;" d="M199.302,252.663V244.5l-7.128-0.789c-0.481-1.906-1.236-3.702-2.221-5.345l4.487-5.604
					l-5.772-5.772l-5.61,4.492c-1.641-0.981-3.435-1.732-5.337-2.21l-0.791-7.144h-8.163l-0.791,7.144
					c-1.903,0.478-3.696,1.229-5.337,2.21l-5.61-4.492l-5.772,5.772l4.487,5.604c-0.985,1.643-1.74,3.439-2.221,5.345l-7.128,0.789
					v8.163l7.117,0.788c0.478,1.912,1.232,3.715,2.218,5.364l-4.473,5.587l5.772,5.772l5.581-4.468
					c1.65,0.99,3.456,1.748,5.371,2.229l0.786,7.101h8.163l0.786-7.101c1.916-0.481,3.721-1.239,5.371-2.229l5.581,4.468
					l5.772-5.772l-4.473-5.587c0.985-1.649,1.74-3.451,2.218-5.364L199.302,252.663z M172.847,260.642
					c-6.649,0-12.039-5.39-12.039-12.04s5.39-12.04,12.039-12.04c6.649,0,12.04,5.39,12.04,12.04S179.496,260.642,172.847,260.642z"
					/>
				<g>
					<rect x="290.521" y="249.404" style="fill:#C3014F;" width="41.982" height="41.982"/>
					
						<ellipse transform="matrix(0.1612 -0.9869 0.9869 0.1612 -42.9685 490.1588)" style="fill:#F1DA3D;" cx="266.884" cy="270.358" rx="20.999" ry="20.999"/>
					<polygon style="fill:#599DDF;" points="289.274,203.784 264.912,245.98 313.635,245.98 					"/>
				</g>
				<path style="fill:#C7C7C7;" d="M244.543,331.051c0,2.148-1.741,3.889-3.889,3.889c-2.148,0-3.889-1.741-3.889-3.889
					c0-2.148,1.741-3.889,3.889-3.889C242.802,327.162,244.543,328.903,244.543,331.051z"/>
				<path style="opacity:0.09;fill:#FFFFFF;" d="M362.543,181.625c0-3.597-2.915-6.512-6.512-6.512H124.357
					c-1.831,0-3.483,0.758-4.666,1.974l242.852,133V181.625z"/>
			</g>
			<g>
				<path style="fill:#599DDF;" d="M356.114,306.021l-9.911,10.197c0,0,5.533,7.23,16.094,17.496
					c8.956,8.706,38.672,32.317,47.494,39.29c1.416,1.119,3.445,0.983,4.703-0.312c1.262-1.298,1.338-3.336,0.17-4.719
					c-7.438-8.813-32.965-38.934-40.687-46.441C364.901,312.71,356.114,306.021,356.114,306.021z"/>
				<path style="fill:#4F85B5;" d="M406.87,367.676c-5.149-3.132-34.046-25.943-41.761-34.463
					c-6.683-7.381-8.463-16.727-5.003-24.012c-2.452-2.007-3.993-3.18-3.993-3.18l-9.911,10.197c0,0,5.533,7.23,16.094,17.496
					c8.956,8.706,38.672,32.317,47.494,39.29c1.416,1.119,3.445,0.983,4.703-0.312c1.262-1.298,1.338-3.336,0.17-4.719
					c-0.393-0.465-0.846-1.002-1.334-1.579C412.651,368.69,409.95,369.549,406.87,367.676z"/>
				<path style="fill:#FDF9CC;" d="M343.449,315.066c-4.905,1.24-9.825-2.323-10.262-14.026c-0.348-9.332-3.185-14.756-8.279-17.574
					c13.846-1.326,29.167,8.244,29.818,19.999C351.708,306.569,343.449,315.066,343.449,315.066z"/>
				<path style="fill:#C30155;" d="M332.59,296.737c0.281,1.156,2.551-0.684,1.447-4.172c-0.722-2.283-0.867-3.049-0.145-3.031
					c0.373,0.01,1.003,0.516,1.564,1.461c0.419,0.706,1.201,0.979,1.739,0.344c0.486-0.574,0.096-1.106-0.535-1.472
					c-1.131-0.657-1.754-1.079-1.363-1.737c0.696-1.17,3.34,0.156,5.583,3.299c2.243,3.143,3.618-0.296,1.527-1.406
					s-4.74-2.721-4.731-3.515c0.009-0.794,2.012-0.171,3.471,0.806c1.459,0.977,1.754,0.26,1.32-0.243
					c-0.435-0.503-7.026-3.177-10.023-3.562c-2.997-0.385-6.907-0.492-7.776-0.093C326.453,284.47,331.57,287.919,332.59,296.737z"
					/>
				<path style="opacity:0.18;fill:#581113;" d="M345.599,303.132c-4.761-0.131-7.028-6.408-9.888-11.389
					c-2.503-4.359-7.093-7.254-10.821-8.192c1.948,1.19,6.718,4.696,7.701,13.185c0.044,0.18,0.139,0.279,0.259,0.319
					c0.168,1.244,0.285,2.563,0.338,3.984c0.436,11.703,5.356,15.266,10.262,14.026c0,0,8.259-8.497,11.277-11.601
					c-0.148-2.672-1.064-5.227-2.538-7.571C351.487,300.899,348.441,303.21,345.599,303.132z"/>
				<path style="fill:#335470;" d="M357.657,305.872l-11.81,12.15c-0.781,0.804-2.066,0.822-2.87,0.041l-0.258-0.25
					c-0.804-0.781-0.822-2.066-0.041-2.87l11.81-12.15c0.781-0.804,2.066-0.822,2.87-0.041l0.257,0.25
					C358.42,303.783,358.439,305.069,357.657,305.872z"/>
			</g>
			<g>
				<path style="fill:#F1DA3D;" d="M276.851,147.238c0-16.908-14.289-30.478-31.449-29.294
					c-14.45,0.997-26.169,12.684-27.204,27.131c-0.585,8.17,2.176,15.691,7.051,21.336c4.842,5.607,7.288,12.895,7.288,20.304v1.299
					h29.387v-1.218c0-7.54,2.911-14.707,7.83-20.422C274.176,161.235,276.851,154.55,276.851,147.238z"/>
				<g>
					<path style="fill:#FFFFFF;" d="M247.673,122.548c3.301-0.465,6.762,0.257,9.861,1.627c3.126,1.36,5.949,3.422,8.275,5.939
						c2.321,2.519,4.15,5.53,5.181,8.794c1.056,3.246,1.321,6.742,0.606,9.986c-0.556-3.274-1.459-6.312-2.809-9.115
						c-1.365-2.791-3.123-5.342-5.21-7.609c-2.085-2.268-4.49-4.246-7.134-5.902C253.78,124.637,250.891,123.348,247.673,122.548z"
						/>
				</g>
				<path style="fill:none;stroke:#828B91;stroke-width:0.6919;stroke-linecap:round;stroke-miterlimit:10;" d="M231.238,160.322
					c0.7,0.803,2.721,1.03,4.232,0.706c0.636-0.136,1.234-0.359,1.58-0.681c0.346-0.323,0.394-0.756,0.005-1.064
					c-0.389-0.308-1.25-0.426-1.797-0.202c-0.565,0.232-0.589,0.725-0.195,1.046c0.394,0.321,1.089,0.492,1.778,0.576
					c1.172,0.142,2.428,0.069,3.52-0.205c2.011-0.504,4.648-1.484,6.363-1.484c2.027,0,2.543,1.371,2.316,2.458
					c-0.056,0.268-0.439,0.514-0.893,0.625c-0.743,0.182-1.689-0.204-1.641-1.126c0.098-1.883,4.261-2.354,6.113-2.195
					c1.852,0.159,3.148,0.824,3.854,1.212c0.847,0.466,2.441,0.411,3.176-0.109c0.36-0.255,0.481-0.66,0.05-0.88
					c-0.536-0.273-1.509-0.003-1.666,0.389c-0.157,0.392,0.257,0.788,0.773,1.072c0.978,0.539,2.351,0.829,3.731,0.9
					c1.38,0.071,2.773-0.063,4.102-0.28"/>
				
					<line style="fill:none;stroke:#919CA2;stroke-width:1.8684;stroke-linecap:round;stroke-miterlimit:10;" x1="237.2" y1="154.655" x2="242.816" y2="187.958"/>
				
					<line style="fill:none;stroke:#919CA2;stroke-width:1.8684;stroke-linecap:round;stroke-miterlimit:10;" x1="258.388" y1="154.655" x2="252.772" y2="187.958"/>
				<linearGradient id="SVGID_1_" gradientUnits="userSpaceOnUse" x1="229.3254" y1="183.0303" x2="253.0768" y2="140.3882">
					<stop  offset="0" style="stop-color:#E7C13C"/>
					<stop  offset="1" style="stop-color:#E7C13C;stop-opacity:0"/>
				</linearGradient>
				<path style="fill:url(#SVGID_1_);" d="M230.937,123.01c-7.171,4.925-12.087,12.943-12.74,22.065
					c-0.585,8.17,2.176,15.691,7.051,21.336c4.842,5.607,7.288,12.895,7.288,20.304v1.299h29.387v-1.218
					c0-7.54,2.911-14.707,7.83-20.422c1.492-1.733,2.779-3.645,3.837-5.695C237.839,175.023,223.783,144.81,230.937,123.01z"/>
				<ellipse style="fill:#406E8A;" cx="247.121" cy="201.853" rx="13.748" ry="7.423"/>
				<g>
					<path style="fill:#589BC6;" d="M263.011,192.652h-31.532c-0.882,0-1.596-0.715-1.596-1.596v-1.652
						c0-0.882,0.715-1.596,1.596-1.596h31.532c0.882,0,1.596,0.715,1.596,1.596v1.652
						C264.607,191.937,263.892,192.652,263.011,192.652z"/>
					<path style="fill:#589BC6;" d="M263.011,202.203h-31.532c-0.882,0-1.596-0.715-1.596-1.596v-1.653
						c0-0.882,0.715-1.596,1.596-1.596h31.532c0.882,0,1.596,0.715,1.596,1.596v1.653
						C264.607,201.489,263.892,202.203,263.011,202.203z"/>
					<path style="fill:#406E8A;" d="M263.011,197.393h-31.532c-0.882,0-1.596-0.715-1.596-1.596v-1.652
						c0-0.882,0.715-1.596,1.596-1.596h31.532c0.882,0,1.596,0.715,1.596,1.596v1.652
						C264.607,196.679,263.892,197.393,263.011,197.393z"/>
				</g>
			</g>
			<g>
				<polygon style="fill:#FFFFFF;" points="275.119,124.068 285.329,104.273 296.649,107.439 				"/>
				<polygon style="fill:#FFFFFF;" points="277.555,126.317 295.653,115.304 299.115,122.259 				"/>
				<polygon style="fill:#FFFFFF;" points="277.832,129.058 302.129,127.705 310.548,137.51 				"/>
			</g>
			<g>
				<polygon style="fill:#FFFFFF;" points="212.245,139.094 193.055,127.789 185.164,136.501 				"/>
				<polygon style="fill:#FFFFFF;" points="211.803,141.306 183.948,145.107 191.399,149.365 				"/>
				<polygon style="fill:#FFFFFF;" points="213.044,136.835 206.352,130.685 208.173,129.504 				"/>
			</g>
		</g>
	</g>
</g>
<g id="DESIGNED_BY_FREEPIK">
	<g>
		<g id="XMLID_319_">
			<g id="XMLID_338_">
				<path id="XMLID_346_" style="fill:#A5B7C6;" d="M260.104,465.465c-0.432,0.443-0.803,0.931-1.108,1.453l-0.465-0.241
					c-0.067-0.298-0.349-0.503-0.659-0.466c-0.331,0.039-0.568,0.339-0.529,0.67s0.339,0.568,0.67,0.529
					c0.065-0.008,0.127-0.026,0.184-0.052l0.451,0.234c-0.251,0.554-0.433,1.139-0.539,1.744l0.746,0.132
					c0.23-1.306,0.85-2.507,1.792-3.473L260.104,465.465z"/>
				<path id="XMLID_345_" style="fill:#A5B7C6;" d="M265.592,463.163c-0.171,0-0.341,0.006-0.51,0.017l-0.074-0.626
					c0.188-0.149,0.296-0.389,0.266-0.645c-0.046-0.393-0.402-0.674-0.795-0.628s-0.674,0.402-0.628,0.795
					c0.03,0.254,0.189,0.461,0.405,0.564l0.073,0.624c-0.714,0.116-1.403,0.332-2.06,0.646l0.327,0.684
					c0.934-0.447,1.942-0.673,2.995-0.673c0.496,0,0.993,0.053,1.475,0.158l0.161-0.741
					C266.693,463.222,266.142,463.163,265.592,463.163z"/>
				<path id="XMLID_344_" style="fill:#A5B7C6;" d="M272.194,465.711c0.331-0.04,0.566-0.341,0.525-0.672
					c-0.04-0.331-0.341-0.566-0.672-0.526c-0.309,0.038-0.535,0.304-0.53,0.609l-0.416,0.363c-0.418-0.43-0.89-0.813-1.408-1.139
					l-0.404,0.641c1.134,0.715,2.021,1.726,2.563,2.925l0.691-0.313c-0.251-0.554-0.568-1.072-0.942-1.545l0.402-0.351
					C272.065,465.716,272.129,465.719,272.194,465.711z"/>
				<path id="XMLID_343_" style="fill:#A5B7C6;" d="M265.044,473.372c-0.386,0.023-0.775,0.035-1.157,0.035
					c-0.88,0-1.733-0.061-2.478-0.179c-0.39-0.062-0.846-0.155-1.27-0.292c1.046,1.861,3.069,3.125,5.388,3.125
					c2.855,0,5.262-1.916,5.95-4.504c-0.682,0.449-1.505,0.825-2.459,1.123C267.839,473.047,266.464,473.286,265.044,473.372z"/>
				<path id="XMLID_339_" style="fill:#A5B7C6;" d="M265.592,464.68c-3.352,0-6.08,2.666-6.08,5.943
					c0,0.426,0.046,0.849,0.137,1.261c0.674,0.483,2.706,0.89,5.348,0.731c2.879-0.173,5.297-0.957,6.672-2.159
					c-0.005-0.195-0.021-0.39-0.045-0.582C271.244,466.913,268.65,464.68,265.592,464.68z M263.432,471.194
					c-1.02,0-1.85-0.83-1.85-1.85c0-1.02,0.83-1.85,1.85-1.85c1.02,0,1.85,0.83,1.85,1.85
					C265.282,470.365,264.452,471.194,263.432,471.194z M268.17,470.286c-0.75,0-1.36-0.61-1.36-1.36s0.61-1.361,1.36-1.361
					c0.75,0,1.361,0.61,1.361,1.361S268.92,470.286,268.17,470.286z"/>
			</g>
			<path id="XMLID_336_" style="fill:#A5B7C6;" d="M281.595,466.547c-0.295-0.116-0.806-0.309-1.382-0.237
				c-0.551,0.069-0.844,0.341-0.844,1.007v0.866h2.228v1.717h-2.228v5.455h-1.932v-5.455h-1.34v-1.717h1.34v-0.888
				c0-1.68,0.896-2.783,2.568-2.783c0.642,0,1.157,0.122,1.59,0.308L281.595,466.547z"/>
			<path id="XMLID_334_" style="fill:#A5B7C6;" d="M286.298,469.879c-0.177-0.03-0.358-0.046-0.526-0.046
				c-0.896,0-1.51,0.548-1.51,1.614v3.908h-1.932v-7.172h1.873v0.785c0.451-0.673,1.14-0.977,2.021-0.977
				c0.414,0,0.848,0.128,1.094,0.337L286.298,469.879z"/>
			<path id="XMLID_331_" style="fill:#A5B7C6;" d="M293.965,471.757c0,0.222-0.015,0.489-0.037,0.651h-5.085
				c0.207,1.036,0.933,1.488,1.843,1.488c0.622,0,1.295-0.252,1.813-0.688l1.132,1.243c-0.814,0.748-1.85,1.088-3.057,1.088
				c-2.198,0-3.723-1.495-3.723-3.753c0-2.258,1.48-3.797,3.627-3.797C292.544,467.99,293.958,469.522,293.965,471.757z
				 M288.851,471.091h3.175c-0.177-0.918-0.733-1.436-1.562-1.436C289.554,469.655,289.021,470.203,288.851,471.091z"/>
			<path id="XMLID_328_" style="fill:#A5B7C6;" d="M301.618,471.757c0,0.222-0.015,0.489-0.037,0.651h-5.085
				c0.207,1.036,0.932,1.488,1.843,1.488c0.622,0,1.295-0.252,1.813-0.688l1.132,1.243c-0.814,0.748-1.85,1.088-3.057,1.088
				c-2.198,0-3.723-1.495-3.723-3.753c0-2.258,1.48-3.797,3.627-3.797C300.197,467.99,301.611,469.522,301.618,471.757z
				 M296.504,471.091h3.175c-0.178-0.918-0.733-1.436-1.562-1.436C297.207,469.655,296.674,470.203,296.504,471.091z"/>
			<path id="XMLID_325_" style="fill:#A5B7C6;" d="M309.964,471.764c0,2.154-1.495,3.775-3.471,3.775
				c-0.962,0-1.643-0.378-2.109-0.933v3.708h-1.924v-10.133h1.887v0.792c0.466-0.585,1.155-0.984,2.139-0.984
				C308.469,467.99,309.964,469.61,309.964,471.764z M304.287,471.764c0,1.132,0.747,1.976,1.843,1.976
				c1.14,0,1.85-0.881,1.85-1.976c0-1.095-0.71-1.976-1.85-1.976C305.035,469.788,304.287,470.632,304.287,471.764z"/>
			<path id="XMLID_322_" style="fill:#A5B7C6;" d="M313.068,465.836c0,0.696-0.54,1.229-1.236,1.229
				c-0.696,0-1.229-0.533-1.229-1.229c0-0.696,0.533-1.243,1.229-1.243C312.527,464.592,313.068,465.14,313.068,465.836z
				 M312.809,475.354h-1.932v-7.172h1.932V475.354z"/>
			<path id="XMLID_320_" style="fill:#A5B7C6;" d="M316.032,470.736l2.702-2.554h2.368l-3.479,3.375l3.501,3.797h-2.376
				l-2.716-2.901v2.901H314.1v-10.658h1.932V470.736z"/>
		</g>
		<g>
			<path style="fill:#A5B7C6;" d="M184.412,475.289v-1.055c-0.527,0.718-1.391,1.23-2.387,1.23c-1.846,0-3.149-1.406-3.149-3.706
				c0-2.256,1.289-3.721,3.149-3.721c0.952,0,1.816,0.469,2.387,1.245v-3.765h1.099v9.77H184.412z M184.412,473.37v-3.208
				c-0.395-0.615-1.245-1.143-2.124-1.143c-1.421,0-2.27,1.172-2.27,2.739c0,1.567,0.85,2.724,2.27,2.724
				C183.168,474.483,184.017,473.986,184.412,473.37z"/>
			<path style="fill:#A5B7C6;" d="M186.932,471.744c0-2.051,1.465-3.706,3.486-3.706c2.139,0,3.398,1.67,3.398,3.794v0.279h-5.727
				c0.088,1.333,1.025,2.446,2.549,2.446c0.805,0,1.626-0.322,2.182-0.894l0.527,0.718c-0.703,0.703-1.655,1.084-2.812,1.084
				C188.44,475.465,186.932,473.956,186.932,471.744z M190.403,468.947c-1.509,0-2.256,1.274-2.314,2.358h4.643
				C192.718,470.25,192.015,468.947,190.403,468.947z"/>
			<path style="fill:#A5B7C6;" d="M194.607,474.351l0.571-0.791c0.469,0.542,1.362,1.011,2.329,1.011c1.084,0,1.67-0.513,1.67-1.216
				c0-1.714-4.38-0.659-4.38-3.281c0-1.098,0.952-2.036,2.636-2.036c1.201,0,2.051,0.454,2.622,1.026l-0.513,0.762
				c-0.424-0.513-1.201-0.894-2.109-0.894c-0.967,0-1.567,0.483-1.567,1.113c0,1.552,4.38,0.527,4.38,3.281
				c0,1.187-0.952,2.138-2.783,2.138C196.306,475.465,195.325,475.113,194.607,474.351z"/>
			<path style="fill:#A5B7C6;" d="M201.477,466.471c0-0.41,0.337-0.747,0.732-0.747c0.41,0,0.747,0.337,0.747,0.747
				c0,0.41-0.337,0.732-0.747,0.732C201.814,467.203,201.477,466.881,201.477,466.471z M201.667,475.289v-7.075h1.099v7.075H201.667
				z"/>
			<path style="fill:#A5B7C6;" d="M204.582,477.105l0.556-0.82c0.586,0.703,1.289,0.967,2.3,0.967c1.172,0,2.27-0.571,2.27-2.124
				v-1.011c-0.513,0.718-1.377,1.26-2.373,1.26c-1.845,0-3.149-1.377-3.149-3.662c0-2.27,1.289-3.677,3.149-3.677
				c0.952,0,1.802,0.469,2.373,1.245v-1.069h1.098v6.87c0,2.344-1.641,3.076-3.369,3.076
				C206.237,478.16,205.417,477.926,204.582,477.105z M209.709,473.253v-3.091c-0.381-0.615-1.23-1.143-2.109-1.143
				c-1.421,0-2.27,1.128-2.27,2.695c0,1.553,0.849,2.695,2.27,2.695C208.478,474.41,209.328,473.868,209.709,473.253z"/>
			<path style="fill:#A5B7C6;" d="M217.413,475.289v-4.629c0-1.245-0.63-1.641-1.582-1.641c-0.865,0-1.685,0.527-2.095,1.099v5.17
				h-1.099v-7.075h1.099v1.025c0.498-0.586,1.464-1.201,2.519-1.201c1.48,0,2.256,0.747,2.256,2.285v4.966H217.413z"/>
			<path style="fill:#A5B7C6;" d="M219.932,471.744c0-2.051,1.465-3.706,3.486-3.706c2.139,0,3.398,1.67,3.398,3.794v0.279h-5.727
				c0.088,1.333,1.025,2.446,2.549,2.446c0.806,0,1.626-0.322,2.183-0.894l0.527,0.718c-0.703,0.703-1.655,1.084-2.812,1.084
				C221.441,475.465,219.932,473.956,219.932,471.744z M223.404,468.947c-1.509,0-2.256,1.274-2.314,2.358h4.643
				C225.718,470.25,225.015,468.947,223.404,468.947z"/>
			<path style="fill:#A5B7C6;" d="M233.35,475.289v-1.055c-0.527,0.718-1.392,1.23-2.388,1.23c-1.846,0-3.149-1.406-3.149-3.706
				c0-2.256,1.289-3.721,3.149-3.721c0.952,0,1.817,0.469,2.388,1.245v-3.765h1.098v9.77H233.35z M233.35,473.37v-3.208
				c-0.396-0.615-1.245-1.143-2.124-1.143c-1.421,0-2.27,1.172-2.27,2.739c0,1.567,0.849,2.724,2.27,2.724
				C232.105,474.483,232.954,473.986,233.35,473.37z"/>
			<path style="fill:#A5B7C6;" d="M239.692,475.289v-9.77h1.098v3.765c0.572-0.776,1.421-1.245,2.388-1.245
				c1.845,0,3.149,1.465,3.149,3.721c0,2.299-1.304,3.706-3.149,3.706c-0.996,0-1.86-0.513-2.388-1.23v1.055H239.692z
				 M242.9,474.483c1.436,0,2.285-1.157,2.285-2.724c0-1.568-0.85-2.739-2.285-2.739c-0.864,0-1.728,0.527-2.109,1.143v3.208
				C241.171,473.986,242.036,474.483,242.9,474.483z"/>
			<path style="fill:#A5B7C6;" d="M247.528,477.061c0.161,0.073,0.425,0.117,0.601,0.117c0.483,0,0.805-0.161,1.055-0.747
				l0.469-1.069l-2.959-7.148h1.187l2.358,5.8l2.344-5.8h1.201l-3.545,8.51c-0.425,1.025-1.143,1.421-2.08,1.435
				c-0.234,0-0.601-0.044-0.805-0.103L247.528,477.061z"/>
		</g>
	</g>
</g>
</svg>
