<?xml version="1.0" encoding="utf-8"?>
<!-- Generator: Adobe Illustrator 27.5.0, SVG Export Plug-In . SVG Version: 6.00 Build 0)  -->
<svg version="1.1" xmlns="http://www.w3.org/2000/svg" xmlns:xlink="http://www.w3.org/1999/xlink" x="0px" y="0px"
	 viewBox="0 0 500 500" style="enable-background:new 0 0 500 500;" xml:space="preserve">
<g id="BACKGROUND">
	<rect style="fill:#FFFFFF;" width="500" height="500"/>
</g>
<g id="OBJECT">
	<g>
		<g style="opacity:0.1;">
			<g>
				<g>
					<g>
						<path style="fill:#00AEEF;" d="M249.186,318.717c-34.645,0-62.83-28.185-62.83-62.829s28.186-62.831,62.83-62.831
							c34.645,0,62.83,28.187,62.83,62.831S283.83,318.717,249.186,318.717z"/>
					</g>
				</g>
			</g>
		</g>
		<g style="opacity:0.1;">
			<g>
				<g>
					<g>
						<path style="fill:#00AEEF;" d="M249.186,426.861c-94.275,0-170.975-76.698-170.975-170.974S154.91,84.913,249.186,84.913
							S420.16,161.612,420.16,255.888S343.461,426.861,249.186,426.861z"/>
					</g>
				</g>
			</g>
		</g>
		<g style="opacity:0.1;">
			<g>
				<g>
					<g>
						<path style="fill:#00AEEF;" d="M249.186,377.068c-66.819,0-121.182-54.361-121.182-121.181
							c0-66.82,54.362-121.183,121.182-121.183c66.82,0,121.182,54.362,121.182,121.183
							C370.367,322.707,316.006,377.068,249.186,377.068z"/>
					</g>
				</g>
			</g>
		</g>
	</g>
	<g>
		<g>
			<rect x="363.233" y="124.961" style="fill:#D9D9D9;" width="12.005" height="12.004"/>
			<rect x="379.114" y="129.705" style="fill:#D9D9D9;" width="60.289" height="2.515"/>
			<polygon style="fill:#A2C037;" points="376.853,118.04 368.881,129.334 364.949,124.628 360.023,129.334 369.236,134.926 
				382.832,124.296 			"/>
		</g>
		<g>
			<rect x="363.233" y="149.607" style="fill:#D9D9D9;" width="12.005" height="12.006"/>
			<rect x="379.114" y="154.354" style="fill:#D9D9D9;" width="60.289" height="2.515"/>
			<polygon style="fill:#A2C037;" points="376.853,142.688 368.881,153.981 364.949,149.276 360.023,153.981 369.236,159.573 
				382.832,148.944 			"/>
		</g>
		<g>
			<rect x="363.233" y="174.255" style="fill:#D9D9D9;" width="12.005" height="12.004"/>
			<rect x="379.114" y="179" style="fill:#D9D9D9;" width="60.289" height="2.515"/>
			<polygon style="fill:#A2C037;" points="376.853,167.335 368.881,178.629 364.949,173.923 360.023,178.629 369.236,184.221 
				382.832,173.59 			"/>
		</g>
		<g>
			<rect x="363.233" y="198.903" style="fill:#D9D9D9;" width="12.005" height="12.004"/>
			<rect x="379.114" y="203.648" style="fill:#D9D9D9;" width="60.289" height="2.515"/>
			<polygon style="fill:#A2C037;" points="376.853,191.982 368.881,203.275 364.949,198.571 360.023,203.275 369.236,208.867 
				382.832,198.238 			"/>
		</g>
	</g>
	<g>
		<g>
			<polygon style="fill:#DC911B;" points="90.566,298.052 90.566,298.054 96.654,356.836 97.875,368.611 148.486,363.369 
				148.486,363.369 142.398,304.585 141.179,292.81 			"/>
			<polygon style="fill:#E7B142;" points="92.879,294.305 97.68,353.208 110.442,364.046 149.357,360.873 143.594,290.17 			"/>
			
				<rect x="98.619" y="300.091" transform="matrix(0.9967 -0.0813 0.0813 0.9967 -24.0871 10.4857)" style="fill:#FFFFFF;" width="36.343" height="2.203"/>
			
				<rect x="99.051" y="305.299" transform="matrix(0.9967 -0.0812 0.0812 0.9967 -24.4987 10.715)" style="fill:#FFFFFF;" width="40.736" height="2.204"/>
			
				<rect x="99.49" y="310.687" transform="matrix(0.9967 -0.0812 0.0812 0.9967 -24.9349 10.7685)" style="fill:#FFFFFF;" width="40.736" height="2.203"/>
			
				<rect x="99.929" y="316.074" transform="matrix(0.9967 -0.0812 0.0812 0.9967 -25.3704 10.8216)" style="fill:#FFFFFF;" width="40.736" height="2.202"/>
		</g>
		<polygon style="opacity:0.4;fill:#FFFFFF;" points="96.342,353.813 144.83,305.324 143.594,290.17 108.185,293.057 
			91.751,309.492 		"/>
	</g>
	<g>
		<g>
			
				<rect x="214.723" y="249.317" transform="matrix(0.1354 -0.9908 0.9908 0.1354 -70.9334 474.4937)" style="fill:#00AEEF;" width="43.39" height="57.149"/>
			<polygon style="fill:#E7B142;" points="232.436,268.823 233.346,262.161 203.52,258.084 202.609,264.746 199.793,285.348 
				196.945,306.183 262.306,315.117 267.969,273.68 			"/>
		</g>
		<polygon style="opacity:0.4;fill:#FFFFFF;" points="220.461,253.814 201.514,272.761 199.793,285.348 196.945,306.183 
			214.592,308.596 263.49,259.695 		"/>
	</g>
	<g>
		<g>
			<path style="fill:#00AEEF;" d="M247.201,364.046c0,14.516-11.766,26.281-26.281,26.281c-14.516,0-26.283-11.766-26.283-26.281
				c0-14.517,11.768-26.282,26.283-26.282C235.436,337.764,247.201,349.529,247.201,364.046z"/>
			<g>
				<defs>
					<path id="SVGID_1_" d="M247.201,364.046c0,14.516-11.766,26.281-26.281,26.281c-14.516,0-26.283-11.766-26.283-26.281
						c0-14.517,11.768-26.282,26.283-26.282C235.436,337.764,247.201,349.529,247.201,364.046z"/>
				</defs>
				<clipPath id="SVGID_00000039118142663175528810000003534006830866114190_">
					<use xlink:href="#SVGID_1_"  style="overflow:visible;"/>
				</clipPath>
				<path style="clip-path:url(#SVGID_00000039118142663175528810000003534006830866114190_);fill:#ECECEC;" d="M229.038,370.138
					c2.173-2.115,3.526-5.066,3.526-8.338c0-6.433-5.215-11.645-11.645-11.645c-6.432,0-11.645,5.212-11.645,11.645
					c0,3.271,1.354,6.223,3.525,8.338c-7.655,3.185-13.039,10.732-13.039,19.541c0,11.686,9.473,21.157,21.158,21.157
					c11.684,0,21.156-9.472,21.156-21.157C242.076,380.87,236.693,373.322,229.038,370.138z"/>
			</g>
		</g>
		<g>
			<g>
				<defs>
					<path id="SVGID_00000178899242355140152870000006909121586871332240_" d="M247.201,364.046
						c0,14.516-11.766,26.281-26.281,26.281c-14.516,0-26.283-11.766-26.283-26.281c0-14.517,11.768-26.282,26.283-26.282
						C235.436,337.764,247.201,349.529,247.201,364.046z"/>
				</defs>
				<clipPath id="SVGID_00000023242885929666470310000006051161904500101531_">
					<use xlink:href="#SVGID_00000178899242355140152870000006909121586871332240_"  style="overflow:visible;"/>
				</clipPath>
				<path style="clip-path:url(#SVGID_00000023242885929666470310000006051161904500101531_);fill:#ECECEC;" d="M229.038,370.138
					c2.173-2.115,3.526-5.066,3.526-8.338c0-6.433-5.215-11.645-11.645-11.645c-6.432,0-11.645,5.212-11.645,11.645
					c0,3.271,1.354,6.223,3.525,8.338c-7.655,3.185-13.039,10.732-13.039,19.541c0,11.686,9.473,21.157,21.158,21.157
					c11.684,0,21.156-9.472,21.156-21.157C242.076,380.87,236.693,373.322,229.038,370.138z"/>
			</g>
			<path style="opacity:0.4;fill:#FFFFFF;" d="M220.92,337.764c-14.516,0-26.283,11.766-26.283,26.282
				c0,10.944,6.69,20.321,16.202,24.274l34.356-34.355C241.241,344.453,231.863,337.764,220.92,337.764z"/>
		</g>
	</g>
	<g>
		<g>
			<path style="fill:#D9D9D9;" d="M176.01,426.595l-5.166-1.998c0.123-1.467,0.08-2.972-0.156-4.486
				c-0.331-2.127-1.009-4.115-1.959-5.922l4.588-3.691l-5.531-6.869l-4.873,3.922c-2.738-1.945-5.992-3.162-9.453-3.439
				l-0.963-6.196l-8.715,1.354l0.963,6.196c-3.277,1.341-6.053,3.548-8.086,6.307l-5.472-2.12l-3.183,8.226l5.218,2.018
				c-0.327,1.95-0.357,3.983-0.036,6.044c0.268,1.725,0.765,3.352,1.445,4.871l-3.93,3.167l5.527,6.866l3.793-3.052
				c3.018,2.432,6.771,3.936,10.787,4.173l0.714,4.596l8.712-1.354l-0.743-4.774c3.612-1.563,6.583-4.197,8.591-7.449l4.748,1.838
				L176.01,426.595z M152.994,429.841c-3.762,0.585-7.291-1.993-7.875-5.756c-0.586-3.768,1.992-7.297,5.756-7.882
				c3.768-0.585,7.295,1.994,7.881,5.762C159.342,425.728,156.763,429.255,152.994,429.841z"/>
			<path style="fill:#F1F2F2;" d="M211.334,428.813l-4.102-1.587c0.095-1.164,0.059-2.361-0.129-3.566
				c-0.262-1.688-0.799-3.264-1.555-4.698l3.645-2.935l-4.393-5.454l-3.868,3.114c-2.176-1.545-4.764-2.512-7.51-2.731l-0.765-4.921
				l-6.92,1.075l0.766,4.921c-2.604,1.061-4.809,2.817-6.424,5.008l-4.346-1.683l-2.525,6.532l4.143,1.604
				c-0.26,1.546-0.283,3.165-0.029,4.798c0.213,1.372,0.608,2.665,1.149,3.869l-3.122,2.516l4.392,5.453l3.01-2.426
				c2.397,1.934,5.378,3.128,8.565,3.314l0.568,3.65l6.919-1.074l-0.589-3.791c2.868-1.244,5.229-3.334,6.822-5.915l3.768,1.457
				L211.334,428.813z M193.055,431.388c-2.99,0.466-5.79-1.584-6.254-4.572c-0.465-2.988,1.58-5.792,4.57-6.258
				c2.992-0.464,5.795,1.587,6.259,4.575C198.094,428.121,196.047,430.924,193.055,431.388z"/>
		</g>
		<path style="opacity:0.4;fill:#FFFFFF;" d="M153.459,404.11l-0.963-6.196l-8.715,1.354l0.963,6.196
			c-3.277,1.341-6.053,3.548-8.086,6.307l-5.472-2.12l-3.183,8.226l5.218,2.018c-0.327,1.95-0.357,3.983-0.036,6.044
			c0.268,1.725,0.765,3.352,1.445,4.871l-3.93,3.167l5.527,6.866l3.793-3.052c0.576,0.465,1.188,0.884,1.814,1.278l7.165-9.803
			c-2.003-0.943-3.517-2.832-3.882-5.183c-0.586-3.768,1.992-7.297,5.756-7.882c2.353-0.365,4.612,0.505,6.121,2.127l10.682-14.615
			l-4.766,3.835C160.174,405.604,156.92,404.388,153.459,404.11z"/>
	</g>
	<g>
		<g>
			<path style="fill:#00AEEF;" d="M323.031,193.058c0,18.72-15.174,33.894-33.894,33.894s-33.895-15.174-33.895-33.894
				c0-18.719,15.175-33.894,33.895-33.894S323.031,174.339,323.031,193.058z"/>
			<path style="fill:#EF4D5C;" d="M289.138,159.164v33.894h33.894C323.031,174.339,307.857,159.164,289.138,159.164z"/>
			
				<ellipse transform="matrix(0.1602 -0.9871 0.9871 0.1602 52.2583 447.5375)" style="fill:#FFFFFF;" cx="289.138" cy="193.058" rx="11.853" ry="11.852"/>
		</g>
		<path style="opacity:0.4;fill:#FFFFFF;" d="M290.643,159.201l-35.361,35.362c0.546,12.484,7.846,23.207,18.334,28.622l45.65-45.65
			C313.85,167.047,303.127,159.748,290.643,159.201z"/>
	</g>
	<g>
		<g>
			<g>
				<rect x="269.4" y="71.082" style="fill:#EF4D5C;" width="56.946" height="51.614"/>
				<rect x="274.629" y="77.117" style="fill:#FFFFFF;" width="46.488" height="39.545"/>
				<path style="fill:#00AEEF;" d="M287.221,80.852c0,1.586-1.286,2.871-2.873,2.871l0,0c-1.587,0-2.873-1.285-2.873-2.871V68.978
					c0-1.587,1.286-2.873,2.873-2.873l0,0c1.587,0,2.873,1.286,2.873,2.873V80.852z"/>
				<path style="fill:#00AEEF;" d="M300.747,80.852c0,1.586-1.286,2.871-2.873,2.871l0,0c-1.587,0-2.872-1.285-2.872-2.871V68.978
					c0-1.587,1.285-2.873,2.872-2.873l0,0c1.587,0,2.873,1.286,2.873,2.873V80.852z"/>
				<path style="fill:#00AEEF;" d="M314.273,80.852c0,1.586-1.286,2.871-2.873,2.871l0,0c-1.587,0-2.873-1.285-2.873-2.871V68.978
					c0-1.587,1.286-2.873,2.873-2.873l0,0c1.587,0,2.873,1.286,2.873,2.873V80.852z"/>
			</g>
			<g>
				<rect x="283.023" y="89.829" style="fill:#E6E7E8;" width="33.783" height="2.426"/>
				<rect x="278.94" y="95.78" style="fill:#E6E7E8;" width="37.867" height="2.427"/>
				<rect x="278.94" y="101.733" style="fill:#E6E7E8;" width="37.867" height="2.426"/>
				<rect x="278.94" y="107.686" style="fill:#E6E7E8;" width="37.867" height="2.426"/>
			</g>
		</g>
		<path style="opacity:0.4;fill:#FFFFFF;" d="M326.347,71.082h-12.073v-2.104c0-1.587-1.286-2.873-2.873-2.873
			c-1.587,0-2.873,1.286-2.873,2.873v2.104h-7.78v-2.104c0-1.587-1.286-2.873-2.873-2.873c-1.587,0-2.872,1.286-2.872,2.873v2.104
			h-6.06L269.4,90.624v32.072h15.313l41.634-41.632V71.082z"/>
	</g>
	<g>
		
			<ellipse transform="matrix(0.1618 -0.9868 0.9868 0.1618 -51.0416 265.7476)" style="fill:#FFFFFF;" cx="130.918" cy="162.921" rx="91.413" ry="91.414"/>
		<g>
			<polygon style="fill:#EF4D5C;" points="177.47,145.61 182.482,132.477 182.482,103.179 230.479,103.181 230.479,137.851 
				190.544,137.851 			"/>
			<g>
				<rect x="190.248" y="109.917" style="fill:#FFFFFF;" width="36.665" height="2.493"/>
				<rect x="185.816" y="116.031" style="fill:#FFFFFF;" width="41.096" height="2.493"/>
				<rect x="185.816" y="122.146" style="fill:#FFFFFF;" width="41.096" height="2.493"/>
				<rect x="185.816" y="128.262" style="fill:#FFFFFF;" width="41.096" height="2.491"/>
			</g>
		</g>
		<g>
			<g>
				<path style="fill:#E6E7E8;" d="M121.105,167.535c0,3.133-2.539,5.672-5.67,5.671l-64.902-0.002
					c-3.131,0.001-5.67-2.538-5.67-5.67v-54.516c0.001-3.132,2.539-5.671,5.673-5.671l64.9,0.002c3.132,0.001,5.671,2.538,5.67,5.67
					L121.105,167.535z"/>
				<path style="fill:#00AEEF;" d="M115.436,107.35l-64.9-0.002c-3.134,0-5.672,2.539-5.673,5.671v5.763l76.242,0.003l0.001-5.765
					C121.107,109.888,118.568,107.351,115.436,107.35z"/>
			</g>
			<rect x="60.158" y="124.335" style="fill:#FFFFFF;" width="50.171" height="3.149"/>
			<rect x="54.092" y="132.063" style="fill:#FFFFFF;" width="56.236" height="3.15"/>
			<rect x="54.092" y="139.792" style="fill:#FFFFFF;" width="56.236" height="3.151"/>
			<rect x="54.092" y="147.521" style="fill:#FFFFFF;" width="56.237" height="3.15"/>
			<rect x="54.092" y="156.312" style="fill:#A2C037;" width="22.998" height="7.274"/>
			<rect x="82.211" y="156.313" style="fill:#EF4D5C;" width="22.998" height="7.274"/>
		</g>
		<g>
			<defs>
				<path id="SVGID_00000052807514217857704160000003347372477635106707_" d="M222.332,162.921
					c0,50.486-40.928,91.413-91.414,91.413c-50.486,0-91.414-40.927-91.414-91.413c0-50.487,40.928-118.038,91.414-118.038
					C181.404,44.883,222.332,112.434,222.332,162.921z"/>
			</defs>
			<clipPath id="SVGID_00000039817216236040804030000006721606085799683767_">
				<use xlink:href="#SVGID_00000052807514217857704160000003347372477635106707_"  style="overflow:visible;"/>
			</clipPath>
			<g style="clip-path:url(#SVGID_00000039817216236040804030000006721606085799683767_);">
				<g>
					<g>
						<g>
							<g>
								<path style="fill:#F7CEBA;" d="M120.326,154.33c3.852-0.362,2.726-9.834,2.726-9.834l20.018-0.188
									c0,0-0.948,9.485,2.907,9.78c3.854,0.283-6.457,36.914-12.471,36.969C127.482,191.115,116.482,154.689,120.326,154.33z"/>
								<g>
									<g>
										<path style="fill:#FFDECC;" d="M98.975,115.058c0.176,18.669,15.453,33.661,34.125,33.48
											c18.67-0.175,33.662-15.455,33.484-34.124c-0.18-18.67,1.875-44.35-34.228-44.005
											C96.252,70.754,98.798,96.387,98.975,115.058z"/>
										<g>
											<path style="fill:#FFDECC;" d="M166.458,112.455c0,0,8.417-4.021,8.763,1.709c0.345,5.732-2.047,14.284-9.159,15.657
												C158.954,131.189,166.458,112.455,166.458,112.455"/>
											<path style="fill:#FFDECC;" d="M99.098,111.707c0,0-8.492-3.86-8.726,1.875c-0.235,5.738,2.317,14.244,9.452,15.479
												C106.954,130.292,99.098,111.707,99.098,111.707"/>
										</g>
									</g>
									<g>
										<path style="fill:#AA724F;" d="M161.616,90.313c0,0-27.726,23.424-62.323,23.743c0,0-13.244-19.735,5.562-36.134
											C126.307,59.218,169.748,71.565,161.616,90.313z"/>
										<path style="fill:#AA724F;" d="M151.242,73.776l1.096,8.521c0,0,5.93,20.129,14.293,30.186
											C166.631,112.483,185.652,80.944,151.242,73.776z"/>
										<path style="fill:#AA724F;" d="M155.904,74.319l-5.412,6.67c0,0-10.481,18.184-11.992,31.176
											C138.5,112.165,174.455,104.173,155.904,74.319z"/>
									</g>
								</g>
							</g>
							<g>
								<g>
									<polygon style="fill:#F7CEBA;" points="102.252,300.642 90.426,408.916 107.564,408.753 128.512,300.297 121.897,278.057 
																			"/>
									<g>
										<g>
											<g>
												<path style="fill:#3F3E3E;" d="M104.957,258.805c0,0-14.072,129.926-15.074,147.629l17.682,2.319l24.834-111.842
													l3.992-40.611L104.957,258.805z"/>
											</g>
										</g>
									</g>
									<path style="fill:#383737;" d="M71.441,415.328c1.084-3.679,19.338-10.851,19.338-10.851l17.57,0.396
										c0,0,1.721,11.911-1.725,12.916c-3.453,1.017-14.862,1.766-20.142,1.729C82.242,419.478,70.355,419.015,71.441,415.328z"/>
								</g>
								<g>
									<g>
										<g>
											<g>
												<path style="fill:#3F3E3E;" d="M165.774,258.222c0,0-3.962,129.834-2.627,147.52l-18.599,1.486l-12.355-110.316
													l2.102-40.594L165.774,258.222z"/>
											</g>
										</g>
									</g>
									<path style="fill:#383737;" d="M181.883,414.273c-1.155-3.656-19.544-10.478-19.544-10.478l-17.56,0.729
										c0,0-1.488,11.943,1.971,12.884c3.475,0.948,14.891,1.48,20.174,1.345C171.162,418.635,183.04,417.943,181.883,414.273z"/>
								</g>
							</g>
							<path style="fill:#F7CEBA;" d="M184.145,211.783c-0.359-1.831-0.723-3.658-1.073-5.5c-0.706-3.669-1.405-7.345-2.1-11.029
								c-1.101-5.9-3.291-11.517-4.212-17.45c-0.291-1.891-0.594-3.796-0.725-5.709c-0.183-2.746-0.965-4.897-2.021-6.59
								c-3.548,8.046-7.956,15.713-10.835,24.112c-0.22,0.636-0.482,1.215-0.764,1.774c2.174,10.743,5.599,19.738,5.599,19.738
								c1.115,2.924,1.519,6.103,2.931,8.909c1.34,3.73,6.878,7.31,10.622,5.691C186.789,223.482,184.145,211.783,184.145,211.783z"
								/>
							<path style="fill:#F7CEBA;" d="M180.25,214.678c-5.336-0.639-9.582,2.265-11.898,6.813
								c-3.157,6.23-4.722,13.076-6.743,19.717c-0.699,2.279-1.613,4.52-2.193,6.829c-0.389,1.556-0.766,2.568-1.714,3.76
								c0,0-12.851,3.506-12.264,6.468c0.599,2.955,5.091,2.775,5.091,2.775s-1.388,11.357,7.994,10.277
								c9.37-1.078,7.678-10.792,8.813-14.096c2.023-5.898,5.687-11.031,8.938-16.29c0.855-1.383,1.677-2.78,2.46-4.2
								c2.043-3.72,3.668-7.498,4.896-11.617c0.686-2.268,1.975-5.57,0.572-8.018C183.338,215.572,181.857,214.88,180.25,214.678z"
								/>
							<path style="fill:#3F3E3E;" d="M169.711,160.597c0,0,5.258,3.542,6.849,11.169c1.614,7.735,3.315,15.278,3.906,17.869
								c0.597,2.593,2.696,14.268,2.995,15.852c0.299,1.578,0.846,4.3,1.305,6.896c0.452,2.593,0.859,7.117-0.289,11.296
								c-1.146,4.184-7.947,19.727-14.738,29.477l-11.261-5.501c0,0,9.198-25.796,10.323-29.276l-8.01-28.739L169.711,160.597z"/>
							<g>
								<polygon style="fill:#FFFFFF;" points="134.102,156.384 118.998,166.376 119.322,264.154 135.771,263.996 151.412,263.849 
									148.249,164.833 								"/>
								<polyline style="fill:#3F3E3E;" points="168.936,271.432 157.053,212.654 169.711,160.597 147.176,152.65 134.769,192.41 
									120.963,152.9 99.232,161.221 112.788,213.078 102.346,271.764 								"/>
								<g>
									<polygon style="fill:#FFFFFF;" points="123.135,149.199 118.806,153.72 120.429,167.142 134.102,156.384 									"/>
								</g>
								<g>
									<polygon style="fill:#FFFFFF;" points="143.074,149.011 148.232,153.02 147.996,166.881 134.122,156.384 									"/>
								</g>
							</g>
							<path style="fill:#F7CEBA;" d="M180.25,214.678c-5.336-0.639-9.582,2.265-11.898,6.813
								c-3.157,6.23-4.722,13.076-6.743,19.717c-0.699,2.279-1.613,4.52-2.193,6.829c-0.389,1.556-0.766,2.568-1.714,3.76
								c0,0-10.195,2.665-9.607,5.629c0.603,2.955,2.435,3.614,2.435,3.614s-1.388,11.357,7.994,10.277
								c9.37-1.078,7.678-10.792,8.813-14.096c2.023-5.898,5.687-11.031,8.938-16.29c0.855-1.383,1.677-2.78,2.46-4.2
								c2.043-3.72,3.668-7.498,4.896-11.617c0.686-2.268,1.975-5.57,0.572-8.018C183.338,215.572,181.857,214.88,180.25,214.678z"
								/>
							<path style="fill:#F7CEBA;" d="M90.318,215.535c5.324-0.743,8.508,2.218,10.909,6.721c3.275,6.167,6.086,12.846,8.235,19.447
								c0.742,2.266,1.697,4.492,2.322,6.788c0.416,1.548,0.813,2.551,1.785,3.723c0,0,10.246,2.474,9.713,5.445
								c-0.547,2.97-2.365,3.662-2.365,3.662s1.603,11.329-7.797,10.426c-9.387-0.897-7.885-10.643-9.082-13.924
								c-2.132-5.86-5.891-10.922-9.244-16.115c-0.882-1.37-1.729-2.749-2.539-4.154c-2.116-3.68-3.811-7.429-5.119-11.521
								c-0.73-2.258-2.08-5.531-0.725-8.003C87.25,216.485,88.718,215.768,90.318,215.535z"/>
							<path style="fill:#3F3E3E;" d="M183.461,205.486c-0.299-1.584-2.398-13.259-2.995-15.852
								c-0.591-2.591-2.292-10.134-3.906-17.869c-0.286-1.381-0.692-2.616-1.17-3.727c-4.276,9.476-8.496,18.982-12.673,28.507
								l6.084,21.833c-1.125,3.48-10.323,29.276-10.323,29.276l11.261,5.501c6.791-9.75,13.592-25.293,14.738-29.477
								c1.148-4.179,0.741-8.703,0.289-11.296C184.307,209.786,183.76,207.064,183.461,205.486z"/>
							<path style="fill:#3F3E3E;" d="M99.338,161.181c0,0-5.074,3.727-6.518,11.382c-1.469,7.767-3.023,15.339-3.566,17.941
								c-0.545,2.604-2.425,14.315-2.693,15.904c-0.268,1.586-0.763,4.315-1.17,6.922c-0.406,2.601-0.725,7.13,0.504,11.286
								c1.226,4.165,8.318,19.572,15.296,29.193l11.152-5.716c0,0-9.688-25.614-10.878-29.075l7.461-28.887L99.338,161.181z"/>
							<path style="fill:#3F3E3E;" d="M86.56,206.408c0.269-1.589,2.149-13.301,2.693-15.904c0.543-2.603,2.098-10.175,3.566-17.941
								c0.258-1.385,0.643-2.628,1.098-3.75c4.456,9.395,8.855,18.817,13.215,28.264l-5.668,21.942
								c1.189,3.461,10.878,29.075,10.878,29.075l-11.152,5.716c-6.978-9.621-14.07-25.028-15.296-29.193
								c-1.228-4.156-0.91-8.686-0.504-11.286C85.798,210.724,86.292,207.994,86.56,206.408z"/>
						</g>
					</g>
					<path style="fill:#AA724F;" d="M99.064,64c0,0-1.051,5.371,18.913,2.818c23.763-3.039,34.245,0.717,40.533,9.122
						c6.285,8.397-23.948,15.92-25.943,16.688c-1.992,0.765-32.979,8.815-32.979,8.815l-2.292,7.136
						C97.297,108.58,86.496,81.588,99.064,64z"/>
					<polygon style="fill:#EF4D5C;" points="134.289,173.787 128.877,168.477 134.122,156.384 139.598,168.377 					"/>
				</g>
				<path style="fill:#D9D9D9;" d="M199.7,273.119c-0.001,2.411-2.102,4.365-4.689,4.365l-123.215-0.003
					c-2.589,0-4.69-1.954-4.69-4.365l0.004-83.25c0-2.411,2.1-4.365,4.688-4.364l123.214,0.003c2.589,0,4.689,1.952,4.689,4.367
					L199.7,273.119z"/>
			</g>
		</g>
	</g>
	<g>
		
			<ellipse transform="matrix(0.1602 -0.9871 0.9871 0.1602 -42.0126 644.6938)" style="fill:#FFFFFF;" cx="357.867" cy="347.037" rx="91.413" ry="91.414"/>
		<g>
			<defs>
				<path id="SVGID_00000085970634913906046590000009330047483121743790_" d="M473.443,317.929c0,7.938-25.174,44.748-27.076,52.093
					c-10.193,39.36-45.953,68.429-88.5,68.429c-50.486,0-91.414-40.927-91.414-91.413c0-50.488,40.928-115.038,91.414-115.038
					S473.443,267.441,473.443,317.929z"/>
			</defs>
			<clipPath id="SVGID_00000083084007422189180630000000631932327759410349_">
				<use xlink:href="#SVGID_00000085970634913906046590000009330047483121743790_"  style="overflow:visible;"/>
			</clipPath>
			<g style="clip-path:url(#SVGID_00000083084007422189180630000000631932327759410349_);">
				<g>
					<path style="fill:#D9D9D9;" d="M330.757,395.111c0.007,4.022-3.252,7.284-7.276,7.292l-44.311,0.072
						c-4.025,0.006-7.292-3.254-7.297-7.274l-0.111-71.634c-0.009-4.024,3.248-7.289,7.273-7.299l44.313-0.066
						c4.024-0.01,7.293,3.254,7.298,7.273L330.757,395.111z"/>
					<path style="fill:#D9D9D9;" d="M330.757,395.111c0.007,4.022-3.252,7.284-7.276,7.292l-44.311,0.072
						c-4.025,0.006-7.292-3.254-7.297-7.274l-0.111-71.634c-0.009-4.024,3.248-7.289,7.273-7.299l44.313-0.066
						c4.024-0.01,7.293,3.254,7.298,7.273L330.757,395.111z"/>
					
						<rect x="275.381" y="323.713" transform="matrix(1 -0.0015 0.0015 1 -0.5548 0.4667)" style="fill:#F1F2F2;" width="51.752" height="69.883"/>
					
						<rect x="277.859" y="328.439" transform="matrix(1 -0.0016 0.0016 1 -0.5225 0.4698)" style="fill:#00AEEF;" width="46.996" height="14.527"/>
					<g>
						
							<rect x="277.919" y="366.152" transform="matrix(1 -0.0015 0.0015 1 -0.5709 0.4422)" style="fill:#EF4D5C;" width="21.701" height="14.532"/>
						
							<rect x="277.888" y="347.089" transform="matrix(1 -0.0015 0.0015 1 -0.5417 0.4421)" style="fill:#C5C5C5;" width="21.702" height="14.535"/>
						
							<rect x="303.185" y="347.053" transform="matrix(1 -0.0015 0.0015 1 -0.5482 0.4866)" style="fill:#C5C5C5;" width="21.701" height="14.531"/>
						
							<rect x="303.213" y="366.112" transform="matrix(1 -0.0015 0.0015 1 -0.5537 0.4664)" style="fill:#C5C5C5;" width="21.702" height="14.533"/>
					</g>
					<path style="opacity:0.4;fill:#FFFFFF;" d="M330.69,352.432l-56.866,47.684c-1.199-1.29-1.949-3.011-1.951-4.914l-0.01-6.477
						l58.807-49.314L330.69,352.432z M271.85,380.119l58.808-49.313l-0.012-7.33c-0.005-4.02-3.273-7.283-7.298-7.273l-7.96,0.011
						l-43.579,36.549L271.85,380.119z"/>
				</g>
				<g>
					<path style="fill:#6E3C3D;" d="M400.575,304.79c0,29.292-19.052,53.037-42.553,53.037c-23.5,0-42.551-23.745-42.551-53.037
						c0-29.291,19.051-53.036,42.551-53.036C381.523,251.754,400.575,275.499,400.575,304.79z"/>
					<g>
						<path style="fill:#FFD6BB;" d="M329.167,337.855c0,0-11.41,0.102-14.367,12.069c-0.531,2.147-1.259,4.244-1.969,6.332
							c-2.248,6.561-4.674,13.047-7.115,19.518c-1.524,4.042-3.061,8.079-4.611,12.101c-0.767,2.014-1.546,4.02-2.319,6.028
							c0,0-5.72,10.938-0.249,14.548c3.922,2.588,10.113,0.892,12.38-3.074c2.169-2.903,3.274-6.426,5.124-9.517
							C316.04,395.852,340.651,354.799,329.167,337.855z"/>
						<path style="fill:#FFD6BB;" d="M387.776,337.857c0,0,11.402-0.443,14.929,11.369c0.633,2.12,1.46,4.18,2.27,6.229
							c2.559,6.445,5.293,12.809,8.04,19.156c1.716,3.963,3.445,7.923,5.184,11.865c0.863,1.976,1.737,3.941,2.606,5.91
							c0,0,6.237,10.65,0.944,14.519c-3.794,2.774-10.059,1.374-12.512-2.479c-2.307-2.795-3.579-6.262-5.574-9.26
							C403.662,395.159,377.116,355.331,387.776,337.857z"/>
						<g>
							<g>
								<g>
									<path style="fill:#EF4D5C;" d="M329.731,376.134c-2.115-7.886,0.097-15.827,1.585-18.946
										c1.482-3.112-1.479-18.267-2.489-20.132c-1.009-1.87,17.404-1.919,17.404-1.919l13.76,2.162l13.754-2.15
										c0,0,18.413,0.064,17.4,1.936c-1.012,1.863-3.984,17.015-2.504,20.128c1.481,3.12,3.797,8.541,1.676,16.42
										c-2.117,7.889-2.955,13.882-3.175,24.466c-0.213,10.584,6.556,21.937,6.556,21.937s-22.408,17.629-42.732,12.433
										c-20.319-5.197-24.762-12.464-24.762-12.464l0.669-1.819c1.706-4.766,6.069-11.582,5.905-20.108
										C332.572,387.493,331.845,384.021,329.731,376.134"/>
								</g>
							</g>
						</g>
						<path style="fill:#F7CEBA;" d="M348.476,322.163c0,0,0.969,12.48-2.771,12.772c-3.739,0.288,9.995,4.804,12.163,4.806
							c3.242,0,13.745-2.91,13.3-4.516c-0.443-1.604-6.162-5.244-4.081-11.557C369.161,317.354,348.476,322.163,348.476,322.163"/>
						<path style="fill:#EF4D5C;" d="M406.681,350.635l-1.761-3.458c0,0-5.357-10.004-14.912-10.941
							c-9.553-0.931-5.247,36.639-5.247,36.639l3.916-4.692l4.156,8.017L406.681,350.635z"/>
						<path style="fill:#EF4D5C;" d="M312.067,350.635l1.76-3.458c0,0,5.358-10.004,14.912-10.941
							c9.553-0.931,5.248,36.639,5.248,36.639l-3.916-4.692l-4.156,8.017L312.067,350.635z"/>
					</g>
					<g>
						<path style="fill:#FFDECC;" d="M328.392,300.022c0.154,16.39,13.564,29.55,29.957,29.392
							c16.389-0.153,29.549-13.567,29.394-29.956c-0.157-16.39,1.646-38.933-30.046-38.631
							C326,261.131,328.235,283.633,328.392,300.022z"/>
						<g>
							<path style="fill:#FFDECC;" d="M393.076,298.195c-0.285-4.726-7.229-1.409-7.229-1.409s-6.189,15.452-0.326,14.324
								C391.387,309.978,393.359,302.924,393.076,298.195z"/>
							<path style="fill:#FFDECC;" d="M323.088,297.715c-0.194,4.733,1.912,11.75,7.797,12.769c5.881,1.015-0.6-14.314-0.6-14.314
								S323.281,292.984,323.088,297.715z"/>
						</g>
					</g>
					<path style="fill:#6E3C3D;" d="M342.09,278.689l3.212,12.967l27.776,0.014l1.56-7.828l1.938,7.827l13.352,0.008
						c0.008-19.517-14.271-35.34-31.889-35.349c-17.616-0.007-31.91,15.805-31.918,35.319l13.389,0.008L342.09,278.689z"/>
					<path style="fill:#6E3C3D;" d="M372.368,256.334c-0.004,7.854-6.374,14.221-14.232,14.217
						c-7.852-0.002-14.222-6.371-14.219-14.23c0.004-7.856,6.377-14.22,14.23-14.218
						C366.007,242.107,372.372,248.48,372.368,256.334z"/>
				</g>
				<path style="fill:#D9D9D9;" d="M425.663,466.022c0,2.411-2.102,4.365-4.689,4.365l-123.215-0.003
					c-2.588,0-4.689-1.954-4.689-4.365l0.003-83.25c0-2.411,2.101-4.365,4.688-4.364l123.215,0.003c2.588,0,4.689,1.952,4.689,4.367
					L425.663,466.022z"/>
			</g>
		</g>
		<g>
			<polygon style="fill:#00AEEF;" points="400.051,333 405.944,317.533 405.93,283.035 462.446,283.012 462.465,323.837 
				415.44,323.857 			"/>
			<g>
				<rect x="415.079" y="290.956" style="fill:#FFFFFF;" width="43.172" height="2.935"/>
				<rect x="409.863" y="298.156" style="fill:#FFFFFF;" width="48.391" height="2.935"/>
				<rect x="409.866" y="305.355" style="fill:#FFFFFF;" width="48.391" height="2.936"/>
				<rect x="409.87" y="312.557" style="fill:#FFFFFF;" width="48.391" height="2.934"/>
			</g>
		</g>
	</g>
</g>
</svg>
