<?xml version="1.0" encoding="utf-8"?>
<!-- Generator: Adobe Illustrator 27.5.0, SVG Export Plug-In . SVG Version: 6.00 Build 0)  -->
<svg version="1.1" xmlns="http://www.w3.org/2000/svg" xmlns:xlink="http://www.w3.org/1999/xlink" x="0px" y="0px"
	 viewBox="0 0 500 500" style="enable-background:new 0 0 500 500;" xml:space="preserve">
<g id="Background_Simple">
	<g>
		<path style="fill:#C6FF00;" d="M381.283,133.881c0,0-42.611-47.572-108.602-43.996c-65.991,3.576-121.419,51.421-167.305,88.947
			c-45.886,37.525-57.333,94.69-29.392,138.635c27.941,43.945,70.687,24.422,126.14,52.25
			c55.453,27.828,66.186,44.01,127.224,35.846c61.038-8.164,106.267-80.783,97.886-157.081
			C418.853,172.186,381.283,133.881,381.283,133.881z"/>
		<path style="opacity:0.7;fill:#FFFFFF;" d="M381.283,133.881c0,0-42.611-47.572-108.602-43.996
			c-65.991,3.576-121.419,51.421-167.305,88.947c-45.886,37.525-57.333,94.69-29.392,138.635
			c27.941,43.945,70.687,24.422,126.14,52.25c55.453,27.828,66.186,44.01,127.224,35.846
			c61.038-8.164,106.267-80.783,97.886-157.081C418.853,172.186,381.283,133.881,381.283,133.881z"/>
	</g>
</g>
<g id="Graphics">
	<g>
		<rect x="79.667" y="146.333" style="fill:#FFFFFF;" width="274" height="178"/>
		<g>
			<g>
				<rect x="179.763" y="207.777" style="fill:#FFFFFF;stroke:#263238;stroke-miterlimit:10;" width="155.797" height="98.653"/>
				<path style="fill:#C6FF00;stroke:#263238;stroke-miterlimit:10;" d="M228.567,196.311l-3.014-8.644h-48.819v8.644v6.802v110.496
					h161.853V196.311H228.567z M335.56,306.43H179.763v-98.653H335.56V306.43z"/>
				<rect x="228.546" y="199.577" style="fill:#FFFFFF;stroke:#263238;stroke-miterlimit:10;" width="77.403" height="4.739"/>
				<g>
					<polyline style="fill:none;stroke:#263238;stroke-linecap:round;stroke-linejoin:round;stroke-miterlimit:10;" points="
						183.509,198.82 181.276,200.97 183.592,203.452 					"/>
					
						<line style="fill:none;stroke:#263238;stroke-linecap:round;stroke-linejoin:round;stroke-miterlimit:10;" x1="181.276" y1="200.97" x2="186.239" y2="200.97"/>
				</g>
				<g>
					<polyline style="fill:none;stroke:#263238;stroke-linecap:round;stroke-linejoin:round;stroke-miterlimit:10;" points="
						196.165,198.82 198.398,200.97 196.082,203.452 					"/>
					
						<line style="fill:none;stroke:#263238;stroke-linecap:round;stroke-linejoin:round;stroke-miterlimit:10;" x1="198.398" y1="200.97" x2="193.435" y2="200.97"/>
				</g>
				<g>
					<path style="fill:none;stroke:#263238;stroke-linecap:round;stroke-linejoin:round;stroke-miterlimit:10;" d="M209.061,200.681
						c-0.242-0.971-1.227-1.778-2.273-1.778c-1.233,0-2.233,1-2.233,2.233c0,1.234,1,2.233,2.233,2.233
						c0.537,0,1.029-0.189,1.414-0.505"/>
					<polyline style="fill:none;stroke:#263238;stroke-linecap:round;stroke-linejoin:round;stroke-miterlimit:10;" points="
						207.557,200.932 209.294,200.932 209.294,198.866 					"/>
				</g>
				<g>
					<polygon style="fill:none;stroke:#263238;stroke-linecap:round;stroke-linejoin:round;stroke-miterlimit:10;" points="
						220.892,200.199 218.832,198.532 216.87,200.199 216.87,203.829 220.892,203.829 					"/>
					<rect x="218.047" y="201.18" style="fill:#263238;" width="1.569" height="2.518"/>
					
						<line style="fill:none;stroke:#263238;stroke-linecap:round;stroke-linejoin:round;stroke-miterlimit:10;" x1="216.87" y1="200.199" x2="215.693" y2="201.278"/>
					
						<line style="fill:none;stroke:#263238;stroke-linecap:round;stroke-linejoin:round;stroke-miterlimit:10;" x1="220.892" y1="200.199" x2="221.999" y2="201.183"/>
				</g>
				<g>
					
						<line style="fill:none;stroke:#263238;stroke-linecap:round;stroke-linejoin:round;stroke-miterlimit:10;" x1="220.149" y1="192.142" x2="223.286" y2="195.377"/>
					
						<line style="fill:none;stroke:#263238;stroke-linecap:round;stroke-linejoin:round;stroke-miterlimit:10;" x1="223.335" y1="192.191" x2="220.1" y2="195.328"/>
				</g>
				<g>
					
						<line style="fill:none;stroke:#263238;stroke-linecap:round;stroke-linejoin:round;stroke-miterlimit:10;" x1="327.353" y1="200.445" x2="333.561" y2="200.445"/>
					
						<line style="fill:none;stroke:#263238;stroke-linecap:round;stroke-linejoin:round;stroke-miterlimit:10;" x1="327.353" y1="201.845" x2="333.561" y2="201.845"/>
					
						<line style="fill:none;stroke:#263238;stroke-linecap:round;stroke-linejoin:round;stroke-miterlimit:10;" x1="327.353" y1="203.245" x2="333.561" y2="203.245"/>
					
						<line style="fill:none;stroke:#263238;stroke-linecap:round;stroke-linejoin:round;stroke-miterlimit:10;" x1="327.353" y1="204.645" x2="333.561" y2="204.645"/>
				</g>
			</g>
			<g>
				
					<line style="fill:#FFFFFF;stroke:#263238;stroke-linecap:round;stroke-linejoin:round;stroke-miterlimit:10;" x1="294.767" y1="219.421" x2="302.592" y2="219.421"/>
				
					<line style="fill:#FFFFFF;stroke:#263238;stroke-linecap:round;stroke-linejoin:round;stroke-miterlimit:10;" x1="284.645" y1="219.421" x2="291.513" y2="219.421"/>
				
					<line style="fill:#FFFFFF;stroke:#263238;stroke-linecap:round;stroke-linejoin:round;stroke-miterlimit:10;" x1="267.82" y1="219.421" x2="282.115" y2="219.421"/>
				
					<line style="fill:#FFFFFF;stroke:#263238;stroke-linecap:round;stroke-linejoin:round;stroke-miterlimit:10;" x1="267.82" y1="224.195" x2="302.592" y2="224.195"/>
				
					<line style="fill:#FFFFFF;stroke:#263238;stroke-linecap:round;stroke-linejoin:round;stroke-miterlimit:10;" x1="297.478" y1="228.97" x2="302.592" y2="228.97"/>
				
					<line style="fill:#FFFFFF;stroke:#263238;stroke-linecap:round;stroke-linejoin:round;stroke-miterlimit:10;" x1="273.439" y1="228.97" x2="294.224" y2="228.97"/>
				
					<line style="fill:#FFFFFF;stroke:#263238;stroke-linecap:round;stroke-linejoin:round;stroke-miterlimit:10;" x1="267.82" y1="228.97" x2="270.547" y2="228.97"/>
				
					<line style="fill:#FFFFFF;stroke:#263238;stroke-linecap:round;stroke-linejoin:round;stroke-miterlimit:10;" x1="267.82" y1="233.744" x2="302.592" y2="233.744"/>
			</g>
			<g>
				
					<rect x="272.208" y="273.562" style="fill:#263238;stroke:#263238;stroke-linecap:round;stroke-linejoin:round;stroke-miterlimit:10;" width="7.734" height="23.754"/>
				<rect x="283.257" y="245.388" style="fill:#C6FF00;stroke:#263238;stroke-miterlimit:10;" width="7.734" height="51.928"/>
				
					<rect x="294.305" y="260.856" style="fill:#263238;stroke:#263238;stroke-linecap:round;stroke-linejoin:round;stroke-miterlimit:10;" width="7.734" height="36.46"/>
				<rect x="305.354" y="245.388" style="fill:#C6FF00;stroke:#263238;stroke-miterlimit:10;" width="7.734" height="51.928"/>
				
					<rect x="316.402" y="222.739" style="fill:#263238;stroke:#263238;stroke-linecap:round;stroke-linejoin:round;stroke-miterlimit:10;" width="7.734" height="74.577"/>
			</g>
		</g>
		<g>
			<g>
				<rect x="91.95" y="177.772" style="fill:#FFFFFF;stroke:#263238;stroke-miterlimit:10;" width="155.797" height="98.653"/>
				<path style="fill:#C6FF00;stroke:#263238;stroke-miterlimit:10;" d="M140.754,166.305l-3.014-8.644H88.922v8.644v6.802v110.496
					h161.853V166.305H140.754z M247.747,276.425H91.95v-98.653h155.797V276.425z"/>
				<rect x="140.732" y="169.571" style="fill:#FFFFFF;stroke:#263238;stroke-miterlimit:10;" width="77.403" height="4.739"/>
				<g>
					<polyline style="fill:none;stroke:#263238;stroke-linecap:round;stroke-linejoin:round;stroke-miterlimit:10;" points="
						95.696,168.814 93.463,170.965 95.779,173.447 					"/>
					
						<line style="fill:none;stroke:#263238;stroke-linecap:round;stroke-linejoin:round;stroke-miterlimit:10;" x1="93.463" y1="170.965" x2="98.426" y2="170.965"/>
				</g>
				<g>
					<polyline style="fill:none;stroke:#263238;stroke-linecap:round;stroke-linejoin:round;stroke-miterlimit:10;" points="
						108.352,168.814 110.585,170.965 108.269,173.447 					"/>
					
						<line style="fill:none;stroke:#263238;stroke-linecap:round;stroke-linejoin:round;stroke-miterlimit:10;" x1="110.585" y1="170.965" x2="105.622" y2="170.965"/>
				</g>
				<g>
					<path style="fill:none;stroke:#263238;stroke-linecap:round;stroke-linejoin:round;stroke-miterlimit:10;" d="M121.248,170.676
						c-0.242-0.972-1.227-1.778-2.273-1.778c-1.233,0-2.233,1-2.233,2.233c0,1.234,1,2.233,2.233,2.233
						c0.537,0,1.029-0.189,1.414-0.505"/>
					<polyline style="fill:none;stroke:#263238;stroke-linecap:round;stroke-linejoin:round;stroke-miterlimit:10;" points="
						119.744,170.926 121.481,170.926 121.481,168.861 					"/>
				</g>
				<g>
					<polygon style="fill:none;stroke:#263238;stroke-linecap:round;stroke-linejoin:round;stroke-miterlimit:10;" points="
						133.079,170.194 131.019,168.526 129.057,170.194 129.057,173.823 133.079,173.823 					"/>
					<rect x="130.234" y="171.175" style="fill:#263238;" width="1.569" height="2.518"/>
					
						<line style="fill:none;stroke:#263238;stroke-linecap:round;stroke-linejoin:round;stroke-miterlimit:10;" x1="129.057" y1="170.194" x2="127.88" y2="171.273"/>
					
						<line style="fill:none;stroke:#263238;stroke-linecap:round;stroke-linejoin:round;stroke-miterlimit:10;" x1="133.079" y1="170.194" x2="134.186" y2="171.178"/>
				</g>
				<g>
					
						<line style="fill:none;stroke:#263238;stroke-linecap:round;stroke-linejoin:round;stroke-miterlimit:10;" x1="132.336" y1="162.136" x2="135.473" y2="165.371"/>
					
						<line style="fill:none;stroke:#263238;stroke-linecap:round;stroke-linejoin:round;stroke-miterlimit:10;" x1="135.522" y1="162.185" x2="132.287" y2="165.322"/>
				</g>
				<g>
					
						<line style="fill:none;stroke:#263238;stroke-linecap:round;stroke-linejoin:round;stroke-miterlimit:10;" x1="239.54" y1="170.44" x2="245.748" y2="170.44"/>
					
						<line style="fill:none;stroke:#263238;stroke-linecap:round;stroke-linejoin:round;stroke-miterlimit:10;" x1="239.54" y1="171.84" x2="245.748" y2="171.84"/>
					
						<line style="fill:none;stroke:#263238;stroke-linecap:round;stroke-linejoin:round;stroke-miterlimit:10;" x1="239.54" y1="173.24" x2="245.748" y2="173.24"/>
					
						<line style="fill:none;stroke:#263238;stroke-linecap:round;stroke-linejoin:round;stroke-miterlimit:10;" x1="239.54" y1="174.639" x2="245.748" y2="174.639"/>
				</g>
			</g>
			<polygon style="fill:#263238;" points="99.96,266.905 99.96,232.828 110.797,255.782 120.008,251.759 130.434,259.993 
				148.183,248.446 159.02,263.592 166.606,259.805 173.108,263.592 181.235,262.645 192.072,265.248 203.451,264.302 
				210.688,266.905 			"/>
			<g>
				
					<line style="fill:#FFFFFF;stroke:#263238;stroke-linecap:round;stroke-linejoin:round;stroke-miterlimit:10;" x1="214.056" y1="207.777" x2="225.875" y2="207.777"/>
				
					<line style="fill:#FFFFFF;stroke:#263238;stroke-linecap:round;stroke-linejoin:round;stroke-miterlimit:10;" x1="198.768" y1="207.777" x2="209.142" y2="207.777"/>
				
					<line style="fill:#FFFFFF;stroke:#263238;stroke-linecap:round;stroke-linejoin:round;stroke-miterlimit:10;" x1="173.355" y1="207.777" x2="194.946" y2="207.777"/>
				
					<line style="fill:#FFFFFF;stroke:#263238;stroke-linecap:round;stroke-linejoin:round;stroke-miterlimit:10;" x1="173.355" y1="212.551" x2="225.875" y2="212.551"/>
				
					<line style="fill:#FFFFFF;stroke:#263238;stroke-linecap:round;stroke-linejoin:round;stroke-miterlimit:10;" x1="218.151" y1="217.326" x2="225.875" y2="217.326"/>
				
					<line style="fill:#FFFFFF;stroke:#263238;stroke-linecap:round;stroke-linejoin:round;stroke-miterlimit:10;" x1="181.843" y1="217.326" x2="213.237" y2="217.326"/>
				
					<line style="fill:#FFFFFF;stroke:#263238;stroke-linecap:round;stroke-linejoin:round;stroke-miterlimit:10;" x1="173.355" y1="217.326" x2="177.475" y2="217.326"/>
				
					<line style="fill:#FFFFFF;stroke:#263238;stroke-linecap:round;stroke-linejoin:round;stroke-miterlimit:10;" x1="173.355" y1="222.1" x2="225.875" y2="222.1"/>
			</g>
			<g>
				
					<line style="fill:#FFFFFF;stroke:#263238;stroke-linecap:round;stroke-linejoin:round;stroke-miterlimit:10;" x1="225.875" y1="229.777" x2="214.056" y2="229.777"/>
				
					<line style="fill:#FFFFFF;stroke:#263238;stroke-linecap:round;stroke-linejoin:round;stroke-miterlimit:10;" x1="198.768" y1="229.777" x2="209.142" y2="229.777"/>
				
					<line style="fill:#FFFFFF;stroke:#263238;stroke-linecap:round;stroke-linejoin:round;stroke-miterlimit:10;" x1="173.355" y1="229.777" x2="194.946" y2="229.777"/>
				
					<line style="fill:#FFFFFF;stroke:#263238;stroke-linecap:round;stroke-linejoin:round;stroke-miterlimit:10;" x1="173.355" y1="234.551" x2="225.875" y2="234.551"/>
				
					<line style="fill:#FFFFFF;stroke:#263238;stroke-linecap:round;stroke-linejoin:round;stroke-miterlimit:10;" x1="225.875" y1="239.326" x2="218.151" y2="239.326"/>
				
					<line style="fill:#FFFFFF;stroke:#263238;stroke-linecap:round;stroke-linejoin:round;stroke-miterlimit:10;" x1="181.843" y1="239.326" x2="213.237" y2="239.326"/>
				
					<line style="fill:#FFFFFF;stroke:#263238;stroke-linecap:round;stroke-linejoin:round;stroke-miterlimit:10;" x1="173.355" y1="239.326" x2="177.475" y2="239.326"/>
				
					<line style="fill:#FFFFFF;stroke:#263238;stroke-linecap:round;stroke-linejoin:round;stroke-miterlimit:10;" x1="173.355" y1="244.1" x2="225.875" y2="244.1"/>
			</g>
			<g>
				<g>
					<g>
						<g>
							<path style="fill:#C6FF00;" d="M113.434,215.644l-6.211,13.949c-7.704-3.43-11.169-12.456-7.739-20.16
								c2.49-5.593,7.827-9.059,13.949-9.059V215.644z"/>
						</g>
					</g>
					<g style="opacity:0.47;">
						<g>
							<path style="fill:#FFFFFF;" d="M113.434,215.644l-6.211,13.949c-7.704-3.43-11.169-12.456-7.739-20.16
								c2.49-5.593,7.827-9.059,13.949-9.059V215.644z"/>
						</g>
					</g>
					<g>
						<g>
							<path style="fill:#263238;" d="M113.434,215.644l7.168,13.482c-4.281,2.277-8.949,2.439-13.379,0.467L113.434,215.644z"/>
						</g>
					</g>
					<g>
						<g>
							<path style="fill:#C6FF00;" d="M113.434,215.644l11.866-9.609c5.307,6.554,4.296,16.169-2.257,21.476
								c-0.799,0.647-1.532,1.132-2.441,1.615L113.434,215.644z"/>
						</g>
					</g>
					<g>
						<g>
							<path style="fill:#263238;" d="M113.434,215.644v-15.269c4.849,0,8.815,1.892,11.866,5.66L113.434,215.644z"/>
						</g>
					</g>
				</g>
				<circle style="fill:#FFFFFF;" cx="113.432" cy="215.669" r="8.31"/>
			</g>
			<g>
				<g>
					<g>
						<g>
							<path style="fill:#C6FF00;" d="M154.807,215.644l-6.21,13.949c-7.704-3.43-11.169-12.456-7.739-20.16
								c2.49-5.593,7.827-9.059,13.949-9.059V215.644z"/>
						</g>
					</g>
					<g style="opacity:0.47;">
						<g>
							<path style="fill:#FFFFFF;" d="M154.807,215.644l-6.21,13.949c-7.704-3.43-11.169-12.456-7.739-20.16
								c2.49-5.593,7.827-9.059,13.949-9.059V215.644z"/>
						</g>
					</g>
					<g>
						<g>
							<path style="fill:#263238;" d="M154.807,215.644l7.169,13.482c-4.281,2.277-8.949,2.439-13.379,0.467L154.807,215.644z"/>
						</g>
					</g>
					<g>
						<g>
							<path style="fill:#C6FF00;" d="M154.807,215.644l11.866-9.609c5.307,6.554,4.296,16.169-2.257,21.476
								c-0.799,0.647-1.532,1.132-2.441,1.615L154.807,215.644z"/>
						</g>
					</g>
					<g>
						<g>
							<path style="fill:#263238;" d="M154.807,215.644v-15.269c4.849,0,8.815,1.892,11.866,5.66L154.807,215.644z"/>
						</g>
					</g>
				</g>
				<circle style="fill:#FFFFFF;" cx="154.806" cy="215.669" r="8.31"/>
			</g>
			
				<line style="fill:#FFFFFF;stroke:#263238;stroke-linecap:round;stroke-linejoin:round;stroke-miterlimit:10;" x1="99.421" y1="188.532" x2="197.515" y2="188.532"/>
			
				<line style="fill:#FFFFFF;stroke:#263238;stroke-linecap:round;stroke-linejoin:round;stroke-miterlimit:10;" x1="99.421" y1="193.306" x2="215.745" y2="193.306"/>
		</g>
	</g>
</g>
<g id="Character_2">
	<g>
		<path style="fill:#FFFFFF;stroke:#263238;stroke-linecap:round;stroke-linejoin:round;stroke-miterlimit:10;" d="M318.904,286.977
			c0,0-4.853,5.619-4.342,6.641c0.511,1.022,4.597,3.576,4.853,2.043c0.255-1.532,1.022-5.619,1.022-7.407
			C320.436,286.467,320.691,285.956,318.904,286.977z"/>
		<g>
			<defs>
				<path id="XMLID_9_" d="M321.457,274.973c0,0-3.32,7.151-3.576,8.684c-0.255,1.533,1.277,3.576,1.277,4.342
					c0,0.766-2.043,3.065-2.043,6.641c0,3.576-0.255,11.749,2.809,13.792c3.065,2.043,8.173-0.255,8.173-0.255l4.853,9.45
					l19.411-11.238l-2.809-4.342c0,0,4.087-10.983,1.022-19.411s-14.048-9.706-18.389-9.961
					C327.843,272.419,322.99,271.908,321.457,274.973z"/>
			</defs>
			<use xlink:href="#XMLID_9_"  style="overflow:visible;fill:#FFFFFF;"/>
			<clipPath id="XMLID_00000170972748633250360160000018212105900855271353_">
				<use xlink:href="#XMLID_9_"  style="overflow:visible;"/>
			</clipPath>
			<path style="clip-path:url(#XMLID_00000170972748633250360160000018212105900855271353_);fill:#C6FF00;" d="M349.552,302.047
				c0,0,4.087-10.983,1.022-19.411c-3.065-8.428-14.048-9.706-18.389-9.961c-0.717-0.042-1.447-0.09-2.174-0.129L324.333,277
				c0,0-4.667,6.667-2.667,9.333c2,2.667,3.333,5.333,2.667,9.667c-0.667,4.333-5.098,11.824-0.667,12
				c0.917,0.036,2.358,0.159,4.06,0.328c0.23-0.09,0.371-0.152,0.371-0.152l0.102,0.199c6.541,0.666,16.466,1.958,16.466,1.958
				l0.979-0.056l6.716-3.888L349.552,302.047z"/>
			<path style="opacity:0.5;clip-path:url(#XMLID_00000170972748633250360160000018212105900855271353_);fill:#FFFFFF;" d="
				M349.552,302.047c0,0,4.087-10.983,1.022-19.411c-3.065-8.428-14.048-9.706-18.389-9.961c-0.717-0.042-1.447-0.09-2.174-0.129
				L324.333,277c0,0-4.667,6.667-2.667,9.333c2,2.667,3.333,5.333,2.667,9.667c-0.667,4.333-5.098,11.824-0.667,12
				c0.917,0.036,2.358,0.159,4.06,0.328c0.23-0.09,0.371-0.152,0.371-0.152l0.102,0.199c6.541,0.666,16.466,1.958,16.466,1.958
				l0.979-0.056l6.716-3.888L349.552,302.047z"/>
			
				<use xlink:href="#XMLID_9_"  style="overflow:visible;fill:none;stroke:#263238;stroke-linecap:round;stroke-linejoin:round;stroke-miterlimit:10;"/>
		</g>
		<path style="fill:#263238;stroke:#263238;stroke-linecap:round;stroke-linejoin:round;stroke-miterlimit:10;" d="M348.02,267.056
			c0,0-9.45-2.81-17.623-2.554c-8.173,0.255-16.346,2.554-16.091,6.896c0.255,4.342,7.918,5.874,7.918,5.874
			s4.342,0.255,3.065,1.533c-1.277,1.277-4.597,3.831-2.043,6.896c2.554,3.065,5.108,5.619,4.342,6.641
			c-0.766,1.022,0.255,3.32,1.277,2.554c1.022-0.766-0.511-3.831,2.299-4.853c2.809-1.022,5.619,3.32,4.597,6.13
			c-1.022,2.81-2.81,2.554-1.788,4.597c1.022,2.043,7.407,5.363,11.749,5.363c4.342,0,5.619-5.619,10.216-14.558
			C360.535,282.635,357.47,269.61,348.02,267.056z"/>
		<path style="fill:#FFFFFF;stroke:#263238;stroke-linecap:round;stroke-linejoin:round;stroke-miterlimit:10;" d="M323.756,319.925
			l2.554,4.853l28.095-18.389l-2.809-3.32C351.596,303.068,328.098,316.094,323.756,319.925z"/>
		<g>
			<defs>
				<path id="XMLID_2_" d="M329.12,320.691c0,0-5.619,7.662-7.662,11.493c-2.043,3.831-10.727,26.307-14.558,34.225
					c-3.831,7.918-5.3,14.222-5.3,14.222h53.572c0,0,6.13-30.568,6.13-43.849c0-13.281-3.065-23.242-4.086-25.796
					c-1.022-2.554-4.853-4.597-4.853-4.597L329.12,320.691z"/>
			</defs>
			<use xlink:href="#XMLID_2_"  style="overflow:visible;fill:#FFFFFF;"/>
			<clipPath id="XMLID_00000139274820467047467410000009466965963689793673_">
				<use xlink:href="#XMLID_2_"  style="overflow:visible;"/>
			</clipPath>
			
				<path style="clip-path:url(#XMLID_00000139274820467047467410000009466965963689793673_);fill:#BDBDBD;stroke:#263238;stroke-linecap:round;stroke-linejoin:round;stroke-miterlimit:10;" d="
				M329.12,320.691c0,0-5.619,7.662-7.662,11.493c-2.043,3.831-10.727,26.307-14.558,34.225c-3.831,7.918-5.3,14.222-5.3,14.222
				h53.572c0,0,6.13-30.568,6.13-43.849c0-13.281-3.065-23.242-4.086-25.796c-1.022-2.554-4.853-4.597-4.853-4.597L329.12,320.691z"
				/>
			
				<path style="clip-path:url(#XMLID_00000139274820467047467410000009466965963689793673_);fill:#BDBDBD;stroke:#263238;stroke-linecap:round;stroke-linejoin:round;stroke-miterlimit:10;" d="
				M314.434,349.416c0,0,11.984-18.787,16.519-23.645c4.535-4.859,26.933-16.362,26.933-16.362l-3.532-3.834
				c0,0-23.077,11.451-26.64,15.014C324.151,324.151,313.786,345.205,314.434,349.416z"/>
			
				<use xlink:href="#XMLID_2_"  style="overflow:visible;fill:none;stroke:#263238;stroke-linecap:round;stroke-linejoin:round;stroke-miterlimit:10;"/>
		</g>
		<path style="fill:none;stroke:#263238;stroke-linecap:round;stroke-linejoin:round;stroke-miterlimit:10;" d="M343.934,320.691
			c0,0-14.048,9.195-16.091,12.77c-2.043,3.576-0.255,9.195-0.255,9.961c0,0.766-2.043,3.32-2.043,4.087c0,0.766,0,2.554,0,2.554
			l-10.983,29.627h25.03c0,0,10.727-26.052,12.77-31.16c2.043-5.108,3.065-14.303,2.043-19.411"/>
		<path style="fill:none;stroke:#263238;stroke-linecap:round;stroke-linejoin:round;stroke-miterlimit:10;" d="M329.886,342.656
			c0,0,6.13-7.151,15.324-8.173"/>
	</g>
</g>
<g id="Character_3">
	<g>
		<g>
			<defs>
				<path id="XMLID_10_" d="M389.396,290.309c0,0-17.641-3.528-22.581,0.706c-4.939,4.234-2.117,29.99-3.528,36.693
					c-1.411,6.704-4.939,13.76-3.528,20.816c1.411,7.056,4.587,11.996,5.998,15.524c1.411,3.528-0.353,16.583-0.353,16.583h51.512
					c0,0,9.173-24.345,9.173-42.691c0-18.347-5.645-34.224-14.113-40.221C403.509,291.721,389.396,290.309,389.396,290.309z"/>
			</defs>
			<use xlink:href="#XMLID_10_"  style="overflow:visible;fill:#C6FF00;"/>
			<clipPath id="XMLID_00000180361034381139083630000014930674817480855960_">
				<use xlink:href="#XMLID_10_"  style="overflow:visible;"/>
			</clipPath>
			<path style="opacity:0.26;clip-path:url(#XMLID_00000180361034381139083630000014930674817480855960_);" d="M370.511,301.333
				c-5,8.333,0.667,54,2,58.333c1.333,4.333-8.333,0.333-5.333,2.667c3,2.333,8.667,6.333,8.667,6.333s-6.062-2.597-9.82-3.647
				c0.168,0.854,0.251,1.945,0.273,3.159c4.516,3.671,10.547,7.155,10.547,7.155l-10.95,0.912c-0.238,2.515-0.49,4.386-0.49,4.386
				h51.512c0,0,9.173-24.345,9.173-42.691c0-8.253-1.145-16.003-3.173-22.582l-30.738-13.025
				C392.178,302.333,375.511,293,370.511,301.333z"/>
			
				<use xlink:href="#XMLID_10_"  style="overflow:visible;fill:none;stroke:#263238;stroke-linecap:round;stroke-linejoin:round;stroke-miterlimit:10;"/>
		</g>
		<g>
			<path style="fill:#263238;stroke:#263238;stroke-linecap:round;stroke-linejoin:round;stroke-miterlimit:10;" d="
				M389.043,226.802c0,0-7.762-6.351-15.171-1.764c-7.409,4.587-20.111,25.756-18.7,36.34c1.411,10.585,14.113,20.464,5.645,26.109
				c-8.468,5.645-5.292,15.877-1.059,18.7l2.47,0.353c0,0,0-10.232,7.056-13.054c7.056-2.823,17.288-0.353,19.758,2.823
				c2.47,3.175-2.117,19.405,3.881,23.639c5.998,4.234,14.466,4.94,12.702,9.173c-1.764,4.234-7.762,10.938-3.881,16.935
				c3.881,5.998,13.407,11.996,16.583,9.879c3.175-2.117-1.411-4.587,0.353-5.998c1.764-1.411,16.23-6.351,13.76-12.349
				c-2.47-5.998-7.762-9.173-5.292-11.643c2.47-2.47,11.643-8.468,10.585-16.935c-1.058-8.468-21.169-14.818-21.875-23.992
				c-0.706-9.173,11.996-10.232,7.762-31.048c-4.234-20.816-17.288-29.99-23.639-29.99S389.043,226.802,389.043,226.802z"/>
			<path style="fill:none;stroke:#FFFFFF;stroke-linecap:round;stroke-linejoin:round;stroke-miterlimit:10;" d="M395.857,237.875
				c5.323,7.373,12.029,18.245,12.229,26.467c0.334,13.69-11.686,19.366-9.683,30.05c2.003,10.685,25.346,12.522,27.045,22.037
				c1.699,9.515-9.015,6.01-6.344,11.352c2.671,5.342,13.022,10.017,8.681,16.027"/>
			<path style="fill:none;stroke:#FFFFFF;stroke-linecap:round;stroke-linejoin:round;stroke-miterlimit:10;" d="M389.388,229.618
				c0,0,1.12,1.283,2.812,3.422"/>
			<path style="fill:none;stroke:#FFFFFF;stroke-linecap:round;stroke-linejoin:round;stroke-miterlimit:10;" d="M384.098,283.739
				c1.221,1.283,1.951,2.473,1.951,3.642"/>
			<path style="fill:none;stroke:#FFFFFF;stroke-linecap:round;stroke-linejoin:round;stroke-miterlimit:10;" d="M363.679,242.973
				c0,0-5.342,14.691,2.671,24.708c4.269,5.336,9.581,9.251,13.612,12.452"/>
			<path style="fill:none;stroke:#FFFFFF;stroke-linecap:round;stroke-linejoin:round;stroke-miterlimit:10;" d="M411.775,303.866
				c1.549,0.564,3.24,1.043,4.993,1.544"/>
			<path style="fill:none;stroke:#FFFFFF;stroke-linecap:round;stroke-linejoin:round;stroke-miterlimit:10;" d="M413.762,239.968
				c0,0,11.352,14.357,7.346,26.711c-4.007,12.354-17.362,19.032-17.362,27.045c0,3.005,0.845,5.118,2.271,6.691"/>
		</g>
		<path style="fill:#FFFFFF;stroke:#263238;stroke-linecap:round;stroke-linejoin:round;stroke-miterlimit:10;" d="M278.86,368.868
			c0,0-2.118,2.607-2.118,4.237c0,1.629-0.815,4.888,0.163,5.051c0.978,0.163,1.629-3.422,2.607-4.726
			c0.978-1.304,3.422-1.629,3.259-3.422C282.608,368.216,280.327,366.587,278.86,368.868z"/>
		<path style="fill:#FFFFFF;stroke:#263238;stroke-linecap:round;stroke-linejoin:round;stroke-miterlimit:10;" d="M302.325,371.15
			c0,0-9.125-7.659-11.407-8.473c-2.281-0.815-6.844,4.4-9.614,9.451c-2.77,5.051-1.304,6.192,0.163,6.355
			c1.467,0.163,7.822-2.607,7.822-2.607s3.259,2.77,7.659,3.748c4.4,0.978,10.755-1.63,10.918-4.237
			C308.029,372.779,302.325,371.15,302.325,371.15z"/>
		<g>
			<defs>
				<path id="XMLID_11_" d="M387.279,318.863c0,0,0.353,53.3-1.059,57.534c-1.411,4.234-6.351,4.234-14.466,4.587
					c-8.115,0.353-57.51-1.059-57.51-1.059s-4.587,0.706-8.468,0.706c-3.881,0-10.585-0.706-13.054-2.47
					c-2.47-1.764-4.587-2.117-5.645-1.764c-1.059,0.353-3.881,3.881-6.351,3.881c-2.47,0-5.292-1.058-3.528-1.411
					c1.764-0.353,11.29-10.585,13.407-10.585c2.117,0,17.288,3.881,20.111,3.528c2.822-0.353,53.276-10.232,53.276-10.232
					l-1.764-55.04c0,0-1.764-9.526,7.056-13.054"/>
			</defs>
			<use xlink:href="#XMLID_11_"  style="overflow:visible;fill:#C6FF00;"/>
			<clipPath id="XMLID_00000001646318754344393120000002125193438481425540_">
				<use xlink:href="#XMLID_11_"  style="overflow:visible;"/>
			</clipPath>
			<path style="opacity:0.26;clip-path:url(#XMLID_00000001646318754344393120000002125193438481425540_);" d="M373.221,298.81
				c-1.078,0.548-2.011,1.358-2.71,2.523c-5,8.333,0.667,54,2,58.333c1.333,4.333-8.333,0.333-5.333,2.667
				c3,2.333,8.667,6.333,8.667,6.333s-16.333-7-12-2.667c4.333,4.333,13,9.333,13,9.333l-56.974,4.748
				c13.183,0.357,45.462,1.182,51.885,0.903c8.115-0.353,13.054-0.353,14.466-4.587c1.411-4.234,1.059-58.568,1.059-58.568
				L373.221,298.81z"/>
			
				<use xlink:href="#XMLID_11_"  style="overflow:visible;fill:none;stroke:#263238;stroke-linecap:round;stroke-linejoin:round;stroke-miterlimit:10;"/>
		</g>
		<path style="fill:#FFFFFF;stroke:#263238;stroke-linecap:round;stroke-linejoin:round;stroke-miterlimit:10;" d="M328.938,380.319
			c-1.347-4.85-0.456-9.114,0.693-12.058c-9.64,1.858-17.825,3.414-18.914,3.55c-2.823,0.353-17.994-3.528-20.111-3.528
			c-2.117,0-11.643,10.232-13.407,10.585c-1.764,0.353,1.059,1.411,3.528,1.411s5.292-3.528,6.351-3.881
			c1.058-0.353,3.175,0,5.645,1.764c2.47,1.764,9.173,2.47,13.054,2.47c3.881,0,8.468-0.706,8.468-0.706
			S320.508,380.105,328.938,380.319z"/>
		<path style="fill:#FFFFFF;stroke:#263238;stroke-linecap:round;stroke-linejoin:round;stroke-miterlimit:10;" d="M282.608,365.121
			c0,0-2.77,1.629-3.748,3.748c-0.978,2.118,0,8.637,1.63,8.637c1.629,0,2.77-1.792,2.77-4.074S282.608,365.121,282.608,365.121z"/>
		<path style="fill:#FFFFFF;stroke:#263238;stroke-linecap:round;stroke-linejoin:round;stroke-miterlimit:10;" d="M284.89,363.817
			c0,0-2.607,0.163-3.585,2.118c-0.978,1.955-0.815,10.266,0.815,10.592c1.63,0.326,2.281-2.444,2.281-4.237
			C284.401,370.498,284.89,363.817,284.89,363.817z"/>
		<path style="fill:#FFFFFF;stroke:#263238;stroke-linecap:round;stroke-linejoin:round;stroke-miterlimit:10;" d="M290.919,362.676
			c0,0-3.911-0.652-5.54,0.489c-1.629,1.141-1.955,11.244-0.815,12.058c1.141,0.815,3.096-1.304,3.096-2.444
			c0-1.141,2.281-7.333,2.281-7.333"/>
	</g>
</g>
<g id="Character_1">
	<g>
		<defs>
			<rect id="SVGID_1_" x="124.22" y="203.976" width="164.613" height="176.729"/>
		</defs>
		<clipPath id="SVGID_00000127040007171866288990000003330051832320983462_">
			<use xlink:href="#SVGID_1_"  style="overflow:visible;"/>
		</clipPath>
		<g style="clip-path:url(#SVGID_00000127040007171866288990000003330051832320983462_);">
			<g>
				<g>
					<defs>
						<path id="XMLID_1_" d="M193,329.333c0,0-4.676,7.1-2.706,10.547c1.97,3.448,9.111,10.589,23.887,9.604
							c14.775-0.985,5.91-25.857,7.634-41.125c1.724-15.268-4.679-17.484-9.85-13.544c-5.171,3.94-11.574,22.902-14.037,26.103
							C195.465,324.12,193,329.333,193,329.333z"/>
					</defs>
					<use xlink:href="#XMLID_1_"  style="overflow:visible;fill:#C6FF00;"/>
					<clipPath id="XMLID_00000030470107661285932110000001596225066890263975_">
						<use xlink:href="#XMLID_1_"  style="overflow:visible;"/>
					</clipPath>
					
						<path style="opacity:0.42;clip-path:url(#XMLID_00000030470107661285932110000001596225066890263975_);stroke:#263238;stroke-linecap:round;stroke-linejoin:round;stroke-miterlimit:10;" d="
						M193,329.333c0,0-4.676,7.1-2.706,10.547c1.97,3.448,9.111,10.589,23.887,9.604c14.775-0.985,5.91-25.857,7.634-41.125
						c1.724-15.268-4.679-17.484-9.85-13.544c-5.171,3.94-11.574,22.902-14.037,26.103C195.465,324.12,193,329.333,193,329.333z"/>
					
						<use xlink:href="#XMLID_1_"  style="overflow:visible;fill:none;stroke:#263238;stroke-linecap:round;stroke-linejoin:round;stroke-miterlimit:10;"/>
				</g>
				<path style="fill:#263238;stroke:#263238;stroke-linecap:round;stroke-linejoin:round;stroke-miterlimit:10;" d="
					M210.979,333.478c0,0,0,21.917,0.246,28.812c0.246,6.895,1.231,23.641,1.231,23.641h46.296l-2.462-49.99l-0.739-2.463H210.979z"
					/>
				<g>
					<polygon style="fill:#FFFFFF;stroke:#263238;stroke-linecap:round;stroke-linejoin:round;stroke-miterlimit:10;" points="
						237.915,339.283 256.492,340.027 256.291,335.94 255.552,333.478 237.624,333.478 					"/>
					<path style="fill:#FFFFFF;stroke:#263238;stroke-linecap:round;stroke-linejoin:round;stroke-miterlimit:10;" d="
						M215.905,333.478h-4.925c0,0,0,1.891,0.006,4.728l4.919,0.197V333.478z"/>
					<polygon style="fill:#FFFFFF;stroke:#263238;stroke-linecap:round;stroke-linejoin:round;stroke-miterlimit:10;" points="
						217.475,333.478 217.745,338.477 234.568,339.15 234.396,333.478 					"/>
				</g>
				<g>
					<defs>
						<path id="XMLID_3_" d="M211.226,295.554c0,0-0.246,28.319,0,32.752c0.246,4.433-1.97,5.91,1.724,6.649
							c3.694,0.739,33.737,1.478,36.692,0.985c2.955-0.492,2.955-1.97,3.694-3.448c0.739-1.477,10.589-64.766,8.373-66.489
							c-2.216-1.724-16.253-6.895-17.484-6.895c-1.231,0-19.454,0.985-22.902,1.478s-7.388-0.492-7.634,1.477
							C213.442,264.034,211.226,295.554,211.226,295.554z"/>
					</defs>
					<use xlink:href="#XMLID_3_"  style="overflow:visible;fill:#FFFFFF;"/>
					<clipPath id="XMLID_00000116236980305276528820000007222113908014513285_">
						<use xlink:href="#XMLID_3_"  style="overflow:visible;"/>
					</clipPath>
					<path style="clip-path:url(#XMLID_00000116236980305276528820000007222113908014513285_);fill:#BDBDBD;" d="M226.321,268.509
						c0,0-5.768-0.275-6.866,0.275c-0.621,0.311-4.407,9.587-7.578,17.586c-0.371,5.21-0.651,9.185-0.651,9.185
						s-0.246,28.319,0,32.752c0.162,2.909-0.729,4.541-0.321,5.531c1.241-4.336,3.235-11.832,5.529-22.482
						C220.279,293.502,226.321,268.509,226.321,268.509z"/>
					
						<use xlink:href="#XMLID_3_"  style="overflow:visible;fill:none;stroke:#263238;stroke-linecap:round;stroke-linejoin:round;stroke-miterlimit:10;"/>
				</g>
				<path style="fill:#FFFFFF;stroke:#263238;stroke-linecap:round;stroke-linejoin:round;stroke-miterlimit:10;" d="
					M160.004,280.04c0,0-8.865-4.433-12.067-5.171c-3.201-0.739-13.544-3.201-14.283-2.216c-0.739,0.985,0.246,1.97,1.231,1.97
					c0.985,0,7.388,2.709,7.388,2.709s-0.739,5.91-0.739,7.388c0,1.478,7.88,4.433,9.604,4.679c1.724,0.246,5.194-1.065,5.194-1.065
					l2.44-0.659L160.004,280.04z"/>
				<path style="fill:#FFFFFF;stroke:#263238;stroke-linecap:round;stroke-linejoin:round;stroke-miterlimit:10;" d="
					M141.535,278.316c0,0-0.985,6.649-0.246,7.388s5.91,4.186,6.649,2.463c0.739-1.724,0.493-8.373,0.493-9.111
					C148.43,278.316,141.535,278.316,141.535,278.316z"/>
				<path style="fill:#FFFFFF;stroke:#263238;stroke-linecap:round;stroke-linejoin:round;stroke-miterlimit:10;" d="
					M157.049,280.286c0,0-8.373-3.201-10.343-3.201c-1.97,0-5.171,2.709-6.895,3.201c-1.724,0.493,0.493,1.97,1.724,1.724
					c1.231-0.246,4.679-1.231,4.679-1.231s1.231,2.462,3.201,3.694c1.97,1.231,6.156,0.492,6.156,0.492"/>
				<g>
					<defs>
						<path id="XMLID_6_" d="M232.102,258.935c0,0-14.768-1.269-17.768-0.602c-3,0.667-10,17.667-11,20c-1,2.333-12,13-12,13
							L159.667,279l-3.333,9.333c0,0,25.667,16.667,30,18.667c4.333,2,10.333,1.667,12.333,1.667s4-1.667,4-1.667L193,329.333
							c0,0,15.667-18.667,20.333-27.667c4.667-9,15.333-35.333,16.333-36C230.667,265,232.102,258.935,232.102,258.935z"/>
					</defs>
					<use xlink:href="#XMLID_6_"  style="overflow:visible;fill:#C6FF00;"/>
					<clipPath id="XMLID_00000091008697772051787010000013717264671585338513_">
						<use xlink:href="#XMLID_6_"  style="overflow:visible;"/>
					</clipPath>
					<path style="opacity:0.26;clip-path:url(#XMLID_00000091008697772051787010000013717264671585338513_);" d="M197.913,297.635
						c-0.804,0-1.875-0.536-2.947-0.536c-1.072,0,1.339,4.018,0.804,5.358c-0.536,1.34-38.844-15.002-38.844-15.002l-0.07,1.217
						c3.626,2.35,25.505,16.495,29.477,18.328c4.333,2,10.333,1.667,12.333,1.667c1.47,0,2.934-0.898,3.61-1.375
						c2.919-7.457,5.013-19.837,5.013-19.837S198.717,297.635,197.913,297.635z"/>
					
						<use xlink:href="#XMLID_6_"  style="overflow:visible;fill:none;stroke:#263238;stroke-linecap:round;stroke-linejoin:round;stroke-miterlimit:10;"/>
				</g>
				<polygon style="fill:#FFFFFF;stroke:#263238;stroke-linecap:round;stroke-linejoin:round;stroke-miterlimit:10;" points="
					232.102,258.935 227.995,262.826 228.211,270.607 232.534,266.5 				"/>
				<g>
					<defs>
						<path id="XMLID_7_" d="M224.32,221.024c0,0-4.425,6.793-4.141,8.215c0.284,1.421,1.014,2.871,1.014,4.008
							c0,1.137-4.993,5.117-4.425,5.969c0.568,0.853,3.411,2.274,3.411,2.274s-0.123,11.086,2.435,12.507
							c2.558,1.421,7.391-0.853,7.391-0.853l2.558,14.213l14.497-10.233v-10.233c0,0,8.528-9.664,9.096-17.339
							c0.568-7.675-9.949-16.202-20.466-17.624c-10.517-1.421-16.202,5.685-14.497,7.959
							C222.899,222.161,224.32,221.024,224.32,221.024z"/>
					</defs>
					<use xlink:href="#XMLID_7_"  style="overflow:visible;fill:#FFFFFF;"/>
					<clipPath id="XMLID_00000103237751276248581560000002802896512541183915_">
						<use xlink:href="#XMLID_7_"  style="overflow:visible;"/>
					</clipPath>
					<path style="clip-path:url(#XMLID_00000103237751276248581560000002802896512541183915_);fill:#C6FF00;" d="M241.651,260.942
						l5.409-3.818v-10.233c0,0,8.528-9.664,9.096-17.339c0.371-5.016-3.993-10.395-9.998-13.918l-15.077,6.246
						c0,0-7.087,6.219-6.147,7.058c0.94,0.839,3.643,4.326,2.96,5.92c0,0-2.533,0.996-2.277,2.732
						c0.257,1.737,6.147,12.978,6.147,12.978l-1.76,2.578L241.651,260.942z"/>
					<path style="opacity:0.5;clip-path:url(#XMLID_00000103237751276248581560000002802896512541183915_);fill:#FFFFFF;" d="
						M241.651,260.942l5.409-3.818v-10.233c0,0,8.528-9.664,9.096-17.339c0.371-5.016-3.993-10.395-9.998-13.918l-15.077,6.246
						c0,0-7.087,6.219-6.147,7.058c0.94,0.839,3.643,4.326,2.96,5.92c0,0-2.533,0.996-2.277,2.732
						c0.257,1.737,6.147,12.978,6.147,12.978l-1.76,2.578L241.651,260.942z"/>
					
						<use xlink:href="#XMLID_7_"  style="overflow:visible;fill:none;stroke:#263238;stroke-linecap:round;stroke-linejoin:round;stroke-miterlimit:10;"/>
				</g>
				<g>
					<defs>
						<path id="XMLID_4_" d="M246.933,259.355c0,0-3.201,11.328-7.141,25.611s-3.201,58.609-3.201,61.072
							c0,2.463,5.664,11.328,12.067,13.79c6.403,2.463,13.052,2.955,13.052,2.955s-4.433-29.305-4.433-37.677
							c0-8.373,3.94-21.424,3.94-21.424s5.91,14.775,8.373,16.745c2.462,1.97,12.313,4.186,12.066-4.925
							c-0.246-9.111-8.619-41.617-10.835-44.819c-2.216-3.201-12.805-6.403-12.805-6.403L246.933,259.355z"/>
					</defs>
					<use xlink:href="#XMLID_4_"  style="overflow:visible;fill:#C6FF00;"/>
					<clipPath id="XMLID_00000181065988809187161760000017738910437897567630_">
						<use xlink:href="#XMLID_4_"  style="overflow:visible;"/>
					</clipPath>
					<g style="opacity:0.26;clip-path:url(#XMLID_00000181065988809187161760000017738910437897567630_);">
						<path d="M257.276,325.105c0-0.012,0.001-0.025,0.001-0.037c-5.6,1.447-10.081,2.491-10.081,2.491s6.866,13.733,9.613,13.733
							c0.29,0,0.974-0.016,1.937-0.046C257.935,334.674,257.276,328.333,257.276,325.105z"/>
						<path d="M262.576,284.439c3.021,3.296,9.338,1.648,9.338,2.747s-4.944,3.571-3.021,7.416
							c1.923,3.845,13.184,20.325,9.888,23.346c-0.951,0.872-3.99,2.042-7.824,3.264c3.582,1.577,10.911,2.166,10.698-5.71
							c-0.246-9.112-8.619-41.617-10.835-44.819C270.82,270.682,259.555,281.143,262.576,284.439z"/>
						<path d="M254.585,288.288c0,0-2.829,2.263-1.697,5.94c1.131,3.677,5.374,7.354,4.243,9.334
							c-1.131,1.98-9.617,0.566-9.334,3.394c0.283,2.829,9.051,12.163,9.051,12.163l3.677-16.689L254.585,288.288z"/>
					</g>
					
						<use xlink:href="#XMLID_4_"  style="overflow:visible;fill:none;stroke:#263238;stroke-linecap:round;stroke-linejoin:round;stroke-miterlimit:10;"/>
				</g>
				<polygon style="fill:#FFFFFF;stroke:#263238;stroke-linecap:round;stroke-linejoin:round;stroke-miterlimit:10;" points="
					247.016,254.396 234.263,263.474 235.128,271.472 249.177,258.719 				"/>
				<g>
					<defs>
						<path id="XMLID_8_" d="M251.119,320.919c0,0-9.358-4.186-10.097-4.186c-0.739,0-8.126,3.94-9.604,3.94
							c-1.477,0-2.216,0.985-1.231,1.724c0.985,0.739,2.709,0.739,2.709,0.739s-3.448,1.97-3.201,2.955
							c0.246,0.985,2.216,1.724,2.216,1.724s1.724,2.709,4.186,3.448c2.463,0.739,11.082-2.216,11.082-2.216l6.649-0.492
							L251.119,320.919z"/>
					</defs>
					<use xlink:href="#XMLID_8_"  style="overflow:visible;fill:#FFFFFF;"/>
					<clipPath id="XMLID_00000008844628064269269690000012680941039402468536_">
						<use xlink:href="#XMLID_8_"  style="overflow:visible;"/>
					</clipPath>
					<path style="clip-path:url(#XMLID_00000008844628064269269690000012680941039402468536_);fill:#C6FF00;" d="M241,321
						c-3,0.667-9.089,6.814-9.089,6.814s1.724,2.709,4.186,3.448c2.463,0.739,11.082-2.216,11.082-2.216l6.649-0.492l-2.709-7.634
						C251.119,320.919,244,320.333,241,321z"/>
					<path style="opacity:0.5;clip-path:url(#XMLID_00000008844628064269269690000012680941039402468536_);fill:#FFFFFF;" d="
						M241,321c-3,0.667-9.089,6.814-9.089,6.814s1.724,2.709,4.186,3.448c2.463,0.739,11.082-2.216,11.082-2.216l6.649-0.492
						l-2.709-7.634C251.119,320.919,244,320.333,241,321z"/>
					
						<use xlink:href="#XMLID_8_"  style="overflow:visible;fill:none;stroke:#263238;stroke-linecap:round;stroke-linejoin:round;stroke-miterlimit:10;"/>
				</g>
				<g>
					<defs>
						<path id="XMLID_5_" d="M273.529,310.33l-23.148,9.358l1.724,9.85c0,0,31.028-4.433,32.506-6.649
							c1.478-2.216-4.186-14.775-4.186-14.775"/>
					</defs>
					<use xlink:href="#XMLID_5_"  style="overflow:visible;fill:#C6FF00;"/>
					<clipPath id="XMLID_00000134963170907789063640000000794185909370669468_">
						<use xlink:href="#XMLID_5_"  style="overflow:visible;"/>
					</clipPath>
					<path style="opacity:0.26;clip-path:url(#XMLID_00000134963170907789063640000000794185909370669468_);" d="M251.574,326.506
						l0.531,3.032c0,0,31.028-4.433,32.506-6.649c1.478-2.216-4.186-14.775-4.186-14.775l-3.315,1.065
						c1.914,3.991,3.03,7.523,1.672,8.768C276.299,320.222,259.649,324.521,251.574,326.506z"/>
					
						<use xlink:href="#XMLID_5_"  style="overflow:visible;fill:none;stroke:#263238;stroke-linecap:round;stroke-linejoin:round;stroke-miterlimit:10;"/>
				</g>
				<path style="fill:#FFFFFF;stroke:#263238;stroke-linecap:round;stroke-linejoin:round;stroke-miterlimit:10;" d="M202.667,307
					c0,0,4.619-17.848,6.096-27.699"/>
				<polyline style="fill:none;stroke:#FFFFFF;stroke-linecap:round;stroke-linejoin:round;stroke-miterlimit:10;" points="
					223.046,358.258 229.695,363.798 230.803,385.961 				"/>
			</g>
			<path style="fill:none;stroke:#263238;stroke-linecap:round;stroke-linejoin:round;stroke-miterlimit:10;" d="M261.216,303.681
				l-6.533-12c0,0-1.89-2.52,1.89-8.821"/>
			<path style="fill:#263238;stroke:#263238;stroke-linecap:round;stroke-linejoin:round;stroke-miterlimit:10;" d="M235.69,211.928
				c-10.517-1.421-16.202,5.685-14.497,7.959c0.675,0.9,1.303,1.262,1.819,1.375l1.308-0.238c0,0,9.665,0.284,9.096,3.411
				c-0.568,3.127-6.254,3.411-3.979,5.969c0.602,0.677,1.283,1.252,1.96,1.735l-0.327,0.016c0,0,0.972,0.778,1.361,1.945
				c0.389,1.167-1.75,10.89-2.139,11.668c-0.389,0.778-2.528-0.194-5.251-2.139c-2.722-1.945-4.862-2.139-4.862-2.139l-0.195,1.75
				c0,0,2.723,0.778,3.111,2.334c0.389,1.556-2.139,1.75-2.139,3.111c0,1.361-0.186,3.817,1.657,5.312
				c1.843,1.495,7.391-0.853,7.391-0.853s4.176-2.903,4.76-6.015c0.477-2.541,0.823-7.026,1.252-9.221
				c0.878-1.018,1.663-2.387,1.663-2.387s4.548-1.137,3.127,3.411c-1.421,4.548-4.264,4.548-4.264,4.548s4.162,2.694,10.517,3.478
				v-0.067c0,0,8.528-9.664,9.096-17.339C256.725,221.877,246.208,213.349,235.69,211.928z"/>
			<path d="M230.171,222.107"/>
		</g>
	</g>
</g>
<g id="Mug">
	<g>
		
			<rect x="245.704" y="355.824" style="fill:#FFFFFF;stroke:#263238;stroke-linecap:round;stroke-linejoin:round;stroke-miterlimit:10;" width="16.839" height="24.881"/>
		<g>
			<path style="fill:#FFFFFF;stroke:#263238;stroke-linecap:round;stroke-linejoin:round;stroke-miterlimit:10;" d="
				M261.789,377.318h-1.759c-0.768,0-1.389-0.621-1.389-1.389c0-0.768,0.621-1.389,1.389-1.389h1.759
				c1.451,0,2.632-1.181,2.632-2.632v-6.032c0-1.452-1.181-2.632-2.632-2.632h-2.262c-0.767,0-1.389-0.622-1.389-1.389
				c0-0.767,0.621-1.389,1.389-1.389h2.262c2.984,0,5.409,2.427,5.409,5.41v6.032C267.198,374.892,264.772,377.318,261.789,377.318z
				"/>
		</g>
	</g>
</g>
<g id="Device">
	<g>
		<path style="fill:#FFFFFF;stroke:#263238;stroke-linecap:round;stroke-linejoin:round;stroke-miterlimit:10;" d="M173.28,380.371
			h-45.763c-0.353,0-0.672-0.209-0.814-0.532l-12.671-28.889c-0.257-0.587,0.173-1.246,0.814-1.246h45.763
			c0.353,0,0.672,0.209,0.814,0.532l12.671,28.889C174.351,379.713,173.921,380.371,173.28,380.371z"/>
		<path id="XMLID_12_" style="fill:#263238;stroke:#263238;stroke-linecap:round;stroke-linejoin:round;stroke-miterlimit:10;" d="
			M168.993,378.121h-39.048c-0.301,0-0.573-0.178-0.694-0.454l-10.812-24.65c-0.22-0.501,0.147-1.063,0.694-1.063h39.048
			c0.301,0,0.573,0.178,0.694,0.454l10.811,24.65C169.907,377.56,169.54,378.121,168.993,378.121z"/>
		
			<rect x="126.88" y="378.455" transform="matrix(-1 -1.224647e-16 1.224647e-16 -1 322.5092 759.1592)" style="fill:#FFFFFF;stroke:#263238;stroke-linecap:round;stroke-linejoin:round;stroke-miterlimit:10;" width="68.75" height="2.25"/>
		
			<rect x="126.88" y="378.455" transform="matrix(-1 -1.224647e-16 1.224647e-16 -1 287.0874 759.1592)" style="fill:#FFFFFF;stroke:#263238;stroke-linecap:round;stroke-linejoin:round;stroke-miterlimit:10;" width="33.328" height="2.25"/>
	</g>
</g>
<g id="Plants">
	<g>
		<path style="fill:#263238;" d="M64.365,324.745c1.274,0.557,4.39,0.486,4.393,0.486c0.032-0.001-0.67-2.04-0.729-2.164
			c-0.684-1.43-2.846-3.792-4.606-3.554c-1.267,0.171-1.972,1.44-1.686,2.633C62.03,323.365,63.28,324.27,64.365,324.745z"/>
		<path style="fill:#263238;" d="M65.441,333.772c1.321,0.193,4.103-0.614,4.324-0.679c0.439,1.557,1.016,3.119,1.687,4.667
			c0.382,0.886,0.795,1.766,1.221,2.643c-0.254-0.372-0.483-0.702-0.52-0.745c-1.037-1.199-3.747-2.906-5.381-2.212
			c-1.178,0.5-1.522,1.909-0.931,2.985c0.604,1.098,2.049,1.642,3.221,1.812c1.189,0.173,3.574-0.467,4.203-0.645
			c0.167,0.335,0.329,0.671,0.497,1.005c0.805,1.604,1.616,3.2,2.363,4.791c0.264,0.561,0.502,1.122,0.744,1.683
			c-0.226-0.33-0.418-0.606-0.452-0.645c-1.037-1.199-3.746-2.906-5.381-2.212c-1.177,0.5-1.522,1.91-0.931,2.985
			c0.604,1.098,2.049,1.641,3.221,1.812c1.135,0.165,3.341-0.406,4.09-0.613c0.229,0.582,0.461,1.164,0.657,1.739
			c0.125,0.395,0.273,0.767,0.377,1.171c0.111,0.398,0.221,0.791,0.33,1.181c0.182,0.759,0.374,1.54,0.533,2.285
			c0.115,0.517,0.214,1.012,0.316,1.51c-0.256-0.561-0.78-1.648-0.834-1.734c-0.843-1.342-3.263-3.44-4.983-3.001
			c-1.239,0.316-1.794,1.657-1.372,2.809c0.43,1.177,1.777,1.933,2.909,2.279c1.247,0.381,4.007,0.033,4.352-0.013
			c0.165,0.825,0.319,1.629,0.451,2.389c0.465,2.636,0.752,4.85,0.931,6.4c0.032,0.275,0.059,0.521,0.084,0.753h-5.343l0.648,12.641
			h11.712l0.648-12.641h-4.978c0.037-0.077,0.072-0.148,0.11-0.228c0.683-1.423,1.63-3.468,2.653-5.971
			c0.325-0.79,0.657-1.641,0.989-2.517c0.334,0.07,3.067,0.625,4.34,0.337c1.155-0.261,2.554-0.914,3.071-2.056
			c0.506-1.118,0.053-2.497-1.16-2.904c-1.683-0.566-4.252,1.346-5.193,2.622c-0.056,0.075-0.567,0.959-0.88,1.522
			c0.134-0.359,0.268-0.706,0.401-1.077c0.269-0.732,0.515-1.471,0.783-2.265c0.116-0.387,0.233-0.779,0.351-1.175
			c0.126-0.39,0.209-0.817,0.316-1.23c0.229-0.961,0.414-1.946,0.578-2.943c0.642,0.234,2.932,1.031,4.119,0.947
			c1.181-0.083,2.663-0.517,3.347-1.567c0.67-1.029,0.431-2.46-0.706-3.046c-1.578-0.814-4.407,0.687-5.531,1.805
			c-0.07,0.07-0.786,0.963-1.17,1.461c0.094-0.6,0.191-1.198,0.267-1.808c0.218-1.76,0.385-3.549,0.559-5.333
			c0.053-0.546,0.112-1.09,0.17-1.635c0.227,0.086,2.93,1.092,4.259,0.998c1.181-0.083,2.663-0.517,3.347-1.567
			c0.67-1.028,0.431-2.46-0.706-3.046c-1.578-0.814-4.407,0.686-5.531,1.805c-0.085,0.084-1.113,1.371-1.359,1.711
			c0.127-1.199,0.264-2.393,0.448-3.565c0.251-1.617,0.586-3.19,1.023-4.689c0.106,0.04,2.922,1.103,4.283,1.007
			c1.181-0.083,2.663-0.517,3.347-1.567c0.67-1.028,0.431-2.46-0.706-3.046c-1.578-0.814-4.407,0.686-5.53,1.805
			c-0.088,0.088-1.194,1.473-1.377,1.738c0.026-0.089,0.044-0.184,0.071-0.273c0.488-1.595,1.16-3.078,1.857-4.437
			c0.404-0.79,0.834-1.523,1.269-2.226c0.504,0.252,2.821,1.376,4.055,1.426c1.183,0.047,2.704-0.221,3.499-1.19
			c0.779-0.949,0.698-2.398-0.367-3.105c-1.479-0.982-4.455,0.198-5.695,1.186c-0.067,0.054-0.692,0.676-1.141,1.135
			c0.201-0.314,0.403-0.643,0.601-0.94c0.743-1.118,1.492-2.097,2.162-2.958c0.385-0.487,0.743-0.919,1.082-1.32
			c0.624-0.011,3.136-0.087,4.234-0.603c1.072-0.503,2.298-1.442,2.557-2.669c0.254-1.201-0.485-2.45-1.757-2.587
			c-1.765-0.19-3.863,2.229-4.508,3.677c-0.056,0.125-0.702,2.183-0.67,2.183c0,0,0.03,0,0.038-0.001
			c-0.334,0.379-0.688,0.79-1.065,1.246c-0.69,0.848-1.463,1.813-2.233,2.92c-0.772,1.104-1.58,2.325-2.315,3.688
			c-0.738,1.365-1.446,2.839-1.978,4.452c-0.006,0.018-0.01,0.038-0.016,0.056c0.009-0.52-0.014-1.975-0.028-2.087
			c-0.204-1.572-1.522-4.49-3.268-4.813c-1.258-0.232-2.323,0.753-2.423,1.976c-0.102,1.249,0.803,2.499,1.687,3.288
			c0.996,0.889,3.761,1.751,3.981,1.819c-0.493,1.541-0.873,3.162-1.168,4.823c-0.17,0.95-0.311,1.912-0.44,2.878
			c-0.007-0.45-0.016-0.852-0.023-0.908c-0.204-1.572-1.522-4.49-3.268-4.813c-1.258-0.232-2.323,0.753-2.423,1.976
			c-0.103,1.249,0.803,2.499,1.687,3.288c0.896,0.8,3.238,1.582,3.861,1.781c-0.046,0.371-0.096,0.741-0.14,1.113
			c-0.213,1.782-0.418,3.561-0.672,5.3c-0.089,0.613-0.2,1.213-0.308,1.814c-0.007-0.4-0.015-0.736-0.022-0.787
			c-0.204-1.572-1.522-4.491-3.268-4.813c-1.258-0.233-2.323,0.753-2.423,1.976c-0.102,1.249,0.804,2.5,1.687,3.288
			c0.855,0.764,3.011,1.505,3.749,1.745c-0.13,0.612-0.258,1.225-0.411,1.812c-0.114,0.399-0.195,0.79-0.332,1.184
			c-0.127,0.393-0.252,0.782-0.377,1.167c-0.267,0.733-0.537,1.491-0.816,2.2c-0.19,0.494-0.38,0.962-0.57,1.433
			c0.096-0.609,0.259-1.805,0.261-1.906c0.024-1.053-0.35-2.765-1.094-3.969c0.005-0.156-0.004-0.311-0.029-0.465
			c-0.195-1.212-1.333-2.112-2.569-1.782c-1.716,0.457-2.804,3.468-2.885,5.052c-0.005,0.093,0.056,1.113,0.105,1.755
			c-0.086-0.373-0.166-0.736-0.26-1.12c-0.18-0.759-0.382-1.511-0.596-2.321c-0.117-0.387-0.236-0.779-0.355-1.174
			c-0.11-0.395-0.277-0.797-0.414-1.2c-0.339-0.928-0.728-1.852-1.141-2.773c0.664-0.159,3.014-0.758,3.958-1.482
			c0.939-0.721,1.936-1.9,1.927-3.154c-0.009-1.227-0.998-2.289-2.269-2.151c-1.765,0.192-3.297,3.004-3.617,4.556
			c-0.02,0.097-0.125,1.237-0.17,1.864c-0.252-0.552-0.501-1.105-0.775-1.655c-0.789-1.589-1.637-3.172-2.476-4.756
			c-0.257-0.485-0.508-0.971-0.761-1.457c0.237-0.054,3.046-0.706,4.103-1.517c0.939-0.721,1.936-1.9,1.927-3.154
			c-0.009-1.227-0.998-2.289-2.269-2.151c-1.765,0.192-3.297,3.004-3.617,4.556c-0.024,0.117-0.172,1.758-0.189,2.177
			c-0.556-1.07-1.1-2.142-1.593-3.22c-0.683-1.487-1.271-2.983-1.733-4.475c0.11-0.025,3.045-0.692,4.128-1.523
			c0.939-0.721,1.936-1.9,1.927-3.154c-0.009-1.227-0.998-2.289-2.269-2.151c-1.765,0.192-3.297,3.004-3.617,4.556
			c-0.025,0.122-0.184,1.887-0.189,2.209c-0.027-0.089-0.065-0.178-0.092-0.267c-0.473-1.599-0.731-3.208-0.898-4.725
			c-0.099-0.882-0.144-1.73-0.17-2.556c0.559-0.068,3.112-0.408,4.169-1.048c1.013-0.614,2.133-1.676,2.262-2.923
			c0.126-1.221-0.74-2.385-2.019-2.387c-1.775-0.003-3.607,2.623-4.096,4.131c-0.027,0.082-0.205,0.946-0.326,1.577
			c-0.006-0.373-0.019-0.758-0.017-1.116c0.002-1.343,0.087-2.572,0.171-3.66c0.053-0.618,0.113-1.176,0.174-1.698
			c0.514-0.353,2.567-1.803,3.199-2.839c0.616-1.011,1.12-2.47,0.66-3.636c-0.451-1.141-1.756-1.776-2.892-1.188
			c-1.577,0.815-1.992,3.99-1.731,5.554c0.023,0.135,0.618,2.208,0.645,2.19c0,0,0.025-0.017,0.031-0.021
			c-0.069,0.501-0.138,1.038-0.201,1.627c-0.108,1.089-0.22,2.319-0.252,3.667c-0.035,1.347-0.035,2.811,0.104,4.353
			c0.137,1.546,0.36,3.166,0.806,4.804c0.005,0.018,0.013,0.037,0.018,0.056c-0.279-0.439-1.101-1.639-1.175-1.725
			c-1.037-1.199-3.746-2.906-5.381-2.212c-1.177,0.5-1.522,1.91-0.931,2.985C62.824,333.058,64.269,333.601,65.441,333.772z
			 M83.046,357.04c0.909,0.984,3.237,2.136,3.539,2.282c-0.317,0.779-0.633,1.534-0.942,2.241c-1.067,2.455-2.049,4.46-2.754,5.851
			c-0.142,0.28-0.27,0.528-0.389,0.757h-0.118c-0.035-0.271-0.073-0.568-0.119-0.902c-0.215-1.564-0.554-3.792-1.081-6.444
			c-0.164-0.838-0.357-1.73-0.564-2.645C80.826,358.099,82.003,357.623,83.046,357.04z"/>
		<path style="fill:#263238;" d="M95.887,325.43c0.027,0.017,0.567-2.071,0.586-2.207c0.219-1.57-0.282-4.733-1.881-5.505
			c-1.152-0.556-2.439,0.113-2.859,1.266c-0.429,1.178,0.115,2.623,0.758,3.617C93.247,323.768,95.885,325.429,95.887,325.43z"/>
	</g>
</g>
<g id="Table">
	
		<line style="fill:none;stroke:#263238;stroke-width:2;stroke-linecap:round;stroke-linejoin:round;stroke-miterlimit:10;" x1="68.333" y1="380.706" x2="441.667" y2="380.706"/>
</g>
</svg>
