<?xml version="1.0" encoding="utf-8"?>
<!-- Generator: Adobe Illustrator 27.5.0, SVG Export Plug-In . SVG Version: 6.00 Build 0)  -->
<svg version="1.1" xmlns="http://www.w3.org/2000/svg" xmlns:xlink="http://www.w3.org/1999/xlink" x="0px" y="0px"
	 viewBox="0 0 1500 1122" style="enable-background:new 0 0 1500 1122;" xml:space="preserve">
<g id="background">
	<rect x="0" style="fill:#FFFFFF;" width="1500" height="1122"/>
</g>
<g id="shadow">
	<path style="opacity:0.12;fill:#606060;" d="M1379.542,832.944H256.815c-35.512,0-64.568,17.839-64.568,39.642l0,0
		c0,15.098,13.937,28.289,34.297,34.979h-98.866c-35.513,0-64.568,17.839-64.568,39.642l0,0c0,21.803,29.056,39.642,64.568,39.642
		h34.449c-9.621,6.927-15.459,15.888-15.459,25.651v15.857c0,21.803,29.056,39.642,64.568,39.642h1106.015
		c35.513,0,64.568-17.839,64.568-39.642v-15.857c0-21.803-29.056-39.642-64.568-39.642l-75.203,0.881
		c5.728,0,15.029-2.774,21.27-8.352c10.941-9.78,11.426-24.666,6.077-36.989c-3.468-7.988-9.024-14.322-22.789-16.704l132.935,0.535
		c35.512,0,64.568-17.839,64.568-39.642l0,0C1444.11,850.783,1415.054,832.944,1379.542,832.944z"/>
</g>
<g id="object">
	<g>
		<g>
			<polygon style="fill:#EACDB0;" points="404.696,323.077 407.773,313.373 403.173,302.946 410.45,302.395 412.05,291.612 
				428.337,292.773 433.273,302.523 420.211,329.007 			"/>
		</g>
		<g>
			<path style="fill:#C8D6A1;" d="M388.645,342.585c-2.507,4.34-5.084,8.605-7.823,12.704c-2.176,3.256-28.598,37.44-29.227,36.77
				c-13.875-14.765-28.701-28.637-44.355-41.5c0.757,37.3,1.515,74.599,2.272,111.899c10.717,3.725,21.435,7.451,32.153,11.176
				c3.081,1.071,11.192,5.609,14.218,4.228c2.665-1.217,5.611-10.544,6.975-13.204c10.161-19.817,20.322-39.635,30.483-59.452
				c9.719-18.954,19.476-37.976,26.902-57.974c2.406-6.479,4.214-25.498,4.214-25.498c-3.665-5.074-12.182-6.156-17.622-7.914
				c-0.403-0.13-0.841-0.261-1.242-0.123c-0.426,0.147-0.696,0.556-0.934,0.939C399.035,323.709,393.999,333.318,388.645,342.585z"
				/>
		</g>
	</g>
	<g>
		<path style="fill:#CBCCCE;" d="M512.661,347.277c-3.057,1.806-5.607,3.892-6.95,5.636c-17.877,23.213-27.778,50.18-37.812,77.662
			c-7.918,21.689-15.836,43.377-23.754,65.066c-0.876,2.399-1.764,4.974-1.155,7.454c0.673,2.738,2.999,4.703,5.196,6.47
			c6.973,5.611,15.724,11.568,24.156,8.566c5.497-1.957,9.018-7.224,11.961-12.262c13.559-23.213,23.29-48.656,28.682-74.993
			c3.621-17.689,5.328-35.876,11.319-52.909c2.29-6.512,13.75-26.996,7.689-32.757C527.544,340.981,519.009,343.526,512.661,347.277
			z"/>
	</g>
	<g>
		<g>
			<g>
				<g>
					<path style="fill:#EACDB0;" d="M252.626,366.496c9.229,1.376,18.457,2.751,27.686,4.127c1.494,0.223,2.82-21.988,3.824-23.671
						c1.335-2.237,5.658-2.734,7.951-4.151c3.098-1.915,5.77-4.52,7.938-7.435c9.597-12.905,7.735-28.471,8.687-43.776
						c0.252-4.053,0.491-8.231-0.692-12.071c-2.074-6.737-8.05-11.012-13.985-13.821c-15.147-7.17-33.22-7.908-48.013,0.297
						c-3.937,2.184-7.698,5.063-10.119,9.12c-3.783,6.338-3.411,13.858-3.944,20.921c-0.589,7.818,0.398,16.163,2.575,23.755
						c2.189,7.632,6.181,14.946,12.386,19.899C255.537,346.568,250.685,356.724,252.626,366.496z"/>
				</g>
			</g>
		</g>
		<g>
			<path style="fill:#AAA599;" d="M237.064,303.916c-0.736-1.299-1.415-2.62-1.705-4.079c-1.046-5.253,4.939-5.591,6.426-10.083
				c1.046-3.161,0.813-8.259,4.636-9.538c3.212-1.074,6.432,2.033,9.808,1.841c3.407-0.193,5.648-3.505,7.899-6.106
				c2.25-2.6,6.262-4.792,8.85-2.544c0.79,0.686,1.275,1.686,2.096,2.334c2.021,1.594,4.901,0.436,7.403-0.13
				c4.982-1.126,11.158,1.375,12.172,6.438c0.173,0.864,0.193,1.768,0.521,2.585c1.024,2.551,4.301,3.028,7.002,3.356
				c2.701,0.328,6.004,1.574,6.134,4.325c0.131,2.77-3.261,4.964-2.664,7.67c0.281,1.272,1.377,2.16,2.128,3.219
				c1.331,1.877,1.556,4.501,0.564,6.585c-0.686,1.442-1.893,2.617-2.367,4.143c-1.166,3.75,3.08,7.459,6.939,7.023
				c3.859-0.436,6.879-3.585,8.949-6.913c1.658-2.665,2.972-5.812,2.37-8.9c-0.296-1.515-1.039-2.922-1.242-4.452
				c-0.311-2.349,0.675-4.651,1.564-6.845c1.581-3.903,2.901-8.287,2.203-12.54c-0.334-2.035-0.479-3.505-0.587-5.325
				c-0.104-1.764,0.212-3.048-0.94-4.651c-1.395-1.943-3.499-3.576-3.84-5.955c-0.474-3.307,2.718-6.158,2.74-9.5
				c0.01-1.564-0.687-3.047-1.537-4.352c-2.585-3.97-6.776-6.83-11.381-7.768c-2.103-0.428-4.351-0.497-6.197-1.603
				c-3.38-2.024-4.172-6.684-6.985-9.458c-2.773-2.735-7.022-3.186-10.891-2.987c-3.869,0.199-7.825,0.887-11.563-0.138
				c-5.517-1.513-10.064-6.626-15.772-6.273c-7.826,0.483-11.652,10.588-19.065,13.181c-4.854,1.698-10.706-0.062-14.995,2.8
				c-6.177,4.122-5.394,14.899-8.166,21.206c-3.927,8.933-6.012,15.705-2.448,25.418c1.028,2.803,2.34,5.77,1.603,8.668
				c-0.323,1.268-1.019,2.404-1.452,3.638c-1.517,4.329,0.439,9.169,3.257,12.763c2.818,3.594,6.482,6.45,9.203,10.12
				c1.285,1.732,2.37,3.656,3.995,5.066c1.625,1.41,4.013,2.212,5.932,1.248c-0.829-1.416-0.716-3.339,0.272-4.649
				c0.807-1.069,2.109-1.728,2.723-2.921c0.402-0.782,0.454-1.696,0.449-2.577c-0.021-3.869-0.99-7.728-2.796-11.135
				C237.916,305.379,237.481,304.651,237.064,303.916z"/>
		</g>
		<g>
			<path style="fill:#AAA599;" d="M242.044,223.631c-1.755-1.754-4.224-3.085-6.633-2.54c-1.011,0.229-1.931,0.771-2.939,1.014
				c-3.37,0.814-6.507-1.788-9.811-2.84c-3.628-1.156-7.815-0.313-10.735,2.16c-1.96,1.66-3.36,4.594-2.046,6.809
				c0.349,0.589,0.859,1.066,1.209,1.655c1.332,2.247-0.152,5.238-2.235,6.798c-2.083,1.561-4.677,2.279-6.815,3.76
				c-4.015,2.78-5.909,8.342-4.439,13.031c1.47,4.689,6.184,8.119,11.044,8.036c2.382-0.041,4.866-0.82,7.081,0.067
				c1.199,0.48,2.165,1.401,3.26,2.09c3.822,2.404,8.95,1.723,12.834-0.588c3.884-2.311,6.761-5.992,9.399-9.69
				c1.03-1.444,2.09-3.115,1.788-4.868c-0.988-5.742-6.289-5.251-1.047-10.751C246.134,233.396,246.617,228.204,242.044,223.631z"/>
		</g>
	</g>
	<g>
		<g>
			<polygon style="fill:#3A3029;" points="1245.313,990.924 1245.839,1006.017 1215.832,1022 1200.04,1007.352 1214.781,991.814 
				1244.788,975.831 			"/>
		</g>
		<g>
			<polygon style="fill:#59595B;" points="1200.959,616.852 1258.485,627.226 1224.105,780.193 1246.742,986.014 1216.668,992.884 
				1137.774,744.472 1137.556,670.229 1143.432,626.283 			"/>
		</g>
	</g>
	<g>
		<g>
			<polygon style="fill:#59595B;" points="1070.013,544.546 1068.066,737.18 1105.224,985.489 1133.489,985.443 1150.974,756.243 
				1189.285,527.009 			"/>
		</g>
		<g>
			<polygon style="fill:#3A3029;" points="1133.321,982.122 1133.345,997.213 1102.804,1012.354 1087.497,997.287 1102.755,982.17 
							"/>
		</g>
	</g>
	<g>
		<g>
			<polygon style="fill:#CAB5A1;" points="260.856,665.631 262.368,798.326 233.983,969.369 212.368,969.334 198.969,811.448 
				169.644,653.536 			"/>
		</g>
		<g>
			<polygon style="fill:#3A3029;" points="212.402,966.537 212.382,979.211 234.771,991.921 245.996,979.265 234.811,966.573 			"/>
		</g>
	</g>
	<g>
		<g>
			<polygon style="fill:#CAB5A1;" points="337.292,671.582 338.805,804.278 310.419,975.32 288.804,975.286 275.406,817.399 
				246.08,659.487 			"/>
		</g>
		<g>
			<polygon style="fill:#3A3029;" points="288.839,972.488 288.818,985.162 311.207,997.872 322.432,985.216 311.248,972.524 			"/>
		</g>
	</g>
	<g>
		<path style="fill:#C69C6D;" d="M1280.744,623.198c1.174,8.484-0.708,65.452,2.137,66.484c-13.434-2.091-26.955-3.621-40.516-4.595
			c-35.687-2.562-71.648-1.267-107.063,3.824c-16.039,2.306-32.997,4.359-48.211,10.134c-7.459,2.831-14.619,6.372-21.851,9.724
			c-1.858,0.861-21.313,8.238-21.302,8.555c-0.885-24.918-6.4-49.016-9.294-73.789c-2.926-25.048-4.431-50.262-4.5-75.48
			c-0.109-39.509,13.311-74.789,22.169-113.086c4.397-19.012,8.184-38.283,15.018-56.618c5.351-14.356,15.394-35.586,29.569-43.28
			c4.798-2.604,10.328-3.431,15.73-4.216c16.387-2.383,32.775-4.765,49.162-7.148c5.974-0.868,12.194-1.72,17.946,0.115
			c8.618,2.75,14.246,10.812,19.225,18.365c22.324,33.868,38.398,71.313,49.526,110.561c5.809,20.493,11.37,41.056,16.246,61.779
			c5.441,23.125,10.043,46.455,13.177,69.994C1278.262,607.136,1279.53,614.428,1280.744,623.198z"/>
	</g>
	<g>
		<path style="fill:#FFFFF1;" d="M1147.59,448.498c0.616,10.704,3.181,21.19,5.732,31.587
			c15.538,63.325,46.217,138.837,61.755,202.162c-42.438,0-93.363,8.487-147.448,25.391c-1.199-24.263-2.692-72.033-3.891-96.297
			c-0.768-15.555-1.536-31.165-0.441-46.644c1.768-24.968,8.336-49.04,14.865-72.886c12.064-44.061,24.128-88.122,36.192-132.183
			c0.645-2.356,1.33-4.793,2.813-6.607c1.775-2.172,4.432-3.141,6.984-3.962c12.331-3.968,26.335-7.74,39.264-7.089
			c4.701,12.806-4.334,37.07-7.246,49.83C1151.937,410.365,1146.464,428.943,1147.59,448.498z"/>
	</g>
	<g>
		<g>
			<path style="fill:#BAB6B7;" d="M1098.334,252.179c-3.219,8.234-4.023,17.293-3.124,26.089c0.239,2.339,0.474,5.046-1.203,6.693
				c-1.795,1.764,0.446,4.726-1.373,2.987s-8.016-7.801-8.614-10.245c-1.401-5.728-2.253-11.589-2.542-17.478
				c-0.251-5.122,0.005-10.55,2.744-14.885c1.624-2.571,4.003-4.559,6.349-6.493c3.402-2.805,6.916-5.645,11.088-7.074
				c7.19-2.463,12.114-0.478,6.348,5.636C1103.878,241.786,1100.54,246.537,1098.334,252.179z"/>
		</g>
		<g>
			<g>
				<path style="fill:#EACDB0;" d="M1158.841,344.609c-10.03,2.445-20.06,4.889-30.091,7.334
					c-2.838-8.557-5.056-17.347-6.627-26.259c-9.08-0.218-19.919-1.552-24.31-10.385c-1.383-2.782-1.884-5.956-2.363-9.062
					c-1.983-12.84-3.965-25.681-5.948-38.521c-0.686-4.441-1.369-9.021-0.453-13.37c1.608-7.632,7.762-12.944,14.019-16.637
					c15.969-9.424,35.808-12.057,52.935-4.505c4.558,2.01,8.992,4.805,12.068,9.031c4.743,6.517,5.558,15.303,6.179,23.535
					c0.574,7.599,1.147,15.198,1.721,22.796c0.66,8.74,0.823,18.888-5.223,24.443c-3.21,2.95-7.754,4.072-10.366,7.663
					C1155.775,327.004,1159.697,336.489,1158.841,344.609z"/>
			</g>
		</g>
		<g>
			<path style="fill:#BAB6B7;" d="M1094.243,314.057c2.762,7.768,7.755,14.84,14.927,18.377c8.13,4.009,17.446,3.012,26.239,1.931
				c4.81-0.591,9.62-1.182,14.43-1.773c12.168-1.495,24.003-4.835,28.368-18.523c2.012-6.312,1.921-13.293,0.521-19.87
				c-0.385-1.807-0.892-3.649-1.986-5.096c-1.094-1.447-2.909-2.412-4.555-1.929c-2.105,0.617-3.056,3.121-4.176,5.123
				c-2.443,4.368-7.457,7.341-12.074,5.876c-1.368-0.434-2.611-1.211-3.849-1.997c-0.507-0.322-1.013-0.646-1.527-0.948
				c-5.098-3.001-10.927-3.864-16.612-3.773c-4.934,0.079-12.321-0.656-15.308,3.994c-1.738,2.705-3.475,5.41-5.213,8.116
				c-0.716,1.114-1.45,2.25-2.469,3.046c-1.05,0.82-2.338,1.227-3.63,1.44c-3.248,0.536-7.124-0.429-8.715-3.57
				c-0.693-1.368-0.855-2.951-1.137-4.472c-0.282-1.52-0.752-3.108-1.858-4.118c-4.23-3.863-4.245,3.274-4.038,5.679
				C1091.945,305.82,1092.817,310.047,1094.243,314.057z M1127.603,311.417c4.222,2.019,8.25,1.461,12.324-0.448
				c2.093-0.981,3.56,2.552,1.47,3.532c-4.916,2.304-10.026,2.884-15.097,0.459C1124.188,313.951,1125.479,310.402,1127.603,311.417
				z"/>
		</g>
		<g>
			<path style="fill:#BAB6B7;" d="M1079.517,232.186c-1.304-2.991-2.396-6.074-3.265-9.219c3.118,0.605,6.389,0.407,9.412-0.569
				c-0.264-1.849-0.528-3.699-0.793-5.548c-0.212-1.539,20.426-5.671,22.096-6.058c15.629-3.622,29.916-6.982,45.468-0.593
				c13.285,5.457,22.711,15.136,26.656,28.958c3.77,13.204,1.946,31.441-4.2,43.763c-0.482-3.592,0.339-12.353-1.008-15.636
				c-1.02-3.339-2.683-6.458-4.757-9.259c-4.142-5.592-9.927-9.961-16.278-12.751c-10.126-4.449-21.358-5.938-32.346-5.855
				c-10.067,0.075-22.275,0.573-31.637,4.618c-4.5,1.944-5.105,3.234-8.636-1.078c-0.623-0.76-6.019-9.912-5.632-9.975
				C1076.237,232.719,1077.877,232.452,1079.517,232.186z"/>
		</g>
	</g>
	<g>
		<path style="fill:#3A3029;" d="M790.633,953.206v25.175l16.783,16.784h13.023c5.583,0,9.215-5.876,6.718-10.87l-2.957-5.914
			l-8.392-16.784l-8.392-16.783L790.633,953.206z"/>
	</g>
	<g>
		<path style="fill:#3A3029;" d="M873.617,945.395v25.175l16.784,16.784l13.917-4.639c5.173-1.724,6.722-8.289,2.867-12.145l0,0
			l-8.392-16.784l-8.392-16.784L873.617,945.395z"/>
	</g>
	<g>
		<polygon style="fill:#928475;" points="735.243,676.631 764.684,829.137 784.354,962.179 822.979,962.179 832.635,826.991 
			861.604,653.179 		"/>
	</g>
	<g>
		<g>
			<path style="fill:#404F5A;" d="M545.987,967.582l0.797,21.202l-13.604,14.666l-10.967,0.412
				c-4.702,0.177-7.946-4.657-6.002-8.942l2.303-5.074l6.536-14.4l6.536-14.4L545.987,967.582z"/>
		</g>
		<g>
			<polygon style="fill:#62717A;" points="576.266,712.919 563.81,861.786 551.455,974.454 518.925,975.676 506.515,862.129 
				490.98,716.124 			"/>
		</g>
	</g>
	<g>
		<g>
			<path style="fill:#404F5A;" d="M629.084,953.514l1.021,21.193l-13.448,14.809l-10.963,0.528c-4.7,0.227-7.995-4.572-6.096-8.878
				l2.249-5.098l6.383-14.469l6.383-14.469L629.084,953.514z"/>
		</g>
		<g>
			<polygon style="fill:#62717A;" points="656.664,698.544 639.737,847.721 634.625,960.327 602.11,961.894 582.035,849.723 
				571.418,702.653 			"/>
		</g>
	</g>
	<g>
		<polygon style="fill:#928475;" points="918.017,663.204 918.017,834.25 904.408,951.831 865.818,953.468 851.948,836.648 
			827.858,676.631 		"/>
	</g>
	<g>
		<g>
			<g>
				<path style="fill:#EACDB0;" d="M816.448,346.374c10.125,0.984,20.251,1.968,30.376,2.952c1.555-8.928,2.474-17.999,2.745-27.097
					c8.822-1.529,19.2-4.423,22.231-13.851c0.955-2.97,0.993-6.201,1.021-9.362c0.116-13.068,0.231-26.137,0.346-39.205
					c0.04-4.52,0.058-9.178-1.451-13.375c-2.648-7.365-9.4-11.763-16.023-14.535c-16.903-7.074-36.618-6.827-52.247,3.165
					c-4.159,2.659-8.086,6.082-10.487,10.734c-3.702,7.172-3.253,16.037-2.693,24.321c0.516,7.647,1.033,15.294,1.549,22.941
					c0.594,8.796,1.871,18.921,8.552,23.577c3.547,2.472,8.136,2.933,11.191,6.129C816.945,328.407,814.464,338.416,816.448,346.374
					z"/>
			</g>
		</g>
		<g>
			<path style="fill:#BFBEBE;" d="M827.531,255.818c-6.225,8.475-13.205,16.076-22.27,21.445
				c-5.57,3.299-11.393,4.756-11.616,12.446c-0.213,7.317,4.617,15.319,10.595,19.016c1.027,0.635,2.146,1.216,2.831,2.222
				c1.353,1.985,0.367,4.942-1.57,6.335c-1.936,1.394-4.479,1.548-6.834,1.29c-7.149-0.781-13.649-4.876-18.655-10.145
				c-10.556-11.109-14.992-27.47-13.249-42.845c1.719-15.158,8.978-30.073,19.646-40.64c9.846-9.753,19.575-19.881,34.27-20.602
				c8.281-0.406,22.823,4.365,23.234,14.813C844.345,230.136,833.429,247.221,827.531,255.818z"/>
		</g>
		<g>
			<path style="fill:#BFBEBE;" d="M852.343,252.66c5.79,4.365,12.565,8.455,14.98,15.135c1.058,2.928,1.151,6.087,1.147,9.186
				c-0.008,5.545-0.292,11.09-0.854,16.61c-0.584,5.745-1.711,12.283-5.655,16.879c-1.601,1.866-13.007,9.787-3.229,11.179
				c2.857,0.406,5.517-1.368,7.721-3.161c17.463-14.201,28.185-36.467,25.782-58.328c-1.447-13.169-7.979-25.775-17.856-34.983
				c-9.021-8.411-26.44-18.459-39.012-11.005C818.615,224.104,843.654,246.109,852.343,252.66z"/>
		</g>
	</g>
	<g>
		<path style="fill:#CCA6AC;" d="M861.832,338.706h-82.458l-82.458,388.729c0,0,164.915,23.559,270.932,0L900.964,359.58
			L861.832,338.706z"/>
	</g>
	<g>
		<g>
			<polygon style="fill:#C69C6D;" points="1085.951,368.86 1011.458,519.704 1079.277,571.909 1087.765,546.447 1061.987,479.952 
							"/>
		</g>
	</g>
	<g>
		<path style="fill:#EACDB0;" d="M1071.698,566.89c2.171,3.78,11.34,7.718,14.399,10.714c0.73,0.715,1.464,1.467,2.401,1.874
			c0.969,0.421,2.061,0.432,3.117,0.398c2.576-0.084,5.145-0.399,7.665-0.94c0.433-0.093,0.889-0.205,1.206-0.514
			c0.283-0.276,0.414-0.669,0.535-1.045c1.282-3.986,2.564-7.973,3.846-11.959c-2.212-2.142-4.424-4.284-6.636-6.426
			c0.598-1.807,1.196-3.615,1.794-5.422c0,0.493-18.09-5.385-19.46-5.67c-0.285-0.059-0.589-0.117-0.86-0.012
			c-0.347,0.135-0.542,0.496-0.708,0.829c-1.848,3.711-9.037,13.45-7.6,17.525C1071.472,566.457,1071.574,566.673,1071.698,566.89z"
			/>
	</g>
	<g>
		<g>
			<path style="fill:#EACDB0;" d="M761.654,586.107c4.637,4.369,8.542,9.514,11.504,15.155c0.496,0.945,0.985,1.929,1.786,2.635
				c0.828,0.73,1.911,1.092,2.972,1.397c2.589,0.744,5.245,1.256,7.926,1.528c0.461,0.047,0.95,0.082,1.365-0.124
				c0.37-0.183,0.626-0.532,0.868-0.867c2.556-3.553,5.112-7.106,7.667-10.659c-1.512-2.841-3.024-5.682-4.536-8.524
				c1.176-1.606,2.351-3.211,3.527-4.817c-3.176-1.738-6.351-3.477-9.527-5.215c-1.924-1.053-6.476-4.781-8.627-4.566
				c-2.159,0.216-5.777,4.895-7.347,6.392C766.631,580.922,764.104,583.479,761.654,586.107z"/>
		</g>
		<g>
			<polygon style="fill:#CCA6AC;" points="779.375,338.706 702.103,533.168 759.758,591.853 789.615,577.439 755.815,527.18 			"/>
		</g>
	</g>
	<g>
		<path style="fill:#C8D6A1;" d="M307.814,350.15l-66.673,0.197c0,0-82.512,111.69-90.139,234.852
			c-7.627,123.162-4.16,182.099-4.16,182.099s194.838,0,203.852-3.467c9.014-3.467-8.32-172.883-18.721-238.291
			C321.573,460.134,309.201,345.757,307.814,350.15z"/>
	</g>
	<g>
		<g>
			<g>
				<path style="fill:#DDDAD7;" d="M499.472,257.304c0.376,13.281,4.133,26.453,10.82,37.933c-1.23-12.354-1.567-24.908,0.72-37.111
					c2.287-12.203,7.339-24.102,15.824-33.164c-0.988,1.055-11.125-1.414-13.622-0.55c-3.464,1.197-5.718,4.074-7.675,7.118
					C500.705,239.047,499.223,248.511,499.472,257.304z"/>
			</g>
			<g>
				<g>
					<g>
						<path style="fill:#A08A78;" d="M575.901,352.927c-11.572,2.051-21.814,3.475-33.548,3.095
							c-0.022-7.581-0.85-15.159-2.466-22.565c-1.082-4.96-6.298-5.228-10.341-6.339c-3.705-1.018-7.09-2.825-9.766-5.62
							c-2.026-2.115-3.565-4.646-4.941-7.232c-4.271-8.028-5.788-17.274-7.575-26.112c-3.585-17.73-9.288-38.508,5.771-52.553
							c9.056-8.41,21.724-12.817,33.867-14.008c9.063-0.889,18.394-0.354,26.949,2.766c8.555,3.12,16.294,8.997,20.583,17.03
							c5.003,9.37,4.32,19.414,3.405,29.598c-1.176,13.077,2.907,24.766-5.078,36.397c-2.867,4.177-6.373,7.868-9.649,11.732
							c-3.564,4.203-6.24,10.55-6.873,16.058C576.041,336.901,577.058,352.717,575.901,352.927z"/>
					</g>
				</g>
			</g>
			<g>
				<path style="fill:#DDDAD7;" d="M537.916,226.69c-5.92-0.044-11.841,0.766-17.744,0.116c-5.903-0.649-12.005-3-15.883-8.163
					c17.628-4.209,35.807-17.167,53.613-16.167c14.182,0.796,31.757,20.206,39.47,33.895c7.503,13.324,4.804,31.822-0.889,46.185
					c-1.341-6.087-0.015-12.502-1.352-18.536c-1.705-7.696-7.595-14.237-12.829-19.112
					C569.872,233.331,553.823,226.808,537.916,226.69z"/>
			</g>
		</g>
		<g>
			<path style="fill:#DDDAD7;" d="M541.598,294.237c-7.586-1.537-16.628-1.219-21.37,4.408c-3.291,3.904-3.592,9.285-4.445,14.241
				c-0.854,4.956-2.943,10.398-7.887,12.233c3.65,1.877,8.126,1.946,11.994,0.701c3.868-1.245,7.17-3.701,9.853-6.579
				c2.371-2.544,4.431-5.531,7.659-7.039c2.37-1.107,5.108-1.284,7.756-1.565c2.648-0.28,5.399-0.729,7.487-2.253
				C560.99,302.289,546.947,295.321,541.598,294.237z"/>
		</g>
		<g>
			<path style="fill:#DDDAD7;" d="M566.148,292.371c7.267-2.666,16.253-3.717,21.791,1.128c3.843,3.362,4.954,8.635,6.546,13.406
				c1.593,4.77,4.48,9.834,9.645,10.9c-3.324,2.407-7.738,3.151-11.75,2.505c-4.012-0.646-7.647-2.575-10.734-5.015
				c-2.728-2.156-5.216-4.798-8.635-5.801c-2.51-0.737-5.243-0.498-7.903-0.375c-2.66,0.123-5.448,0.095-7.741-1.096
				C548.196,303.262,561.025,294.251,566.148,292.371z"/>
		</g>
	</g>
	<g>
		<path style="fill:#CBCCCE;" d="M599.706,332.903l-74.844,9.76c0,0-45.585,46.859-51.164,107.065
			c-5.578,60.206-18.883,274.145-18.883,274.145s109.513,25.672,197.081,2.064l42.852-18.216c0,0-30.999-214.945-43.104-255.47
			C639.539,411.724,599.706,332.903,599.706,332.903z"/>
	</g>
	<g>
		<g>
			<path style="fill:#F1F1F1;" d="M484.617,586.258l-145.779,2.874c-53.911,1.063-98.477-41.779-99.54-95.69v0
				c-1.063-53.911,41.779-98.477,95.69-99.54l145.412-2.867L484.617,586.258z"/>
		</g>
		<g>
			<path style="fill:#5996CB;" d="M489.765,586.156l269.353-5.311c51.048-1.007,91.614-43.205,90.607-94.252l-0.204-10.37
				c-1.007-51.048-43.205-91.614-94.252-90.608l-269.353,5.311L489.765,586.156z"/>
		</g>
		<g>
			<g>
				<path style="fill:#FFFFFF;" d="M546.159,453.958l7.712-0.152l1.261,63.979l-7.713,0.152l-0.57-28.922l-29.624,0.584l0.57,28.922
					l-7.712,0.152l-1.261-63.979l7.712-0.152l0.57,28.921l29.623-0.584L546.159,453.958z"/>
			</g>
			<g>
				<path style="fill:#FFFFFF;" d="M572.452,453.44l34.005-0.671l0.121,6.135l-26.293,0.518l0.439,22.26l24.453-0.482l0.121,6.135
					l-24.453,0.482l0.46,23.314l28.045-0.552l0.121,6.135l-35.758,0.705L572.452,453.44z"/>
			</g>
			<g>
				<path style="fill:#FFFFFF;" d="M634.59,452.215l10.255-0.202l22.207,63.565l-7.625,0.151l-6.603-19.159l-24.364,0.481
					l-5.843,19.404l-7.625,0.151L634.59,452.215z M639.896,458.949l-9.629,31.928l20.421-0.402L639.896,458.949z"/>
			</g>
			<g>
				<path style="fill:#FFFFFF;" d="M677.831,515.365l-1.261-63.979l7.712-0.152l1.14,57.844l23.839-0.47l0.121,6.135
					L677.831,515.365z"/>
			</g>
			<g>
				<path style="fill:#FFFFFF;" d="M705.438,456.955l-0.121-6.135l42.068-0.829l0.121,6.135l-17.178,0.338l1.14,57.844l-7.713,0.152
					l-1.14-57.844L705.438,456.955z"/>
			</g>
			<g>
				<path style="fill:#FFFFFF;" d="M794.623,449.059l7.713-0.152l1.261,63.979l-7.713,0.152l-0.57-28.922l-29.623,0.584l0.57,28.922
					l-7.712,0.152l-1.261-63.979l7.712-0.152l0.57,28.921l29.623-0.584L794.623,449.059z"/>
			</g>
		</g>
		<g>
			<g>
				<path style="fill:#5996CB;" d="M428.781,473.76c-12.347,0.243-24.693,0.487-37.04,0.73c-1.156,0.023-2.313,0.046-3.469,0.068
					c-0.177-8.992-0.355-17.983-0.532-26.975c-0.089-4.511-0.178-9.023-0.267-13.534c-0.03-1.503-1.329-2.756-2.836-2.726
					c-7.673,0.151-15.347,0.303-23.02,0.454c-1.503,0.03-2.756,1.329-2.726,2.836c0.243,12.346,0.487,24.693,0.73,37.04
					c0.023,1.156,0.046,2.313,0.068,3.469c-8.992,0.177-17.983,0.355-26.975,0.532c-4.511,0.089-9.023,0.178-13.534,0.267
					c-1.503,0.03-2.756,1.329-2.726,2.836c0.151,7.673,0.303,15.347,0.454,23.02c0.017,0.852,0.347,1.493,0.837,1.931
					c0.457,0.493,1.124,0.813,1.999,0.795c12.347-0.243,24.693-0.487,37.04-0.73c1.156-0.023,2.313-0.046,3.469-0.068
					c0.177,8.992,0.354,17.983,0.532,26.975c0.089,4.511,0.178,9.023,0.267,13.534c0.03,1.503,1.329,2.756,2.836,2.726
					c7.673-0.151,15.347-0.303,23.02-0.454c0.852-0.017,1.493-0.347,1.931-0.837c0.493-0.457,0.813-1.123,0.795-1.999
					c-0.243-12.346-0.487-24.693-0.73-37.04c-0.023-1.156-0.046-2.313-0.068-3.469c8.992-0.177,17.983-0.355,26.975-0.532
					c4.511-0.089,9.023-0.178,13.534-0.267c1.503-0.03,2.756-1.329,2.726-2.836c-0.151-7.673-0.303-15.347-0.454-23.02
					C431.587,474.983,430.288,473.73,428.781,473.76z"/>
			</g>
		</g>
	</g>
	<g>
		<g>
			<path style="fill:#B22759;" d="M419.484,121.171c-20.934-1.705-47.274,9.467-53.56,27.341
				c-6.286-17.874-38.401-28.873-59.335-27.168c-55.242,4.5-73.942,66.105-50.52,107.533c12.606,22.297,30.722,41.793,50.486,59.298
				c16.551,14.659,59.24,45.75,59.37,45.644c0.13,0.106,42.82-30.985,59.37-45.644c19.764-17.505,37.88-37.001,50.486-59.298
				C499.202,187.449,474.727,125.671,419.484,121.171z"/>
		</g>
		<g style="opacity:0.12;">
			<path d="M465.041,234.112c-13.768,16.633-29.711,32.246-47.018,45.653c-16.737,12.965-36.349,24.26-57.934,28.034
				c-10.368,1.813-20.52,1.561-30.128-0.648c17.62,13.599,36.771,27.503,36.858,27.432c0.13,0.106,42.819-30.985,59.37-45.644
				c19.764-17.505,37.88-37.001,50.486-59.298c4.079-7.215,6.701-15.047,7.965-23.086
				C478.908,216.208,472.258,225.393,465.041,234.112z"/>
		</g>
		<g>
			<path style="fill:#FFFFFF;" d="M464.12,216.604c-14.466,0.367-28.931,0.734-43.397,1.101
				c-5.235-18.991-10.47-37.981-15.705-56.972c-0.757-2.745-4.836-2.539-5.696,0c-11.199,33.057-22.399,66.114-33.598,99.171
				c-0.649,1.915-1.297,3.829-1.946,5.744c-7.616-21.761-15.231-43.522-22.847-65.283c-1.221-3.49-2.443-6.98-3.664-10.47
				c-0.736-2.104-4.208-2.938-5.398-0.664c-5.536,10.572-11.071,21.145-16.607,31.717c-16.188,0-32.377,0-48.565,0
				c-3.801,0-3.807,5.56,0,5.56c16.798,0,33.596,0,50.394,0c0.983,0,2.1-0.517,2.551-1.377c4.744-9.06,9.488-18.12,14.232-27.181
				c7.813,22.325,15.626,44.65,23.439,66.976c1.221,3.49,2.443,6.98,3.664,10.47c0.916,2.618,4.795,2.66,5.696,0
				c11.199-33.057,22.399-66.114,33.598-99.171c0.536-1.581,1.072-3.163,1.607-4.744c4.576,16.6,9.152,33.2,13.728,49.8
				c0.318,1.153,1.571,2.074,2.848,2.041c15.222-0.386,30.444-0.772,45.666-1.159C467.914,222.068,467.929,216.507,464.12,216.604z"
				/>
		</g>
	</g>
	<g>
		<g>
			<g>
				
					<rect x="881.41" y="163.901" transform="matrix(0.9909 0.1349 -0.1349 0.9909 46.2197 -127.836)" style="fill:#6188A3;" width="169.599" height="226.325"/>
			</g>
			<g style="opacity:0.26;">
				<polygon points="880.766,369.823 883.281,370.165 1031.057,394.977 1056.055,182.366 1048.887,183.411 				"/>
			</g>
			<g>
				
					<rect x="890.133" y="171.121" transform="matrix(0.9909 0.1349 -0.1349 0.9909 46.0531 -127.8702)" style="fill:#FFFFF1;" width="152.492" height="209.394"/>
			</g>
			<g style="opacity:0.05;">
				<polygon points="904.243,160.886 1012.922,175.685 891.605,252.352 				"/>
			</g>
			<g>
				<g style="opacity:0.12;">
					
						<rect x="947.122" y="170.954" transform="matrix(0.9909 0.1349 -0.1349 0.9909 32.4502 -130.6707)" width="66.228" height="6.217"/>
				</g>
				<g>
					<g>
						<path style="fill:#C4D3D3;" d="M1002.553,154.985l-1.018-0.139l0.094-0.686c0.881-6.468-4.427-12.53-11.856-13.542
							l-9.784-1.332c-7.429-1.012-14.164,3.411-15.045,9.879l-0.094,0.686l-1.018-0.139c-7.428-1.012-14.164,3.411-15.045,9.879
							l-1.782,13.083l65.622,8.936l1.782-13.083C1015.29,162.06,1009.982,155.997,1002.553,154.985z M991.8,153.796l-17.289-2.354
							c-1.767-0.241-3.016-1.883-2.776-3.651c0.241-1.767,1.884-3.016,3.651-2.776l17.289,2.354
							c1.767,0.241,3.016,1.883,2.776,3.651C995.211,152.787,993.568,154.036,991.8,153.796z"/>
					</g>
				</g>
			</g>
		</g>
		<g style="opacity:0.47;">
			<g>
				<path style="fill:#8C9498;" d="M939.276,225.534c-7.395-1.007-14.789-2.014-22.184-3.021c-0.625-0.085-1.228,0.372-1.313,0.998
					c-1.007,7.395-2.014,14.789-3.021,22.184c-0.085,0.625,0.372,1.228,0.998,1.313c7.395,1.007,14.789,2.014,22.184,3.021
					c0.339,0.046,0.614-0.042,0.824-0.202c0.015-0.01,0.029-0.021,0.044-0.031c0.008-0.007,0.017-0.013,0.024-0.02
					c0.213-0.159,0.374-0.402,0.421-0.744c1.007-7.395,2.014-14.789,3.021-22.184C940.359,226.222,939.902,225.619,939.276,225.534z
					 M935.1,247.561c-6.624-0.902-13.249-1.804-19.873-2.706c0.902-6.624,1.804-13.249,2.706-19.873
					c6.624,0.902,13.249,1.804,19.873,2.706C936.904,234.312,936.002,240.936,935.1,247.561z"/>
			</g>
			<g>
				<path style="fill:#8C9498;" d="M933.691,266.551c-7.395-1.007-14.789-2.014-22.184-3.021c-0.625-0.085-1.228,0.372-1.313,0.998
					c-1.007,7.395-2.014,14.789-3.021,22.184c-0.085,0.625,0.372,1.228,0.998,1.313c7.395,1.007,14.789,2.014,22.184,3.021
					c0.339,0.046,0.614-0.042,0.824-0.203c0.015-0.01,0.029-0.021,0.044-0.031c0.008-0.007,0.017-0.013,0.024-0.02
					c0.213-0.159,0.374-0.402,0.421-0.744c1.007-7.395,2.014-14.789,3.021-22.184C934.774,267.24,934.317,266.637,933.691,266.551z
					 M929.514,288.578c-6.624-0.902-13.249-1.804-19.873-2.706c0.902-6.624,1.804-13.249,2.706-19.873
					c6.624,0.902,13.249,1.804,19.873,2.706C931.318,275.329,930.417,281.954,929.514,288.578z"/>
			</g>
			<g>
				<path style="fill:#8C9498;" d="M928.105,307.569c-7.395-1.007-14.789-2.014-22.184-3.021c-0.625-0.085-1.227,0.372-1.313,0.998
					c-1.007,7.395-2.014,14.789-3.021,22.184c-0.085,0.625,0.372,1.228,0.998,1.313c7.395,1.007,14.789,2.014,22.184,3.021
					c0.339,0.046,0.614-0.042,0.823-0.203c0.015-0.01,0.029-0.021,0.044-0.031c0.008-0.007,0.017-0.013,0.025-0.02
					c0.213-0.159,0.374-0.402,0.42-0.744c1.007-7.395,2.014-14.789,3.021-22.184C929.188,308.257,928.731,307.654,928.105,307.569z
					 M923.929,329.595c-6.624-0.902-13.249-1.804-19.873-2.706c0.902-6.625,1.804-13.249,2.706-19.873
					c6.624,0.902,13.249,1.804,19.873,2.706C925.733,316.347,924.831,322.971,923.929,329.595z"/>
			</g>
		</g>
		<g>
			<polygon style="fill:#6BAC8F;" points="923.421,231.924 928.751,230.919 930.889,236.403 957.642,222.158 960.397,223.111 
				928.908,242.481 			"/>
		</g>
		<g>
			<polygon style="fill:#6BAC8F;" points="915.845,273.73 921.175,272.724 923.314,278.209 950.066,263.964 952.821,264.916 
				921.332,284.286 			"/>
		</g>
		<g>
			<polygon style="fill:#6BAC8F;" points="910.096,312.489 915.427,311.483 917.565,316.968 944.317,302.723 947.073,303.675 
				915.583,323.045 			"/>
		</g>
		<g style="opacity:0.32;">
			
				<rect x="940.012" y="323.799" transform="matrix(0.9909 0.1349 -0.1349 0.9909 53.4022 -129.1508)" style="fill:#8C9498;" width="78.982" height="11.194"/>
		</g>
		<g style="opacity:0.32;">
			
				<rect x="945.928" y="280.355" transform="matrix(0.9909 0.1349 -0.1349 0.9909 47.5945 -130.3463)" style="fill:#8C9498;" width="78.982" height="11.194"/>
		</g>
		<g style="opacity:0.32;">
			
				<rect x="951.844" y="236.911" transform="matrix(0.9909 0.1349 -0.1349 0.9909 41.7868 -131.5418)" style="fill:#8C9498;" width="78.982" height="11.194"/>
		</g>
	</g>
	<g>
		<g>
			<g>
				
					<ellipse transform="matrix(0.742 -0.6704 0.6704 0.742 76.2654 977.2515)" style="fill:#35383F;" cx="1307.775" cy="389.542" rx="34.361" ry="34.361"/>
			</g>
			<g>
				
					<ellipse transform="matrix(0.7071 -0.7071 0.7071 0.7071 107.5907 1038.8309)" style="fill:#E5DED6;" cx="1307.775" cy="389.542" rx="23.619" ry="23.619"/>
			</g>
			<g>
				
					<rect x="1299.264" y="403.763" transform="matrix(0.9987 0.0506 -0.0506 0.9987 25.2869 -65.3884)" style="fill:#E5DED6;" width="9.208" height="125.767"/>
			</g>
			<g>
				
					<ellipse transform="matrix(0.742 -0.6704 0.6704 0.742 75.6483 977.316)" style="fill:#35383F;" cx="1307.545" cy="390.376" rx="8.085" ry="8.085"/>
			</g>
			<g style="opacity:0.13;">
				<path d="M1312.001,397.122l-1.351,26.663c0,0,5.257-0.566,8.105-1.673l-5.475-26.038L1312.001,397.122z"/>
			</g>
		</g>
		<g>
			<g>
				<path style="fill:#4080BB;" d="M1111.977,502.286c-0.679,12.296,0.259,24.764,2.068,36.953
					c3.753,25.29,12.203,52.968,35.838,72.171c25.014,20.323,68.259,25.634,98.894,10.427c29.251-14.52,43.474-41.592,51.574-66.579
					c3.712-11.452,6.262-23.151,7.991-34.891c0.906-6.15,1.773-12.393,1.882-18.598c0.005-0.287,0.025-0.574,0.032-0.861
					c0.209-8.122-16.296-8.55-16.505-0.414c-0.106,4.132-0.52,8.265-0.989,12.376c-0.509,4.472-1.159,8.933-1.945,13.378
					c-0.228,1.287-0.472,2.572-0.718,3.857c-0.028,0.144-0.049,0.254-0.065,0.341c-0.011,0.052-0.024,0.11-0.039,0.18
					c-0.158,0.746-0.312,1.492-0.474,2.237c-0.615,2.828-1.288,5.649-2.026,8.458c-3.212,12.238-7.578,24.355-13.904,35.847
					c-0.361,0.656-0.733,1.309-1.105,1.962c0.521-0.917-0.411,0.692-0.668,1.114c-0.914,1.498-1.866,2.982-2.86,4.449
					c-1.869,2.757-3.889,5.455-6.081,8.068c-1.025,1.222-2.089,2.424-3.193,3.605c-0.519,0.555-1.046,1.104-1.583,1.649
					c-0.357,0.361-0.722,0.717-1.082,1.077c-0.112,0.112-0.357,0.342-0.541,0.514c-2.369,2.153-4.861,4.218-7.557,6.135
					c-1.331,0.946-2.705,1.858-4.121,2.729c-0.669,0.411-1.355,0.803-2.032,1.206c1.836-1.091-1.093,0.571-1.572,0.813
					c-3.184,1.611-6.551,3.014-10.06,4.174c-0.352,0.117-0.717,0.221-1.067,0.344c-0.046,0.016-0.085,0.03-0.124,0.044
					c-0.019,0.005-0.035,0.009-0.056,0.014c-0.833,0.214-1.656,0.45-2.493,0.656c-1.985,0.487-4.003,0.899-6.044,1.235
					c-1.904,0.314-3.821,0.534-5.75,0.743c-0.129,0.014-0.321,0.029-0.503,0.043c0.138-0.009,0.307-0.019,0.516-0.032
					c-0.287,0.018-0.575,0.038-0.863,0.056c-0.106,0.007-0.17,0.01-0.154,0.009c-0.083,0.005-0.166,0.011-0.249,0.015
					c-1.291,0.056-2.579,0.117-3.873,0.136c-4.536,0.068-8.991-0.269-13.495-0.675c-0.025-0.002-0.053-0.005-0.083-0.008
					c-0.422-0.059-0.845-0.118-1.266-0.182c-0.942-0.143-1.88-0.299-2.813-0.47c-2.219-0.406-4.415-0.893-6.574-1.462
					c-1.719-0.454-3.38-0.997-5.068-1.512c-0.039-0.012-0.072-0.022-0.107-0.032c-0.033-0.013-0.065-0.026-0.102-0.041
					c-0.349-0.139-0.71-0.264-1.062-0.399c-1.05-0.403-2.086-0.828-3.108-1.273c-1.516-0.661-2.998-1.367-4.443-2.115
					c-0.797-0.413-1.583-0.839-2.358-1.277c-0.398-0.225-2.555-1.569-2.033-1.211c-2.738-1.812-5.337-3.721-7.747-5.794
					c-1.155-0.993-2.268-2.015-3.341-3.06c-0.296-0.289-1.77-1.83-1.184-1.19c-0.564-0.608-1.125-1.217-1.668-1.836
					c-4.447-5.073-8.011-10.525-11.086-16.142c-0.067-0.122-0.13-0.245-0.195-0.368c-0.081-0.156-0.184-0.356-0.244-0.477
					c-0.321-0.654-0.648-1.306-0.961-1.962c-0.732-1.536-1.423-3.083-2.078-4.639c-1.249-2.97-2.361-5.972-3.358-8.995
					c-1.961-5.951-3.474-11.981-4.642-18.044c-0.269-1.393-0.519-2.789-0.752-4.186c-0.121-0.724-0.232-1.45-0.348-2.174
					c0.313,1.948-0.088-0.631-0.153-1.106c-0.379-2.758-0.695-5.52-0.95-8.285c-0.452-4.88-0.719-9.767-0.813-14.655
					c-0.07-3.657,0.023-7.299,0.169-10.943c-2.492,0.531-5.158,0.546-7.478,0.406
					C1118.118,503.635,1114.967,503.171,1111.977,502.286z M1196.852,617.237C1196.42,617.188,1195.688,617.076,1196.852,617.237
					L1196.852,617.237z M1142.838,579.054C1142.872,579.12,1142.868,579.111,1142.838,579.054L1142.838,579.054z"/>
			</g>
		</g>
		<g>
			<g>
				<path style="fill:#E5DED6;" d="M1096.558,313.524c-9.216-0.467-18.432-0.934-27.648-1.401c-1.967-0.1-3.722,1.482-3.822,3.454
					c-1.063,20.981-2.127,41.963-3.19,62.944c-0.15,2.96-0.3,5.92-0.45,8.879c-0.237,4.682,7.038,5.058,7.276,0.369
					c1.063-20.981,2.127-41.963,3.19-62.944c0.089-1.747,0.177-3.494,0.266-5.241c8.003,0.406,16.007,0.811,24.01,1.217
					C1100.871,321.037,1101.248,313.761,1096.558,313.524z"/>
			</g>
			<g>
				<g>
					<path style="fill:#35383F;" d="M1106.533,324.74l-8.457-0.429l0.737-14.552l8.457,0.429c3.366,0.171,5.956,3.038,5.786,6.404
						l-0.12,2.362C1112.766,322.32,1109.899,324.911,1106.533,324.74z"/>
				</g>
				<g>
					<path style="fill:#E5DED6;" d="M1099.151,325.501l-7.186-0.364c-3.889-0.197-6.883-3.51-6.686-7.4l0.138-2.73
						c0.197-3.889,3.51-6.883,7.4-6.686l7.186,0.364L1099.151,325.501z"/>
				</g>
			</g>
		</g>
		<g>
			<g>
				<path style="fill:#E5DED6;" d="M1168.694,316.693c9.216,0.467,18.432,0.934,27.648,1.401c1.966,0.1,3.553,1.851,3.453,3.822
					c-1.063,20.982-2.127,41.963-3.19,62.944c-0.15,2.96-0.3,5.92-0.45,8.879c-0.237,4.682-7.513,4.321-7.276-0.369
					c1.063-20.981,2.127-41.963,3.19-62.944c0.089-1.747,0.177-3.494,0.266-5.241c-8.003-0.406-16.007-0.811-24.01-1.217
					C1163.644,323.732,1164.005,316.455,1168.694,316.693z"/>
			</g>
			<g>
				<g>
					<path style="fill:#35383F;" d="M1157.637,326.844l8.457,0.428l0.737-14.551l-8.457-0.429c-3.366-0.171-6.233,2.42-6.403,5.786
						l-0.12,2.362C1151.68,323.806,1154.271,326.673,1157.637,326.844z"/>
				</g>
				<g>
					<path style="fill:#E5DED6;" d="M1164.905,328.347l7.186,0.364c3.89,0.197,7.202-2.796,7.4-6.686l0.138-2.73
						c0.197-3.889-2.796-7.202-6.686-7.4l-7.186-0.364L1164.905,328.347z"/>
				</g>
			</g>
		</g>
		<g style="opacity:0.13;">
			<path d="M1128.397,511.031c0,0,0.026,5.386,0.377,11.599l-16.881-7.706l0.256-6.51L1128.397,511.031z"/>
		</g>
		<g>
			<g>
				<path style="fill:#4080BB;" d="M1058.898,387.839c-1.448,13.173-1.215,26.692-0.135,39.872
					c1.916,23.378,7.079,49.017,23.21,67.03c17.071,19.063,47.451,24.507,69.521,10.864c21.073-13.027,31.901-37.822,38.345-60.771
					c2.953-10.518,5.093-21.278,6.654-32.087c0.818-5.662,1.611-11.41,1.868-17.133c0.012-0.265,0.034-0.529,0.048-0.794
					c0.383-7.491-11.258-8.093-11.641-0.59c-0.195,3.811-0.607,7.618-1.057,11.405c-0.489,4.119-1.078,8.226-1.762,12.317
					c-0.198,1.185-0.408,2.367-0.619,3.549c-0.279,1.566,0.173-0.861-0.088,0.48c-0.133,0.686-0.263,1.372-0.399,2.058
					c-0.516,2.601-1.073,5.195-1.676,7.777c-2.623,11.249-6.057,22.373-10.857,32.895c-0.305,0.669-0.62,1.335-0.933,2
					c0.589-1.25-0.201,0.402-0.408,0.815c-0.688,1.37-1.404,2.727-2.148,4.068c-1.4,2.52-2.904,4.984-4.527,7.366
					c-0.759,1.114-1.545,2.21-2.359,3.285c-0.382,0.505-0.771,1.006-1.166,1.501c-0.262,0.329-0.53,0.652-0.795,0.98
					c-0.214,0.266-1.089,1.259-0.112,0.147c-1.821,2.072-3.732,4.055-5.798,5.885c-0.967,0.857-1.964,1.68-2.989,2.466
					c-0.484,0.371-0.98,0.724-1.47,1.087c1.328-0.984-0.788,0.513-1.134,0.73c-2.295,1.446-4.712,2.698-7.224,3.724
					c-0.252,0.103-0.513,0.195-0.763,0.304c-1.298,0.562,1.226-0.374-0.129,0.051c-0.594,0.187-1.182,0.394-1.779,0.574
					c-1.416,0.424-2.853,0.779-4.303,1.064c-1.353,0.266-2.714,0.445-4.081,0.613c-0.359,0.044-1.414,0.099,0.009,0.01
					c-0.298,0.019-0.598,0.046-0.896,0.058c-0.913,0.036-1.824,0.076-2.738,0.077c-3.204,0.006-6.341-0.361-9.508-0.793
					c-0.285-0.039-1.135-0.225,0.172,0.039c-0.373-0.076-0.747-0.15-1.119-0.231c-0.661-0.144-1.319-0.299-1.973-0.469
					c-1.555-0.403-3.091-0.879-4.599-1.432c-1.2-0.44-2.357-0.962-3.534-1.459c-1.323-0.558,1.108,0.616-0.145-0.07
					c-0.243-0.133-0.494-0.252-0.738-0.381c-0.73-0.385-1.449-0.79-2.157-1.213c-1.051-0.628-2.077-1.298-3.076-2.007
					c-0.551-0.391-1.094-0.794-1.628-1.208c-0.321-0.249-2.293-1.937-1.052-0.827c-2.01-1.799-3.908-3.697-5.65-5.759
					c-0.786-0.931-1.543-1.887-2.27-2.865c-0.227-0.305-1.471-2.107-0.573-0.77c-0.458-0.682-0.915-1.363-1.354-2.058
					c-2.993-4.736-5.351-9.81-7.359-15.031c-0.102-0.265-0.198-0.533-0.297-0.799c0.485,1.308,0.124,0.344,0.012,0.014
					c-0.207-0.607-0.42-1.213-0.622-1.822c-0.473-1.426-0.916-2.862-1.332-4.306c-0.796-2.756-1.494-5.539-2.11-8.34
					c-1.212-5.514-2.105-11.096-2.754-16.704c-0.149-1.289-0.286-2.579-0.409-3.871c-0.064-0.67-0.122-1.34-0.183-2.01
					c0.165,1.801-0.044-0.583-0.076-1.022c-0.188-2.549-0.33-5.101-0.431-7.655c-0.177-4.507-0.225-9.02-0.149-13.53
					c0.088-5.265,0.455-10.492,0.81-15.741c0.017-0.255,0.049-0.511,0.077-0.765c0.344-3.132-2.513-5.963-5.526-6.116
					C1061.708,382.146,1059.243,384.698,1058.898,387.839L1058.898,387.839z"/>
			</g>
		</g>
	</g>
	<g>
		<g>
			<polygon style="fill:#EACDB0;" points="249.905,518.948 263.16,518.948 270.094,518.948 270.094,526.246 280.726,528.655 
				278.34,544.808 268.245,548.994 242.821,533.971 			"/>
		</g>
		<g>
			<path style="fill:#C8D6A1;" d="M229.97,503.942c-8.598-4.241-17.699-8.589-27.267-8.001c-9.569,0.588-19.429,8.099-18.957,17.674
				c0.256,5.185,3.46,9.883,7.567,13.057c4.107,3.174,9.061,5.037,13.992,6.66c13.794,4.54,28.106,7.569,42.587,8.658
				c0.397,0.03,0.825,0.051,1.161-0.162c0.367-0.233,0.524-0.68,0.656-1.094c1.829-5.719,9.155-19.132,5.021-24.375
				c-2.186-2.772-8.967-4.629-12.101-6.175C238.409,508.104,234.184,506.033,229.97,503.942z"/>
		</g>
	</g>
	<g>
		<g>
			<g>
				<path style="fill:#A08A78;" d="M457.718,596.193c0.172,0.068,0.344,0.133,0.518,0.198c6.14,2.279,10.027-2.016,14.708-5.348
					l-4.71-6.618l8.086-9.045c0,0-12.588-13.107-12.591-13.106c-7.75,1.776-11.293,4.564-16.439,10.974
					C438.905,583.69,446.886,591.941,457.718,596.193z"/>
			</g>
		</g>
		<g>
			<path style="fill:#CBCCCE;" d="M435.337,590.289c1.365,4.743,4.771,8.519,8.617,11.212c3.366,2.356,7.208,4.036,11.209,4.304
				c4.001,0.268,8.167-0.972,11.18-3.851c0.415-0.397,0.822-0.847,0.982-1.421c0.328-1.17-0.453-2.332-1.184-3.26
				c-7.078-8.99-15.598-26.241-27.506-27.968C435.94,575.59,433.303,583.359,435.337,590.289z"/>
		</g>
	</g>
	<g>
		<g>
			<g>
				<path style="fill:#A08A78;" d="M680.265,581.022c0.05-0.178,0.098-0.356,0.144-0.535c1.642-6.34-3.027-9.77-6.818-14.087
					l-6.103,5.359l-9.822-7.122c0,0-11.756,13.857-11.755,13.861c2.556,7.529,5.691,10.769,12.591,15.236
					C669.744,601.011,677.139,592.231,680.265,581.022z"/>
			</g>
		</g>
		<g>
			<path style="fill:#CBCCCE;" d="M676.672,603.888c4.579-1.841,7.989-5.614,10.276-9.715c2.001-3.589,3.281-7.581,3.14-11.59
				c-0.141-4.008-1.799-8.026-4.969-10.729c-0.437-0.372-0.926-0.731-1.514-0.833c-1.198-0.207-2.273,0.688-3.123,1.51
				c-8.222,7.957-24.516,18.19-25.021,30.212C661.989,604.785,669.986,606.618,676.672,603.888z"/>
		</g>
	</g>
	<g>
		<g>
			<path style="fill:#EACDB0;" d="M975.962,412.047c2.141-5.293,5.167-10.226,8.914-14.533c0.628-0.722,1.291-1.45,1.62-2.348
				c0.34-0.929,0.291-1.951,0.2-2.936c-0.221-2.404-0.657-4.788-1.301-7.115c-0.111-0.4-0.241-0.819-0.547-1.099
				c-0.274-0.25-0.648-0.35-1.006-0.443c-3.798-0.979-7.596-1.958-11.393-2.937c-1.881,2.186-3.762,4.373-5.643,6.559
				c-1.723-0.46-3.446-0.919-5.168-1.379c-0.419,3.217-0.838,6.434-1.257,9.651c-0.254,1.949-1.887,6.962-1.008,8.688
				c0.882,1.733,5.965,3.232,7.726,4.056C970.015,409.576,972.971,410.856,975.962,412.047z"/>
		</g>
		<g>
			<polygon style="fill:#CCA6AC;" points="900.964,385.041 926.425,503.86 958.055,482.437 982.144,411.139 956.069,396.902 
				932.299,438.401 			"/>
		</g>
	</g>
	<g>
		<g>
			<g>
				<g>
					<path style="fill:#EACDB0;" d="M1173.209,503.387c0.032-0.546,0.02-1.097-0.043-1.653c-0.196-1.735-0.888-4.308-2.177-5.724
						c0.002,0.002-4.813-4.003-4.248-1.992l1.172,4.169l-12.261-6.821l-11.444,1.197l-6.923,11.887c0,0,3.104,13.839,3.105,13.839
						c8.114,2.952,16.152,7.758,23.549,1.454c2.194-1.87,3.708-4.263,5.193-6.62
						C1171.043,510.086,1173.006,506.841,1173.209,503.387z"/>
				</g>
			</g>
		</g>
		<g>
			<path style="fill:#C69C6D;" d="M1150.261,524.416c3.159-5.152,6.318-10.305,9.477-15.457c2.242-3.657,4.05-9.839,6.947-12.739
				c4.065,0.721,7.528,4.479,11.171,6.386c4.954,2.593,9.906,5.186,14.813,7.866c10.549-36.437,11.673-74.839,12.719-112.757
				c7.453,2.644,13.376,8.579,17.511,15.32c4.136,6.74,6.686,14.311,9.202,21.808c1.73,5.156,3.461,10.312,5.192,15.468
				c0.796,2.371,1.597,4.765,1.873,7.251c0.347,3.12-0.144,6.266-0.634,9.367c-5.044,31.924-10.141,64.056-20.876,94.541
				c-22.514-10.715-44.725-22.066-66.598-34.034c-0.544-0.298-1.139-0.657-1.302-1.256
				C1149.589,525.573,1149.932,524.954,1150.261,524.416z"/>
		</g>
	</g>
</g>
</svg>
