<?xml version="1.0" encoding="utf-8"?>
<!-- Generator: Adobe Illustrator 27.5.0, SVG Export Plug-In . SVG Version: 6.00 Build 0)  -->
<svg version="1.1" xmlns="http://www.w3.org/2000/svg" xmlns:xlink="http://www.w3.org/1999/xlink" x="0px" y="0px"
	 viewBox="0 0 1870 1122" style="enable-background:new 0 0 1870 1122;" xml:space="preserve">
<g id="BG">
	<rect id="XMLID_2_" style="fill:#F0CB6D;" width="1870" height="1122"/>
</g>
<g id="Objects">
	<g>
		<path style="fill:#FFFFFF;" d="M472.213,310.893l-42.608-106.24v106.24h-42.328V98.412h45.691l62.231,155.296l61.95-155.296
			h45.692v212.48h-42.328v-106.24l-42.608,106.24H472.213z"/>
		<path style="fill:#FFFFFF;" d="M622.456,98.412h42.328v212.48h-42.328V98.412z"/>
		<path style="fill:#FFFFFF;" d="M684.403,162.325c0-35.32,28.592-63.912,63.632-63.912c24.668,0,47.374,8.409,65.314,22.425
			l-30.554,30.554c-9.811-6.447-21.865-10.371-34.76-10.371c-11.773,0-21.304,9.53-21.304,21.304c0,5.046,1.962,9.811,5.046,13.736
			c6.728,7.568,17.66,8.97,28.312,9.531c34.759,1.681,61.389,25.789,61.389,61.67c0,35.04-28.592,63.632-63.632,63.632
			c-28.592,0-54.382-11.212-73.443-29.433l29.994-29.994c11.493,10.652,26.63,17.099,43.449,17.099
			c11.493,0,21.023-9.531,21.023-21.304c0-6.447-2.522-12.895-8.409-16.259c-10.091-5.886-26.91-4.205-37.563-6.727
			C705.146,217.267,684.403,192.319,684.403,162.325z"/>
		<path style="fill:#FFFFFF;" d="M835.492,162.325c0-35.32,28.592-63.912,63.632-63.912c24.668,0,47.374,8.409,65.314,22.425
			l-30.554,30.554c-9.811-6.447-21.865-10.371-34.76-10.371c-11.773,0-21.304,9.53-21.304,21.304c0,5.046,1.962,9.811,5.046,13.736
			c6.728,7.568,17.66,8.97,28.312,9.531c34.759,1.681,61.389,25.789,61.389,61.67c0,35.04-28.592,63.632-63.632,63.632
			c-28.592,0-54.382-11.212-73.443-29.433l29.994-29.994c11.493,10.652,26.63,17.099,43.45,17.099
			c11.493,0,21.023-9.531,21.023-21.304c0-6.447-2.522-12.895-8.409-16.259c-10.091-5.886-26.91-4.205-37.563-6.727
			C856.235,217.267,835.492,192.319,835.492,162.325z"/>
		<path style="fill:#FFFFFF;" d="M992.184,98.412h42.328v212.48h-42.328V98.412z"/>
		<path style="fill:#FFFFFF;" d="M1266.611,204.653c0,58.586-47.654,106.24-106.24,106.24c-58.586,0-106.24-47.654-106.24-106.24
			c0-58.586,47.654-106.24,106.24-106.24C1218.957,98.412,1266.611,146.067,1266.611,204.653z M1096.459,204.653
			c0,35.32,28.592,63.912,63.912,63.912c35.039,0,63.632-28.592,63.632-63.912c0-35.039-28.592-63.632-63.632-63.632
			C1125.051,141.021,1096.459,169.613,1096.459,204.653z"/>
		<path style="fill:#FFFFFF;" d="M1420.779,98.412h42.328v212.48h-49.336l-85.216-141.56v141.56h-42.328V98.412h49.616
			l84.936,141.84V98.412z"/>
	</g>
	<ellipse id="XMLID_10_" style="opacity:0.19;fill:#272425;" cx="925.175" cy="1018.22" rx="244.348" ry="43.591"/>
	<circle id="XMLID_51_" style="fill:#FFFFFF;" cx="932.375" cy="727.302" r="305.452"/>
	<rect id="XMLID_66_" x="925.175" y="404.26" style="fill:#583C1C;" width="7.775" height="200.286"/>
	<path id="XMLID_68_" style="fill:#A22330;" d="M932.617,412.684c0,0,71.817-7.306,66.911,6.601
		c-4.906,13.907,45.755,15.24,69.752,8.574c0,0-5.333,21.331-10.665,50.661c-5.333,29.33-86.656,11.998-79.99,0
		c6.666-11.999-45.675-6.666-45.675-6.666L932.617,412.684z"/>
	<g id="XMLID_106_">
		<defs>
			<circle id="XMLID_104_" cx="932.375" cy="727.302" r="305.452"/>
		</defs>
		<clipPath id="XMLID_00000170992166619719144290000015552174639448685466_">
			<use xlink:href="#XMLID_104_"  style="overflow:visible;"/>
		</clipPath>
		<polygon style="clip-path:url(#XMLID_00000170992166619719144290000015552174639448685466_);fill:#F0CB6D;" points="
			1088.228,731.473 913.572,1078.255 1262.885,1078.255 		"/>
		
			<polygon id="XMLID_69_" style="opacity:0.14;clip-path:url(#XMLID_00000170992166619719144290000015552174639448685466_);fill:#272425;" points="
			1262.885,1078.255 1088.228,731.472 1088.228,1078.255 		"/>
		
			<polygon id="XMLID_105_" style="clip-path:url(#XMLID_00000170992166619719144290000015552174639448685466_);fill:#F0CB6D;" points="
			929.749,564.435 929.749,1065.689 1141.951,1065.689 		"/>
		<polygon style="clip-path:url(#XMLID_00000170992166619719144290000015552174639448685466_);fill:#F0CB6D;" points="
			757.718,701.715 583.062,1048.498 932.375,1048.498 		"/>
		
			<polygon id="XMLID_70_" style="opacity:0.14;clip-path:url(#XMLID_00000170992166619719144290000015552174639448685466_);fill:#272425;" points="
			932.375,1048.498 757.718,701.715 757.718,1048.498 		"/>
		
			<polygon id="XMLID_103_" style="clip-path:url(#XMLID_00000170992166619719144290000015552174639448685466_);fill:#F0CB6D;" points="
			929.175,563.077 716.398,1065.689 929.749,1065.689 929.749,564.435 		"/>
		
			<polygon id="XMLID_67_" style="opacity:0.14;clip-path:url(#XMLID_00000170992166619719144290000015552174639448685466_);fill:#272425;" points="
			929.749,564.435 929.749,1065.689 1141.951,1065.689 		"/>
	</g>
</g>
</svg>
