<?xml version="1.0" encoding="utf-8"?>
<!-- Generator: Adobe Illustrator 27.5.0, SVG Export Plug-In . SVG Version: 6.00 Build 0)  -->
<svg version="1.1" xmlns="http://www.w3.org/2000/svg" xmlns:xlink="http://www.w3.org/1999/xlink" x="0px" y="0px"
	 viewBox="0 0 500 500" style="enable-background:new 0 0 500 500;" xml:space="preserve">
<g id="Background_Complete">
	<g>
		<rect y="382.398" style="fill:#EBEBEB;" width="500" height="0.25"/>
		<rect x="429.833" y="398.494" style="fill:#EBEBEB;" width="20.068" height="0.25"/>
		<rect x="357.475" y="394.986" style="fill:#EBEBEB;" width="32.025" height="0.25"/>
		<rect x="274.19" y="389.208" style="fill:#EBEBEB;" width="36.977" height="0.25"/>
		<rect x="75.455" y="396.574" style="fill:#EBEBEB;" width="43.193" height="0.25"/>
		<rect x="60.219" y="396.574" style="fill:#EBEBEB;" width="6.333" height="0.25"/>
		<rect x="131.746" y="389.083" style="fill:#EBEBEB;" width="37.48" height="0.25"/>
		<path style="fill:#EBEBEB;" d="M237.014,337.8H43.915c-3.147,0-5.708-2.561-5.708-5.708V60.66c0-3.147,2.561-5.708,5.708-5.708
			h193.099c3.146,0,5.707,2.561,5.707,5.708v271.432C242.721,335.239,240.16,337.8,237.014,337.8z M43.915,55.203
			c-3.01,0-5.458,2.448-5.458,5.458v271.432c0,3.01,2.448,5.458,5.458,5.458h193.099c3.009,0,5.457-2.448,5.457-5.458V60.66
			c0-3.009-2.448-5.458-5.457-5.458H43.915z"/>
		<path style="fill:#EBEBEB;" d="M453.31,337.8H260.212c-3.147,0-5.707-2.561-5.707-5.708V60.66c0-3.147,2.561-5.708,5.707-5.708
			H453.31c3.148,0,5.708,2.561,5.708,5.708v271.432C459.019,335.239,456.458,337.8,453.31,337.8z M260.212,55.203
			c-3.009,0-5.457,2.448-5.457,5.458v271.432c0,3.01,2.448,5.458,5.457,5.458H453.31c3.01,0,5.458-2.448,5.458-5.458V60.66
			c0-3.009-2.448-5.458-5.458-5.458H260.212z"/>
	</g>
	<g>
		<g>
			<g>
				<g>
					<g>
						
							<rect x="63.234" y="80.746" transform="matrix(-1 -1.224647e-16 1.224647e-16 -1 197.0877 257.5824)" style="fill:#E6E6E6;" width="70.619" height="96.091"/>
						
							<rect x="60.219" y="80.746" transform="matrix(-1 -1.224647e-16 1.224647e-16 -1 191.0565 257.5824)" style="fill:#F5F5F5;" width="70.619" height="96.091"/>
						
							<rect x="52.481" y="98.895" transform="matrix(-1.836970e-16 1 -1 -1.836970e-16 224.3195 33.263)" style="fill:#FFFFFF;" width="86.094" height="59.793"/>
						
							<rect x="23.724" y="127.651" transform="matrix(-1.836970e-16 1 -1 -1.836970e-16 195.5629 62.0196)" style="fill:#E6E6E6;" width="86.094" height="2.28"/>
						
							<rect x="62.458" y="141.841" transform="matrix(-1 -1.224647e-16 1.224647e-16 -1 191.0565 290.3916)" style="fill:#F5F5F5;" width="66.141" height="6.71"/>
					</g>
				</g>
			</g>
			<g>
				<g>
					<g>
						
							<rect x="165.21" y="80.746" transform="matrix(-1 -1.224647e-16 1.224647e-16 -1 401.0397 257.5824)" style="fill:#E6E6E6;" width="70.619" height="96.091"/>
						
							<rect x="162.195" y="80.746" transform="matrix(-1 -1.224647e-16 1.224647e-16 -1 395.0085 257.5824)" style="fill:#F5F5F5;" width="70.619" height="96.091"/>
						
							<rect x="154.457" y="98.895" transform="matrix(-1.836970e-16 1 -1 -1.836970e-16 326.2955 -68.713)" style="fill:#FFFFFF;" width="86.094" height="59.793"/>
						
							<rect x="125.7" y="127.651" transform="matrix(-1.836970e-16 1 -1 -1.836970e-16 297.5388 -39.9563)" style="fill:#E6E6E6;" width="86.094" height="2.28"/>
						
							<rect x="164.434" y="141.841" transform="matrix(-1 -1.224647e-16 1.224647e-16 -1 395.0085 290.3916)" style="fill:#F5F5F5;" width="66.141" height="6.71"/>
					</g>
				</g>
			</g>
			<g>
				<g>
					<g>
						
							<rect x="267.186" y="80.746" transform="matrix(-1 -1.224647e-16 1.224647e-16 -1 604.9915 257.5824)" style="fill:#E6E6E6;" width="70.619" height="96.091"/>
						
							<rect x="264.171" y="80.746" transform="matrix(-1 -1.224647e-16 1.224647e-16 -1 598.9603 257.5824)" style="fill:#F5F5F5;" width="70.619" height="96.091"/>
						
							<rect x="256.433" y="98.895" transform="matrix(-1.836970e-16 1 -1 -1.836970e-16 428.2715 -170.689)" style="fill:#FFFFFF;" width="86.094" height="59.793"/>
						
							<rect x="227.676" y="127.651" transform="matrix(-1.836970e-16 1 -1 -1.836970e-16 399.5148 -141.9323)" style="fill:#E6E6E6;" width="86.094" height="2.28"/>
						
							<rect x="266.41" y="141.841" transform="matrix(-1 -1.224647e-16 1.224647e-16 -1 598.9603 290.3916)" style="fill:#F5F5F5;" width="66.141" height="6.71"/>
					</g>
				</g>
			</g>
			<g>
				<g>
					<g>
						
							<rect x="369.162" y="80.746" transform="matrix(-1 -1.224647e-16 1.224647e-16 -1 808.9435 257.5824)" style="fill:#E6E6E6;" width="70.619" height="96.091"/>
						
							<rect x="366.147" y="80.746" transform="matrix(-1 -1.224647e-16 1.224647e-16 -1 802.9123 257.5824)" style="fill:#F5F5F5;" width="70.619" height="96.091"/>
						
							<rect x="358.409" y="98.895" transform="matrix(-1.836970e-16 1 -1 -1.836970e-16 530.2474 -272.6649)" style="fill:#FFFFFF;" width="86.094" height="59.793"/>
						
							<rect x="329.652" y="127.651" transform="matrix(-1.836970e-16 1 -1 -1.836970e-16 501.4908 -243.9082)" style="fill:#E6E6E6;" width="86.094" height="2.28"/>
						
							<rect x="368.386" y="141.841" transform="matrix(-1 -1.224647e-16 1.224647e-16 -1 802.9123 290.3916)" style="fill:#F5F5F5;" width="66.141" height="6.71"/>
					</g>
				</g>
			</g>
		</g>
		<g>
			<rect x="331.218" y="279.667" style="fill:#E0E0E0;" width="46.667" height="102.732"/>
			<polygon style="fill:#E6E6E6;" points="232.43,265.509 219.747,382.398 368.499,382.398 381.183,265.509 			"/>
			<polygon style="fill:#F0F0F0;" points="230.049,265.509 217.365,382.398 366.118,382.398 378.802,265.509 			"/>
			<polygon style="fill:#FFFFFF;" points="228.22,372.606 357.388,372.606 367.947,275.302 238.779,275.302 			"/>
			<g>
				<path style="fill:#F0F0F0;" d="M263.856,324.619l15.922,17.86c8.01,8.985,22.63,8.985,32.59,0l19.797-17.859
					c0.407-0.367,0.472-0.963,0.144-1.33l-15.922-17.86c-8.01-8.985-22.63-8.985-32.59,0L264,323.289
					C263.593,323.656,263.529,324.251,263.856,324.619z M330.242,323.954l-19.061,17.195c-9.147,8.252-22.574,8.252-29.93,0
					l-15.329-17.195l19.061-17.195c9.147-8.252,22.574-8.252,29.93,0L330.242,323.954z"/>
			</g>
		</g>
		<g>
			<g>
				
					<rect x="146.816" y="248.953" transform="matrix(-1 -1.224647e-16 1.224647e-16 -1 318.2763 631.3512)" style="fill:#E6E6E6;" width="24.645" height="133.446"/>
				<rect x="67.338" y="248.953" style="fill:#F5F5F5;" width="79.478" height="133.446"/>
				
					<rect x="43.152" y="284.33" transform="matrix(-1.836970e-16 1 -1 -1.836970e-16 425.55 211.3965)" style="fill:#E6E6E6;" width="127.85" height="68.287"/>
				
					<rect x="65.221" y="306.399" transform="matrix(-1.836970e-16 1 -1 -1.836970e-16 447.6191 189.3273)" style="fill:#E0E0E0;" width="127.85" height="24.149"/>
				<g>
					<g>
						<g>
							<g>
								<path style="fill:#F5F5F5;" d="M100.439,304.278c4.204,0,6.373-5.078,3.423-8.074c-2.186-2.22-5.693-4.029-11.319-4.029
									c-5.626,0-9.133,1.81-11.319,4.029c-2.95,2.996-0.782,8.074,3.423,8.074H100.439z"/>
							</g>
						</g>
					</g>
					<g>
						<g>
							<g>
								<path style="fill:#F5F5F5;" d="M114.98,302.509c2.7,0,4.093-3.261,2.198-5.185c-1.404-1.425-3.656-2.587-7.269-2.587
									c-3.613,0-5.865,1.162-7.269,2.587c-1.895,1.924-0.502,5.185,2.198,5.185H114.98z"/>
							</g>
						</g>
					</g>
					<g>
						<g>
							<g>
								<path style="fill:#F5F5F5;" d="M129.936,304.131c3.827,0,5.801-4.622,3.116-7.349c-1.99-2.02-5.182-3.668-10.303-3.668
									c-5.121,0-8.313,1.647-10.303,3.668c-2.685,2.727-0.712,7.349,3.116,7.349H129.936z"/>
							</g>
						</g>
					</g>
					<g>
						<g>
							<g>
								<path style="fill:#F0F0F0;" d="M132.345,300.195c2.644,0,4.194,2.95,2.715,5.142c-3.039,4.505-10.606,10.339-29.425,10.339
									c-18.819,0-26.386-5.833-29.425-10.339c-1.479-2.192,0.071-5.142,2.715-5.142H132.345z"/>
							</g>
						</g>
					</g>
				</g>
				
					<rect x="102.764" y="282.814" transform="matrix(-1.836970e-16 1 -1 -1.836970e-16 424.0346 212.9118)" style="fill:#F5F5F5;" width="5.595" height="71.318"/>
			</g>
			<g>
				<polygon style="fill:#E6E6E6;" points="132.286,248.952 150.156,248.952 144.862,202.986 132.286,202.986 				"/>
				<polygon style="fill:#E0E0E0;" points="102.12,248.953 141.868,248.953 146.063,195.153 106.315,195.153 				"/>
				<polygon style="fill:#F5F5F5;" points="99.262,248.953 140.622,248.953 144.817,195.153 103.456,195.153 				"/>
				<polygon style="fill:#FFFFFF;" points="136.713,244.713 140.247,199.393 107.366,199.393 103.832,244.713 				"/>
			</g>
		</g>
	</g>
</g>
<g id="Background_Simple" style="display:none;">
	<g style="display:inline;">
		<path style="fill:#407BFF;" d="M289.531,92.888c-105.95-27.789-222.773,39.78-203.021,162.01
			c5.471,33.857,31.166,72.29,68.443,77.254c49.955,6.652,60.161-47.519,98.204-64.454c37.888-16.866,85.157,10.517,123.853-8.247
			c33.811-16.395,56.918-55.179,61.751-91.37c5.308-39.749-2.476-82.459-50.262-80.717c-25.167,0.918-47.747,20.847-63.889,21.075
			C312.243,108.613,302.045,96.17,289.531,92.888z"/>
		<path style="opacity:0.9;fill:#FFFFFF;" d="M289.531,92.888c-105.95-27.789-222.773,39.78-203.021,162.01
			c5.471,33.857,31.166,72.29,68.443,77.254c49.955,6.652,60.161-47.519,98.204-64.454c37.888-16.866,85.157,10.517,123.853-8.247
			c33.811-16.395,56.918-55.179,61.751-91.37c5.308-39.749-2.476-82.459-50.262-80.717c-25.167,0.918-47.747,20.847-63.889,21.075
			C312.243,108.613,302.045,96.17,289.531,92.888z"/>
	</g>
</g>
<g id="Shadow_1_">
	<ellipse id="_x3C_Path_x3E__133_" style="fill:#F5F5F5;" cx="250" cy="416.238" rx="193.889" ry="11.323"/>
</g>
<g id="Character_1_">
	<g>
		<g>
			<path style="fill:#FFB573;" d="M153.371,220.413l4.665-0.212l-2.107,8.855c0,0-2.605-1.723-4.522-3.989
				c-0.801-0.947-0.701-2.359,0.238-3.168L153.371,220.413z"/>
			<polygon style="fill:#FFB573;" points="163.453,224.983 161.358,232.21 155.929,229.057 158.036,220.201 			"/>
		</g>
		<g>
			<path style="fill:#FFB573;" d="M197.825,169.235c1.897,4.181,3.876,8.484,5.873,12.68c1.993,4.213,4.036,8.396,6.218,12.405
				c0.533,1.017,1.099,1.986,1.656,2.971l0.105,0.185c0.017,0.031,0,0.007,0,0.016c0,0.023-0.041-0.036-0.086-0.067
				c-0.126-0.11-0.344-0.358-1.022-0.657c-0.187-0.085-0.366-0.134-0.581-0.186c-0.225-0.061-0.456-0.08-0.689-0.093
				c-0.478-0.023-0.934,0.062-1.27,0.177c-0.678,0.241-0.916,0.52-0.992,0.595c-0.14,0.19,0.098,0.012,0.292-0.261
				c0.212-0.279,0.451-0.658,0.684-1.072c0.468-0.833,0.947-1.8,1.386-2.802c1.762-4.046,3.337-8.551,4.917-12.931l5.346,1.008
				c-0.283,4.948-0.883,9.73-2.157,14.706c-0.337,1.247-0.695,2.511-1.224,3.838c-0.267,0.666-0.567,1.349-0.969,2.089
				c-0.422,0.742-0.878,1.547-1.895,2.542c-0.512,0.478-1.259,1.094-2.503,1.517c-0.619,0.205-1.374,0.329-2.149,0.294
				c-0.381-0.014-0.757-0.078-1.129-0.159c-0.36-0.085-0.674-0.2-1.002-0.332c-1.223-0.542-1.892-1.199-2.417-1.746
				c-0.234-0.261-0.471-0.543-0.633-0.771l-0.252-0.352l-0.131-0.194c-0.698-1.036-1.412-2.073-2.067-3.118
				c-2.667-4.18-5.026-8.441-7.256-12.755c-2.212-4.338-4.25-8.665-6.148-13.21L197.825,169.235z"/>
			<g>
				<path style="fill:#FFB573;" d="M213.459,178.685l1.095-3.519l6.997,2.97c0,0-1.474,3.852-3.992,5.425
					c-1.052,0.657-2.435,0.356-3.101-0.69l0,0C213.666,181.627,213.314,180.153,213.459,178.685z"/>
				<path style="fill:#FFB573;" d="M215.988,169.734l1.12,0.32c2.754,0.788,4.616,3.352,4.511,6.215l-0.068,1.867l-6.997-2.97
					L215.988,169.734z"/>
				<g>
					<path style="fill:#263238;" d="M217.788,180.469l-6.163-0.608c-0.363-0.036-0.614-0.36-0.559-0.721l2.026-13.271
						c0.055-0.361,0.397-0.627,0.759-0.591l6.163,0.608c0.363,0.036,0.614,0.36,0.559,0.721l-2.027,13.271
						C218.492,180.239,218.15,180.505,217.788,180.469z"/>
					<path style="fill:#407BFF;" d="M217.474,180.438l-6.163-0.608c-0.363-0.036-0.614-0.36-0.559-0.721l2.027-13.271
						c0.055-0.361,0.397-0.626,0.759-0.591l6.163,0.608c0.363,0.036,0.614,0.36,0.559,0.721l-2.027,13.271
						C218.178,180.208,217.836,180.473,217.474,180.438z"/>
					<polygon style="opacity:0.4;fill:#FFFFFF;" points="218.362,179.004 210.88,178.266 212.594,167.045 220.075,167.783 					"/>
					<polygon style="opacity:0.4;fill:#FFFFFF;" points="212.35,178.411 211.43,178.32 215.691,167.351 216.612,167.442 					"/>
					<polygon style="opacity:0.4;fill:#FFFFFF;" points="214.345,178.608 212.904,178.465 217.165,167.496 218.606,167.639 					"/>
					<path style="opacity:0.4;fill:#263238;" d="M216.897,166.477c-0.035,0.227-0.248,0.393-0.476,0.37
						c-0.228-0.023-0.385-0.225-0.35-0.452c0.035-0.227,0.248-0.393,0.476-0.37C216.775,166.047,216.932,166.25,216.897,166.477z"/>
				</g>
				<path style="fill:#FFB573;" d="M219.508,176.181l-1.087,0.369l-0.977-0.924c-0.505-0.478-1.075-0.883-1.692-1.204l-0.518-0.269
					l-0.288,0.35c-0.323,0.393-0.346,0.953-0.057,1.371l0.587,0.85l2.011,4.541l2.02-0.543l1.63-2.115L219.508,176.181z"/>
			</g>
			<path style="fill:#FFB573;" d="M157.692,172.788c-1.151,1.956-2.421,4.132-3.55,6.248c-1.148,2.136-2.28,4.28-3.32,6.445
				c-1.051,2.161-2.038,4.343-2.908,6.521c-0.882,2.182-1.64,4.374-2.206,6.518l-0.359,1.364c-0.05,0.208-0.08,0.491-0.072,0.829
				c0.011,0.679,0.16,1.566,0.452,2.5c0.59,1.877,1.573,3.945,2.739,5.949c1.154,2.027,2.488,4.034,3.887,6.023
				c1.38,1.989,2.913,3.981,4.38,5.86l-3.73,3.959c-4.247-3.26-8.029-6.822-11.45-11.122c-1.671-2.175-3.284-4.491-4.524-7.335
				c-0.615-1.423-1.16-2.993-1.417-4.831c-0.123-0.918-0.17-1.907-0.079-2.956l0.095-0.782l0.091-0.524l0.184-1.05
				c0.222-1.422,0.582-2.742,0.903-4.102c0.387-1.311,0.752-2.645,1.2-3.914c0.838-2.582,1.85-5.053,2.914-7.486
				c1.065-2.434,2.229-4.798,3.475-7.118c0.622-1.161,1.265-2.307,1.924-3.45c0.662-1.162,1.321-2.236,2.105-3.444L157.692,172.788z
				"/>
			<path style="fill:#263238;" d="M186.649,141.537c-0.192,0.553-0.058,1.113,0.298,1.252c0.356,0.139,0.8-0.196,0.991-0.749
				c0.191-0.553,0.058-1.113-0.298-1.252C187.285,140.649,186.841,140.984,186.649,141.537z"/>
			<path style="fill:#ED893E;" d="M186.541,142.631c0,0,0.133,3.671,0.963,5.741c-1.279,0.536-2.772-0.52-2.772-0.52
				L186.541,142.631z"/>
			<path style="fill:#263238;" d="M188.584,138.279c-0.067-0.008-0.132-0.036-0.185-0.084c-0.04-0.035-0.984-0.855-2.415-0.466
				c-0.181,0.05-0.371-0.058-0.421-0.241c-0.05-0.183,0.058-0.371,0.241-0.421c1.803-0.491,3.004,0.573,3.054,0.618
				c0.14,0.127,0.151,0.342,0.024,0.483C188.804,138.255,188.692,138.292,188.584,138.279z"/>
			<path style="fill:#FFB573;" d="M165.856,143.2c0.192,5.961,2.405,13.169-1.167,16.706c0,0,1.657,5.377,11.506,5.377
				c10.83,0,4.968-5.376,4.968-5.376c-5.965-1.412-5.982-5.797-5.111-9.915L165.856,143.2z"/>
			<path style="fill:#407BFF;" d="M162.149,161.752c-0.842-1.702-1.708-4.317,0.036-4.927c1.919-0.671,11.684-2.37,19.105-0.014
				c-1.339,2.737-0.098,5.297-0.098,5.297L162.149,161.752z"/>
			<path style="fill:#407BFF;" d="M154.57,409.211c-0.747,0-1.521-0.115-1.895-0.204c-0.065-0.016-0.116-0.068-0.129-0.134
				c-0.013-0.066,0.014-0.134,0.069-0.173c0.082-0.058,2.01-1.414,3.08-1.186c0.253,0.054,0.445,0.189,0.569,0.4
				c0.234,0.397,0.146,0.665,0.032,0.82C156.028,409.098,155.312,409.211,154.57,409.211z M153.155,408.754
				c1.086,0.184,2.568,0.179,2.866-0.224c0.029-0.039,0.116-0.157-0.052-0.442c-0.075-0.127-0.187-0.205-0.345-0.238
				C154.987,407.713,153.827,408.33,153.155,408.754z"/>
			<path style="fill:#407BFF;" d="M152.715,409.012c-0.031,0-0.063-0.008-0.09-0.026c-0.053-0.033-0.084-0.091-0.081-0.153
				c0.003-0.089,0.096-2.177,0.911-2.869c0.214-0.182,0.459-0.256,0.729-0.225c0.42,0.052,0.532,0.313,0.561,0.464
				c0.158,0.812-1.226,2.388-1.946,2.788C152.772,409.005,152.744,409.012,152.715,409.012z M154.064,406.075
				c-0.141,0-0.269,0.05-0.387,0.151c-0.487,0.414-0.697,1.578-0.765,2.275c0.712-0.557,1.59-1.751,1.496-2.233
				c-0.009-0.048-0.031-0.16-0.266-0.189C154.115,406.076,154.089,406.075,154.064,406.075z"/>
			<path style="fill:#407BFF;" d="M192.661,409.212c-0.867,0-1.763-0.111-2.228-0.203c-0.07-0.014-0.124-0.07-0.136-0.14
				c-0.012-0.07,0.021-0.141,0.082-0.177c0.364-0.214,3.58-2.054,4.356-0.78c0.218,0.357,0.14,0.608,0.037,0.756
				C194.483,409.084,193.589,409.212,192.661,409.212z M190.982,408.752c1.361,0.19,3.196,0.168,3.51-0.28
				c0.027-0.038,0.098-0.14-0.049-0.381C194.003,407.369,192.05,408.194,190.982,408.752z"/>
			<path style="fill:#407BFF;" d="M190.467,409.012c-0.034,0-0.068-0.01-0.097-0.03c-0.05-0.034-0.078-0.091-0.074-0.151
				c0.005-0.082,0.124-2.031,1.016-2.792c0.275-0.235,0.594-0.337,0.948-0.3c0.482,0.049,0.622,0.295,0.654,0.493
				c0.139,0.839-1.508,2.369-2.376,2.765C190.516,409.007,190.491,409.012,190.467,409.012z M192.122,406.075
				c-0.218,0-0.411,0.074-0.587,0.224c-0.586,0.501-0.796,1.675-0.865,2.239c0.872-0.53,1.99-1.743,1.906-2.25
				c-0.007-0.043-0.029-0.175-0.35-0.208C192.19,406.076,192.155,406.075,192.122,406.075z"/>
			<polygon style="fill:#FFB573;" points="182.5,408.84 189.745,408.84 189.819,392.061 182.574,392.061 			"/>
			<polygon style="fill:#FFB573;" points="144.414,408.84 151.659,408.84 154.653,392.061 147.408,392.061 			"/>
			<path style="fill:#263238;" d="M152.142,408.001h-8.14c-0.296,0-0.545,0.206-0.598,0.495l-1.183,6.44
				c-0.123,0.668,0.427,1.3,1.111,1.289c2.84-0.049,4.214-0.216,7.794-0.216c2.202,0,6.748,0.229,9.789,0.229
				c2.974,0,3.322-3.007,2.067-3.28c-5.63-1.221-7.798-2.905-9.647-4.512C153.002,408.157,152.575,408.001,152.142,408.001z"/>
			<path style="fill:#263238;" d="M189.665,408.001h-7.912c-0.296,0-0.545,0.206-0.598,0.495l-1.183,6.44
				c-0.123,0.668,0.409,1.3,1.092,1.289c2.852-0.048,6.97-0.216,10.558-0.216c4.195,0,7.826,0.229,12.745,0.229
				c2.974,0,3.684-3.007,2.428-3.28c-5.716-1.24-10.349-1.373-15.364-4.393C190.887,408.237,190.291,408.001,189.665,408.001z"/>
			<g>
				<path style="fill:#407BFF;" d="M150.864,161.544c-6.731,1.557-13.804,20.071-13.804,20.071l14,9.348
					c0,0,4.888-7.228,8.417-15.315C163.175,167.174,157.746,159.952,150.864,161.544z"/>
				<path style="opacity:0.3;" d="M150.864,161.544c-6.731,1.557-13.804,20.071-13.804,20.071l14,9.348
					c0,0,4.888-7.228,8.417-15.315C163.175,167.174,157.746,159.952,150.864,161.544z"/>
			</g>
			<path style="opacity:0.2;" d="M156.186,173.35l-5.787,17.17l0.658,0.444c0,0,2.64-3.915,5.454-9.202L156.186,173.35z"/>
			<g>
				<path style="fill:#407BFF;" d="M196.065,193.909c-0.053,8.087-0.542,18.147-1.746,30.633h-38.76
					c-0.496-5.947,2.121-34.972-4.691-63.002c0,0,6.586-1.331,12.906-1.637c4.942-0.237,12.106-0.395,16.471,0
					c5.76,0.523,11.222,2.012,11.222,2.012s3.315,3.59,4.32,20.425C195.983,185.664,196.092,189.491,196.065,193.909z"/>
				<path style="opacity:0.3;" d="M196.065,193.909c-0.053,8.087-0.542,18.147-1.746,30.633h-38.76
					c-0.496-5.947,2.121-34.972-4.691-63.002c0,0,6.586-1.331,12.906-1.637c4.942-0.237,12.106-0.395,16.471,0
					c5.76,0.523,11.222,2.012,11.222,2.012s3.315,3.59,4.32,20.425C195.983,185.664,196.092,189.491,196.065,193.909z"/>
			</g>
			<path style="opacity:0.2;" d="M196.065,193.909c-5.848,3.451-10.368-8.37-7.239-16.83l6.96,5.262
				C195.983,185.664,196.092,189.491,196.065,193.909z"/>
			<g>
				<path style="fill:#407BFF;" d="M183.965,167.277c-1.796,6.661,10.729,25.766,10.729,25.766l14.131-7.885
					c0,0-3.527-9.7-8.892-17.095C193.941,159.804,185.988,159.774,183.965,167.277z"/>
				<path style="opacity:0.3;" d="M183.965,167.277c-1.796,6.661,10.729,25.766,10.729,25.766l14.131-7.885
					c0,0-3.527-9.7-8.892-17.095C193.941,159.804,185.988,159.774,183.965,167.277z"/>
			</g>
			<g>
				<polygon style="opacity:0.2;" points="189.818,392.066 189.781,400.715 182.533,400.715 182.569,392.066 				"/>
				<polygon style="opacity:0.2;" points="147.406,392.066 154.654,392.066 153.107,400.715 145.859,400.715 				"/>
			</g>
			<path style="fill:#FFB573;" d="M168.898,133.277c-1.941,6.947-3.424,10.901-1.255,15.703c3.263,7.223,12.593,7.336,16.536,1.185
				c3.549-5.537,6.127-15.967,0.519-21.223C179.172,123.764,170.839,126.331,168.898,133.277z"/>
			<path style="fill:#263238;" d="M167.68,125.148c-3.387-0.867-6.447,1.345-6.174,9.734c0.273,8.388,2.648,11.029,3.809,13.218
				c1.161,2.189,1.279,0.257,5.865,1.722c3.153,1.007,6.404-9.209,10.545-9.272c4.594-0.07,0.668-7.785,0.668-7.785
				c1.003,1.65,10.893,2.763,5.112-4.65C182.378,121.542,164.207,120.327,167.68,125.148z"/>
			<path style="fill:#407BFF;" d="M160.998,134.562c0,0,22.77-2.337,27.609-5.378c-0.215-6.133-3.459-9.772-4.649-10.631
				c-1.189-0.859-11.389-1.203-13.764-0.538c-2.375,0.664-8.908,4.118-9.661,5.536C159.782,124.969,160.998,134.562,160.998,134.562
				z"/>
			<g>
				<path style="fill:#407BFF;" d="M183.75,130.944c-2.492,1.854-12.597,9.976-25.635,8.296c-13.038-1.681,3.374-5.215,3.374-5.215
					L183.75,130.944z"/>
				<path style="opacity:0.4;fill:#FFFFFF;" d="M183.75,130.944c-2.492,1.854-12.597,9.976-25.635,8.296
					c-13.038-1.681,3.374-5.215,3.374-5.215L183.75,130.944z"/>
			</g>
			<path style="fill:#FFB573;" d="M177.236,138.773c-0.233,1.885,0.293,3.824,1.102,5.196c1.217,2.062,3.014,1.344,3.67-0.693
				c0.591-1.835,0.671-5.118-1.03-6.484C179.305,135.446,177.503,136.617,177.236,138.773z"/>
			<path style="fill:#407BFF;" d="M180.569,224.542c0,0-6.085,55.37-9.798,76.114c-4.066,22.716-14.352,98.384-14.352,98.384h-13.27
				c0,0,4.013-73.834,5.966-96.325c2.119-24.41,6.448-78.173,6.448-78.173H180.569z"/>
			<g>
				<path style="fill:#263238;" d="M158.35,394.151c0.057,0-1.174,5.096-1.174,5.096h-14.93l0.098-4.548L158.35,394.151z"/>
			</g>
			<path style="opacity:0.2;" d="M176.134,244.27c-9.436,1.864-7.061,37.32-5.212,55.556c2.244-12.89,5.3-37.694,7.362-55.299
				C177.641,244.211,176.927,244.113,176.134,244.27z"/>
			<path style="fill:#407BFF;" d="M194.316,224.542c0,0,3.089,54.172,3.154,76.266c0.068,22.982-5.054,98.231-5.054,98.231h-12.274
				c0,0-3.304-73.907-4.721-96.477c-1.545-24.606-6.579-78.021-6.579-78.021H194.316z"/>
			<g>
				<path style="fill:#263238;" d="M194.589,394.151c0.057,0-0.496,5.096-0.496,5.096h-14.93l-0.579-4.548L194.589,394.151z"/>
			</g>
		</g>
	</g>
</g>
<g id="Post">
	<g>
		<polygon style="fill:#407BFF;" points="229.366,166.165 255.161,177.079 255.161,166.165 		"/>
		<path style="fill:#263238;" d="M383.77,315.28H272.259c-7.449,0-13.543-6.094-13.543-13.543V133.168
			c0-7.449,6.094-13.543,13.543-13.543H383.77c7.449,0,13.543,6.094,13.543,13.543v168.569
			C397.313,309.185,391.218,315.28,383.77,315.28z"/>
		<path style="fill:#407BFF;" d="M380.215,315.28H268.704c-7.449,0-13.543-6.094-13.543-13.543V133.168
			c0-7.449,6.094-13.543,13.543-13.543h111.511c7.449,0,13.543,6.094,13.543,13.543v168.569
			C393.758,309.185,387.664,315.28,380.215,315.28z"/>
		<rect x="255.161" y="177.079" style="opacity:0.8;fill:#FAFAFA;" width="138.597" height="115.486"/>
		<path style="fill:#FAFAFA;" d="M275.319,143.721c-3.252,0-5.897-2.645-5.897-5.896c0-3.252,2.645-5.896,5.897-5.896
			c3.251,0,5.896,2.645,5.896,5.896C281.216,141.076,278.571,143.721,275.319,143.721z M275.319,132.971
			c-2.676,0-4.854,2.177-4.854,4.854s2.177,4.854,4.854,4.854s4.853-2.177,4.853-4.854S277.996,132.971,275.319,132.971z"/>
		<path style="fill:#FAFAFA;" d="M292.536,143.721c-3.251,0-5.896-2.645-5.896-5.896c0-3.252,2.645-5.896,5.896-5.896
			c3.251,0,5.896,2.645,5.896,5.896C298.433,141.076,295.788,143.721,292.536,143.721z M292.536,132.971
			c-2.676,0-4.854,2.177-4.854,4.854s2.177,4.854,4.854,4.854c2.676,0,4.854-2.177,4.854-4.854S295.212,132.971,292.536,132.971z"/>
		<path style="fill:#FAFAFA;" d="M309.753,143.721c-3.251,0-5.896-2.645-5.896-5.896c0-3.252,2.645-5.896,5.896-5.896
			c3.251,0,5.897,2.645,5.897,5.896C315.65,141.076,313.005,143.721,309.753,143.721z M309.753,132.971
			c-2.676,0-4.853,2.177-4.853,4.854s2.177,4.854,4.853,4.854s4.854-2.177,4.854-4.854S312.43,132.971,309.753,132.971z"/>
		<path style="fill:#FAFAFA;" d="M318.173,303.67c0,1.576-1.277,2.853-2.853,2.853c-1.576,0-2.853-1.277-2.853-2.853
			s1.277-2.853,2.853-2.853C316.896,300.817,318.173,302.094,318.173,303.67z"/>
		<path style="fill:#FAFAFA;" d="M327.313,303.67c0,1.576-1.277,2.853-2.853,2.853c-1.576,0-2.853-1.277-2.853-2.853
			s1.277-2.853,2.853-2.853C326.035,300.817,327.313,302.094,327.313,303.67z"/>
		<path style="fill:#FAFAFA;" d="M336.452,303.67c0,1.576-1.277,2.853-2.853,2.853s-2.853-1.277-2.853-2.853
			s1.277-2.853,2.853-2.853S336.452,302.094,336.452,303.67z"/>
		<path style="fill:#407BFF;" d="M298.268,224.349h-30.384c-2.298,0-4.162-1.863-4.162-4.162v-30.384
			c0-2.298,1.863-4.162,4.162-4.162h30.384c2.298,0,4.162,1.863,4.162,4.162v30.384C302.43,222.485,300.567,224.349,298.268,224.349
			z"/>
		<circle style="opacity:0.3;fill:#FFFFFF;" cx="283.076" cy="199.415" r="7.636"/>
		<path style="opacity:0.3;fill:#FFFFFF;" d="M283.076,210.274c-5.995,0-11.068,2.747-12.767,6.533
			c-0.585,1.305,0.379,2.782,1.81,2.782h21.913c1.43,0,2.395-1.477,1.81-2.782C294.144,213.021,289.071,210.274,283.076,210.274z"/>
		<path style="opacity:0.7;fill:#FFFFFF;" d="M376.757,279.428H272.162c-4.661,0-8.44-3.779-8.44-8.44l0,0
			c0-4.661,3.779-8.44,8.44-8.44h104.596c4.661,0,8.44,3.779,8.44,8.44l0,0C385.197,275.65,381.418,279.428,376.757,279.428z"/>
		<path style="opacity:0.2;fill:#407BFF;" d="M376.757,254.648H272.162c-4.661,0-8.44-3.779-8.44-8.439l0,0
			c0-4.661,3.779-8.44,8.44-8.44h104.596c4.661,0,8.44,3.778,8.44,8.44l0,0C385.197,250.869,381.418,254.648,376.757,254.648z"/>
		<g>
			
				<rect x="312.026" y="192.822" transform="matrix(-1 -1.224647e-16 1.224647e-16 -1 696.9762 390.7715)" style="fill:#FFFFFF;" width="72.924" height="5.128"/>
			
				<rect x="312.026" y="202.431" transform="matrix(-1 -1.224647e-16 1.224647e-16 -1 696.9762 409.9895)" style="fill:#FFFFFF;" width="72.924" height="5.128"/>
			
				<rect x="312.026" y="212.04" transform="matrix(-1 -1.224647e-16 1.224647e-16 -1 682.3473 429.2074)" style="fill:#FFFFFF;" width="58.296" height="5.128"/>
		</g>
	</g>
</g>
</svg>
