<?xml version="1.0" encoding="utf-8"?>
<!-- Generator: Adobe Illustrator 27.5.0, SVG Export Plug-In . SVG Version: 6.00 Build 0)  -->
<svg version="1.1" xmlns="http://www.w3.org/2000/svg" xmlns:xlink="http://www.w3.org/1999/xlink" x="0px" y="0px"
	 viewBox="0 0 500 500" style="enable-background:new 0 0 500 500;" xml:space="preserve">
<g id="Background_Simple">
	<g>
		<path style="fill:#92E3A9;" d="M482.116,291.516c0,0,3.26-126.844-71.477-186.361c-65.973-52.537-158.455-62.107-222.375,0.6
			c-22.776,22.343-35.77,60.644-64.053,76.428c-31.712,17.698-74.329,29.106-97.107,86.561
			c-22.777,57.454-0.618,122.832,46.922,151.833c47.54,29,114.878-17.782,180.245-31.097
			C319.637,376.163,472.306,448.989,482.116,291.516z"/>
		<path style="opacity:0.7;fill:#FFFFFF;" d="M482.116,291.516c0,0,3.26-126.844-71.477-186.361
			c-65.973-52.537-158.455-62.107-222.375,0.6c-22.776,22.343-35.77,60.644-64.053,76.428
			c-31.712,17.698-74.329,29.106-97.107,86.561c-22.777,57.454-0.618,122.832,46.922,151.833
			c47.54,29,114.878-17.782,180.245-31.097C319.637,376.163,472.306,448.989,482.116,291.516z"/>
	</g>
</g>
<g id="Floor">
	
		<line style="fill:none;stroke:#263238;stroke-linecap:round;stroke-linejoin:round;stroke-miterlimit:10;" x1="38.022" y1="451.133" x2="460.058" y2="451.133"/>
</g>
<g id="Plants">
	<g>
		<path style="fill:#263238;" d="M56.249,379.588c2.406,1.046,8.286,0.905,8.291,0.905c0.061-0.002-1.27-3.848-1.381-4.081
			c-1.294-2.697-5.381-7.148-8.7-6.695c-2.391,0.327-3.718,2.723-3.175,4.974C51.838,376.991,54.2,378.696,56.249,379.588z"/>
		<path style="fill:#263238;" d="M58.304,396.618c2.495,0.36,7.74-1.169,8.157-1.293c0.833,2.937,1.926,5.883,3.196,8.803
			c0.724,1.671,1.506,3.33,2.31,4.984c-0.48-0.7-0.914-1.323-0.984-1.404c-1.961-2.26-7.078-5.473-10.159-4.159
			c-2.221,0.946-2.867,3.607-1.749,5.635c1.142,2.071,3.871,3.092,6.082,3.411c2.244,0.324,6.743-0.891,7.929-1.228
			c0.315,0.632,0.623,1.266,0.941,1.895c1.524,3.024,3.058,6.035,4.472,9.034c0.499,1.056,0.951,2.116,1.408,3.174
			c-0.427-0.622-0.792-1.142-0.855-1.216c-1.961-2.259-7.077-5.473-10.159-4.159c-2.22,0.947-2.867,3.607-1.749,5.635
			c1.143,2.071,3.871,3.092,6.083,3.411c2.142,0.309,6.304-0.775,7.715-1.168c0.435,1.098,0.873,2.196,1.244,3.279
			c0.237,0.745,0.518,1.446,0.714,2.208c0.211,0.75,0.419,1.493,0.625,2.229c0.345,1.43,0.711,2.905,1.013,4.309
			c0.217,0.975,0.407,1.909,0.6,2.848c-0.484-1.058-1.476-3.108-1.579-3.27c-1.595-2.531-6.166-6.481-9.412-5.65
			c-2.338,0.6-3.38,3.131-2.581,5.305c0.815,2.22,3.357,3.643,5.495,4.293c2.354,0.715,7.562,0.051,8.212-0.036
			c0.314,1.556,0.606,3.072,0.857,4.508c0.189,1.062,0.361,2.083,0.519,3.064l2.086-0.003c-0.199-1.092-0.415-2.234-0.655-3.429
			c-0.313-1.581-0.679-3.264-1.071-4.99c0.391-0.156,2.612-1.058,4.578-2.161c1.717,1.854,6.115,4.021,6.684,4.297
			c-0.596,1.471-1.189,2.896-1.772,4.232c-0.306,0.708-0.604,1.376-0.901,2.04l2.206-0.003c0.175-0.42,0.347-0.83,0.525-1.267
			c0.611-1.491,1.235-3.098,1.86-4.752c0.63,0.131,5.788,1.17,8.191,0.625c2.178-0.496,4.817-1.733,5.789-3.889
			c0.952-2.11,0.093-4.711-2.197-5.476c-3.177-1.062-8.019,2.552-9.792,4.962c-0.105,0.142-1.067,1.811-1.657,2.874
			c0.252-0.677,0.503-1.333,0.754-2.033c0.506-1.382,0.968-2.776,1.472-4.275c0.218-0.732,0.438-1.472,0.66-2.218
			c0.236-0.736,0.392-1.543,0.593-2.322c0.43-1.814,0.776-3.673,1.084-5.554c1.211,0.439,5.536,1.936,7.775,1.775
			c2.229-0.16,5.023-0.983,6.311-2.967c1.261-1.942,0.806-4.643-1.341-5.746c-2.98-1.531-8.314,1.308-10.431,3.421
			c-0.132,0.131-1.481,1.819-2.204,2.76c0.176-1.132,0.357-2.261,0.498-3.412c0.408-3.322,0.716-6.698,1.04-10.064
			c0.098-1.031,0.209-2.057,0.316-3.085c0.43,0.161,5.531,2.052,8.039,1.872c2.228-0.159,5.023-0.983,6.311-2.967
			c1.261-1.942,0.806-4.643-1.341-5.745c-2.979-1.531-8.313,1.307-10.431,3.421c-0.159,0.159-2.097,2.59-2.559,3.232
			c0.236-2.264,0.492-4.517,0.835-6.728c0.468-3.051,1.097-6.02,1.918-8.85c0.2,0.076,5.516,2.073,8.084,1.889
			c2.229-0.16,5.024-0.983,6.312-2.967c1.261-1.942,0.806-4.642-1.341-5.746c-2.98-1.531-8.313,1.308-10.431,3.421
			c-0.166,0.166-2.249,2.782-2.593,3.283c0.05-0.168,0.082-0.348,0.133-0.515c0.915-3.011,2.18-5.812,3.493-8.377
			c0.76-1.492,1.57-2.876,2.387-4.204c0.952,0.474,5.326,2.59,7.656,2.68c2.233,0.086,5.102-0.425,6.599-2.256
			c1.467-1.792,1.311-4.526-0.701-5.858c-2.794-1.849-8.407,0.387-10.744,2.255c-0.127,0.101-1.304,1.277-2.149,2.146
			c0.378-0.594,0.757-1.214,1.131-1.776c1.398-2.113,2.809-3.961,4.072-5.588c0.725-0.919,1.399-1.736,2.038-2.494
			c1.176-0.022,5.917-0.173,7.988-1.149c2.02-0.953,4.331-2.728,4.817-5.043c0.475-2.267-0.923-4.622-3.322-4.876
			c-3.331-0.354-7.283,4.216-8.496,6.951c-0.105,0.237-1.32,4.121-1.258,4.12c0,0,0.057-0.001,0.071-0.001
			c-0.63,0.717-1.296,1.492-2.007,2.355c-1.301,1.603-2.756,3.425-4.205,5.516c-1.454,2.086-2.975,4.392-4.359,6.966
			c-1.39,2.578-2.72,5.362-3.719,8.407c-0.011,0.034-0.019,0.072-0.03,0.106c0.016-0.981-0.031-3.727-0.059-3.937
			c-0.389-2.966-2.883-8.47-6.18-9.074c-2.374-0.435-4.381,1.427-4.567,3.736c-0.189,2.358,1.523,4.714,3.192,6.2
			c1.882,1.676,7.101,3.294,7.517,3.422c-0.926,2.908-1.639,5.968-2.191,9.104c-0.317,1.793-0.581,3.609-0.822,5.432
			c-0.014-0.849-0.032-1.608-0.046-1.714c-0.389-2.967-2.883-8.469-6.179-9.073c-2.374-0.436-4.382,1.427-4.567,3.735
			c-0.19,2.358,1.523,4.714,3.191,6.2c1.693,1.508,6.115,2.977,7.29,3.35c-0.085,0.7-0.178,1.4-0.261,2.1
			c-0.397,3.363-0.778,6.72-1.253,10.002c-0.167,1.157-0.374,2.289-0.576,3.423c-0.013-0.754-0.03-1.389-0.043-1.485
			c-0.389-2.967-2.884-8.469-6.178-9.074c-2.375-0.435-4.382,1.427-4.568,3.736c-0.19,2.356,1.523,4.714,3.192,6.2
			c1.615,1.439,5.685,2.832,7.08,3.282c-0.243,1.155-0.484,2.313-0.771,3.422c-0.214,0.753-0.367,1.492-0.623,2.236
			c-0.238,0.741-0.474,1.476-0.707,2.203c-0.502,1.384-1.01,2.815-1.533,4.153c-0.357,0.934-0.714,1.816-1.071,2.706
			c0.179-1.149,0.483-3.407,0.488-3.598c0.043-1.987-0.668-5.217-2.076-7.486c0.008-0.293-0.009-0.586-0.056-0.876
			c-0.371-2.286-2.521-3.981-4.853-3.356c-3.236,0.866-5.281,6.553-5.43,9.54c-0.009,0.177,0.109,2.099,0.204,3.312
			c-0.165-0.704-0.315-1.389-0.493-2.112c-0.342-1.431-0.725-2.849-1.131-4.378c-0.222-0.731-0.447-1.468-0.674-2.214
			c-0.209-0.744-0.524-1.503-0.786-2.263c-0.643-1.749-1.38-3.492-2.16-5.23c1.253-0.302,5.686-1.439,7.464-2.808
			c1.771-1.363,3.648-3.591,3.628-5.956c-0.02-2.316-1.889-4.318-4.288-4.053c-3.33,0.366-6.213,5.677-6.813,8.608
			c-0.037,0.183-0.231,2.334-0.315,3.518c-0.477-1.041-0.949-2.083-1.467-3.121c-1.493-2.996-3.097-5.982-4.685-8.968
			c-0.487-0.915-0.961-1.831-1.439-2.747c0.447-0.103,5.745-1.341,7.738-2.874c1.771-1.363,3.648-3.591,3.627-5.956
			c-0.02-2.315-1.889-4.317-4.288-4.053c-3.33,0.366-6.213,5.676-6.813,8.607c-0.045,0.221-0.32,3.317-0.351,4.107
			c-1.052-2.017-2.082-4.038-3.016-6.072c-1.292-2.804-2.406-5.626-3.282-8.44c0.209-0.048,5.744-1.315,7.785-2.885
			c1.771-1.363,3.648-3.591,3.627-5.956c-0.02-2.316-1.888-4.317-4.288-4.053c-3.33,0.366-6.213,5.677-6.813,8.608
			c-0.047,0.23-0.341,3.561-0.351,4.168c-0.052-0.167-0.124-0.335-0.174-0.502c-0.897-3.017-1.388-6.051-1.708-8.915
			c-0.189-1.663-0.277-3.264-0.328-4.823c1.055-0.13,5.871-0.779,7.863-1.989c1.91-1.16,4.021-3.169,4.26-5.521
			c0.234-2.304-1.403-4.499-3.817-4.499c-3.35-0.002-6.799,4.96-7.717,7.807c-0.05,0.155-0.384,1.785-0.609,2.976
			c-0.012-0.704-0.038-1.431-0.036-2.105c0.001-2.533,0.158-4.854,0.313-6.907c0.098-1.167,0.21-2.22,0.325-3.205
			c0.968-0.668,4.839-3.409,6.028-5.366c1.16-1.91,2.108-4.664,1.236-6.863c-0.854-2.153-3.319-3.346-5.461-2.235
			c-2.974,1.543-3.748,7.535-3.252,10.486c0.044,0.254,1.173,4.164,1.224,4.131c0,0,0.047-0.033,0.058-0.04
			c-0.13,0.945-0.257,1.96-0.375,3.071c-0.201,2.054-0.409,4.377-0.464,6.92c-0.062,2.542-0.059,5.305,0.208,8.215
			c0.264,2.917,0.689,5.972,1.535,9.063c0.01,0.035,0.024,0.07,0.034,0.105c-0.528-0.827-2.083-3.091-2.222-3.251
			c-1.961-2.26-7.077-5.473-10.159-4.159c-2.22,0.947-2.867,3.608-1.749,5.636C53.364,395.279,56.093,396.299,58.304,396.618z"/>
		<path style="fill:#263238;" d="M115.731,380.794c0.052,0.032,1.064-3.91,1.099-4.166c0.408-2.964-0.546-8.93-3.564-10.383
			c-2.174-1.047-4.602,0.22-5.391,2.397c-0.806,2.223,0.223,4.949,1.441,6.823C110.745,377.665,115.728,380.791,115.731,380.794z"/>
	</g>
	<g>
		<path style="fill:#263238;" d="M377.626,379.588c2.406,1.046,8.286,0.905,8.291,0.905c0.061-0.002-1.27-3.848-1.382-4.081
			c-1.294-2.697-5.381-7.148-8.7-6.695c-2.391,0.327-3.718,2.723-3.175,4.974C373.215,376.991,375.577,378.696,377.626,379.588z"/>
		<path style="fill:#263238;" d="M379.681,396.618c2.494,0.36,7.74-1.169,8.157-1.293c0.833,2.937,1.926,5.883,3.196,8.803
			c0.724,1.671,1.506,3.33,2.31,4.984c-0.48-0.7-0.914-1.323-0.984-1.404c-1.961-2.26-7.078-5.473-10.159-4.159
			c-2.221,0.946-2.867,3.607-1.749,5.635c1.141,2.071,3.871,3.092,6.082,3.411c2.244,0.324,6.743-0.891,7.929-1.228
			c0.315,0.632,0.623,1.266,0.941,1.895c1.524,3.024,3.058,6.035,4.472,9.034c0.499,1.056,0.951,2.116,1.408,3.174
			c-0.427-0.622-0.791-1.142-0.855-1.216c-1.961-2.259-7.077-5.473-10.159-4.159c-2.22,0.947-2.867,3.607-1.749,5.635
			c1.143,2.071,3.871,3.092,6.083,3.411c2.142,0.309,6.304-0.775,7.715-1.168c0.435,1.098,0.873,2.196,1.244,3.279
			c0.237,0.745,0.518,1.446,0.714,2.208c0.211,0.75,0.419,1.493,0.625,2.229c0.345,1.43,0.711,2.905,1.013,4.309
			c0.217,0.975,0.407,1.909,0.6,2.848c-0.484-1.058-1.476-3.108-1.579-3.27c-1.595-2.531-6.166-6.481-9.412-5.65
			c-2.338,0.6-3.38,3.131-2.581,5.305c0.815,2.22,3.357,3.643,5.495,4.293c2.354,0.715,7.562,0.051,8.212-0.036
			c0.315,1.556,0.606,3.072,0.857,4.508c0.189,1.062,0.361,2.083,0.519,3.064l2.086-0.003c-0.199-1.092-0.415-2.234-0.655-3.429
			c-0.313-1.581-0.679-3.264-1.071-4.99c0.392-0.156,2.612-1.058,4.578-2.161c1.717,1.854,6.115,4.021,6.684,4.297
			c-0.595,1.471-1.19,2.896-1.772,4.232c-0.306,0.708-0.604,1.376-0.901,2.04l2.206-0.003c0.174-0.42,0.347-0.83,0.525-1.267
			c0.611-1.491,1.235-3.098,1.86-4.752c0.63,0.131,5.788,1.17,8.191,0.625c2.178-0.496,4.817-1.733,5.789-3.889
			c0.952-2.11,0.093-4.711-2.197-5.476c-3.177-1.062-8.019,2.552-9.792,4.962c-0.105,0.142-1.067,1.811-1.657,2.874
			c0.252-0.677,0.503-1.333,0.754-2.033c0.506-1.382,0.968-2.776,1.472-4.275c0.218-0.732,0.438-1.472,0.66-2.218
			c0.236-0.736,0.392-1.543,0.593-2.322c0.43-1.814,0.776-3.673,1.084-5.554c1.211,0.439,5.536,1.936,7.775,1.775
			c2.229-0.16,5.023-0.983,6.311-2.967c1.261-1.942,0.806-4.643-1.341-5.746c-2.98-1.531-8.314,1.308-10.431,3.421
			c-0.132,0.131-1.481,1.819-2.204,2.76c0.176-1.132,0.357-2.261,0.498-3.412c0.408-3.322,0.716-6.698,1.04-10.064
			c0.098-1.031,0.209-2.057,0.316-3.085c0.43,0.161,5.531,2.052,8.039,1.872c2.228-0.159,5.024-0.983,6.311-2.967
			c1.261-1.942,0.806-4.643-1.341-5.745c-2.979-1.531-8.313,1.307-10.431,3.421c-0.159,0.159-2.097,2.59-2.559,3.232
			c0.236-2.264,0.492-4.517,0.835-6.728c0.468-3.051,1.097-6.02,1.918-8.85c0.2,0.076,5.516,2.073,8.084,1.889
			c2.229-0.16,5.024-0.983,6.311-2.967c1.261-1.942,0.806-4.642-1.341-5.746c-2.98-1.531-8.313,1.308-10.431,3.421
			c-0.166,0.166-2.249,2.782-2.593,3.283c0.049-0.168,0.082-0.348,0.133-0.515c0.915-3.011,2.18-5.812,3.493-8.377
			c0.76-1.492,1.57-2.876,2.387-4.204c0.952,0.474,5.326,2.59,7.656,2.68c2.233,0.086,5.101-0.425,6.599-2.256
			c1.467-1.792,1.311-4.526-0.701-5.858c-2.794-1.849-8.407,0.387-10.744,2.255c-0.127,0.101-1.304,1.277-2.149,2.146
			c0.378-0.594,0.757-1.214,1.131-1.776c1.398-2.113,2.809-3.961,4.072-5.588c0.725-0.919,1.399-1.736,2.039-2.494
			c1.176-0.022,5.917-0.173,7.988-1.149c2.021-0.953,4.332-2.728,4.817-5.043c0.475-2.267-0.922-4.622-3.322-4.876
			c-3.331-0.354-7.283,4.216-8.496,6.951c-0.105,0.237-1.32,4.121-1.258,4.12c0,0,0.057-0.001,0.071-0.001
			c-0.63,0.717-1.296,1.492-2.007,2.355c-1.301,1.603-2.756,3.425-4.205,5.516c-1.454,2.086-2.975,4.392-4.359,6.966
			c-1.39,2.578-2.72,5.362-3.72,8.407c-0.011,0.034-0.019,0.072-0.03,0.106c0.016-0.981-0.031-3.727-0.059-3.937
			c-0.389-2.966-2.884-8.47-6.18-9.074c-2.374-0.435-4.381,1.427-4.567,3.736c-0.189,2.358,1.523,4.714,3.192,6.2
			c1.882,1.676,7.101,3.294,7.517,3.422c-0.926,2.908-1.639,5.968-2.191,9.104c-0.317,1.793-0.581,3.609-0.822,5.432
			c-0.014-0.849-0.032-1.608-0.046-1.714c-0.389-2.967-2.883-8.469-6.179-9.073c-2.374-0.436-4.382,1.427-4.567,3.735
			c-0.19,2.358,1.523,4.714,3.191,6.2c1.693,1.508,6.115,2.977,7.29,3.35c-0.085,0.7-0.178,1.4-0.261,2.1
			c-0.397,3.363-0.778,6.72-1.253,10.002c-0.167,1.157-0.374,2.289-0.576,3.423c-0.013-0.754-0.03-1.389-0.043-1.485
			c-0.389-2.967-2.884-8.469-6.178-9.074c-2.375-0.435-4.382,1.427-4.568,3.736c-0.19,2.356,1.523,4.714,3.192,6.2
			c1.615,1.439,5.685,2.832,7.08,3.282c-0.243,1.155-0.484,2.313-0.771,3.422c-0.214,0.753-0.367,1.492-0.623,2.236
			c-0.238,0.741-0.474,1.476-0.707,2.203c-0.502,1.384-1.01,2.815-1.533,4.153c-0.357,0.934-0.714,1.816-1.071,2.706
			c0.179-1.149,0.483-3.407,0.488-3.598c0.043-1.987-0.668-5.217-2.076-7.486c0.008-0.293-0.009-0.586-0.056-0.876
			c-0.371-2.286-2.521-3.981-4.853-3.356c-3.236,0.866-5.281,6.553-5.43,9.54c-0.009,0.177,0.109,2.099,0.204,3.312
			c-0.165-0.704-0.315-1.389-0.493-2.112c-0.342-1.431-0.725-2.849-1.131-4.378c-0.222-0.731-0.447-1.468-0.674-2.214
			c-0.209-0.744-0.525-1.503-0.786-2.263c-0.643-1.749-1.379-3.492-2.16-5.23c1.253-0.302,5.686-1.439,7.464-2.808
			c1.771-1.363,3.648-3.591,3.628-5.956c-0.02-2.316-1.888-4.318-4.288-4.053c-3.33,0.366-6.213,5.677-6.814,8.608
			c-0.037,0.183-0.231,2.334-0.315,3.518c-0.477-1.041-0.949-2.083-1.467-3.121c-1.492-2.996-3.097-5.982-4.685-8.968
			c-0.487-0.915-0.961-1.831-1.439-2.747c0.447-0.103,5.745-1.341,7.738-2.874c1.771-1.363,3.648-3.591,3.627-5.956
			c-0.02-2.315-1.889-4.317-4.288-4.053c-3.331,0.366-6.213,5.676-6.814,8.607c-0.045,0.221-0.32,3.317-0.351,4.107
			c-1.052-2.017-2.082-4.038-3.016-6.072c-1.292-2.804-2.406-5.626-3.283-8.44c0.209-0.048,5.744-1.315,7.785-2.885
			c1.771-1.363,3.648-3.591,3.627-5.956c-0.02-2.316-1.888-4.317-4.288-4.053c-3.33,0.366-6.213,5.677-6.813,8.608
			c-0.047,0.23-0.341,3.561-0.351,4.168c-0.052-0.167-0.124-0.335-0.174-0.502c-0.897-3.017-1.388-6.051-1.708-8.915
			c-0.19-1.663-0.277-3.264-0.328-4.823c1.055-0.13,5.871-0.779,7.863-1.989c1.91-1.16,4.021-3.169,4.26-5.521
			c0.234-2.304-1.403-4.499-3.817-4.499c-3.35-0.002-6.799,4.96-7.717,7.807c-0.05,0.155-0.384,1.785-0.609,2.976
			c-0.012-0.704-0.038-1.431-0.036-2.105c0.001-2.533,0.158-4.854,0.313-6.907c0.098-1.167,0.21-2.22,0.325-3.205
			c0.968-0.668,4.839-3.409,6.028-5.366c1.16-1.91,2.108-4.664,1.236-6.863c-0.854-2.153-3.319-3.346-5.46-2.235
			c-2.974,1.543-3.748,7.535-3.252,10.486c0.043,0.254,1.173,4.164,1.224,4.131c0,0,0.047-0.033,0.058-0.04
			c-0.13,0.945-0.257,1.96-0.375,3.071c-0.201,2.054-0.409,4.377-0.464,6.92c-0.062,2.542-0.059,5.305,0.208,8.215
			c0.264,2.917,0.689,5.972,1.535,9.063c0.01,0.035,0.024,0.07,0.034,0.105c-0.528-0.827-2.083-3.091-2.222-3.251
			c-1.961-2.26-7.077-5.473-10.159-4.159c-2.22,0.947-2.867,3.608-1.749,5.636C374.741,395.279,377.469,396.299,379.681,396.618z"/>
		<path style="fill:#263238;" d="M437.108,380.794c0.052,0.032,1.064-3.91,1.099-4.166c0.408-2.964-0.545-8.93-3.564-10.383
			c-2.175-1.047-4.603,0.22-5.391,2.397c-0.806,2.223,0.223,4.949,1.441,6.823C432.122,377.665,437.105,380.791,437.108,380.794z"/>
	</g>
</g>
<g id="Chart_2">
	<g>
		<g>
			<path style="fill:#92E3A9;stroke:#263238;stroke-linecap:round;stroke-linejoin:round;stroke-miterlimit:10;" d="M417.57,180.121
				c-19.503,0-35.304,15.812-35.304,35.315c0,19.493,15.801,35.304,35.304,35.304c4.808,0,9.383-0.976,13.56-2.718l0.002,0.006
				c0.106-0.044,0.21-0.094,0.315-0.139c0.348-0.149,0.696-0.298,1.038-0.458c0.528-0.246,1.051-0.501,1.563-0.769
				c0.474-0.258,0.936-0.517,1.399-0.786c0.452-0.269,0.915-0.549,1.356-0.84c0.883-0.57,1.733-1.173,2.562-1.83
				c0.011-0.011,0.022-0.022,0.032-0.032c1.668-1.302,3.218-2.766,4.617-4.359c0.355-0.398,0.689-0.796,1.022-1.216
				c0.28-0.344,0.549-0.689,0.818-1.044c0.054-0.075,0.118-0.161,0.172-0.237c0.312-0.42,0.614-0.85,0.904-1.281
				c0.28-0.43,0.56-0.861,0.829-1.292c0.011-0.032,0.032-0.065,0.054-0.097c0.269-0.452,0.527-0.893,0.775-1.345
				c0-0.011,0.011-0.021,0.022-0.032c0.248-0.463,0.484-0.926,0.71-1.399c0.14-0.291,0.28-0.581,0.42-0.883
				c0.129-0.291,0.258-0.592,0.387-0.893c0.215-0.495,0.409-1.001,0.603-1.518c0.032-0.108,0.075-0.215,0.118-0.323
				c0.323-0.915,0.614-1.851,0.861-2.809c0.086-0.323,0.161-0.646,0.237-0.969c0.064-0.269,0.118-0.538,0.183-0.807
				c0.022-0.097,0.043-0.204,0.054-0.301c0.065-0.28,0.108-0.57,0.161-0.85c0.065-0.334,0.118-0.678,0.161-1.023
				c0.054-0.323,0.086-0.646,0.129-0.969c0.021-0.194,0.043-0.398,0.064-0.592c0.022-0.258,0.054-0.517,0.065-0.786
				c0.022-0.215,0.032-0.431,0.043-0.657c0.022-0.258,0.032-0.517,0.043-0.775c0.011-0.42,0.022-0.85,0.022-1.281
				C452.874,195.932,437.063,180.121,417.57,180.121z M425.6,234.724c-2.465,1.033-5.177,1.604-8.03,1.604
				c-11.549,0-20.903-9.354-20.903-20.892c0-11.549,9.353-20.903,20.903-20.903c11.539,0,20.892,9.353,20.892,20.903
				c0,3.283-0.753,6.383-2.099,9.138C434.135,229.138,430.303,232.765,425.6,234.724z"/>
			<path style="fill:#FFFFFF;stroke:#263238;stroke-linecap:round;stroke-linejoin:round;stroke-miterlimit:10;" d="M449.322,230.87
				c-0.226,0.474-0.463,0.937-0.71,1.399c-0.011,0.011-0.022,0.021-0.022,0.032c-0.248,0.452-0.506,0.893-0.775,1.345
				c-0.022,0.032-0.043,0.065-0.054,0.097c-0.269,0.43-0.549,0.861-0.829,1.292c-0.291,0.431-0.592,0.861-0.904,1.281
				c-0.054,0.075-0.118,0.161-0.172,0.237c-0.269,0.355-0.538,0.7-0.818,1.044c-0.334,0.42-0.667,0.818-1.022,1.216
				c-1.41,1.593-2.96,3.046-4.617,4.359c-0.011,0.011-0.022,0.021-0.032,0.032c-0.829,0.646-1.679,1.259-2.562,1.83
				c-0.441,0.291-0.904,0.57-1.356,0.84c-0.463,0.269-0.926,0.527-1.399,0.786c-0.947,0.495-1.927,0.958-2.917,1.367l-5.533-13.304
				c4.704-1.959,8.536-5.586,10.764-10.15L449.322,230.87z"/>
			<path style="fill:#263238;stroke:#263238;stroke-linecap:round;stroke-linejoin:round;stroke-miterlimit:10;" d="
				M452.874,215.436c0,0.43-0.011,0.861-0.022,1.281c-0.011,0.258-0.021,0.517-0.043,0.775c-0.011,0.226-0.021,0.441-0.043,0.657
				c-0.011,0.269-0.043,0.527-0.065,0.786c-0.021,0.194-0.043,0.398-0.064,0.592c-0.043,0.323-0.075,0.646-0.129,0.969
				c-0.043,0.344-0.097,0.689-0.161,1.023c-0.054,0.28-0.097,0.57-0.161,0.85c-0.011,0.097-0.032,0.204-0.054,0.301
				c-0.065,0.269-0.118,0.538-0.183,0.807c-0.075,0.323-0.151,0.646-0.237,0.969c-0.247,0.947-0.538,1.894-0.861,2.809
				c-0.043,0.108-0.086,0.215-0.118,0.323c-0.194,0.517-0.388,1.022-0.603,1.518c-0.129,0.301-0.258,0.603-0.387,0.893
				c-0.14,0.301-0.28,0.592-0.42,0.883l-12.959-6.297c1.345-2.755,2.099-5.855,2.099-9.138c0-11.549-9.354-20.903-20.892-20.903
				v-14.412C437.063,180.121,452.874,195.932,452.874,215.436z"/>
			<path style="fill:#FFFFFF;stroke:#263238;stroke-linecap:round;stroke-linejoin:round;stroke-miterlimit:10;" d="
				M441.403,244.096"/>
		</g>
		<g>
			
				<line style="fill:none;stroke:#263238;stroke-linecap:round;stroke-linejoin:round;stroke-miterlimit:10;" x1="426.131" y1="265.605" x2="443.402" y2="265.605"/>
			
				<line style="fill:none;stroke:#263238;stroke-linecap:round;stroke-linejoin:round;stroke-miterlimit:10;" x1="426.131" y1="270.619" x2="443.402" y2="270.619"/>
			
				<line style="fill:none;stroke:#263238;stroke-linecap:round;stroke-linejoin:round;stroke-miterlimit:10;" x1="443.402" y1="275.633" x2="426.131" y2="275.633"/>
		</g>
		<g>
			
				<line style="fill:none;stroke:#263238;stroke-linecap:round;stroke-linejoin:round;stroke-miterlimit:10;" x1="354.5" y1="205.647" x2="371.771" y2="205.647"/>
			
				<line style="fill:none;stroke:#263238;stroke-linecap:round;stroke-linejoin:round;stroke-miterlimit:10;" x1="354.5" y1="210.661" x2="371.771" y2="210.661"/>
			
				<line style="fill:none;stroke:#263238;stroke-linecap:round;stroke-linejoin:round;stroke-miterlimit:10;" x1="371.771" y1="215.676" x2="354.5" y2="215.676"/>
		</g>
		<polyline style="fill:none;stroke:#263238;stroke-linecap:round;stroke-linejoin:round;stroke-miterlimit:10;" points="
			437.831,237.749 448.973,248.334 448.973,276.316 		"/>
		
			<line style="fill:none;stroke:#263238;stroke-linecap:round;stroke-linejoin:round;stroke-miterlimit:10;" x1="391.383" y1="205.684" x2="376.526" y2="205.684"/>
	</g>
</g>
<g id="Chart_1">
	<g>
		
			<rect x="384.707" y="116.933" style="fill:#92E3A9;stroke:#263238;stroke-linecap:round;stroke-linejoin:round;stroke-miterlimit:10;" width="11.245" height="33.736"/>
		
			<rect x="400.771" y="105.688" style="fill:#263238;stroke:#263238;stroke-linecap:round;stroke-linejoin:round;stroke-miterlimit:10;" width="11.245" height="44.981"/>
		
			<rect x="416.836" y="92.837" style="fill:#92E3A9;stroke:#263238;stroke-linecap:round;stroke-linejoin:round;stroke-miterlimit:10;" width="11.245" height="57.833"/>
		
			<rect x="432.901" y="83.733" style="fill:#263238;stroke:#263238;stroke-linecap:round;stroke-linejoin:round;stroke-miterlimit:10;" width="11.245" height="66.936"/>
		<g>
			<g>
				
					<line style="fill:none;stroke:#263238;stroke-width:2;stroke-linecap:round;stroke-linejoin:round;" x1="385.242" y1="113.185" x2="428.977" y2="72.242"/>
				<g>
					<polygon style="fill:#263238;" points="431.929,78.085 435.578,66.062 423.341,68.911 					"/>
				</g>
			</g>
		</g>
	</g>
</g>
<g id="Calendar">
	<g>
		<path style="fill:#92E3A9;stroke:#263238;stroke-linecap:round;stroke-linejoin:round;stroke-miterlimit:10;" d="M141.858,89.683
			v66.51h-88.22v-66.51h11.07v2.28c0,0.82,0.67,1.49,1.49,1.49c0.83,0,1.5-0.67,1.5-1.49v-2.28h12.79v2.28
			c0,0.82,0.66,1.49,1.49,1.49c0.82,0,1.49-0.67,1.49-1.49v-2.28h12.79v2.28c0,0.82,0.67,1.49,1.49,1.49s1.49-0.67,1.49-1.49v-2.28
			h12.79v2.28c0,0.82,0.67,1.49,1.49,1.49c0.83,0,1.49-0.67,1.49-1.49v-2.28h12.79v2.28c0,0.82,0.67,1.49,1.49,1.49
			c0.83,0,1.5-0.67,1.5-1.49v-2.28H141.858z"/>
		<g>
			
				<rect x="63.442" y="107.882" style="fill:#FFFFFF;stroke:#263238;stroke-linecap:round;stroke-linejoin:round;stroke-miterlimit:10;" width="9.802" height="9.802"/>
			
				<rect x="78.144" y="107.882" style="fill:#FFFFFF;stroke:#263238;stroke-linecap:round;stroke-linejoin:round;stroke-miterlimit:10;" width="9.802" height="9.802"/>
			
				<rect x="92.847" y="107.882" style="fill:#FFFFFF;stroke:#263238;stroke-linecap:round;stroke-linejoin:round;stroke-miterlimit:10;" width="9.802" height="9.802"/>
			
				<rect x="107.55" y="107.882" style="fill:#FFFFFF;stroke:#263238;stroke-linecap:round;stroke-linejoin:round;stroke-miterlimit:10;" width="9.802" height="9.802"/>
			
				<rect x="122.253" y="107.882" style="fill:#263238;stroke:#263238;stroke-linecap:round;stroke-linejoin:round;stroke-miterlimit:10;" width="9.802" height="9.802"/>
		</g>
		<g>
			
				<rect x="63.442" y="123.985" style="fill:#FFFFFF;stroke:#263238;stroke-linecap:round;stroke-linejoin:round;stroke-miterlimit:10;" width="9.802" height="9.802"/>
			
				<rect x="78.144" y="123.985" style="fill:#FFFFFF;stroke:#263238;stroke-linecap:round;stroke-linejoin:round;stroke-miterlimit:10;" width="9.802" height="9.802"/>
			
				<rect x="92.847" y="123.985" style="fill:#263238;stroke:#263238;stroke-linecap:round;stroke-linejoin:round;stroke-miterlimit:10;" width="9.802" height="9.802"/>
			
				<rect x="107.55" y="123.985" style="fill:#FFFFFF;stroke:#263238;stroke-linecap:round;stroke-linejoin:round;stroke-miterlimit:10;" width="9.802" height="9.802"/>
			
				<rect x="122.253" y="123.985" style="fill:#FFFFFF;stroke:#263238;stroke-linecap:round;stroke-linejoin:round;stroke-miterlimit:10;" width="9.802" height="9.802"/>
		</g>
		<g>
			
				<rect x="63.442" y="140.088" style="fill:#FFFFFF;stroke:#263238;stroke-linecap:round;stroke-linejoin:round;stroke-miterlimit:10;" width="9.802" height="9.802"/>
			
				<rect x="78.144" y="140.088" style="fill:#263238;stroke:#263238;stroke-linecap:round;stroke-linejoin:round;stroke-miterlimit:10;" width="9.802" height="9.802"/>
			
				<rect x="92.847" y="140.088" style="fill:#FFFFFF;stroke:#263238;stroke-linecap:round;stroke-linejoin:round;stroke-miterlimit:10;" width="9.802" height="9.802"/>
			
				<rect x="107.55" y="140.088" style="fill:#FFFFFF;stroke:#263238;stroke-linecap:round;stroke-linejoin:round;stroke-miterlimit:10;" width="9.802" height="9.802"/>
			
				<rect x="122.253" y="140.088" style="fill:#263238;stroke:#263238;stroke-linecap:round;stroke-linejoin:round;stroke-miterlimit:10;" width="9.802" height="9.802"/>
		</g>
		<g>
			<path style="fill:#263238;stroke:#263238;stroke-linecap:round;stroke-linejoin:round;stroke-miterlimit:10;" d="M67.698,83.433
				v8.53c0,0.82-0.67,1.49-1.5,1.49c-0.82,0-1.49-0.67-1.49-1.49v-8.53c0-0.82,0.67-1.49,1.49-1.49
				C67.028,81.943,67.698,82.613,67.698,83.433z"/>
			<path style="fill:#263238;stroke:#263238;stroke-linecap:round;stroke-linejoin:round;stroke-miterlimit:10;" d="M83.468,83.433
				v8.53c0,0.82-0.67,1.49-1.49,1.49c-0.83,0-1.49-0.67-1.49-1.49v-8.53c0-0.82,0.66-1.49,1.49-1.49
				C82.798,81.943,83.468,82.613,83.468,83.433z"/>
			<path style="fill:#263238;stroke:#263238;stroke-linecap:round;stroke-linejoin:round;stroke-miterlimit:10;" d="M99.238,83.433
				v8.53c0,0.82-0.67,1.49-1.49,1.49s-1.49-0.67-1.49-1.49v-8.53c0-0.82,0.67-1.49,1.49-1.49S99.238,82.613,99.238,83.433z"/>
			<path style="fill:#263238;stroke:#263238;stroke-linecap:round;stroke-linejoin:round;stroke-miterlimit:10;" d="M115.008,83.433
				v8.53c0,0.82-0.66,1.49-1.49,1.49c-0.82,0-1.49-0.67-1.49-1.49v-8.53c0-0.82,0.67-1.49,1.49-1.49
				C114.348,81.943,115.008,82.613,115.008,83.433z"/>
			<path style="fill:#263238;stroke:#263238;stroke-linecap:round;stroke-linejoin:round;stroke-miterlimit:10;" d="M130.788,83.433
				v8.53c0,0.82-0.67,1.49-1.5,1.49c-0.82,0-1.49-0.67-1.49-1.49v-8.53c0-0.82,0.67-1.49,1.49-1.49
				C130.118,81.943,130.788,82.613,130.788,83.433z"/>
		</g>
	</g>
</g>
<g id="Gears">
	<g>
		<path style="fill:#263238;stroke:#263238;stroke-linecap:round;stroke-linejoin:round;stroke-miterlimit:10;" d="M109.887,229.369
			c0-1.591-0.118-3.154-0.333-4.686l5.843-2.605l-2.929-9.016l-6.124,1.299c-1.538-3.07-3.531-5.87-5.894-8.314l3.199-5.546
			l-7.67-5.572l-4.192,4.651c-2.984-1.553-6.229-2.668-9.654-3.267l-0.672-6.363h-9.48l-0.657,6.223
			c-3.445,0.514-6.717,1.553-9.737,3.03l-4.278-4.747l-7.67,5.572l3.13,5.427c-2.424,2.387-4.485,5.139-6.097,8.168l-6.253-1.326
			l-2.93,9.016l5.719,2.549c-0.296,1.792-0.457,3.63-0.457,5.505c0,1.591,0.118,3.154,0.333,4.686l-5.843,2.605l2.93,9.016
			l6.124-1.299c1.538,3.07,3.531,5.87,5.894,8.314l-3.199,5.546l7.67,5.572l4.192-4.651c2.984,1.553,6.229,2.668,9.654,3.267
			l0.672,6.363h9.48l0.657-6.223c3.445-0.514,6.717-1.553,9.737-3.03l4.278,4.747l7.67-5.572l-3.13-5.426
			c2.424-2.387,4.485-5.139,6.097-8.169l6.253,1.326l2.93-9.016l-5.719-2.549C109.726,233.082,109.887,231.245,109.887,229.369z
			 M57.211,229.369c0-10.553,8.555-19.108,19.108-19.108c10.553,0,19.108,8.555,19.108,19.108c0,10.553-8.555,19.108-19.108,19.108
			C65.766,248.477,57.211,239.922,57.211,229.369z"/>
		<path style="fill:#92E3A9;stroke:#263238;stroke-linecap:round;stroke-linejoin:round;stroke-miterlimit:10;" d="M155.709,199.105
			c0-1.013-0.076-2.007-0.212-2.982l3.719-1.658l-1.864-5.738l-3.898,0.827c-0.979-1.954-2.247-3.736-3.751-5.291l2.036-3.53
			l-4.881-3.547l-2.668,2.96c-1.899-0.988-3.964-1.698-6.144-2.079l-0.427-4.049h-6.034l-0.418,3.96
			c-2.192,0.327-4.275,0.988-6.197,1.928l-2.723-3.021l-4.881,3.546l1.992,3.454c-1.543,1.519-2.854,3.271-3.881,5.199l-3.98-0.844
			l-1.864,5.738l3.64,1.622c-0.188,1.141-0.291,2.31-0.291,3.504c0,1.013,0.076,2.007,0.212,2.982l-3.719,1.658l1.865,5.738
			l3.898-0.827c0.979,1.954,2.247,3.736,3.751,5.291l-2.036,3.53l4.881,3.546l2.668-2.96c1.899,0.988,3.964,1.698,6.144,2.079
			l0.427,4.049h6.034l0.418-3.96c2.192-0.327,4.275-0.988,6.197-1.928l2.723,3.021l4.881-3.547l-1.992-3.454
			c1.543-1.519,2.855-3.271,3.881-5.199l3.98,0.844l1.865-5.738l-3.64-1.622C155.607,201.468,155.709,200.299,155.709,199.105z
			 M122.184,199.105c0-6.717,5.445-12.161,12.161-12.161c6.717,0,12.161,5.445,12.161,12.161c0,6.716-5.445,12.161-12.161,12.161
			C127.629,211.266,122.184,205.821,122.184,199.105z"/>
	</g>
</g>
<g id="Rocket">
	<g>
		<path style="fill:none;stroke:#263238;stroke-linecap:round;stroke-linejoin:round;stroke-miterlimit:10;" d="M151.99,305.125
			c0.38-3.62,0.58-7.45,0.58-11.41c0-10.04-1.28-19.24-3.4-26.39l55.51-64.35c-2.75,49.11-0.05,93.43,0.54,102.15H151.99z"/>
		<path style="fill:none;stroke:#263238;stroke-linecap:round;stroke-linejoin:round;stroke-miterlimit:10;" d="M365.631,293.715
			c0,3.96,0.2,7.79,0.58,11.41h-54.48c0.6-8.81,3.35-54,0.44-103.73l56.86,65.92C366.91,274.465,365.631,283.665,365.631,293.715z"
			/>
		<path style="fill:none;stroke:#263238;stroke-linecap:round;stroke-linejoin:round;stroke-miterlimit:10;" d="M394.871,293.715
			c0,6.17-0.48,12.03-1.35,17.28h-26.54c-0.31-1.88-0.57-3.84-0.77-5.87c-0.38-3.62-0.58-7.45-0.58-11.41
			c0-10.05,1.28-19.25,3.4-26.4c2.68-9.04,6.71-14.79,11.22-14.79C388.321,252.525,394.871,270.965,394.871,293.715z"/>
		<path style="fill:none;stroke:#263238;stroke-linecap:round;stroke-linejoin:round;stroke-miterlimit:10;" d="M393.52,310.995
			c-0.01,0.04-0.01,0.09-0.02,0.13c-0.12,0.73-0.25,1.45-0.39,2.16c-0.45,2.36-0.98,4.58-1.58,6.64h-22.56
			c-0.6-2.06-1.13-4.28-1.58-6.64c-0.14-0.71-0.27-1.43-0.39-2.16c-0.01-0.04-0.01-0.09-0.02-0.13H393.52z"/>
		<path style="fill:none;stroke:#263238;stroke-linecap:round;stroke-linejoin:round;stroke-miterlimit:10;" d="M393.52,310.995
			c-0.01,0.04-0.01,0.09-0.02,0.13c-0.12,0.73-0.25,1.45-0.39,2.16c-0.45,2.36-0.98,4.58-1.58,6.64h-22.56
			c-0.6-2.06-1.13-4.28-1.58-6.64c-0.14-0.71-0.27-1.43-0.39-2.16c-0.01-0.04-0.01-0.09-0.02-0.13H393.52z"/>
		<path style="fill:none;stroke:#263238;stroke-linecap:round;stroke-linejoin:round;stroke-miterlimit:10;" d="M206.767,175.926
			c-0.906,9.052-1.589,18.132-2.086,27.049c-2.75,49.11-0.05,93.43,0.54,102.15c0.07,1.02,0.11,1.55,0.11,1.55h106.29
			c0,0,0.04-0.53,0.11-1.55c0.6-8.81,3.35-54,0.44-103.73c-0.65-11.17-1.58-22.57-2.89-33.84
			c-1.515-13.02-3.822-25.717-6.556-37.728 M300.59,120.917c-2.307-9.177-4.822-17.87-7.369-25.902h-69.49
			c-6.59,20.78-12.97,45.99-16.06,72.54 M258.47,284.735c-18.43,0-33.37-14.94-33.37-33.37c0-18.43,14.94-33.37,33.37-33.37
			s33.37,14.94,33.37,33.37C291.84,269.795,276.9,284.735,258.47,284.735z M258.47,200.075c-18.43,0-33.37-14.95-33.37-33.38
			s14.94-33.37,33.37-33.37c9.49,0,18.05,3.96,24.13,10.31l5.83,8.33c2.18,4.45,3.41,9.45,3.41,14.73
			C291.84,185.125,276.9,200.075,258.47,200.075z"/>
		
			<ellipse transform="matrix(0.1619 -0.9868 0.9868 0.1619 -31.4171 465.7406)" style="fill:none;stroke:#263238;stroke-linecap:round;stroke-linejoin:round;stroke-miterlimit:10;" cx="258.47" cy="251.365" rx="33.37" ry="33.37"/>
		<path style="fill:none;stroke:#263238;stroke-linecap:round;stroke-linejoin:round;stroke-miterlimit:10;" d="M291.84,166.695
			c0,18.43-14.94,33.38-33.37,33.38s-33.37-14.95-33.37-33.38s14.94-33.37,33.37-33.37c9.49,0,18.05,3.96,24.13,10.31l5.83,8.33
			C290.611,156.415,291.84,161.415,291.84,166.695z"/>
		<path style="fill:none;stroke:#263238;stroke-linecap:round;stroke-linejoin:round;stroke-miterlimit:10;" d="M235.52,62.115
			c0.81-2.03,1.59-3.92,2.33-5.68c0.12-0.29,0.24-0.58,0.36-0.86c0.24-0.57,0.47-1.12,0.69-1.65c0.4-0.92,0.77-1.79,1.12-2.6
			c0.17-0.39,0.34-0.76,0.5-1.13c0.7-1.59,1.32-2.97,1.85-4.13c0.07-0.17,0.15-0.33,0.22-0.49c0.02-0.05,0.04-0.09,0.06-0.14
			c0.12-0.26,0.23-0.5,0.34-0.73c0.34-0.74,0.62-1.34,0.84-1.8c0.06-0.12,0.11-0.23,0.16-0.33c0.27-0.56,0.41-0.85,0.41-0.85
			c2.44-5.56,5.48-10.19,8.12-13.62c3.01-3.92,8.89-3.92,11.91,0c2.63,3.43,5.68,8.06,8.11,13.62c0,0,0.57,1.16,1.58,3.34
			c0.05,0.12,0.11,0.24,0.17,0.37c0.82,1.8,1.91,4.22,3.2,7.21c0.17,0.39,0.34,0.79,0.51,1.2c0.85,1.99,1.78,4.21,2.76,6.63
			c0.11,0.26,0.22,0.54,0.33,0.81c0.23,0.55,0.45,1.1,0.67,1.67c0.03,0.05,0.05,0.11,0.07,0.17c0.21,0.51,0.41,1.03,0.62,1.56
			c0.12,0.3,0.23,0.59,0.35,0.89c1.4,3.58,2.89,7.5,4.41,11.72c0.26,0.7,0.51,1.42,0.77,2.14c0.48,1.36,0.97,2.74,1.45,4.15
			c0.16,0.45,0.32,0.91,0.47,1.37c1.11,3.22,2.22,6.58,3.32,10.06h-37.564"/>
		<path style="fill:none;stroke:#263238;stroke-linecap:round;stroke-linejoin:round;stroke-miterlimit:10;" d="M246.639,95.015
			H223.73c0.53-1.66,1.05-3.29,1.58-4.89c0.18-0.56,0.37-1.11,0.55-1.66c1.18-3.55,2.36-6.96,3.52-10.19
			c0.38-1.04,0.75-2.06,1.11-3.06c0.13-0.34,0.26-0.69,0.38-1.03c0.25-0.68,0.5-1.35,0.75-2.01"/>
		
			<line style="fill:none;stroke:#263238;stroke-linecap:round;stroke-linejoin:round;stroke-miterlimit:10;" x1="255.657" y1="95.015" x2="246.639" y2="95.015"/>
		<path style="fill:none;stroke:#263238;stroke-linecap:round;stroke-linejoin:round;stroke-miterlimit:10;" d="M288.43,151.965
			l-5.83-8.33c-6.08-6.35-14.64-10.31-24.13-10.31c-18.43,0-33.37,14.94-33.37,33.37s14.94,33.38,33.37,33.38
			s33.37-14.95,33.37-33.38C291.84,161.415,290.611,156.415,288.43,151.965z M258.47,191.075c-13.46,0-24.37-10.92-24.37-24.38
			c0-13.46,10.91-24.37,24.37-24.37c13.46,0,24.37,10.91,24.37,24.37C282.84,180.155,271.93,191.075,258.47,191.075z"/>
		<path style="fill:none;stroke:#263238;stroke-linecap:round;stroke-linejoin:round;stroke-miterlimit:10;" d="M258.47,217.995
			c-18.43,0-33.37,14.94-33.37,33.37c0,18.43,14.94,33.37,33.37,33.37s33.37-14.94,33.37-33.37
			C291.84,232.935,276.9,217.995,258.47,217.995z M258.47,275.735c-13.46,0-24.37-10.91-24.37-24.37s10.91-24.37,24.37-24.37
			c13.46,0,24.37,10.91,24.37,24.37S271.93,275.735,258.47,275.735z"/>
		<g>
			
				<rect x="205.331" y="306.675" style="fill:none;stroke:#263238;stroke-linecap:round;stroke-linejoin:round;stroke-miterlimit:10;" width="106.4" height="30.59"/>
			<g>
				
					<line style="fill:none;stroke:#263238;stroke-linecap:round;stroke-linejoin:round;stroke-miterlimit:10;" x1="219.03" y1="337.264" x2="219.03" y2="307.601"/>
				
					<line style="fill:none;stroke:#263238;stroke-linecap:round;stroke-linejoin:round;stroke-miterlimit:10;" x1="238.96" y1="337.264" x2="238.96" y2="307.601"/>
				
					<line style="fill:none;stroke:#263238;stroke-linecap:round;stroke-linejoin:round;stroke-miterlimit:10;" x1="258.89" y1="337.264" x2="258.89" y2="307.601"/>
				
					<line style="fill:none;stroke:#263238;stroke-linecap:round;stroke-linejoin:round;stroke-miterlimit:10;" x1="278.82" y1="337.264" x2="278.82" y2="307.601"/>
				
					<line style="fill:none;stroke:#263238;stroke-linecap:round;stroke-linejoin:round;stroke-miterlimit:10;" x1="298.75" y1="337.264" x2="298.75" y2="307.601"/>
			</g>
		</g>
		<path style="fill:none;stroke:#263238;stroke-linecap:round;stroke-linejoin:round;stroke-miterlimit:10;" d="M152.571,293.715
			c0,3.96-0.2,7.79-0.58,11.41c-0.19,2.03-0.45,3.99-0.77,5.87h-26.53c-0.87-5.25-1.35-11.11-1.35-17.28
			c0-22.75,6.54-41.19,14.62-41.19c4.51,0,8.54,5.76,11.21,14.8C151.29,274.475,152.571,283.675,152.571,293.715z"/>
		<path style="fill:none;stroke:#263238;stroke-linecap:round;stroke-linejoin:round;stroke-miterlimit:10;" d="M151.221,310.995
			c-0.06,0.41-0.13,0.81-0.2,1.2c-0.03,0.17-0.06,0.33-0.09,0.5c-0.19,1.03-0.4,2.04-0.62,3.02c-0.1,0.49-0.22,0.97-0.34,1.45
			c-0.12,0.47-0.24,0.94-0.36,1.4c-0.12,0.46-0.25,0.92-0.38,1.36h-22.55c-0.2-0.68-0.39-1.37-0.57-2.09
			c-0.09-0.35-0.18-0.71-0.27-1.08c-0.17-0.73-0.34-1.47-0.5-2.23c-0.07-0.38-0.15-0.77-0.23-1.16c-0.15-0.73-0.28-1.48-0.4-2.24
			c-0.01-0.04-0.01-0.09-0.02-0.13H151.221z"/>
		<path style="fill:none;stroke:#263238;stroke-linecap:round;stroke-linejoin:round;stroke-miterlimit:10;" d="M151.23,310.995
			c-0.07,0.4-0.13,0.8-0.21,1.2c-0.03,0.17-0.06,0.33-0.09,0.5c-0.19,1.03-0.4,2.04-0.62,3.02c-0.1,0.49-0.22,0.97-0.34,1.45
			c-0.12,0.47-0.24,0.94-0.36,1.4c-0.12,0.46-0.25,0.92-0.38,1.36h-22.55c-0.2-0.68-0.39-1.37-0.57-2.09
			c-0.09-0.35-0.18-0.71-0.27-1.08c-0.17-0.73-0.34-1.47-0.5-2.23c-0.07-0.38-0.15-0.77-0.23-1.16c-0.14-0.73-0.27-1.48-0.4-2.24
			c-0.01-0.04-0.01-0.09-0.02-0.13H151.23z"/>
	</g>
</g>
<g id="Character_2">
	<g>
		<g>
			<path style="fill:#FFFFFF;stroke:#263238;stroke-linecap:round;stroke-linejoin:round;stroke-miterlimit:10;" d="
				M300.812,458.173c0,0-1.508,2.073-2.073,2.073c-0.565,0-4.9,1.319-6.784,2.073c-1.884,0.754-3.024,1.264-1.696,3.015
				c4.146,5.465,14.322,6.407,19.599,7.538c5.277,1.131,8.669,1.131,9.234-2.827c0.565-3.957-0.377-10.93-0.377-10.93
				S308.35,461.188,300.812,458.173z"/>
			<path style="fill:#FFFFFF;stroke:#263238;stroke-linecap:round;stroke-linejoin:round;stroke-miterlimit:10;" d="
				M319.067,470.168c-3.687,0.647-10.308,1.232-17.501-0.877c-7.358-2.157-10.187-4.739-11.252-6.197
				c-0.738,0.496-0.913,1.109-0.055,2.24c4.146,5.465,14.322,6.407,19.599,7.538C315.076,473.99,318.447,473.996,319.067,470.168z"
				/>
		</g>
		<g>
			<path style="fill:#FFFFFF;stroke:#263238;stroke-linecap:round;stroke-linejoin:round;stroke-miterlimit:10;" d="
				M339.821,457.607c0,0-3.769,3.204-4.523,3.957c-0.754,0.754-4.9,1.131-4.334,3.392c0.565,2.261,3.769,3.957,6.407,4.334
				c2.638,0.377,9.046,3.392,10.553,3.204c1.508-0.188,6.03,0.189,6.784-4.146c0.754-4.334-0.377-10.365-0.377-10.365
				L339.821,457.607z"/>
			<path style="fill:#FFFFFF;stroke:#263238;stroke-linecap:round;stroke-linejoin:round;stroke-miterlimit:10;" d="
				M345.663,469.103c-3.392-1.131-4.9-1.131-9.611-2.261c-2.206-0.529-3.909-1.595-5.104-2.579
				c-0.045,0.211-0.048,0.439,0.016,0.695c0.565,2.261,3.769,3.957,6.407,4.334c2.638,0.377,9.046,3.392,10.553,3.204
				c1.504-0.188,6.008,0.185,6.777-4.117C352.506,470.066,348.451,470.032,345.663,469.103z"/>
		</g>
		<path style="fill:#263238;stroke:#263238;stroke-linecap:round;stroke-linejoin:round;stroke-miterlimit:10;" d="M297.42,320.982
			c0,0-2.45,21.672-1.319,41.836s4.334,43.72,5.088,50.316c0.754,6.596,1.696,34.486,1.696,36.182c0,1.696-0.942,4.523-0.942,4.523
			l-1.508,1.131l-0.377,3.392c0,0,5.842,3.015,11.118,4.146c5.276,1.131,8.103-0.377,8.292-1.696
			c0.188-1.319-0.188-4.334-0.188-6.784s-0.377-5.088-0.377-7.915c0-2.827,0.565-32.79,0.754-36.936
			c0.189-4.146,0.189-7.161,0.377-10.553c0.189-3.392,2.45-34.486,2.45-34.486l2.827-5.088c0,0,2.073,35.617,3.204,38.632
			c1.131,3.015,10.176,51.258,10.93,52.389c0.754,1.131-1.508,2.073-1.319,3.204c0.188,1.131,1.885,6.596,1.885,6.596
			s5.088,2.261,8.292,2.45c3.204,0.189,4.711-0.188,6.03-2.638c1.319-2.45,1.319-4.334,1.131-6.219
			c-0.188-1.884-0.754-3.957-1.319-6.596c-0.565-2.638-0.377-26.948-1.884-35.051c-1.508-8.103-4.711-12.815-4.9-19.41
			c-0.188-6.596,1.884-32.225,1.319-39.386c-0.565-7.161-0.188-10.93-1.884-17.337c-1.696-6.407-4.334-13.38-4.334-13.38
			S319.092,329.651,297.42,320.982z"/>
		<path style="fill:#92E3A9;stroke:#263238;stroke-linecap:round;stroke-linejoin:round;stroke-miterlimit:10;" d="M311.427,255.441
			c0,0-8.545,5.258-11.996,6.573s-9.366,2.301-10.024,5.587c-0.657,3.286-1.643,8.545-1.643,8.545s-6.08,16.104-7.066,19.226
			c-0.986,3.122-0.493,8.052,1.808,9.367c2.3,1.314,4.93,1.15,7.394,0.493c2.465-0.657,8.709-8.545,8.709-8.545
			s-0.986,17.911-1.479,19.226c-0.493,1.315-2.136,5.751-0.657,7.066c1.479,1.315,19.555,6.737,24.156,6.737
			c4.601,0,18.569-2.136,20.705-3.615c2.136-1.479,2.794-1.808,2.958-4.437c0.164-2.629-0.164-2.136,0.164-5.751
			c0.329-3.615,5.258-26.785,5.916-29.25c0.657-2.465,4.765-13.475,3.944-18.24c-0.822-4.765-9.038-12.982-12.817-13.967
			C337.719,253.469,318,254.126,311.427,255.441z"/>
		<g>
			<path style="fill:#FFFFFF;stroke:#263238;stroke-linecap:round;stroke-linejoin:round;stroke-miterlimit:10;" d="
				M315.535,218.139c0,0-3.944,5.916-3.451,8.052c0.493,2.136,0.493,2.794,0,3.451c-0.493,0.657-3.615,2.465-2.793,3.615
				c0.822,1.15,3.122,3.122,3.122,3.122s0.493,4.93,1.315,5.423c0.822,0.493,2.136,0.822,2.958-2.465
				c0.822-3.286,3.451-12.653,3.451-13.967C320.137,224.055,320.629,217.153,315.535,218.139z"/>
			<path style="fill:#FFFFFF;stroke:#263238;stroke-linecap:round;stroke-linejoin:round;stroke-miterlimit:10;" d="
				M321.122,211.731c0,0-7.888,0.329-8.545,3.122c-0.657,2.793,3.286,5.916,3.944,6.409c0.657,0.493-1.807,2.465-1.15,3.944
				c0.657,1.479,2.136,3.286,2.136,3.286s-2.136,10.845-2.465,11.338c-0.329,0.493-2.3-5.423-2.629-3.451
				c-0.329,1.972-0.164,3.944-0.493,4.93c-0.329,0.986-2.465,4.765-1.479,6.244c0.986,1.479,1.643,2.136,4.601,1.479
				c2.958-0.657,2.958-0.657,2.958-0.657l-0.493,5.587l19.39-1.808c0,0-0.493-6.737,0.164-9.367
				c0.657-2.629,8.545-12.653,6.409-20.54C341.334,214.36,325.559,210.58,321.122,211.731z"/>
			<path style="fill:#263238;stroke:#263238;stroke-linecap:round;stroke-linejoin:round;stroke-miterlimit:10;" d="M343.47,222.247
				c-2.136-7.888-17.911-11.667-22.348-10.517c0,0-7.888,0.329-8.545,3.122c-0.657,2.793,3.286,5.916,3.944,6.409
				c0.657,0.493-1.807,2.465-1.15,3.944c0.657,1.479,2.136,3.286,2.136,3.286s-2.136,10.845-2.465,11.338
				c-0.329,0.493-2.3-5.423-2.629-3.451c-0.329,1.972-0.164,3.944-0.493,4.93c-0.329,0.986-2.465,4.765-1.479,6.244
				c0.986,1.479,1.643,2.136,4.601,1.479c2.958-0.657,2.958-0.657,2.958-0.657s2.465-1.972,2.629-3.451s0.329-8.38,0.493-9.531
				s1.15-2.629,2.301-2.465c0,0,1.479,1.479,1.808,4.765c0.329,3.286,1.479,5.094,4.437,5.751c2.195,0.488,5.384-0.111,7.555-1.124
				C338.507,239.13,345.497,229.73,343.47,222.247z"/>
			<path style="fill:#FFFFFF;stroke:#263238;stroke-linecap:round;stroke-linejoin:round;stroke-miterlimit:10;" d="
				M319.315,234.407c0,0,1.808-5.423,3.287-3.451c1.479,1.972,1.15,7.395-0.657,8.874
				C320.137,241.309,318.658,237.036,319.315,234.407z"/>
		</g>
		<path style="fill:#92E3A9;stroke:#263238;stroke-linecap:round;stroke-linejoin:round;stroke-miterlimit:10;" d="M308.798,257.577
			c0,0,3.615-5.587,7.888-7.066c4.272-1.479,18.569-1.807,20.869-1.643c2.301,0.164,3.944,5.587,3.944,5.587L308.798,257.577z"/>
		<path style="fill:none;stroke:#263238;stroke-linecap:round;stroke-linejoin:round;stroke-miterlimit:10;" d="M296.967,282.719
			c0.822,5.587,1.643,13.968,1.643,13.968l-6.902-20.869"/>
		<path style="fill:none;stroke:#263238;stroke-linecap:round;stroke-linejoin:round;stroke-miterlimit:10;" d="M298.61,296.686
			c0,0-10.352-0.822-13.31-1.808"/>
		<path style="fill:none;stroke:#263238;stroke-linecap:round;stroke-linejoin:round;stroke-miterlimit:10;" d="M299.103,299.808
			c0,0,2.958,14.461,8.216,20.048"/>
		<path style="fill:none;stroke:#263238;stroke-linecap:round;stroke-linejoin:round;stroke-miterlimit:10;" d="M298.446,304.081
			c0,0,0.657,14.461,2.958,17.418"/>
		<g>
			<path style="fill:#FFFFFF;stroke:#263238;stroke-linecap:round;stroke-linejoin:round;stroke-miterlimit:10;" d="
				M285.464,281.897c0,0-2.958,0-3.451,1.15s1.479,3.944,1.479,3.944L285.464,281.897z"/>
			<path style="fill:#FFFFFF;stroke:#263238;stroke-linecap:round;stroke-linejoin:round;stroke-miterlimit:10;" d="M282.013,284.69
				c0,0-3.286,1.15-1.972,2.629c1.315,1.479,2.465,1.972,2.465,1.972l0.986-2.301L282.013,284.69z"/>
			<path style="fill:#FFFFFF;stroke:#263238;stroke-linecap:round;stroke-linejoin:round;stroke-miterlimit:10;" d="M280.042,287.32
				c0,0-0.967,1.948-0.52,2.543c0.447,0.596,2.606,1.415,2.606,1.415l0.38-1.986L280.042,287.32z"/>
			<path style="fill:none;stroke:#263238;stroke-linecap:round;stroke-linejoin:round;stroke-miterlimit:10;" d="M279.67,290.384
				c0,0-0.596,0.819-0.298,1.638c0.298,0.819,1.936,1.415,1.936,1.415l0.819-2.159L279.67,290.384z"/>
		</g>
	</g>
</g>
<g id="Character_1">
	<g>
		<path style="fill:#FFFFFF;stroke:#263238;stroke-linecap:round;stroke-linejoin:round;stroke-miterlimit:10;" d="M257.854,252.029
			c0,0-0.445-6.225-1.334-4.743c-0.889,1.482-0.148,6.67-0.148,6.67s-3.261-5.484-3.706-3.854c-0.445,1.63,1.63,4.891,1.63,4.891
			s-3.706-2.52-3.706-1.334c0,1.186,1.779,3.854,1.779,3.854l-0.741,1.334c0,0,1.779,0.889,2.668,0.296
			c0.889-0.593,3.113-4.299,3.113-4.299L257.854,252.029z"/>
		<g>
			<polygon style="fill:#92E3A9;stroke:#263238;stroke-linecap:round;stroke-linejoin:round;stroke-miterlimit:10;" points="
				178.108,271.446 156.467,272.78 158.097,305.687 180.183,303.463 			"/>
			<path style="fill:#FFFFFF;stroke:#263238;stroke-linecap:round;stroke-linejoin:round;stroke-miterlimit:10;" d="
				M161.951,271.891c0,0,0.741-2.075,1.631-2.075c0.889,0,2.52,4.595,1.482,4.595c-1.038,0-1.63-2.075-1.63-2.075L161.951,271.891z"
				/>
			<path style="fill:#FFFFFF;stroke:#263238;stroke-linecap:round;stroke-linejoin:round;stroke-miterlimit:10;" d="
				M164.767,270.261c0,0,1.482-1.779,2.223-1.038c0.741,0.741,1.482,5.336,0.593,5.188c-0.889-0.148-1.482-2.223-1.482-2.223
				L164.767,270.261z"/>
			<path style="fill:#FFFFFF;stroke:#263238;stroke-linecap:round;stroke-linejoin:round;stroke-miterlimit:10;" d="
				M166.991,269.223c0,0,1.779-1.038,2.372,0.445c0.593,1.482,0.445,4.002-0.148,4.298c-0.593,0.297-1.038-0.889-1.038-0.889
				S167.584,270.409,166.991,269.223z"/>
			<path style="fill:#FFFFFF;stroke:#263238;stroke-linecap:round;stroke-linejoin:round;stroke-miterlimit:10;" d="
				M169.362,269.668c0,0,1.927-1.334,2.075,0c0.148,1.334,0.148,2.668-0.445,3.706c-0.593,1.038-1.779,0.593-1.779,0.593
				S169.807,270.853,169.362,269.668z"/>
		</g>
		<path style="fill:#FFFFFF;stroke:#263238;stroke-linecap:round;stroke-linejoin:round;stroke-miterlimit:10;" d="M171.141,314.877
			c0,0-6.388,16.233-6.388,27.856c0,11.623,12.01,41.261,12.591,43.585c0.581,2.325-2.712,12.979-1.937,18.79
			c0.775,5.811,3.487,28.476,3.681,29.832c0.194,1.356-1.792,27.47-1.792,29.988c0,2.518,1.937,3.099,3.487,3.293
			s4.649,0,5.618-0.581c0.969-0.581,2.325-1.55,2.325-1.55s0.387-0.775,0.581-3.487c0.194-2.712,0.048-11.005,0.048-11.973
			c0-0.969,2.131-29.25,2.131-29.25s0.792,28.184,0.387,36.03c-0.05,0.967-2.803,10.497-0.091,11.466
			c2.712,0.968,10.056-0.614,12.38-0.825c3.631-0.33,8.826-3.085,8.051-3.86c-0.775-0.775-1.118-1.752-4.262-2.712
			c-1.572-0.48-6.179-3.375-6.76-5.312c-0.581-1.937-0.165-9.1-0.165-10.069c0-0.968,5.957-20.456,6.732-23.943
			c0.775-3.487,2.131-16.465,2.325-23.052c0.194-6.586-0.194-10.654,0.194-12.979c0.387-2.324,9.492-18.79,9.298-33.512
			c-0.194-14.722-4.649-35.837-4.649-35.837L171.141,314.877z"/>
		<path style="fill:#FFFFFF;stroke:#263238;stroke-linecap:round;stroke-linejoin:round;stroke-miterlimit:10;" d="M189.394,459.781
			c-0.746,0.805-2.017,1.731-4.05,1.997c-2.542,0.332-5.892-0.446-7.832-0.997c-0.132,2.098-0.217,3.628-0.217,4.147
			c0,2.518,1.937,3.099,3.487,3.293c1.55,0.194,4.649,0,5.618-0.581c0.969-0.581,2.325-1.55,2.325-1.55s0.387-0.775,0.581-3.487
			C189.354,461.937,189.38,460.931,189.394,459.781z"/>
		<path style="fill:#FFFFFF;stroke:#263238;stroke-linecap:round;stroke-linejoin:round;stroke-miterlimit:10;" d="M212.212,464.19
			c-0.775-0.775-1.118-1.752-4.262-2.712c-0.766-0.234-2.251-1.042-3.641-2.032l0.512,2.662c0,0-8.84,1.667-13.776-0.552
			c-0.547,3.053-0.897,6.736,0.736,7.32c2.712,0.968,10.057-0.614,12.38-0.825C207.793,467.72,212.987,464.965,212.212,464.19z"/>
		<path style="fill:#FFFFFF;stroke:#263238;stroke-linecap:round;stroke-linejoin:round;stroke-miterlimit:10;" d="M182.999,260.478
			c0,0-14.378,4.743-14.526,6.225c-0.148,1.482-10.672,33.647-11.265,34.982c-0.593,1.334-0.741,2.372,1.186,3.854
			c1.927,1.482,4.002,5.336,7.115,4.595c3.113-0.741,5.484-3.706,6.077-4.743s0.889-2.075,1.038-3.113s1.038-5.188,1.334-5.781
			c0.296-0.593,0.445,5.929-0.296,8.745c-0.741,2.816-3.557,8.301-2.52,9.635c1.038,1.334,3.557,2.52,3.557,2.52
			s5.484,2.52,19.121,2.52s19.862-0.297,21.048-1.186c1.186-0.889,1.038-2.668,1.186-4.15c0.148-1.482-1.482-10.969-1.334-11.71
			c0.148-0.741,1.186-6.818,1.186-6.818s10.821,12.006,14.823,11.71c4.002-0.297,5.336-3.261,5.336-3.261l15.416-40.169
			c0,0,2.52-1.779,3.557-2.668c1.038-0.889,4.002-6.818,4.447-8.597c0.445-1.779,0.445-4.15,0.148-5.484
			c-0.296-1.334-1.186,0.741-1.334,1.927c-0.148,1.186-0.445,2.52-0.445,2.52s-2.372,4.743-2.816,5.188
			c-0.445,0.445-3.409,1.63-3.409,1.63s3.113-4.15,3.261-5.188c0.148-1.038,0.889-2.964-0.593-1.63
			c-1.482,1.334-3.557,4.743-3.557,4.743s-4.299,2.816-4.447,4.002c-0.148,1.186-1.038,4.15-1.038,4.595
			s-14.378,23.568-14.378,23.568l-4.892-7.263c0,0-3.113-12.006-5.929-13.637s-8.152-2.52-8.152-2.52s-10.82-6.374-15.86-7.411
			S182.999,260.478,182.999,260.478z"/>
		
			<line style="fill:none;stroke:#263238;stroke-linecap:round;stroke-linejoin:round;stroke-miterlimit:10;" x1="173.957" y1="296.497" x2="170.993" y2="277.672"/>
		<g>
			<g>
				<path style="fill:#FFFFFF;stroke:#263238;stroke-linecap:round;stroke-linejoin:round;stroke-miterlimit:10;" d="
					M214.495,227.461c0,0,1.302,1.676,1.572,4.809s-0.215,6.289,0.275,7.088c0.49,0.799,3.169,1.852,2.715,3.174
					c-0.454,1.323-2.597,2.581-2.597,2.581s-0.137,5.966-1.313,7.456c-1.176,1.49-6.943,0.242-6.943,0.242l-1.933,7.074
					l-15.564-4.891c0,0,2.011-0.72,0.583-5.562c-1.428-4.842-2.374-6.296-2.374-6.296s-0.688-8.21,9.361-13.432
					C208.326,224.48,214.495,227.461,214.495,227.461z"/>
				<path style="fill:#263238;" d="M214.455,237.788c0.162,1.01-0.001,1.877-0.364,1.935c-0.364,0.058-0.79-0.713-0.953-1.723
					c-0.162-1.01,0.001-1.877,0.364-1.935C213.866,236.006,214.293,236.778,214.455,237.788z"/>
				<path style="fill:none;stroke:#263238;stroke-linecap:round;stroke-linejoin:round;stroke-miterlimit:10;" d="M211.171,234.775
					c0,0,1.73-2.38,3.321-0.77"/>
				<path style="fill:none;stroke:#263238;stroke-linecap:round;stroke-linejoin:round;stroke-miterlimit:10;" d="M214.929,246.381
					c0,0-1.766,0.258-3.035-1.274"/>
			</g>
			<path style="fill:#263238;stroke:#263238;stroke-linecap:round;stroke-linejoin:round;stroke-miterlimit:10;" d="
				M209.023,232.078c0,0-2.36,5.569-3.958,6.548c-1.599,0.98-2.576,1.359-2.576,1.359s-2.927,5.092-5.49,7.817
				c-2.563,2.725-2.375,2.225-4.164,1.727c-1.789-0.498-6.314-2.948-9.343-8.788c-3.029-5.84-2.517-14.785,4.287-19.559
				c6.805-4.774,18.926-5,22.759-4.216c3.834,0.784,8.204,3.879,7.608,7.212C217.551,227.513,212.6,231.096,209.023,232.078z"/>
			<path style="fill:#FFFFFF;stroke:#263238;stroke-linecap:round;stroke-linejoin:round;stroke-miterlimit:10;" d="
				M204.724,241.749c0,0-2.995-5.696-4.558-2.594c-1.563,3.102,0.943,7.998,3.042,7.207"/>
			<path style="fill:#263238;stroke:#263238;stroke-linecap:round;stroke-linejoin:round;stroke-miterlimit:10;" d="
				M188.613,236.189c-0.667,5.568-4.964,9.632-9.597,9.077c-4.633-0.555-7.848-5.519-7.181-11.086
				c0.667-5.568,4.964-9.632,9.597-9.076C186.065,225.658,189.28,230.622,188.613,236.189z"/>
		</g>
		<path style="fill:#FFFFFF;stroke:#263238;stroke-linecap:round;stroke-linejoin:round;stroke-miterlimit:10;" d="M182.999,260.478
			c0,0,2.372-4.595,3.706-5.336c1.334-0.741,7.115-1.482,13.192,0c6.077,1.482,10.376,5.929,10.969,7.708
			c0.593,1.779,1.038,2.668,1.038,2.668s-13.933-5.336-18.528-5.929C188.78,258.995,182.999,260.478,182.999,260.478z"/>
		<polyline style="fill:none;stroke:#263238;stroke-linecap:round;stroke-linejoin:round;stroke-miterlimit:10;" points="
			217.832,276.931 215.906,296.052 219.759,285.38 		"/>
		
			<line style="fill:none;stroke:#263238;stroke-linecap:round;stroke-linejoin:round;stroke-miterlimit:10;" x1="230.876" y1="288.937" x2="234.137" y2="293.236"/>
		<path style="fill:#FFFFFF;stroke:#263238;stroke-linecap:round;stroke-linejoin:round;stroke-miterlimit:10;" d="M258.298,249.509
			c-0.148,1.186-0.445,2.52-0.445,2.52s-2.372,4.743-2.816,5.188c-0.445,0.445-3.409,1.63-3.409,1.63s3.113-4.15,3.261-5.188
			c0.148-1.038,0.889-2.964-0.593-1.63c-1.482,1.334-3.557,4.743-3.557,4.743s-4.299,2.816-4.447,4.002
			c-0.148,1.186-1.038,4.15-1.038,4.595c0,0.27-5.316,8.927-9.484,15.671l7.984,3.422l7.725-20.13c0,0,2.52-1.779,3.558-2.668
			c1.037-0.889,4.002-6.818,4.447-8.597s0.445-4.15,0.148-5.484C259.336,246.248,258.447,248.323,258.298,249.509z"/>
		<path style="fill:#263238;stroke:#263238;stroke-linecap:round;stroke-linejoin:round;stroke-miterlimit:10;" d="M219.573,352.612
			c-0.194-14.722-4.649-35.837-4.649-35.837l-43.783-1.898c0,0-6.388,16.233-6.388,27.856c0,11.623,12.01,41.261,12.591,43.585
			c0.581,2.325-2.712,12.979-1.937,18.79c0.531,3.978,1.969,15.853,2.885,23.384c2.441,0.723,6.504,1.442,12.574,1.153
			c0.348-4.668,0.619-8.266,0.619-8.266s0.039,3.518,0.092,8.351c1.23,0.516,7.213,2.794,13.774,1.278
			c1.171-4.163,2.144-7.674,2.406-8.854c0.775-3.487,2.131-16.465,2.325-23.052c0.194-6.586-0.194-10.654,0.194-12.979
			C210.662,383.799,219.767,367.334,219.573,352.612z"/>
		<path style="fill:none;stroke:#FFFFFF;stroke-linecap:round;stroke-linejoin:round;stroke-miterlimit:10;" d="M184.504,348.667
			l6.622,2.136c0,0,2.991,37.596,2.777,40.373c-0.214,2.777-4.836,17.897-2.418,30.203"/>
	</g>
</g>
</svg>
