<?xml version="1.0" encoding="utf-8"?>
<!-- Generator: Adobe Illustrator 27.5.0, SVG Export Plug-In . SVG Version: 6.00 Build 0)  -->
<svg version="1.1" xmlns="http://www.w3.org/2000/svg" xmlns:xlink="http://www.w3.org/1999/xlink" x="0px" y="0px"
	 viewBox="0 0 650 500" style="enable-background:new 0 0 650 500;" xml:space="preserve">
<g id="BACKGROUND">
	<rect style="fill:#5CDBE6;" width="650" height="500.875"/>
</g>
<g id="OBJECTS">
	<g>
		
			<linearGradient id="SVGID_1_" gradientUnits="userSpaceOnUse" x1="311.9281" y1="443.7182" x2="311.9281" y2="12.4848" gradientTransform="matrix(-1 0 0 1 635.3629 0)">
			<stop  offset="0" style="stop-color:#FFFFFF"/>
			<stop  offset="0.1346" style="stop-color:#FEFDF8"/>
			<stop  offset="0.3355" style="stop-color:#FDF6E3"/>
			<stop  offset="0.5777" style="stop-color:#FAEBC2"/>
			<stop  offset="0.8501" style="stop-color:#F7DD94"/>
			<stop  offset="0.9894" style="stop-color:#F5D47A"/>
		</linearGradient>
		<polygon style="opacity:0.45;fill:url(#SVGID_1_);" points="574.519,437.325 357.304,26.267 324.284,26.267 72.351,437.325 		"/>
		<g>
			<circle style="fill:#FFFFFF;" cx="340.794" cy="26.267" r="9.112"/>
			<path style="fill:#574E9B;" d="M324.284,26.267c-0.163-0.938-0.265-1.897-0.265-2.881c0-9.264,7.51-16.775,16.775-16.775
				c9.264,0,16.775,7.51,16.775,16.775c0,0.984-0.102,1.943-0.265,2.881H324.284z"/>
			<rect x="339.831" y="1.049" style="fill:#574E9B;" width="2.358" height="9.005"/>
		</g>
	</g>
	<path style="fill:#F57B9E;stroke:#000000;stroke-width:0.25;stroke-miterlimit:10;" d="M518.088,267.857
		c0,0,17.142-7.374,38.028,4.627c20.885,12,26.275,41.755,19.875,71.175c0,0,11.453,33.125-5.39,66.475
		c-16.843,33.349-21.66,32.02-21.66,32.02H436.866c0,0-20.212-0.018-24.928-23.262c-4.716-23.243,6.737-59.94,20.885-65.004
		c14.148-5.064,48.196-14.793,48.196-14.793L518.088,267.857z"/>
	<path style="fill:#F57B9E;stroke:#000000;stroke-width:0.25;stroke-miterlimit:10;" d="M374.186,433.592l-8.233,8.561h-24.822
		c0,0,1.47-2.286,4.736-3.266c3.266-0.98,13.228-7.517,13.228-7.517l8.809-4.567L374.186,433.592z"/>
	<path style="fill:#5296C9;stroke:#000000;stroke-width:0.25;stroke-miterlimit:10;" d="M368.702,428.198l6.893,6.779l58.576-74.354
		l66.071-22.286l13.411-25.048l-26.637-0.806c0,0-65.073,33.151-68.031,34.926s-51.081,80.468-51.081,80.468"/>
	<path style="fill:#66D68E;stroke:#000000;stroke-width:0.25;stroke-miterlimit:10;" d="M486.052,250c0,0-11.804-0.17-15.011,1.256
		c-3.208,1.426-15.206,9.029-15.206,9.029l12.83,20.433l7.247-2.97l6.89,16.038l34.57,1.188l3.089-9.741l-0.832-2.97l14.731-7.722
		l-13.108-21.693L486.052,250z"/>
	<path style="fill:#F3B7D4;stroke:#000000;stroke-width:0.25;stroke-miterlimit:10;" d="M494.802,234.622L493.013,250h-6.96
		c0,0,2.7,8.32,11.078,8.879c8.378,0.559,11.543-4.561,11.543-4.561s-2.141-21.038-2.327-21.318
		c-0.186-0.279-3.444-1.676-3.444-1.676L494.802,234.622z"/>
	<g>
		<path style="fill:#3B416B;stroke:#000000;stroke-width:0.25;stroke-miterlimit:10;" d="M248.774,219.811
			c0,0,10.794,23.269,10.976,40.92c0.182,17.651-8.007,174.877-8.007,174.877s19.288,7.097,19.107,7.279
			c-0.181,0.182,1.092,2.142,1.092,2.142h-29.298L232.14,294.066l-10.197,140.399c0,0,13.924,7.441,15.283,8.12
			c1.359,0.679,1.759,2.444,1.759,2.444h-28.871c0,0-7.529-139.311-6.171-157.311c1.359-18,13.908-65.603,13.908-65.603
			L248.774,219.811z"/>
		
			<rect x="226.325" y="151.978" style="fill:#7C4891;stroke:#000000;stroke-width:0.25;stroke-miterlimit:10;" width="7.361" height="17.021"/>
		<path style="fill:#5296C9;stroke:#000000;stroke-width:0.25;stroke-miterlimit:10;" d="M232.139,164.859
			c0,0,10.502,1.776,14.244,2.593c3.742,0.816,30.477,3.109,32.211,3.085c1.735-0.024,25.102-9.412,25.816-9.106
			c0.714,0.306,1.735,0.612,1.735,0.612l2.245-1.531l3.572,4.592c0,0-22.347,18.775-26.429,20
			c-4.082,1.225-35.917,3.871-35.917,3.871l-1.182,28.82l0.34,2.015l-30.922,2.303l-14.247-20.491l-4.925,4.344l12.396,20.449
			l-10.019,6.283c0,0-22.076-20.547-22.585-23.094c-0.509-2.547,1.698-6.962,2.038-7.811c0.34-0.849,31.585-37.528,31.585-37.528
			L232.139,164.859z"/>
		<path style="fill:#F3B7D4;stroke:#000000;stroke-width:0.25;stroke-miterlimit:10;" d="M228.259,154.186v9.399
			c0,0,3.971,1.274,3.879,1.274s-1.857,4.245-5.814,5.519c-3.957,1.273-11.853-5.519-11.853-5.519l5.689-16.755L228.259,154.186z"/>
		<path style="fill:#F3B7D4;stroke:#000000;stroke-width:0.25;stroke-miterlimit:10;" d="M222.949,130.868
			c0,0,9.397-0.564,10.712,6.139c1.316,6.703,1.128,11.088,1.128,11.088s0.009,6.515-5.915,6.139
			c-5.925-0.376-7.491-2.568-7.491-2.568s-4.385-8.269-3.383-11.652C219.003,136.631,222.949,130.868,222.949,130.868z"/>
		<path style="fill:#7C4891;stroke:#000000;stroke-width:0.25;stroke-miterlimit:10;" d="M228.259,131.559
			c0,0-1.945,5.782-7.637,7.987v28.408h-6l-0.769-4.153v4.153h-3.487v-22.921c0,0-0.68-12.74,12.582-14.165
			C222.949,130.868,225.333,130.545,228.259,131.559z"/>
		<polyline style="fill:none;stroke:#000000;stroke-width:0.25;stroke-miterlimit:10;" points="228.048,138.934 230.261,145.081 
			228.048,144.639 		"/>
		<path style="stroke:#000000;stroke-width:0.25;stroke-miterlimit:10;" d="M224.95,146.753h5.999c0,0,0.014,2.366-2.69,2.633
			C225.555,149.654,224.95,146.753,224.95,146.753z"/>
		<path style="fill:#FFFFFF;stroke:#000000;stroke-width:0.25;stroke-miterlimit:10;" d="M225.401,146.954
			c0,0,1.079,0.9,2.549,1.124c1.47,0.224,2.422-1.124,2.422-1.124H225.401z"/>
		<path style="stroke:#000000;stroke-width:0.25;stroke-miterlimit:10;" d="M224.798,140.798c0,0.324-0.262,0.586-0.586,0.586
			s-0.586-0.262-0.586-0.586c0-0.324,0.262-0.586,0.586-0.586S224.798,140.474,224.798,140.798z"/>
		<path style="stroke:#000000;stroke-width:0.25;stroke-miterlimit:10;" d="M231.536,139.626c0,0.324-0.262,0.586-0.586,0.586
			c-0.324,0-0.586-0.262-0.586-0.586c0-0.324,0.262-0.586,0.586-0.586C231.273,139.04,231.536,139.302,231.536,139.626z"/>
		<path style="fill:#F39CC6;" d="M225.401,143.943c0,0.98-0.795,1.775-1.775,1.775c-0.98,0-1.775-0.795-1.775-1.775
			s0.795-1.775,1.775-1.775C224.606,142.168,225.401,142.962,225.401,143.943z"/>
		<path style="fill:#F39CC6;" d="M233.914,142.871c0,0.98-0.795,1.775-1.775,1.775c-0.98,0-1.775-0.795-1.775-1.775
			c0-0.98,0.795-1.775,1.775-1.775C233.119,141.096,233.914,141.891,233.914,142.871z"/>
		<path style="stroke:#000000;stroke-width:0.25;stroke-miterlimit:10;" d="M220.623,155.428c0,0,1.849,0.851,4.328,0.403
			c2.479-0.448,3.309-0.94,3.309-0.94v-0.705c0,0-5.482-0.695-6.409-2.062c-0.926-1.367-1.228-1.994-1.228-1.994V155.428z"/>
		<path style="fill:#F3B7D4;stroke:#000000;stroke-width:0.25;stroke-miterlimit:10;" d="M308.39,160.512l2.289-4.474l8.202-4.735
			c0,0,0.244,1.367-0.244,2.05s-2.343,1.66-2.343,1.66s-0.391,1.611-0.195,1.953c0.195,0.342,5.907,1.318,5.907,1.318
			s5.321-3.32,6.151-3.515c0.83-0.195,2.05,0.049,2.05,0.049s-7.176,6.298-7.909,6.59c-0.732,0.293-10.336,3.696-10.336,3.696
			l-3.772-4.592"/>
	</g>
	<g>
		<path style="fill:#F5D47A;stroke:#000000;stroke-width:0.25;stroke-miterlimit:10;" d="M176.138,76.187
			c-14.105,0-25.538,11.434-25.538,25.539c0,6.828,2.685,13.026,7.05,17.608l-4.032,11.486l10.657-6.478
			c3.546,1.864,7.58,2.924,11.864,2.924c14.105,0,25.539-11.434,25.539-25.539S190.243,76.187,176.138,76.187z"/>
		<g>
			
				<rect x="166.516" y="93.947" transform="matrix(-1 -1.224647e-16 1.224647e-16 -1 352.2769 190.9559)" style="fill:#FFFFFF;" width="19.246" height="3.063"/>
			
				<rect x="166.516" y="99.276" transform="matrix(-1 -1.224647e-16 1.224647e-16 -1 352.2769 201.6143)" style="fill:#FFFFFF;" width="19.246" height="3.063"/>
			
				<rect x="166.516" y="104.605" transform="matrix(-1 -1.224647e-16 1.224647e-16 -1 352.2769 212.2727)" style="fill:#FFFFFF;" width="19.246" height="3.063"/>
		</g>
	</g>
	<g>
		<path style="fill:#F57B9E;stroke:#000000;stroke-width:0.25;stroke-miterlimit:10;" d="M530.344,148.689h-65.962
			c-6.902,0-12.498,5.596-12.498,12.498v4.141c0,6.902,5.595,12.498,12.498,12.498h56.27l1.77,18.752l16.574-22.238l-0.008,0.001
			c2.372-2.275,3.855-5.468,3.855-9.014v-4.141C542.842,154.284,537.246,148.689,530.344,148.689z"/>
		<path style="fill:#574E9B;" d="M473.086,170.105h48.554c1.422,0,2.574-1.152,2.574-2.574l0,0c0-1.422-1.152-2.574-2.574-2.574
			h-48.554c-1.422,0-2.574,1.152-2.574,2.574l0,0C470.511,168.952,471.664,170.105,473.086,170.105z"/>
		<path style="fill:#574E9B;" d="M473.086,161.558h48.554c1.422,0,2.574-1.152,2.574-2.574l0,0c0-1.422-1.152-2.574-2.574-2.574
			h-48.554c-1.422,0-2.574,1.153-2.574,2.574l0,0C470.511,160.406,471.664,161.558,473.086,161.558z"/>
	</g>
	<g>
		
			<rect x="93.127" y="323.387" style="fill:#4F4AAD;stroke:#000000;stroke-width:0.2267;stroke-miterlimit:10;" width="8.959" height="43.037"/>
		<path style="fill:#4AAAAD;stroke:#000000;stroke-width:0.25;stroke-miterlimit:10;" d="M138.417,331.753H80.176
			c-6.668,0-12.074-5.406-12.074-12.074v-49.104c0-6.668,5.406-12.074,12.074-12.074h58.241c6.668,0,12.074,5.406,12.074,12.074
			v49.104C150.491,326.347,145.085,331.753,138.417,331.753z"/>
		<path style="fill:#4AAAAD;stroke:#000000;stroke-width:0.2267;stroke-miterlimit:10;" d="M166.682,383.44H89.095
			c-6.046,0-10.947-4.901-10.947-10.947v1.927c0-6.046,4.901-10.947,10.947-10.947h77.587c6.046,0,10.947,4.901,10.947,10.947
			v-1.927C177.629,378.539,172.728,383.44,166.682,383.44z"/>
		<path style="fill:#7A6FBF;stroke:#000000;stroke-width:0.25;stroke-miterlimit:10;" d="M141.804,238.261l1.271,5.915
			c0,0,27.768,0.214,31.3-0.856c3.532-1.07,31.36-14.477,39.601-21.206s36.604-29.312,36.604-29.312l4.816,4.495l-5.779,10.061
			c0,0,1.177,0.535,0,3.853c-1.177,3.318-21.406,36.39-21.406,36.39l-39.387,24.403c0,0-3.106,1.336-4.918,9.487
			c-1.811,8.151-10.868,55.698-11.094,56.377c-0.226,0.679-3.17,2.717-3.17,2.717h-68.151v-2.491c0,0-19.019,0.453-19.925-12.226
			c-0.906-12.679,7.245-62.943,7.245-62.943s0.906-9.804,9.962-12.487c9.057-2.683,27.67-5.853,27.67-5.853v-6.324H141.804z"/>
		<path style="fill:#F27F72;stroke:#000000;stroke-width:0.25;stroke-miterlimit:10;" d="M101.491,340.585
			c0,0-2.858,25.811,9.665,30.566c12.523,4.755,102.184-11.547,102.184-11.547l49.811,13.811l7.698-12
			c0,0-57.772-32.315-63.885-32.315c-6.113,0-32.989,2.931-32.989,2.931l-72.765,1.4L101.491,340.585z"/>
		<path style="fill:#F3B7D4;stroke:#000000;stroke-width:0.25;stroke-miterlimit:10;" d="M126.444,238.261l0.709-27.332
			l17.093-4.962l7.325,14.808l-2.914,0.079l-0.079,2.914l-3.702-1.339c0,0-0.551,2.993,3.387,4.647c0,0,1.103,5.041-6.853,4.805
			l0.394,6.38H126.444z"/>
		<path style="stroke:#000000;stroke-width:0.25;stroke-miterlimit:10;" d="M135.101,226.809c0,0,1.214,3.906,6.309,5.072
			l0.175,2.84C141.585,234.721,134.961,233.046,135.101,226.809z"/>
		<path d="M144.578,214.199c0,0.415-0.337,0.752-0.752,0.752c-0.415,0-0.752-0.337-0.752-0.752c0-0.415,0.337-0.752,0.752-0.752
			C144.242,213.447,144.578,213.783,144.578,214.199z"/>
		<circle style="fill:none;stroke:#000000;stroke-width:0.25;stroke-miterlimit:10;" cx="143.826" cy="214.199" r="3.444"/>
		<path style="fill:none;stroke:#000000;stroke-width:0.25;stroke-miterlimit:10;" d="M134.531,224.564
			c-0.457,0.205-0.964,0.319-1.497,0.319c-2.022,0-3.661-1.639-3.661-3.661c0-2.022,1.639-3.662,3.661-3.662
			c0.471,0,0.921,0.089,1.335,0.251"/>
		<path style="fill:#91486C;stroke:#000000;stroke-width:0.25;stroke-miterlimit:10;" d="M133.802,217.642
			c0,0,3.438-0.279,3.982-7.8c0,0,3.81-0.495,5.69-1.979l1.243-0.943l0.412,0.833c0,0,1.165-1.572,0.67-3.65
			c-0.495-2.078-2.699-1.286-6.792,0.346c-4.093,1.633-12.307,4.849-12.307,4.849s-0.544,2.721-0.594,6.284
			c-0.049,3.563,0.756,6.532,0.756,6.532l2.57-0.242C129.432,221.872,128.732,216.883,133.802,217.642z"/>
		<circle style="fill:#F39CC6;" cx="141.585" cy="219.811" r="2.015"/>
		<path style="fill:#7A6FBF;stroke:#000000;stroke-width:0.25;stroke-miterlimit:10;" d="M98.879,254.931
			c0,0,8.911-0.928,8.54,15.595c-0.371,16.523-1.671,43.443-1.671,43.443l44.743,18.751l-3.221,7.865l-45.78-2.491"/>
		<line style="stroke:#000000;stroke-width:0.25;stroke-miterlimit:10;" x1="243.149" y1="198.723" x2="249.616" y2="207.357"/>
		<path style="fill:#F3B7D4;stroke:#000000;stroke-width:0.25;stroke-miterlimit:10;" d="M250.579,192.801l10.769-12.147
			c0,0,0.902,1.202,0.501,2.104c-0.401,0.902-5.11,6.913-5.11,6.913s1.603,1.951,1.403,3.13c-0.2,1.178-2.747,4.495-2.747,4.495
			L250.579,192.801z"/>
		<path style="fill:#7A6FBF;stroke:#000000;stroke-width:0.25;stroke-miterlimit:10;" d="M129.372,304.034
			c0,0,26.829-2.556,37.309-9.969"/>
		<path style="fill:#F27F72;stroke:#000000;stroke-width:0.25;stroke-miterlimit:10;" d="M213.34,359.604l-12.344-19.019
			c0,0-1.1,2.669,0.314,3.963c1.415,1.294,8.959,13.396,8.959,13.396l-4.558-1.415"/>
		<path style="fill:#F3B7D4;stroke:#000000;stroke-width:0.25;stroke-miterlimit:10;" d="M148.026,338.738c0,0,6.139,0.659,7.159,0
			s7.576-6.491,7.576-6.491l3.92-0.075c0,0-1.443-1.8-2.172-2.681c-0.728-0.882-2.914,0.007-3.642,0
			c-0.729-0.007-11.859,2.608-11.859,2.608L148.026,338.738z"/>
		<path style="stroke:#000000;stroke-width:0.25;stroke-miterlimit:10;" d="M165.732,332.19l-3.139,1.304
			c0,0-5.051,6.964-5.969,7.346c-0.918,0.383-6.134,0.306-6.134,0.306s-0.371,1.837-0.906,2.143
			c-0.536,0.306-48.212-1.307-48.212-1.307l0.46-3.869l44.462,2.574l1.733-1.949c0,0,6.485,0.194,7.159,0
			c0.674-0.194,7.576-6.491,7.576-6.491L165.732,332.19z"/>
		<polygon style="fill:#F27F72;stroke:#000000;stroke-width:0.25;stroke-miterlimit:10;" points="180.825,365.061 213.34,434.465 
			230.397,431.37 231.601,430.166 207.624,360.618 		"/>
		<path style="fill:#F27F72;stroke:#000000;stroke-width:0.25;stroke-miterlimit:10;" d="M210.114,427.581
			c0,0,13.162-3.993,17.214-9.807"/>
		
			<rect x="128.936" y="383.44" style="fill:#4F4AAD;stroke:#000000;stroke-width:0.2267;stroke-miterlimit:10;" width="8.201" height="47.929"/>
		
			<rect x="96.134" y="431.37" style="fill:#4F4AAD;stroke:#000000;stroke-width:0.2267;stroke-miterlimit:10;" width="76.291" height="6.204"/>
		<circle style="fill:#24224F;stroke:#000000;stroke-width:0.2267;stroke-miterlimit:10;" cx="96.134" cy="445.029" r="5.076"/>
		<path style="fill:#24224F;stroke:#000000;stroke-width:0.2267;stroke-miterlimit:10;" d="M177.501,445.029
			c0,2.803-2.273,5.076-5.076,5.076c-2.803,0-5.076-2.273-5.076-5.076s2.273-5.076,5.076-5.076
			C175.228,439.953,177.501,442.225,177.501,445.029z"/>
		<path style="stroke:#000000;stroke-width:0.25;stroke-miterlimit:10;" d="M98.879,363.472c0,0,2.388,8.598,10.417,10.888
			s66.842-5.444,66.842-5.444l-1.995-2.492l-58.126,4.992c0,0-7.896,0.093-9.978-3.926c-2.082-4.018-2.082-4.018-2.082-4.018H98.879
			z"/>
		<polygon style="fill:#60A3D6;stroke:#000000;stroke-width:0.25;stroke-miterlimit:10;" points="229.013,431.621 249.214,443.078 
			252.165,445.753 225.144,445.753 222.654,444.646 220.625,445.845 215.829,445.845 213.99,434.347 		"/>
		<polygon style="fill:#60A3D6;stroke:#000000;stroke-width:0.25;stroke-miterlimit:10;" points="262.933,373.198 274.076,377.469 
			279.679,374.66 279.679,372.623 281.882,371.619 283.589,372.053 306.283,360.375 301.302,358.019 270.221,362.394 		"/>
	</g>
	<g>
		<path style="fill:#F57B9E;stroke:#000000;stroke-width:0.2037;stroke-miterlimit:10;" d="M315.556,223.998
			c0-12.173,1.678-21.944,5.043-29.305c3.361-7.36,8.132-15.035,14.311-23.035c5.269-6.721,9.268-12.948,11.994-18.673
			c2.726-5.725,4.09-12.765,4.09-21.127c0-6.721-1.499-11.858-4.499-15.402c-2.998-3.544-7.317-5.316-12.948-5.316
			c-5.635,0-9.951,1.772-12.949,5.316c-2.999,3.544-4.498,8.681-4.498,15.402v11.45h-27.806v-9.269
			c0-15.628,4.042-27.895,12.131-36.801c8.084-8.902,19.218-13.357,33.394-13.357c14.354,0,25.625,4.183,33.803,12.539
			c8.178,8.361,12.266,19.9,12.266,34.621c0,11.27-1.865,20.675-5.587,28.214c-3.727,7.544-9.042,15.496-15.947,23.853
			c-5.998,7.271-10.543,13.86-13.63,19.763c-3.092,5.908-4.634,12.949-4.634,21.126v4.362h-24.534V223.998z M313.375,248.532h28.895
			v28.896h-28.895V248.532z"/>
	</g>
	<path style="fill:#F3B7D4;stroke:#000000;stroke-width:0.25;stroke-miterlimit:10;" d="M500.275,210.186
		c0,0-7.167-1.536-10.033,2.457c-2.867,3.993-3.686,7.781-3.788,11.262c-0.102,3.481-0.102,8.19,3.071,9.828
		c3.174,1.638,6.859,0.717,10.75-0.41c3.89-1.126,5.529-2.252,5.529-2.252L500.275,210.186z"/>
	<polyline style="fill:none;stroke:#000000;stroke-width:0.25;stroke-miterlimit:10;" points="490.52,219.365 488.952,225.265 
		491.117,224.742 	"/>
	<path style="stroke:#000000;stroke-width:0.25;stroke-miterlimit:10;" d="M493.807,225.62l-5.415,0.984c0,0-0.151,1.515,2.31,2.007
		C493.163,229.104,493.807,225.62,493.807,225.62z"/>
	<path style="stroke:#000000;stroke-width:0.1956;stroke-miterlimit:10;" d="M489.075,219.591c0,0.259-0.21,0.468-0.468,0.468
		s-0.468-0.21-0.468-0.468c0-0.259,0.21-0.468,0.468-0.468S489.075,219.332,489.075,219.591z"/>
	<path style="stroke:#000000;stroke-width:0.1956;stroke-miterlimit:10;" d="M494.275,219.591c0,0.259-0.21,0.468-0.468,0.468
		s-0.468-0.21-0.468-0.468c0-0.259,0.21-0.468,0.468-0.468S494.275,219.332,494.275,219.591z"/>
	<path style="fill:#91486C;stroke:#000000;stroke-width:0.25;stroke-miterlimit:10;" d="M494.885,209.896c0,0-0.56,3.402,1.229,7.69
		c1.789,4.288,3.06,4.673,3.06,4.673s2.144-1.973,3.653-0.702c1.509,1.271,0.318,4.606-0.953,5.083
		c-1.271,0.477-1.271,0.477-1.271,0.477s-0.556,4.449,3.256,7.506c3.812,3.057,1.588,7.107-1.43,11.078
		c-3.018,3.971-5.007,11.277-3.099,16.28c1.908,5.003,12.391,5.877,12.391,5.877s-1.35-4.606,3.097-8.815
		c4.447-4.209,6.433-6.194,6.433-6.194s0.794-8.259-3.018-16.519c-3.812-8.259-4.606-5.956-4.289-11.674
		C514.263,218.936,509.418,207.765,494.885,209.896z"/>
	<path style="fill:#F39CC6;" d="M496.114,222.607c0,0.856-0.694,1.551-1.551,1.551c-0.856,0-1.551-0.694-1.551-1.551
		s0.694-1.551,1.551-1.551C495.42,221.056,496.114,221.75,496.114,222.607z"/>
	<path style="fill:#F39CC6;" d="M489.075,222.174c0,0.617-0.5,1.118-1.118,1.118c-0.617,0-1.118-0.5-1.118-1.118
		c0-0.617,0.5-1.118,1.118-1.118C488.575,221.056,489.075,221.557,489.075,222.174z"/>
	<path style="fill:#91486C;stroke:#000000;stroke-width:0.25;stroke-miterlimit:10;" d="M496.114,209.63
		c0,0-2.133-1.309-5.444,0.267c-3.311,1.576-3.449,8.887-3.449,8.887s3.693-5.698,6.119-6.971
		C495.764,210.538,496.114,209.63,496.114,209.63z"/>
	<polygon style="stroke:#000000;stroke-width:0.25;stroke-miterlimit:10;" points="494.802,234.622 494.563,238.743 502.6,233.39 
		502.107,232.74 	"/>
	<path style="fill:#66D68E;stroke:#000000;stroke-width:0.25;stroke-miterlimit:10;" d="M470.328,254.463
		c0,0-2.152,8.324,5.583,23.284"/>
	<polygon style="fill:#F3B7D4;stroke:#000000;stroke-width:0.25;stroke-miterlimit:10;" points="487.53,293.948 486.052,312.454 
		514.704,313.343 516.354,294.938 	"/>
	<path style="fill:#5296C9;stroke:#000000;stroke-width:0.25;stroke-miterlimit:10;" d="M479.73,331.04l1.578,2.367l-50.884,18.145
		l-45.165,46.545l-24.85,24.85l5.325,7.297c0,0,55.618-38.262,59.365-42.206c3.747-3.945,13.411-14.2,13.411-14.2
		s64.296-6.114,74.551-23.667c10.256-17.553,1.643-36.828,1.643-36.828"/>
	
		<line style="fill:#F3B7D4;stroke:#000000;stroke-width:0.25;stroke-miterlimit:10;" x1="499.009" y1="303.646" x2="499.61" y2="304.997"/>
	<path style="fill:#F3B7D4;stroke:#000000;stroke-width:0.25;stroke-miterlimit:10;" d="M533.258,275.118l9.236,25.699
		c0,0,6.718,10.013-3.422,16.351c-10.14,6.338-58.052,21.928-58.052,21.928l-8.038,4.563l-2.929-0.254
		c0,0,7.925-10.267,8.559-10.267c0.634,0,4.563-0.127,4.563-0.127l45.542-27.019l-9.088-23.73L533.258,275.118z"/>
	<polyline style="stroke:#000000;stroke-width:0.25;stroke-miterlimit:10;" points="533.258,275.118 521.857,288.078 
		519.629,282.262 532.126,275.504 	"/>
	<path style="fill:#F3B7D4;stroke:#000000;stroke-width:0.25;stroke-miterlimit:10;" d="M465.334,275.413l-26.086,13.809
		c0,0-6.426,6.252-13.597,3.923c-7.171-2.329-31.712-27.039-31.712-27.039l-14.183-5.09c0,0-1.912-2.686-2.231-3.335
		c-0.319-0.649,1.116-2.562,1.116-2.562s0.956,1.936,1.753,2.562c0.797,0.626,10.677,1.901,10.677,1.901l2.868-2.709
		c0,0-4.462-4.94-5.577-5.1c-1.116-0.159-0.638-1.335-0.638-1.335h3.187l6.534,4.841l5.259,8.765l24.223,14.98l29.822-17.284
		L465.334,275.413z"/>
	<path style="fill:#F3B7D4;stroke:#000000;stroke-width:0.25;stroke-miterlimit:10;" d="M393.938,256.872c0,0-1.275,3.346,0,5.418"
		/>
	<polygon style="stroke:#000000;stroke-width:0.25;stroke-miterlimit:10;" points="456.748,261.739 465.334,275.413 
		460.923,277.747 	"/>
	<path style="fill:#F57B9E;stroke:#000000;stroke-width:0.25;stroke-miterlimit:10;" d="M364.831,429.008l-13.332,8.019
		l-17.407-10.782c0,0,2.208-0.909,6.885,0c4.677,0.909,9.353,2.468,9.353,2.468l10.656-4.974L364.831,429.008z"/>
	<polygon style="fill:#61B2ED;stroke:#000000;stroke-width:0.25;stroke-miterlimit:10;" points="405.969,311.672 452.218,311.672 
		458.666,341.48 484.467,341.48 484.467,345.094 413.918,345.094 	"/>
	<path style="fill:#F57B9E;stroke:#000000;stroke-width:0.25;stroke-miterlimit:10;" d="M513.653,351.519
		c0,0,35.726-5.679,48.863,20.275"/>
</g>
</svg>
