<?xml version="1.0" encoding="utf-8"?>
<!-- Generator: Adobe Illustrator 27.5.0, SVG Export Plug-In . SVG Version: 6.00 Build 0)  -->
<svg version="1.1" xmlns="http://www.w3.org/2000/svg" xmlns:xlink="http://www.w3.org/1999/xlink" x="0px" y="0px"
	 viewBox="0 0 750 550" style="enable-background:new 0 0 750 550;" xml:space="preserve">
<g id="BACKGROUND">
	<g>
		<rect style="fill:#49669E;" width="750" height="550"/>
		<path style="fill:#6AA2E5;" d="M133.683,181.695l206-113.655c20.864-11.511,46.528-9.784,65.661,4.42l217.808,161.697
			c42.522,31.568,27.21,98.626-24.8,108.607l-297.05,57.009c-17.85,3.426-36.298-1.308-50.293-12.906L124.251,281.816
			C91.226,254.447,96.128,202.415,133.683,181.695z"/>
		<g>
			<g>
				<path style="fill:#6AA2E5;" d="M601.602,127.665c-11.538-2.182-22.66,5.401-24.843,16.939
					c-2.182,11.538,5.401,22.66,16.939,24.843c11.538,2.182,22.66-5.402,24.843-16.939
					C620.724,140.97,613.14,129.848,601.602,127.665z M595.716,158.787c-5.651-1.069-9.365-6.516-8.296-12.166
					c1.069-5.65,6.516-9.365,12.166-8.296c5.65,1.069,9.365,6.516,8.296,12.166C606.813,156.142,601.366,159.856,595.716,158.787z"
					/>
				<g>
					<polygon style="fill:#6AA2E5;" points="600.375,117.35 594.286,131.519 607.005,133.925 606.513,118.511 					"/>
					<polygon style="fill:#6AA2E5;" points="588.789,178.6 594.927,179.762 601.015,165.593 588.296,163.187 					"/>
					<polygon style="fill:#6AA2E5;" points="614.688,145.192 612.282,157.91 627.695,157.418 628.856,151.28 					"/>
					<polygon style="fill:#6AA2E5;" points="566.445,145.832 580.614,151.92 583.02,139.201 567.606,139.694 					"/>
				</g>
				<g>
					<polygon style="fill:#6AA2E5;" points="621.643,128.417 607.319,134.13 614.611,144.825 625.162,133.578 					"/>
					<polygon style="fill:#6AA2E5;" points="570.14,163.534 573.659,168.695 587.983,162.982 580.69,152.287 					"/>
					<polygon style="fill:#6AA2E5;" points="612.076,158.224 601.382,165.516 612.629,176.067 617.79,172.548 					"/>
					<polygon style="fill:#6AA2E5;" points="577.511,124.564 583.225,138.888 593.92,131.596 582.672,121.045 					"/>
				</g>
			</g>
			<g>
				<path style="fill:#6AA2E5;" d="M601.273,81.85c-7.295,3.371-10.476,12.018-7.105,19.313c3.371,7.295,12.018,10.476,19.313,7.105
					c7.295-3.371,10.476-12.018,7.105-19.313C617.215,81.66,608.568,78.479,601.273,81.85z M609.471,99.589
					c-2.502,1.156-5.466,0.065-6.622-2.436c-1.156-2.501-0.065-5.466,2.436-6.622c2.501-1.156,5.466-0.065,6.622,2.436
					C613.063,95.468,611.972,98.433,609.471,99.589z"/>
				<g>
					<polygon style="fill:#6AA2E5;" points="597.594,78.468 599.608,87.734 606.833,84.396 601.081,76.857 					"/>
					<polygon style="fill:#6AA2E5;" points="613.673,113.262 617.16,111.651 615.147,102.385 607.921,105.724 					"/>
					<polygon style="fill:#6AA2E5;" points="614.703,87.29 618.042,94.515 625.58,88.763 623.969,85.277 					"/>
					<polygon style="fill:#6AA2E5;" points="590.786,104.842 600.052,102.829 596.713,95.604 589.175,101.356 					"/>
				</g>
				<g>
					<polygon style="fill:#6AA2E5;" points="612.192,76.41 607.063,84.386 614.533,87.134 615.797,77.736 					"/>
					<polygon style="fill:#6AA2E5;" points="598.958,112.383 602.563,113.709 607.691,105.733 600.221,102.985 					"/>
					<polygon style="fill:#6AA2E5;" points="618.051,94.746 615.303,102.215 624.701,103.479 626.027,99.874 					"/>
					<polygon style="fill:#6AA2E5;" points="588.728,90.245 596.704,95.373 599.452,87.904 590.054,86.64 					"/>
				</g>
			</g>
			<g>
				<path style="fill:#6AA2E5;" d="M535.468,61.626c-18.835,0-34.103,15.268-34.103,34.103s15.268,34.103,34.103,34.103
					c18.834,0,34.103-15.268,34.103-34.103S554.303,61.626,535.468,61.626z M535.468,116.598c-11.526,0-20.869-9.343-20.869-20.869
					s9.343-20.869,20.869-20.869c11.526,0,20.869,9.343,20.869,20.869S546.994,116.598,535.468,116.598z"/>
				<g>
					<polygon style="fill:#6AA2E5;" points="529.297,47.31 522.68,65.253 548.257,65.253 541.64,47.31 					"/>
					<polygon style="fill:#6AA2E5;" points="529.297,144.147 541.64,144.147 548.257,126.205 522.68,126.205 					"/>
					<polygon style="fill:#6AA2E5;" points="565.944,82.94 565.944,108.517 583.887,101.9 583.887,89.557 					"/>
					<polygon style="fill:#6AA2E5;" points="487.05,101.9 504.992,108.517 504.992,82.94 487.05,89.557 					"/>
				</g>
				<g>
					<polygon style="fill:#6AA2E5;" points="565.341,57.128 547.975,65.136 566.061,83.222 574.069,65.856 					"/>
					<polygon style="fill:#6AA2E5;" points="496.867,125.602 505.595,134.33 522.961,126.322 504.875,108.236 					"/>
					<polygon style="fill:#6AA2E5;" points="566.061,108.236 547.975,126.322 565.341,134.33 574.069,125.602 					"/>
					<polygon style="fill:#6AA2E5;" points="496.867,65.856 504.875,83.222 522.961,65.136 505.595,57.128 					"/>
				</g>
			</g>
		</g>
	</g>
</g>
<g id="OBJECTS">
	<g>
		<path style="opacity:0.29;fill:#3662A3;" d="M691.625,405.774c0,12.789-141.758,14.268-316.625,14.268
			c-174.867,0-316.625-1.479-316.625-14.268c0-12.789,141.758-23.157,316.625-23.157
			C549.867,382.618,691.625,392.985,691.625,405.774z"/>
		
			<text transform="matrix(1 0 0 1 240.108 469.1515)" style="fill:#BBE0FF; font-family:'Lato-Black'; font-size:29.7637px; letter-spacing:5;">recruitment</text>
		<rect x="108.243" y="481.033" style="fill:none;" width="533.514" height="27.823"/>
		<text transform="matrix(1 0 0 1 108.2433 488.4043)"><tspan x="0" y="0" style="fill:#6AA2E5; font-family:'Lato-Regular'; font-size:10px;">Lorem</tspan><tspan x="28.18" y="0" style="fill:#6AA2E5; font-family:'Lato-Regular'; font-size:10px;"> </tspan><tspan x="29.887" y="0" style="fill:#6AA2E5; font-family:'Lato-Regular'; font-size:10px;">ipsum</tspan><tspan x="56.077" y="0" style="fill:#6AA2E5; font-family:'Lato-Regular'; font-size:10px;"> </tspan><tspan x="57.784" y="0" style="fill:#6AA2E5; font-family:'Lato-Regular'; font-size:10px;">dolor</tspan><tspan x="81.084" y="0" style="fill:#6AA2E5; font-family:'Lato-Regular'; font-size:10px;"> </tspan><tspan x="82.791" y="0" style="fill:#6AA2E5; font-family:'Lato-Regular'; font-size:10px;">sit</tspan><tspan x="93.421" y="0" style="fill:#6AA2E5; font-family:'Lato-Regular'; font-size:10px;"> </tspan><tspan x="95.128" y="0" style="fill:#6AA2E5; font-family:'Lato-Regular'; font-size:10px;">amet,</tspan><tspan x="119.498" y="0" style="fill:#6AA2E5; font-family:'Lato-Regular'; font-size:10px;"> </tspan><tspan x="121.205" y="0" style="fill:#6AA2E5; font-family:'Lato-Regular'; font-size:10px;">consectetuer</tspan><tspan x="178.773" y="0" style="fill:#6AA2E5; font-family:'Lato-Regular'; font-size:10px;"> </tspan><tspan x="180.481" y="0" style="fill:#6AA2E5; font-family:'Lato-Regular'; font-size:10px;">adipiscing</tspan><tspan x="224.021" y="0" style="fill:#6AA2E5; font-family:'Lato-Regular'; font-size:10px;"> </tspan><tspan x="225.728" y="0" style="fill:#6AA2E5; font-family:'Lato-Regular'; font-size:10px;">elit,</tspan><tspan x="241.938" y="0" style="fill:#6AA2E5; font-family:'Lato-Regular'; font-size:10px;"> </tspan><tspan x="243.645" y="0" style="fill:#6AA2E5; font-family:'Lato-Regular'; font-size:10px;">sed</tspan><tspan x="258.814" y="0" style="fill:#6AA2E5; font-family:'Lato-Regular'; font-size:10px;"> </tspan><tspan x="260.521" y="0" style="fill:#6AA2E5; font-family:'Lato-Regular'; font-size:10px;">diam</tspan><tspan x="281.951" y="0" style="fill:#6AA2E5; font-family:'Lato-Regular'; font-size:10px;"> </tspan><tspan x="283.658" y="0" style="fill:#6AA2E5; font-family:'Lato-Regular'; font-size:10px;">nonummy</tspan><tspan x="327.438" y="0" style="fill:#6AA2E5; font-family:'Lato-Regular'; font-size:10px;"> </tspan><tspan x="329.145" y="0" style="fill:#6AA2E5; font-family:'Lato-Regular'; font-size:10px;">nibh</tspan><tspan x="348.414" y="0" style="fill:#6AA2E5; font-family:'Lato-Regular'; font-size:10px;"> </tspan><tspan x="350.121" y="0" style="fill:#6AA2E5; font-family:'Lato-Regular'; font-size:10px;">euismod</tspan><tspan x="387.179" y="0" style="fill:#6AA2E5; font-family:'Lato-Regular'; font-size:10px;"> </tspan><tspan x="388.886" y="0" style="fill:#6AA2E5; font-family:'Lato-Regular'; font-size:10px;">tincidunt</tspan><tspan x="428.403" y="0" style="fill:#6AA2E5; font-family:'Lato-Regular'; font-size:10px;"> </tspan><tspan x="430.109" y="0" style="fill:#6AA2E5; font-family:'Lato-Regular'; font-size:10px;">ut</tspan><tspan x="439.398" y="0" style="fill:#6AA2E5; font-family:'Lato-Regular'; font-size:10px;"> </tspan><tspan x="441.105" y="0" style="fill:#6AA2E5; font-family:'Lato-Regular'; font-size:10px;">laoreet</tspan><tspan x="472.535" y="0" style="fill:#6AA2E5; font-family:'Lato-Regular'; font-size:10px;"> </tspan><tspan x="474.242" y="0" style="fill:#6AA2E5; font-family:'Lato-Regular'; font-size:10px;">dolore</tspan><tspan x="502.781" y="0" style="fill:#6AA2E5; font-family:'Lato-Regular'; font-size:10px;"> </tspan><tspan x="504.488" y="0" style="fill:#6AA2E5; font-family:'Lato-Regular'; font-size:10px;">magna </tspan><tspan x="17.816" y="11.013" style="fill:#6AA2E5; font-family:'Lato-Regular'; font-size:10px;">aliquam erat volutpat. Ut wisi enim ad minim veniam, quis nostrud exerci tation ullamcorper suscipit lobortis nisl ut.</tspan></text>
		<g>
			<g>
				<g>
					<path style="fill:#F4F4F4;" d="M164.943,116.935h340.706c16.871,0,30.547,13.676,30.547,30.547v206.415
						c0,16.871-13.676,30.547-30.547,30.547H164.943c-16.87,0-30.547-13.676-30.547-30.547V147.482
						C134.396,130.611,148.073,116.935,164.943,116.935z"/>
					<path style="fill:#323244;" d="M532.583,146.094v209.189c0,14.109-11.438,25.547-25.547,25.547H163.557
						c-14.109,0-25.547-11.438-25.547-25.547V146.095c0-14.109,11.438-25.547,25.547-25.547h343.479
						C521.145,120.548,532.583,131.986,532.583,146.094z"/>
					<path style="fill:#FFC91F;" d="M510.741,136.027h-350.89c-6.408,0-11.603,5.195-11.603,11.603v211.359
						c0,6.408,5.195,11.603,11.603,11.603h350.89c6.408,0,11.603-5.195,11.603-11.603V147.63
						C522.344,141.222,517.149,136.027,510.741,136.027z"/>
					<path style="fill:#191923;" d="M363.669,128.328c0,2.074-1.681,3.756-3.756,3.756c-2.074,0-3.756-1.681-3.756-3.756
						c0-2.074,1.681-3.756,3.756-3.756C361.987,124.572,363.669,126.253,363.669,128.328z"/>
					<circle style="fill:#323244;" cx="359.913" cy="128.328" r="1.934"/>
					<path style="fill:#40D389;" d="M370.757,128.279c0,0.489-0.396,0.885-0.885,0.885c-0.489,0-0.885-0.396-0.885-0.885
						c0-0.488,0.396-0.885,0.885-0.885C370.361,127.395,370.757,127.791,370.757,128.279z"/>
				</g>
				<g>
					<path style="fill:#F4F4F4;" d="M550.603,380.565H119.99c-4.91,0-8.891,3.981-8.891,8.891l0,0
						c0,16.046,13.008,20.44,29.054,20.44H530.44c16.046,0,29.054-4.394,29.054-20.44l0,0
						C559.494,384.546,555.513,380.565,550.603,380.565z"/>
					<path style="fill:#C0D4FF;" d="M111.349,393.057c1.846,13.108,14.033,16.839,28.803,16.839H530.44
						c14.771,0,26.958-3.731,28.803-16.839H111.349z"/>
					<path style="fill:#ACC5EF;" d="M276.449,380.565c0.957,5.745,8.395,10.216,17.432,10.216h82.831
						c9.037,0,16.474-4.471,17.432-10.216H276.449z"/>
				</g>
			</g>
			<g>
				<g>
					<path style="opacity:0.25;fill:#3A4968;" d="M220.252,309.543c0.322-0.22,0.539-0.543,0.539-1.013l-0.042-40.836
						c1.944-0.296,3.583-2.986,4.704-5.078c0.585-1.092,0.419-2.264-0.14-3.254c0.048-0.122,0.09-0.249,0.118-0.382
						c3.458-15.976,3.183-26.72,1.948-33.604l1.82-0.741c-1.774-7.66-5.634-10.87-5.634-10.87c-1.121-0.22-5.052-1.518-7.697-2.256
						c-0.303-0.264-0.671-0.502-1.089-0.708c0.001-0.025,0.004-0.05,0.004-0.075v-2.763c0-0.017-0.002-0.033-0.003-0.05
						c6.804-1.442,7.241-5.98,7.002-8.557c1.186-0.168,2.1-1.177,2.1-2.409c0-1.262-0.96-2.288-2.188-2.417v-0.467
						c0-1.159-0.231-2.266-0.64-3.283c1.555-2.31,1.727-4.796,1.526-6.656l0,0l0,0c-0.185-1.709-0.673-2.889-0.673-2.889
						s-0.026,0.005-0.047,0.009c-0.009,0.002-0.018,0.003-0.031,0.006c-0.039,0.007-0.099,0.018-0.167,0.03
						c-0.016,0.003-0.034,0.006-0.052,0.009c-0.079,0.014-0.174,0.03-0.284,0.048c-0.018,0.003-0.04,0.006-0.059,0.01
						c-0.121,0.02-0.254,0.041-0.405,0.064c-0.002,0-0.004,0.001-0.006,0.001c-0.148,0.023-0.316,0.048-0.492,0.073
						c-0.032,0.005-0.062,0.009-0.095,0.014c-0.174,0.025-0.363,0.051-0.561,0.077c-0.039,0.005-0.08,0.01-0.12,0.016
						c-0.207,0.027-0.424,0.054-0.653,0.082c-0.032,0.004-0.065,0.008-0.098,0.011c-0.244,0.029-0.497,0.057-0.764,0.085
						c-2.985,0.314-7.296,0.553-11.401-0.001c-3.597-0.485-5.325,1.598-5.905,2.522l0,0c0,0,0,0,0,0
						c-0.16,0.254-0.238,0.426-0.238,0.426l-2.088-0.819l0,0h0l1.024,1.884l-1.188-0.246l1.024,1.556
						c-1.411,2.006-0.926,6.188-0.621,8.042c-0.649,0.437-1.077,1.178-1.077,2.019c0,1.141,0.789,2.091,1.849,2.354
						c0.814,3.875,3.173,7.319,7.359,8.456c0,0.001,0,0.001,0,0.002v0.987v1.776c0,0.049,0.006,0.096,0.007,0.145
						c-0.036,0.019-0.073,0.036-0.107,0.055c-3.065,0.523-8.265,2.642-9.273,2.839c0,0-3.86,3.21-5.634,10.87l1.82,0.741
						c-1.235,6.884-1.511,17.628,1.948,33.604c0.029,0.133,0.07,0.259,0.118,0.381c-0.558,0.99-0.725,2.161-0.14,3.254
						c1.299,2.425,3.294,5.65,5.655,5.019l0.042,40.901c0.001,0.543,0.133,0.885,0.361,1.103
						c-11.817,0.967-21.925,3.665-21.925,7.89c0,5.385,16.421,8.291,31.873,8.291s31.873-2.906,31.873-8.291
						C243.43,313.156,232.598,310.417,220.252,309.543z M211.852,311.392c-0.268-0.292-0.591-0.554-0.977-0.765
						c0.228-0.001,0.453-0.004,0.682-0.004c0.975,0,1.931,0.013,2.873,0.034l-0.007,0.774
						C213.579,311.407,212.721,311.394,211.852,311.392z M220.873,257.091c-0.046,0.011-0.087,0.018-0.136,0.031l-0.007-6.727
						c0.146-0.351,0.269-0.699,0.372-1.04c0.411-0.075,0.813-0.16,1.209-0.25C221.945,251.588,221.472,254.246,220.873,257.091z
						 M207.699,309.3c0.167-0.198,0.273-0.448,0.273-0.77l-0.054-52.871c0.963,0.223,2.044,0.355,3.275,0.355
						c1.04,0,1.977-0.092,2.82-0.259l0.054,52.781c0,0.303,0.044,0.539,0.12,0.731c-0.877-0.018-1.755-0.029-2.629-0.029
						C210.275,309.238,208.986,309.26,207.699,309.3z M222.613,246.921l-1.487-14.653l0.227-6.669l0.631,1.976l0.805-0.328
						C223.484,231.766,223.732,238.17,222.613,246.921z M200.131,257.091c-2.977-14.155-2.852-23.721-1.909-29.842l0.798,0.325
						l0.767-2.404l0.764,6.307l-0.747,17.509c0,0,0.446,0.074,1.22,0.181c0.05,0.167,0.104,0.336,0.164,0.508l0.008,7.754
						C200.81,257.282,200.449,257.168,200.131,257.091z M211.558,324.436c-17.967,0-30.488-3.64-30.488-6.907
						c0-2.622,8.068-5.482,20.54-6.51l-0.008,0.87c-8.961,0.941-15.236,3.112-15.236,5.641c0,3.391,11.279,6.14,25.192,6.14
						c13.913,0,25.192-2.749,25.192-6.14c0-2.148-4.531-4.038-11.388-5.135c-0.191-0.374-0.437-0.743-0.755-1.072
						c10.691,1.213,17.44,3.81,17.44,6.207C242.046,320.796,229.525,324.436,211.558,324.436z"/>
					<path style="opacity:0.25;fill:#3A4968;" d="M316.117,309.543c0.322-0.22,0.539-0.543,0.539-1.013l-0.042-40.836
						c1.944-0.296,3.583-2.986,4.704-5.078c0.585-1.092,0.419-2.264-0.14-3.254c0.048-0.122,0.09-0.249,0.118-0.382
						c3.458-15.976,3.183-26.72,1.948-33.604l1.82-0.741c-1.774-7.66-5.634-10.87-5.634-10.87c-1.121-0.22-5.052-1.518-7.697-2.256
						c-0.303-0.264-0.671-0.502-1.089-0.708c0-0.025,0.004-0.05,0.004-0.075v-2.763c0-0.017-0.002-0.033-0.003-0.05
						c6.804-1.442,7.241-5.98,7.002-8.557c1.186-0.168,2.1-1.177,2.1-2.409c0-1.262-0.96-2.288-2.188-2.417v-0.467
						c0-1.159-0.231-2.266-0.64-3.283c1.555-2.31,1.728-4.796,1.526-6.656l0,0l0,0c-0.185-1.709-0.673-2.889-0.673-2.889
						s-0.026,0.005-0.047,0.009c-0.009,0.002-0.018,0.003-0.031,0.006c-0.039,0.007-0.099,0.018-0.167,0.03
						c-0.016,0.003-0.034,0.006-0.052,0.009c-0.079,0.014-0.174,0.03-0.284,0.048c-0.018,0.003-0.04,0.006-0.059,0.01
						c-0.121,0.02-0.254,0.041-0.405,0.064c-0.002,0-0.004,0.001-0.006,0.001c-0.148,0.023-0.316,0.048-0.492,0.073
						c-0.032,0.005-0.062,0.009-0.094,0.014c-0.175,0.025-0.363,0.051-0.561,0.077c-0.039,0.005-0.08,0.01-0.12,0.016
						c-0.207,0.027-0.424,0.054-0.653,0.082c-0.032,0.004-0.065,0.008-0.098,0.011c-0.244,0.029-0.497,0.057-0.764,0.085
						c-2.985,0.314-7.297,0.553-11.401-0.001c-3.597-0.485-5.325,1.598-5.905,2.522l0,0c0,0,0,0,0,0
						c-0.16,0.254-0.238,0.426-0.238,0.426l-2.088-0.819l0,0h0l1.024,1.884l-1.188-0.246l1.024,1.556
						c-1.411,2.006-0.926,6.188-0.621,8.042c-0.649,0.437-1.077,1.178-1.077,2.019c0,1.141,0.789,2.091,1.849,2.354
						c0.814,3.875,3.173,7.319,7.359,8.456c0,0.001,0,0.001,0,0.002v0.987v1.776c0,0.049,0.006,0.096,0.007,0.145
						c-0.036,0.019-0.073,0.036-0.107,0.055c-3.065,0.523-8.265,2.642-9.273,2.839c0,0-3.86,3.21-5.634,10.87l1.82,0.741
						c-1.235,6.884-1.511,17.628,1.948,33.604c0.029,0.133,0.07,0.259,0.118,0.381c-0.558,0.99-0.725,2.161-0.14,3.254
						c1.299,2.425,3.294,5.65,5.655,5.019l0.042,40.901c0.001,0.543,0.133,0.885,0.361,1.103
						c-11.817,0.967-21.925,3.665-21.925,7.89c0,5.385,16.421,8.291,31.873,8.291c15.451,0,31.873-2.906,31.873-8.291
						C339.295,313.156,328.463,310.417,316.117,309.543z M307.717,311.392c-0.268-0.292-0.591-0.554-0.977-0.765
						c0.228-0.001,0.453-0.004,0.682-0.004c0.975,0,1.931,0.013,2.873,0.034l-0.007,0.774
						C309.444,311.407,308.586,311.394,307.717,311.392z M316.738,257.091c-0.047,0.011-0.087,0.018-0.136,0.031l-0.007-6.727
						c0.146-0.351,0.269-0.699,0.372-1.04c0.411-0.075,0.813-0.16,1.209-0.25C317.81,251.588,317.337,254.246,316.738,257.091z
						 M303.564,309.3c0.167-0.198,0.273-0.448,0.273-0.77l-0.054-52.871c0.963,0.223,2.044,0.355,3.275,0.355
						c1.04,0,1.977-0.092,2.821-0.259l0.054,52.781c0,0.303,0.044,0.539,0.119,0.731c-0.877-0.018-1.755-0.029-2.629-0.029
						C306.14,309.238,304.85,309.26,303.564,309.3z M318.478,246.921l-1.487-14.653l0.227-6.669l0.63,1.976l0.805-0.328
						C319.349,231.766,319.597,238.17,318.478,246.921z M295.996,257.091c-2.977-14.155-2.852-23.721-1.909-29.842l0.798,0.325
						l0.767-2.404l0.764,6.307l-0.747,17.509c0,0,0.446,0.074,1.22,0.181c0.05,0.167,0.104,0.336,0.164,0.508l0.008,7.754
						C296.675,257.282,296.314,257.168,295.996,257.091z M307.423,324.436c-17.967,0-30.488-3.64-30.488-6.907
						c0-2.622,8.068-5.482,20.54-6.51l-0.008,0.87c-8.961,0.941-15.236,3.112-15.236,5.641c0,3.391,11.279,6.14,25.192,6.14
						c13.913,0,25.192-2.749,25.192-6.14c0-2.148-4.531-4.038-11.388-5.135c-0.191-0.374-0.437-0.743-0.755-1.072
						c10.691,1.213,17.44,3.81,17.44,6.207C337.911,320.796,325.39,324.436,307.423,324.436z"/>
				</g>
				<g>
					<g>
						<g>
							<linearGradient id="SVGID_1_" gradientUnits="userSpaceOnUse" x1="260.1985" y1="157.6401" x2="257.6636" y2="348.1785">
								<stop  offset="0.0056" style="stop-color:#FFFFFF;stop-opacity:0"/>
								<stop  offset="0.2093" style="stop-color:#FBFDFE;stop-opacity:0.2378"/>
								<stop  offset="0.3919" style="stop-color:#F1F6FC;stop-opacity:0.451"/>
								<stop  offset="0.5196" style="stop-color:#E4EFF9;stop-opacity:0.6"/>
								<stop  offset="0.5321" style="stop-color:#E5F0F9;stop-opacity:0.5844"/>
								<stop  offset="0.8083" style="stop-color:#F8FBFD;stop-opacity:0.2394"/>
								<stop  offset="1" style="stop-color:#FFFFFF;stop-opacity:0"/>
							</linearGradient>
							<rect x="215.357" y="158.773" style="fill:url(#SVGID_1_);" width="87.164" height="187.043"/>
							<ellipse style="opacity:0.25;fill:#3A4968;" cx="259.031" cy="346.114" rx="34.705" ry="8.458"/>
							<g>
								<path style="fill:#FFDDA6;" d="M259.031,357.536c-21.286,0-43.909-4.003-43.909-11.423c0-7.419,22.623-11.422,43.909-11.422
									c21.286,0,43.909,4.003,43.909,11.422C302.94,353.533,280.317,357.536,259.031,357.536z M259.031,336.598
									c-24.752,0-42.002,5.015-42.002,9.515c0,4.501,17.25,9.515,42.002,9.515c24.752,0,42.002-5.015,42.002-9.515
									C301.033,341.613,283.783,336.598,259.031,336.598z"/>
							</g>
						</g>
						<g>
							<path style="fill:#EFC09A;" d="M273.073,262.727c0.001,0,0.001,0.001,0.003,0.001c3.188,0.04,6.994,4.196,5.097,7.736
								c-2.094,3.907-5.496,9.348-9.485,5.999c-3.037-2.55-1.926-6.178-0.186-9.05c-1.189,0.624-2.31,0.9-2.863,0.192
								C264.155,265.707,271.505,262.404,273.073,262.727z"/>
							<path style="fill:none;stroke:#EFC09A;stroke-width:7;stroke-linecap:round;stroke-miterlimit:10;" d="M272.943,206.899
								c0,0,11.498,13.692,1.937,57.851"/>
							<path style="fill:#FFFFFF;" d="M275.572,203.166c0,0,5.318,4.422,7.761,14.975l-9.939,4.048l-3.319-10.403
								C270.076,211.785,266.242,201.337,275.572,203.166z"/>
						</g>
						<g>
							<g>
								<g>
									<g>
										<path style="fill:#607FD8;" d="M244.936,334.254l-0.072,8.381c0,0,9.093,4.794,18.11,0.34c0,0-0.054-9.046-9.217-7.399
											l0.116-1.323C253.873,334.254,249.812,334.48,244.936,334.254z"/>
										<path style="fill:#C9D5E2;" d="M262.916,341.779c-8.251,4.404-18.204,0.223-18.204,0.223l-0.013,1.487
											c11.87,4.195,18.492-0.501,18.492-0.501L262.916,341.779z"/>
									</g>
								</g>
								<g>
									<path style="fill:#323244;" d="M249.46,335.673c0.002,0,4.634,0.599,4.631-1.958l-0.084-81.859
										c-0.003-2.556-2.076-4.626-4.631-4.626c-0.002,0-0.004,0-0.005,0c-2.558,0.003-4.629,2.079-4.627,4.635l0.084,81.859
										C244.832,336.28,246.905,335.673,249.46,335.673z"/>
								</g>
							</g>
							<g>
								<g>
									<g>
										<path style="fill:#607FD8;" d="M262.711,334.31l-0.071,8.295c0,0,9,4.745,17.924,0.337c0,0-0.053-8.953-9.122-7.323
											l0.115-1.309C271.557,334.31,267.538,334.534,262.711,334.31z"/>
										<path style="fill:#C9D5E2;" d="M280.507,341.758c-8.166,4.358-18.017,0.221-18.017,0.221l-0.013,1.471
											c11.748,4.152,18.302-0.496,18.302-0.496L280.507,341.758z"/>
									</g>
								</g>
								<g>
									<path style="fill:#323244;" d="M267.119,335.673c0.002,0,4.634,0.599,4.631-1.958l-0.084-81.859
										c-0.003-2.556-2.076-4.626-4.631-4.626c-0.002,0-0.004,0-0.005,0c-2.558,0.003-4.629,2.079-4.627,4.635l0.084,81.859
										C262.491,336.28,264.564,335.673,267.119,335.673z"/>
								</g>
							</g>
							<path style="fill:#323244;" d="M243.84,247.176c0,0-0.668,14.191,14.687,14.191s14.354-14.521,14.354-14.521
								S243.715,247.011,243.84,247.176z"/>
						</g>
						<g>
							<path style="fill:#FFFFFF;" d="M259.477,198.301c-9.138,0-15.704,2.296-20.148,5.259l4.539,24.005l-1.029,24.121
								c0,0,19.027,3.171,31.712,0l-2.337-23.033l3.485-25.316C275.699,203.338,270.91,199.636,259.477,198.301z"/>
							<path style="fill:#EFC09A;" d="M266.301,202.598c0,2.575-3.681,4.663-8.222,4.663c-4.541,0-8.222-2.088-8.222-4.663
								c0-2.575,3.681-4.663,8.222-4.663C262.62,197.936,266.301,200.023,266.301,202.598z"/>
						</g>
						<g>
							<path style="fill:#EFC09A;" d="M242.08,262.727c-0.001,0-0.001,0.001-0.003,0.001c-3.188,0.04-6.994,4.196-5.097,7.736
								c2.094,3.907,5.496,9.348,9.485,5.999c3.037-2.55,1.926-6.178,0.186-9.05c1.189,0.624,2.31,0.9,2.863,0.192
								C250.998,265.707,243.648,262.404,242.08,262.727z"/>
							<path style="fill:none;stroke:#EFC09A;stroke-width:7;stroke-linecap:round;stroke-miterlimit:10;" d="M242.21,206.899
								c0,0-11.498,13.692-1.938,57.851"/>
							<path style="fill:#FFFFFF;" d="M239.581,203.166c0,0-5.318,4.422-7.761,14.975l9.939,4.048l3.319-10.403
								C245.077,211.785,248.911,201.337,239.581,203.166z"/>
						</g>
						<path style="fill:#EFC09A;" d="M257.984,189.682c-3.02,0-5.49,2.471-5.49,5.49v3.807c0,3.02,2.47,5.49,5.49,5.49
							c3.02,0,5.49-2.471,5.49-5.49v-3.807C263.474,192.152,261.003,189.682,257.984,189.682z"/>
						<path style="fill:#DBA77F;" d="M257.984,189.682c-3.02,0-5.49,2.471-5.49,5.49v1.36c4.455,2.042,8.115,2.758,10.96,2.848
							c0.01-0.133,0.02-0.265,0.02-0.4v-3.807C263.474,192.152,261.003,189.682,257.984,189.682z"/>
						<g>
							<g>
								<path style="fill:#EFC09A;" d="M276.011,179.996c0,1.859-1.507,3.366-3.366,3.366c-1.859,0-3.366-1.507-3.366-3.366
									c0-1.859,1.507-3.366,3.366-3.366C274.504,176.63,276.011,178.137,276.011,179.996z"/>
								<path style="fill:#DBA77F;" d="M274.393,179.996c0,0.966-0.783,1.748-1.749,1.748c-0.966,0-1.748-0.783-1.748-1.748
									s0.783-1.748,1.748-1.748C273.611,178.248,274.393,179.031,274.393,179.996z"/>
							</g>
							<g>
								<path style="fill:#EFC09A;" d="M272.832,181.33c0.108-0.745,0.165-1.494,0.165-2.241v-3.067
									c0-6.727-5.504-12.231-12.231-12.231h-6.637c-6.727,0-12.231,5.504-12.231,12.231v3.067c0,8.167,4.488,16.642,14.849,16.642
									h1.4c0.534,0,1.061-0.038,1.581-0.108C275.453,194.448,273.272,183.862,272.832,181.33z"/>
								<path style="fill:#DBA77F;" d="M271.395,170.008c-2.109-3.702-6.086-6.217-10.629-6.217h-6.637
									c-4.496,0-8.435,2.465-10.56,6.104C255.546,174.611,265.436,172.453,271.395,170.008z"/>
								<path style="fill:#7C592F;" d="M241.527,178.772c0,0-1.918-8.744,0.62-12.355l-1.41-2.144l1.636,0.339l-1.41-2.595
									l2.877,1.128c0,0,2.142-4.914,8.462-4.062c10.042,1.354,20.986-0.733,20.986-0.733s3.103,7.39-1.467,13.596
									c0,0-1.241-3.949-3.498-5.585l0.846,1.918c0,0-10.211,1.523-16.699-2.877c0,0,1.523,2.257,4.852,2.99
									c0,0-3.667,1.298-8.801,0.339v3.836c0,0-3.611,1.128-4.062,5.924L241.527,178.772z"/>
								<path style="fill:#7C592F;" d="M257.591,176.409l-6.483,0.676c0,0-0.573-1.673,1.926-2.001
									c2.499-0.329,3.89-0.545,4.153,0.122C257.45,175.873,257.591,176.409,257.591,176.409z"/>
								<path style="fill:#7C592F;" d="M263.858,176.38l6.483,0.677c0,0,0.573-1.673-1.926-2.001
									c-2.499-0.329-3.89-0.545-4.153,0.122C263.999,175.844,263.858,176.38,263.858,176.38z"/>
								<g>
									<g>
										<path style="fill:#3A2E2E;" d="M253.945,179.556c0,0.803,0.651,1.454,1.454,1.454s1.454-0.651,1.454-1.454
											c0-0.803-0.651-1.454-1.454-1.454S253.945,178.753,253.945,179.556z"/>
									</g>
								</g>
								<g>
									<g>
										<path style="fill:#3A2E2E;" d="M264.828,179.556c0,0.803,0.651,1.454,1.454,1.454c0.803,0,1.454-0.651,1.454-1.454
											c0-0.803-0.651-1.454-1.454-1.454C265.479,178.102,264.828,178.753,264.828,179.556z"/>
									</g>
								</g>
								<g>
									<path style="fill:#8C674D;" d="M261.388,187.947c1.117,0,2.422-0.263,3.931-0.943c0.193-0.087,0.278-0.313,0.191-0.506
										c-0.087-0.192-0.314-0.277-0.506-0.191c-5.96,2.689-8.26-1.577-8.354-1.76c-0.097-0.188-0.328-0.261-0.516-0.163
										c-0.187,0.097-0.261,0.328-0.163,0.515C255.991,184.939,257.61,187.947,261.388,187.947z"/>
								</g>
								<g>
									<path style="fill:#8C674D;" d="M257.058,184.474l-1.6,0.769C255.458,185.243,255.708,183.934,257.058,184.474z"/>
								</g>
								<g>
									<path style="fill:#8C674D;" d="M263.708,184.576c0.106,0,0.211-0.044,0.287-0.129c0.6-0.68,0.807-1.327,0.612-1.922
										c-0.292-0.896-1.399-1.318-1.906-1.467l-0.656-2.931c-0.046-0.206-0.251-0.334-0.457-0.29
										c-0.206,0.046-0.336,0.251-0.29,0.457l0.759,3.395l0.237,0.053c0.376,0.084,1.394,0.432,1.585,1.022
										c0.104,0.319-0.051,0.715-0.459,1.178c-0.14,0.158-0.125,0.4,0.034,0.54C263.528,184.544,263.618,184.576,263.708,184.576z
										"/>
								</g>
								<g>
									<path style="fill:#9E6A32;" d="M273.289,158.35c0,0-2.093,0.399-5.287,0.735c-3.973,2.906-9.711,6.264-15.241,6.501
										c2.428,1.557,5.33,2.329,8.016,2.681c5.057-1.463,9.828-3.842,13.44-5.937C273.961,159.975,273.289,158.35,273.289,158.35z
										"/>
									<path style="fill:#9E6A32;" d="M257.323,168.391c-2.767-0.61-4.269-2.255-4.703-2.799
										c-2.988,0.099-5.909-0.724-8.452-3.035c-0.22,0.35-0.327,0.587-0.327,0.587l-2.877-1.128l1.41,2.595l-1.636-0.339
										l1.41,2.144c-0.102,0.145-0.186,0.311-0.274,0.472c2.062,1.34,4.309,2.13,6.648,2.501v-0.66
										C253.656,169.689,257.323,168.391,257.323,168.391z"/>
								</g>
							</g>
							<g>
								<path style="fill:#EFC09A;" d="M246.51,180.278c0,1.851-1.5,3.351-3.351,3.351c-1.85,0-3.351-1.5-3.351-3.351
									c0-1.85,1.5-3.351,3.351-3.351C245.01,176.927,246.51,178.428,246.51,180.278z"/>
								<path style="fill:#DBA77F;" d="M244.9,180.278c0,0.961-0.779,1.741-1.741,1.741s-1.741-0.779-1.741-1.741
									c0-0.961,0.779-1.741,1.741-1.741S244.9,179.317,244.9,180.278z"/>
							</g>
						</g>
					</g>
					<g>
						<path style="fill:#FFEEA9;" d="M444.857,185.508h-95.044c-4.604,0-8.337-3.733-8.337-8.337l0,0
							c0-4.605,3.733-8.337,8.337-8.337h95.044c4.604,0,8.337,3.732,8.337,8.337l0,0
							C453.194,181.775,449.461,185.508,444.857,185.508z"/>
						<rect x="350.677" y="191.128" style="fill:#FFEEA9;" width="93.316" height="5.218"/>
						<rect x="332.168" y="278.572" style="fill:#3A4968;" width="133.239" height="4.229"/>
						<rect x="332.168" y="289.905" style="fill:#3A4968;" width="133.239" height="4.229"/>
						<rect x="332.168" y="301.239" style="fill:#3A4968;" width="133.239" height="4.229"/>
						<rect x="332.168" y="312.573" style="fill:#3A4968;" width="133.239" height="4.229"/>
						<rect x="332.168" y="323.907" style="fill:#3A4968;" width="133.239" height="4.229"/>
						<rect x="332.168" y="278.572" style="fill:#6AA2E5;" width="124.088" height="4.229"/>
						<rect x="332.168" y="289.905" style="fill:#6AA2E5;" width="44.693" height="4.229"/>
						<rect x="332.168" y="301.239" style="fill:#6AA2E5;" width="68.285" height="4.229"/>
						<rect x="332.168" y="312.573" style="fill:#6AA2E5;" width="97.105" height="4.229"/>
						<rect x="332.168" y="323.907" style="fill:#6AA2E5;" width="9.799" height="4.229"/>
						<g>
							<g>
								<rect x="344.823" y="234.156" style="fill:#FFEEA9;" width="41.536" height="3.283"/>
								<rect x="344.823" y="239.87" style="fill:#FFEEA9;" width="24.131" height="3.283"/>
								<path style="fill:#6AA2E5;" d="M341.826,239.111c0,2.887-2.34,5.227-5.227,5.227c-2.887,0-5.227-2.34-5.227-5.227
									c0-2.887,2.34-5.227,5.227-5.227C339.486,233.884,341.826,236.224,341.826,239.111z"/>
							</g>
							<g>
								<rect x="344.823" y="255.272" style="fill:#FFEEA9;" width="41.536" height="3.283"/>
								<rect x="344.823" y="260.987" style="fill:#FFEEA9;" width="24.131" height="3.283"/>
								<path style="fill:#6AA2E5;" d="M341.826,260.228c0,2.887-2.34,5.227-5.227,5.227c-2.887,0-5.227-2.34-5.227-5.227
									c0-2.887,2.34-5.227,5.227-5.227C339.486,255.001,341.826,257.341,341.826,260.228z"/>
							</g>
							<g>
								<rect x="421.762" y="234.156" style="fill:#FFEEA9;" width="41.536" height="3.283"/>
								<rect x="421.762" y="239.87" style="fill:#FFEEA9;" width="24.131" height="3.283"/>
								<path style="fill:#6AA2E5;" d="M418.765,239.111c0,2.887-2.34,5.227-5.227,5.227c-2.887,0-5.227-2.34-5.227-5.227
									c0-2.887,2.34-5.227,5.227-5.227C416.425,233.884,418.765,236.224,418.765,239.111z"/>
							</g>
							<g>
								<rect x="421.762" y="255.272" style="fill:#FFEEA9;" width="41.536" height="3.283"/>
								<rect x="421.762" y="260.987" style="fill:#FFEEA9;" width="24.131" height="3.283"/>
								<path style="fill:#6AA2E5;" d="M418.765,260.228c0,2.887-2.34,5.227-5.227,5.227c-2.887,0-5.227-2.34-5.227-5.227
									c0-2.887,2.34-5.227,5.227-5.227C416.425,255.001,418.765,257.341,418.765,260.228z"/>
							</g>
						</g>
						<g>
							<g>
								<polygon style="fill:#D38009;" points="352.226,208.951 349.397,204.823 346.567,208.951 341.766,210.367 344.818,214.333 
									344.681,219.337 349.397,217.66 354.113,219.337 353.975,214.333 357.027,210.367 								"/>
								<polygon style="fill:#D38009;" points="380.997,210.367 376.195,208.951 373.385,204.85 373.366,204.823 370.536,208.951 
									365.735,210.367 368.788,214.333 368.65,219.337 373.366,217.66 373.385,217.667 378.082,219.337 377.944,214.333 								
									"/>
								<polygon style="fill:#D38009;" points="400.165,208.951 397.335,204.823 394.506,208.951 389.704,210.367 392.757,214.333 
									392.619,219.337 397.335,217.66 402.051,219.337 401.914,214.333 404.966,210.367 								"/>
								<polygon style="fill:#D38009;" points="424.134,208.951 421.305,204.823 418.475,208.951 413.674,210.367 416.726,214.333 
									416.588,219.337 421.305,217.66 426.021,219.337 425.883,214.333 428.935,210.367 								"/>
								<polygon style="fill:#3A4968;" points="452.905,210.367 448.103,208.951 445.274,204.823 442.444,208.951 437.643,210.367 
									440.695,214.333 440.558,219.337 445.274,217.66 449.99,219.337 449.852,214.333 								"/>
							</g>
							<g>
								<g>
									<path style="fill:#FFEEA9;" d="M354.608,220.019l-5.212-1.854l-5.212,1.853l0.152-5.529l-3.373-4.384l5.306-1.564
										l3.128-4.563l3.127,4.563l5.306,1.564l-3.373,4.384L354.608,220.019z M342.568,210.627l2.731,3.55l-0.123,4.477l4.22-1.501
										l4.22,1.501l-0.123-4.477l2.732-3.55l-4.296-1.267l-2.532-3.695l-2.532,3.695L342.568,210.627z"/>
								</g>
								<g>
									<path style="fill:#FFEEA9;" d="M368.154,220.019l0.152-5.529l-3.373-4.384l5.306-1.564l3.127-4.563l3.127,4.563
										l5.306,1.564l-3.373,4.384l0.152,5.529l-5.212-1.853L368.154,220.019z M373.366,217.153l4.22,1.501l-0.123-4.477
										l2.731-3.55l-4.297-1.267l-2.532-3.695l-2.532,3.695l-4.296,1.267l2.731,3.55l-0.123,4.477L373.366,217.153z"/>
								</g>
								<g>
									<path style="fill:#FFEEA9;" d="M402.547,220.019l-5.212-1.853l-5.212,1.853l0.152-5.529l-3.373-4.384l5.306-1.564
										l3.127-4.563l3.127,4.563l5.306,1.564l-3.373,4.384L402.547,220.019z M390.507,210.627l2.732,3.55l-0.123,4.477l4.22-1.501
										l4.22,1.501l-0.123-4.477l2.731-3.55l-4.296-1.267l-2.532-3.695l-2.532,3.695L390.507,210.627z"/>
								</g>
								<g>
									<path style="fill:#FFEEA9;" d="M426.516,220.019l-5.212-1.853l-5.212,1.853l0.152-5.529l-3.373-4.384l5.306-1.564
										l3.128-4.563l3.127,4.563l5.306,1.564l-3.373,4.384L426.516,220.019z M421.305,217.153l4.22,1.501l-0.123-4.477l2.731-3.55
										l-4.296-1.267l-2.532-3.695l-2.532,3.695l-4.296,1.267l2.732,3.55l-0.123,4.477L421.305,217.153z"/>
								</g>
								<g>
									<path style="fill:#FFEEA9;" d="M450.485,220.019l-5.211-1.854l-5.212,1.853l0.152-5.529l-3.373-4.384l5.306-1.564
										l3.128-4.563l3.126,4.563l5.306,1.564l-3.373,4.384L450.485,220.019z M438.445,210.627l2.731,3.55l-0.123,4.477l4.22-1.501
										l4.22,1.501l-0.124-4.477l2.732-3.55l-4.297-1.267l-2.532-3.695l-2.533,3.695L438.445,210.627z"/>
								</g>
							</g>
						</g>
						<g>
							<path style="fill:#FFDDA6;" d="M465.883,283.277H331.691v-5.182h134.193V283.277z M332.644,282.323H464.93v-3.275H332.644
								V282.323z"/>
						</g>
						<g>
							<path style="fill:#FFDDA6;" d="M465.883,294.611H331.691v-5.182h134.193V294.611z M332.644,293.657H464.93v-3.275H332.644
								V293.657z"/>
						</g>
						<g>
							<path style="fill:#FFDDA6;" d="M465.883,305.945H331.691v-5.182h134.193V305.945z M332.644,304.991H464.93v-3.275H332.644
								V304.991z"/>
						</g>
						<g>
							<path style="fill:#FFDDA6;" d="M465.883,317.279H331.691v-5.182h134.193V317.279z M332.644,316.325H464.93v-3.275H332.644
								V316.325z"/>
						</g>
						<g>
							<path style="fill:#FFDDA6;" d="M465.883,328.613H331.691v-5.182h134.193V328.613z M332.644,327.659H464.93v-3.275H332.644
								V327.659z"/>
						</g>
					</g>
				</g>
				<g>
					<polygon style="fill:#FFFFFF;" points="180.033,233.587 164.997,248.622 180.033,263.657 182.367,261.323 169.665,248.622 
						182.367,235.92 					"/>
					<polygon style="fill:#FFFFFF;" points="490.56,233.587 488.226,235.92 500.928,248.622 488.226,261.323 490.56,263.657 
						505.595,248.622 					"/>
				</g>
				<g>
					<g>
						<path style="fill:#FFFFFF;" d="M338.106,100.931h-51.556c-6.873,0-12.444,5.572-12.444,12.444v25.778
							c0,6.573,5.099,11.942,11.556,12.4v13.971l13.926-13.926h38.518c6.873,0,12.444-5.571,12.444-12.444v-25.778
							C350.551,106.502,344.979,100.931,338.106,100.931z"/>
						<path style="fill:#E4EAF4;" d="M299.588,151.597h38.518c6.873,0,12.444-5.571,12.444-12.444V121.62
							c-25.791,20.761-57.581,26.105-76.444,14.016v3.517c0,6.573,5.099,11.942,11.556,12.4v13.971L299.588,151.597z"/>
					</g>
					<g>
						<path style="fill:#3A4968;" d="M285.514,118.116L285.514,118.116c0,1.105,0.895,2,2,2h51.333c1.105,0,2-0.895,2-2l0,0
							c0-1.105-0.895-2-2-2h-51.333C286.409,116.116,285.514,117.011,285.514,118.116z"/>
						<path style="fill:#3A4968;" d="M287.514,128.56h51.333c1.105,0,2-0.896,2-2l0,0c0-1.105-0.895-2-2-2h-51.333
							c-1.105,0-2,0.895-2,2l0,0C285.514,127.665,286.409,128.56,287.514,128.56z"/>
						<path style="fill:#3A4968;" d="M287.514,137.005h51.333c1.105,0,2-0.895,2-2l0,0c0-1.105-0.895-2-2-2h-51.333
							c-1.105,0-2,0.895-2,2l0,0C285.514,136.109,286.409,137.005,287.514,137.005z"/>
					</g>
				</g>
			</g>
		</g>
		<g>
			<path style="fill:#323244;" d="M605.438,190.613c16.433-4.718,31.402,2.766,31.564,20.5c0.163,17.735,21.802,36.12,13.504,57.759
				c-5.947,15.508-22.941,20.012-38.723,11.226c-15.782-8.786-24.405-17.409-18.06-33.191
				C600.068,231.126,579.08,201.352,605.438,190.613z"/>
			<g>
				<g>
					<g>
						<rect x="598.2" y="303.215" style="fill:#B27D56;" width="9.163" height="96.177"/>
					</g>
					<path style="fill:#8C674D;" d="M607.363,374.271v-40.549H598.2v41.602C601.286,375.364,604.35,374.981,607.363,374.271z"/>
					<rect x="597.456" y="381.544" style="fill:#F6F4FF;" width="10.651" height="18.788"/>
					<path style="fill:#322E3F;" d="M606.48,396.573h-9.229c-4.746,0-8.593,3.847-8.593,8.593v2.163h21.303v-7.274
						C609.961,398.132,608.402,396.573,606.48,396.573z"/>
					<rect x="596.829" y="387.488" style="fill:#322E3F;" width="12.636" height="13.471"/>
					<path style="fill:#DCDAED;" d="M609.862,408.634H588.81c-0.543,0-0.987-0.444-0.987-0.987v-0.297
						c0-0.543,0.444-0.987,0.987-0.987h21.052c0.543,0,0.987,0.444,0.987,0.987v0.297
						C610.849,408.19,610.405,408.634,609.862,408.634z"/>
				</g>
				<g>
					<g>
						<rect x="617.968" y="303.215" style="fill:#B27D56;" width="9.163" height="96.177"/>
					</g>
					<path style="fill:#8C674D;" d="M627.132,374.271v-40.549h-9.163v41.602C621.054,375.364,624.118,374.981,627.132,374.271z"/>
					<rect x="617.224" y="381.544" style="fill:#F6F4FF;" width="10.651" height="18.788"/>
					<path style="fill:#322E3F;" d="M626.248,396.573h-9.229c-4.745,0-8.593,3.847-8.593,8.593v2.163h21.303v-7.274
						C629.73,398.132,628.171,396.573,626.248,396.573z"/>
					<rect x="616.598" y="387.488" style="fill:#322E3F;" width="12.636" height="13.471"/>
					<path style="fill:#DCDAED;" d="M629.63,408.634h-21.052c-0.543,0-0.987-0.444-0.987-0.987v-0.297
						c0-0.543,0.444-0.987,0.987-0.987h21.052c0.543,0,0.987,0.444,0.987,0.987v0.297
						C630.617,408.19,630.173,408.634,629.63,408.634z"/>
				</g>
				<path style="fill:#607FD8;" d="M630.834,367.633h-37.098v-69.704c0-8.904,7.218-16.121,16.121-16.121h4.856
					c8.904,0,16.121,7.218,16.121,16.121V367.633z"/>
			</g>
			<g>
				<g>
					<path style="fill:#B27D56;" d="M559.591,248.465c-0.001,0.001-0.002,0.001-0.003,0.002c-2.642,2.61-9.2,2.365-10.583-2.103
						c-1.526-4.932-3.254-12.203,2.786-12.77c4.598-0.431,6.697,3.458,7.654,7.249c0.455-1.496,1.143-2.651,2.182-2.531
						C564.416,238.635,561.141,247.43,559.591,248.465z"/>
					<path style="fill:none;stroke:#B27D56;stroke-width:7;stroke-linecap:round;stroke-miterlimit:10;" d="M596.503,244.61
						c0,0-18.887,69.575-41.096,3.193"/>
					<path style="fill:#FFFFFF;" d="M593.44,240.262c0,0-6.193,5.15-9.039,17.44l11.575,4.714l3.866-12.115
						C599.842,250.301,604.307,238.132,593.44,240.262z"/>
				</g>
				<g>
					<path style="fill:#FFFFFF;" d="M611.245,233.593c10.642,0,21.139,7.144,24.346,10.643l-7.564,22.884l3.606,28.436
						c0,0-24.567,3.35-39.34-0.344l2.721-26.825l-0.972-28.574C594.042,239.814,597.93,235.148,611.245,233.593z"/>
					<path style="fill:#C9D5E2;" d="M601.9,238.043c0,2.999,4.287,5.43,9.576,5.43c5.289,0,9.576-2.431,9.576-5.43
						s-4.287-5.431-9.576-5.431C606.187,232.612,601.9,235.043,601.9,238.043z"/>
					<path style="fill:#C9D5E2;" d="M594.236,244.284l2.041,26.63l-2.624,22.354c0,0,5.548,2.837,16.168,3.574
						c-5.878,0.073-12.186-0.294-17.529-1.63l2.721-26.825l-0.818-24.039C594.221,244.31,594.236,244.284,594.236,244.284z"/>
				</g>
				<g>
					<path style="fill:#B27D56;" d="M631.342,312.266c0.001,0,0.002,0,0.003,0.001c3.713,0.047,8.146,4.887,5.937,9.01
						c-2.439,4.55-6.401,10.887-11.046,6.986c-3.537-2.97-2.243-7.195-0.217-10.54c-1.384,0.727-2.69,1.048-3.334,0.224
						C620.956,315.737,629.517,311.89,631.342,312.266z"/>
					<path style="fill:none;stroke:#B27D56;stroke-width:7;stroke-linecap:round;stroke-miterlimit:10;" d="M631.191,247.247
						c0,0,13.391,15.947,2.256,67.375"/>
					<path style="fill:#FFFFFF;" d="M634.253,242.899c0,0,6.193,5.15,9.039,17.44l-11.575,4.714l-3.866-12.115
						C627.852,252.938,623.387,240.769,634.253,242.899z"/>
				</g>
			</g>
			<g>
				<path style="fill:#B27D56;" d="M611.587,223c3.517,0,6.394,2.877,6.394,6.394v4.434c0,3.517-2.877,6.394-6.394,6.394
					s-6.394-2.877-6.394-6.394v-4.434C605.193,225.877,608.07,223,611.587,223z"/>
				<path style="fill:#8C674D;" d="M611.587,223c3.517,0,6.394,2.877,6.394,6.394v1.584c-5.188,2.378-9.451,3.213-12.764,3.317
					c-0.011-0.155-0.024-0.309-0.024-0.467v-4.434C605.193,225.877,608.07,223,611.587,223z"/>
				<g>
					<g>
						<path style="fill:#B27D56;" d="M590.592,211.719c0,2.165,1.755,3.92,3.92,3.92c2.165,0,3.92-1.755,3.92-3.92
							c0-2.165-1.755-3.92-3.92-3.92C592.347,207.799,590.592,209.554,590.592,211.719z"/>
						<path style="fill:#8C674D;" d="M592.475,211.719c0,1.125,0.912,2.036,2.036,2.036c1.125,0,2.036-0.912,2.036-2.036
							s-0.912-2.036-2.036-2.036C593.387,209.683,592.475,210.595,592.475,211.719z"/>
					</g>
					<circle style="fill:#FFFFFF;" cx="593.52" cy="215.995" r="1.302"/>
					<path style="fill:#B27D56;" d="M594.294,213.273c-0.126-0.868-0.192-1.74-0.192-2.61v-3.572c0-7.835,6.41-14.245,14.244-14.245
						h7.73c7.835,0,14.244,6.41,14.244,14.245v3.572c0,9.512-5.228,19.382-17.294,19.382h-1.631c-0.622,0-1.236-0.044-1.842-0.126
						C591.241,228.55,593.781,216.222,594.294,213.273z"/>
					<g>
						<g>
							<circle style="fill:#3A2E2E;" cx="614.596" cy="211.207" r="1.693"/>
						</g>
					</g>
					<g>
						<g>
							<path style="fill:#3A2E2E;" d="M603.615,211.207c0,0.935-0.758,1.693-1.693,1.693c-0.935,0-1.693-0.758-1.693-1.693
								c0-0.935,0.758-1.693,1.693-1.693C602.857,209.513,603.615,210.272,603.615,211.207z"/>
						</g>
					</g>
					<g>
						<path style="fill:#8C674D;" d="M607.622,220.979c-1.301,0-2.821-0.306-4.578-1.098c-0.224-0.101-0.324-0.365-0.223-0.589
							c0.101-0.224,0.366-0.323,0.589-0.223c6.942,3.132,9.619-1.837,9.73-2.049c0.113-0.219,0.381-0.304,0.601-0.19
							c0.218,0.113,0.303,0.382,0.19,0.6C613.907,217.476,612.021,220.979,607.622,220.979z"/>
					</g>
					<g>
						<path style="fill:#8C674D;" d="M612.665,216.934l1.863,0.895C614.528,217.829,614.237,216.305,612.665,216.934z"/>
					</g>
					<g>
						<path style="fill:#8C674D;" d="M604.92,217.053c-0.123,0-0.246-0.051-0.334-0.151c-0.699-0.793-0.939-1.546-0.713-2.238
							c0.34-1.043,1.63-1.535,2.22-1.709l0.764-3.414c0.054-0.24,0.292-0.389,0.532-0.338c0.24,0.054,0.391,0.292,0.338,0.532
							l-0.884,3.954l-0.276,0.062c-0.438,0.098-1.623,0.503-1.846,1.19c-0.121,0.371,0.059,0.833,0.535,1.372
							c0.163,0.184,0.145,0.466-0.039,0.629C605.13,217.016,605.024,217.053,604.92,217.053z"/>
					</g>
					<path style="fill:#3A2E2E;" d="M615.352,210.158l1.937-0.686c0,0-0.183,1.419-1.312,1.708
						C614.849,211.47,615.352,210.158,615.352,210.158z"/>
					<path style="fill:#272738;" d="M612.424,206.253c0,0,4.759,0.214,7.047,2.38c0,0-0.793-3.478-4.942-4.027
						C611.946,204.264,612.424,206.253,612.424,206.253z"/>
					<path style="fill:#3A2E2E;" d="M601.254,210.158l-1.937-0.686c0,0,0.183,1.419,1.312,1.708
						C601.757,211.47,601.254,210.158,601.254,210.158z"/>
					<path style="fill:#272738;" d="M604.182,206.253c0,0-4.759,0.214-7.047,2.38c0,0,0.793-3.478,4.942-4.027
						C604.66,204.264,604.182,206.253,604.182,206.253z"/>
				</g>
				<path style="fill:#323244;" d="M593.113,206.619c16.108-1.22,16.962-12.447,16.962-12.447s1.83,9.701,10.982,12.752
					c0,0-4.515-3.234-6.04-8.298c0,0,2.929,6.65,10.128,9.274c0,0,1.525,3.234,4.149,4.21h2.38c0,0,1.403-8.725-4.332-14.643
					c-5.735-5.918-13.789-5.308-13.789-5.308S595.98,188.925,593.113,206.619z"/>
				<g>
					<path style="fill:#B27D56;" d="M624.95,212.047c0,2.155,1.747,3.902,3.902,3.902c2.155,0,3.902-1.747,3.902-3.902
						c0-2.155-1.747-3.902-3.902-3.902C626.697,208.145,624.95,209.892,624.95,212.047z"/>
					<path style="fill:#8C674D;" d="M626.825,212.047c0,1.12,0.908,2.027,2.027,2.027c1.12,0,2.027-0.908,2.027-2.027
						c0-1.119-0.908-2.027-2.027-2.027C627.732,210.02,626.825,210.928,626.825,212.047z"/>
				</g>
				<g>
					<path style="fill:#56567A;" d="M627.341,197.467c-1.594-1.644-3.364-2.772-5.093-3.561c-3.082,1.418-6.998,2.918-11.031,3.672
						c0.524,1.187,1.263,2.555,2.295,3.903c0.842-0.132,1.683-0.273,2.52-0.422c-0.4-0.754-0.754-1.565-1.015-2.434
						c0,0,0.443,0.997,1.395,2.366c4.204-0.758,8.283-1.693,11.761-2.573C627.91,198.097,627.641,197.776,627.341,197.467z"/>
					<path style="fill:#56567A;" d="M608.888,197.917c-3.75,0.404-7.474,0.033-10.594-1.789c-1.519,1.389-2.854,3.232-3.841,5.64
						c2.945,0.772,6.695,0.911,10.758,0.657C607.028,200.96,608.173,199.336,608.888,197.917z"/>
				</g>
				<path style="fill:#FFFFFF;" d="M630.738,215.995c0,0.719-0.583,1.302-1.302,1.302c-0.719,0-1.302-0.583-1.302-1.302
					c0-0.719,0.583-1.302,1.302-1.302C630.155,214.693,630.738,215.276,630.738,215.995z"/>
			</g>
			<g>
				<g>
					<path style="fill:#FFFFFF;" d="M508.426,140.338h56.62c7.548,0,13.667,6.119,13.667,13.667v28.31
						c0,7.219-5.6,13.115-12.691,13.618v15.343l-15.294-15.294h-42.303c-7.548,0-13.667-6.119-13.667-13.667v-28.31
						C494.759,146.457,500.878,140.338,508.426,140.338z"/>
					<path style="fill:#E4EAF4;" d="M550.729,195.982h-42.303c-7.548,0-13.667-6.119-13.667-13.667V163.06
						c28.325,22.801,63.237,28.669,83.954,15.393v3.862c0,7.219-5.6,13.115-12.691,13.618v15.343L550.729,195.982z"/>
				</g>
				<g>
					<path style="fill:#3A4968;" d="M566.186,159.212L566.186,159.212c0,1.213-0.983,2.197-2.197,2.197h-56.376
						c-1.213,0-2.197-0.983-2.197-2.197l0,0c0-1.213,0.983-2.197,2.197-2.197h56.376
						C565.202,157.015,566.186,157.998,566.186,159.212z"/>
					<path style="fill:#3A4968;" d="M563.989,170.682h-56.376c-1.213,0-2.197-0.983-2.197-2.196l0,0
						c0-1.213,0.983-2.196,2.197-2.196h56.376c1.213,0,2.197,0.983,2.197,2.196l0,0
						C566.186,169.699,565.202,170.682,563.989,170.682z"/>
					<path style="fill:#3A4968;" d="M563.989,179.956h-56.376c-1.213,0-2.197-0.983-2.197-2.197l0,0
						c0-1.213,0.983-2.196,2.197-2.196h56.376c1.213,0,2.197,0.983,2.197,2.196l0,0
						C566.186,178.973,565.202,179.956,563.989,179.956z"/>
				</g>
			</g>
		</g>
	</g>
</g>
</svg>
