<?xml version="1.0" encoding="utf-8"?>
<!-- Generator: Adobe Illustrator 27.5.0, SVG Export Plug-In . SVG Version: 6.00 Build 0)  -->
<svg version="1.1" xmlns="http://www.w3.org/2000/svg" xmlns:xlink="http://www.w3.org/1999/xlink" x="0px" y="0px"
	 viewBox="0 0 500 500" style="enable-background:new 0 0 500 500;" xml:space="preserve">
<g id="Background_Simple">
	<g>
		<path style="fill:#C6FF00;" d="M426.528,388.051c0,0,29.627-69.624,16.295-158.506c-4.558-30.385-13.939-63.24-36.284-86.066
			c-31.029-31.697-83.423-47.336-126.28-34.704c-38.165,11.249-64.763,41.268-96.676,62.996
			c-34.812,23.702-68.143,5.925-108.881,40.738c-40.738,34.812-32.59,97.03-23.702,119.25c8.888,22.221,21.046,44.817,56.445,54.628
			L426.528,388.051z"/>
		<path style="opacity:0.7;fill:#FFFFFF;" d="M426.528,388.051c0,0,29.627-69.624,16.295-158.506
			c-4.558-30.385-13.939-63.24-36.284-86.066c-31.029-31.697-83.423-47.336-126.28-34.704
			c-38.165,11.249-64.763,41.268-96.676,62.996c-34.812,23.702-68.143,5.925-108.881,40.738
			c-40.738,34.812-32.59,97.03-23.702,119.25c8.888,22.221,21.046,44.817,56.445,54.628L426.528,388.051z"/>
	</g>
</g>
<g id="Store">
	<g>
		
			<rect x="107.446" y="188.338" style="fill:#FFFFFF;stroke:#263238;stroke-linecap:round;stroke-linejoin:round;stroke-miterlimit:10;" width="292.504" height="198.05"/>
		
			<rect x="298.119" y="194.065" style="fill:#FFFFFF;stroke:#263238;stroke-linecap:round;stroke-linejoin:round;stroke-miterlimit:10;" width="98.764" height="162.291"/>
		
			<rect x="110.619" y="194.065" style="fill:#FFFFFF;stroke:#263238;stroke-linecap:round;stroke-linejoin:round;stroke-miterlimit:10;" width="98.764" height="162.291"/>
		<polygon style="fill:#263238;stroke:#263238;stroke-linecap:round;stroke-linejoin:round;stroke-miterlimit:10;" points="
			396.883,246.5 298.119,281 298.119,194.065 396.883,194.065 		"/>
		<polygon style="fill:#263238;stroke:#263238;stroke-linecap:round;stroke-linejoin:round;stroke-miterlimit:10;" points="
			209.383,246.5 110.619,287.5 110.619,194.065 209.383,194.065 		"/>
		
			<rect x="213.327" y="188.338" style="fill:#C6FF00;stroke:#263238;stroke-linecap:round;stroke-linejoin:round;stroke-miterlimit:10;" width="80.743" height="198.05"/>
		<path style="fill:#FFFFFF;stroke:#263238;stroke-linecap:round;stroke-linejoin:round;stroke-miterlimit:10;" d="M217.897,296.503
			H289.5v82.411h-71.603V296.503z M217.897,195.811v82.411H289.5v-82.411H217.897z"/>
		<g>
			<polygon style="fill:#263238;" points="289.5,369.511 289.5,359.364 239.202,378.914 264.906,378.914 			"/>
			<g>
				<polygon style="fill:#263238;" points="217.897,254.275 289.5,223.035 289.5,195.811 217.897,195.811 				"/>
				<polygon style="fill:#263238;" points="260.72,278.222 289.5,267.218 289.5,258.119 237.778,278.222 				"/>
			</g>
			<g>
				<polygon style="fill:#263238;" points="217.897,366.766 289.5,337.399 289.5,296.503 217.897,296.503 				"/>
			</g>
		</g>
		<g>
			<polygon style="fill:#C6FF00;stroke:#263238;stroke-linecap:round;stroke-linejoin:round;stroke-miterlimit:10;" points="
				405,192.107 103.371,192.107 133.534,138.697 374.837,138.697 			"/>
			<path style="fill:#FFFFFF;stroke:#263238;stroke-linecap:round;stroke-linejoin:round;stroke-miterlimit:10;" d="M103.37,192.253
				c-0.024,0.368-0.056,0.735-0.056,1.109c0,9.231,7.483,16.714,16.714,16.714c9.231,0,16.714-7.483,16.714-16.714
				c0-0.374-0.032-0.741-0.056-1.109H103.37z"/>
			<path style="fill:#C6FF00;stroke:#263238;stroke-linecap:round;stroke-linejoin:round;stroke-miterlimit:10;" d="M136.87,192.253
				c-0.024,0.368-0.056,0.735-0.056,1.109c0,9.231,7.483,16.714,16.714,16.714c9.231,0,16.714-7.483,16.714-16.714
				c0-0.374-0.032-0.741-0.056-1.109H136.87z"/>
			<path style="fill:#FFFFFF;stroke:#263238;stroke-linecap:round;stroke-linejoin:round;stroke-miterlimit:10;" d="M170.37,192.253
				c-0.024,0.368-0.056,0.735-0.056,1.109c0,9.231,7.483,16.714,16.714,16.714c9.231,0,16.714-7.483,16.714-16.714
				c0-0.374-0.032-0.741-0.056-1.109H170.37z"/>
			<path style="fill:#C6FF00;stroke:#263238;stroke-linecap:round;stroke-linejoin:round;stroke-miterlimit:10;" d="M203.87,192.253
				c-0.024,0.368-0.056,0.735-0.056,1.109c0,9.231,7.483,16.714,16.714,16.714c9.231,0,16.714-7.483,16.714-16.714
				c0-0.374-0.032-0.741-0.056-1.109H203.87z"/>
			<path style="fill:#FFFFFF;stroke:#263238;stroke-linecap:round;stroke-linejoin:round;stroke-miterlimit:10;" d="M237.37,192.253
				c-0.024,0.368-0.056,0.735-0.056,1.109c0,9.231,7.483,16.714,16.714,16.714c9.231,0,16.714-7.483,16.714-16.714
				c0-0.374-0.032-0.741-0.056-1.109H237.37z"/>
			<path style="fill:#C6FF00;stroke:#263238;stroke-linecap:round;stroke-linejoin:round;stroke-miterlimit:10;" d="M270.87,192.253
				c-0.024,0.368-0.056,0.735-0.056,1.109c0,9.231,7.483,16.714,16.714,16.714c9.231,0,16.714-7.483,16.714-16.714
				c0-0.374-0.032-0.741-0.056-1.109H270.87z"/>
			<path style="fill:#FFFFFF;stroke:#263238;stroke-linecap:round;stroke-linejoin:round;stroke-miterlimit:10;" d="M304.37,192.253
				c-0.024,0.368-0.056,0.735-0.056,1.109c0,9.231,7.483,16.714,16.714,16.714c9.231,0,16.714-7.483,16.714-16.714
				c0-0.374-0.032-0.741-0.056-1.109H304.37z"/>
			<path style="fill:#C6FF00;stroke:#263238;stroke-linecap:round;stroke-linejoin:round;stroke-miterlimit:10;" d="M337.87,192.253
				c-0.024,0.368-0.056,0.735-0.056,1.109c0,9.231,7.483,16.714,16.714,16.714c9.231,0,16.714-7.483,16.714-16.714
				c0-0.374-0.032-0.741-0.056-1.109H337.87z"/>
			<path style="fill:#FFFFFF;stroke:#263238;stroke-linecap:round;stroke-linejoin:round;stroke-miterlimit:10;" d="M371.37,192.253
				c-0.024,0.368-0.056,0.735-0.056,1.109c0,9.231,7.483,16.714,16.714,16.714c9.231,0,16.714-7.483,16.714-16.714
				c0-0.374-0.032-0.741-0.056-1.109H371.37z"/>
		</g>
		<g>
			<polyline style="fill:none;stroke:#FFFFFF;stroke-linecap:round;stroke-linejoin:round;stroke-miterlimit:10;" points="
				229.628,232.777 253.781,219.782 277.769,232.777 			"/>
			<path style="fill:#FFFFFF;stroke:#263238;stroke-linecap:round;stroke-linejoin:round;stroke-miterlimit:10;" d="
				M256.136,219.782c0-1.301-1.055-2.355-2.355-2.355c-1.301,0-2.355,1.055-2.355,2.355c0,1.301,1.054,2.355,2.355,2.355
				C255.082,222.137,256.136,221.083,256.136,219.782z"/>
		</g>
		
			<rect x="229.628" y="232.777" style="fill:#C6FF00;stroke:#263238;stroke-linecap:round;stroke-linejoin:round;stroke-miterlimit:10;" width="48.141" height="23.823"/>
		<text transform="matrix(1 0 0 1 235.6527 248.0978)" style="fill:#263238; font-family:'ChunkFive-Roman'; font-size:10.2274px;">OPENED</text>
		<g>
			
				<circle style="fill:#FFFFFF;stroke:#263238;stroke-linecap:round;stroke-linejoin:round;stroke-miterlimit:10;" cx="286.581" cy="288.481" r="4.898"/>
			
				<circle style="fill:#FFFFFF;stroke:#263238;stroke-linecap:round;stroke-linejoin:round;stroke-miterlimit:10;" cx="286.581" cy="288.481" r="1.249"/>
		</g>
	</g>
</g>
<g id="Ground">
	<path style="fill:#263238;" d="M435.032,391.667H72.365c-1.841,0-3.333-1.492-3.333-3.333l0,0c0-1.841,1.492-3.333,3.333-3.333
		h362.667c1.841,0,3.333,1.492,3.333,3.333l0,0C438.365,390.174,436.873,391.667,435.032,391.667z"/>
</g>
<g id="Plants">
	<g>
		<g>
			<g>
				<path style="fill:#C6FF00;" d="M127.424,232.571v6.739h-2.111v-7.389c0-1.749-1.418-3.167-3.167-3.167l0,0
					c-1.749,0-3.167,1.418-3.167,3.167v9.176h-1.949v-4.872c0-1.256-1.018-2.274-2.273-2.274h0c-1.256,0-2.274,1.018-2.274,2.274
					v4.872v2.598l0,0c0,0.807,0.654,1.462,1.462,1.462h5.034v5.522h6.334v-7.146h4.385c0.987,0,1.786-0.8,1.786-1.786l0,0v-2.436
					v-6.739c0-1.121-0.909-2.03-2.03-2.03l0,0C128.333,230.541,127.424,231.45,127.424,232.571z"/>
				<g>
					
						<rect x="116.646" y="250.235" style="fill:#FFFFFF;stroke:#263238;stroke-linecap:round;stroke-linejoin:round;stroke-miterlimit:10;" width="11.129" height="10.319"/>
					
						<rect x="115.984" y="247.79" style="fill:#FFFFFF;stroke:#263238;stroke-linecap:round;stroke-linejoin:round;stroke-miterlimit:10;" width="12.454" height="3.322"/>
				</g>
			</g>
			<g>
				<polygon style="fill:#C6FF00;" points="124.285,288.572 120.224,282.076 122.931,282.346 122.66,278.557 125.638,282.346 
					125.908,270.708 128.074,278.286 130.78,268.543 131.592,279.91 137.006,274.227 133.216,283.158 137.006,281.805 
					129.698,289.925 				"/>
				<g>
					<g>
						
							<rect x="122.21" y="289.454" style="fill:#FFFFFF;stroke:#263238;stroke-linecap:round;stroke-linejoin:round;stroke-miterlimit:10;" width="11.129" height="10.319"/>
						
							<rect x="121.548" y="287.009" style="fill:#FFFFFF;stroke:#263238;stroke-linecap:round;stroke-linejoin:round;stroke-miterlimit:10;" width="12.454" height="3.322"/>
					</g>
				</g>
			</g>
			<g>
				<polygon style="fill:#C6FF00;" points="181.936,288.572 177.876,282.076 180.583,282.346 180.312,278.557 183.289,282.346 
					183.56,270.708 185.725,278.286 188.432,268.543 189.244,279.91 194.657,274.227 190.868,283.158 194.657,281.805 
					187.35,289.925 				"/>
				<g>
					<g>
						
							<rect x="179.862" y="289.454" style="fill:#FFFFFF;stroke:#263238;stroke-linecap:round;stroke-linejoin:round;stroke-miterlimit:10;" width="11.129" height="10.319"/>
						
							<rect x="179.2" y="287.009" style="fill:#FFFFFF;stroke:#263238;stroke-linecap:round;stroke-linejoin:round;stroke-miterlimit:10;" width="12.454" height="3.322"/>
					</g>
				</g>
			</g>
			<g>
				<path style="fill:#C6FF00;" d="M153.787,287.218c0,0-2.707,0-5.684-0.541c-2.977-0.541-3.519-2.436-2.165-2.977
					c1.353-0.541,5.955,0.271,5.955,0.271s-5.955,0-6.767-3.519c-0.812-3.519,2.165-3.248,2.977-2.436
					c0.812,0.812,2.977,2.436,2.977,2.436s-4.601-4.601-4.601-7.308c0-2.707,2.977-2.436,3.789-0.812
					c0.812,1.624,2.707,6.496,2.707,6.496s-2.977-8.661,0.812-7.308c3.789,1.353,2.977,5.413,2.977,6.225c0,0.812,0,3.519,0,3.519
					s3.789-7.308,5.143-5.684c1.353,1.624-1.895,4.601-1.895,4.601s1.895-7.037,6.496-6.767c4.601,0.271,0.271,3.519-0.541,4.872
					c-0.812,1.353-4.331,4.331-4.331,4.331s7.849-3.519,11.639-3.519c3.789,0,0.271,4.331-1.895,4.601
					c-2.165,0.271-6.225,0.812-6.225,0.812s5.413,2.436,3.248,2.977s-7.579-0.541-7.579-0.541L153.787,287.218z"/>
				<g>
					<g>
						
							<rect x="151.442" y="289.454" style="fill:#FFFFFF;stroke:#263238;stroke-linecap:round;stroke-linejoin:round;stroke-miterlimit:10;" width="11.129" height="10.319"/>
						
							<rect x="150.78" y="287.009" style="fill:#FFFFFF;stroke:#263238;stroke-linecap:round;stroke-linejoin:round;stroke-miterlimit:10;" width="12.454" height="3.322"/>
					</g>
				</g>
			</g>
			<g>
				<path style="fill:#C6FF00;" d="M170.538,237.266v4.992h1.564v-5.473c0-1.296,1.05-2.346,2.346-2.346l0,0
					c1.296,0,2.346,1.05,2.346,2.346v6.797h1.444v-3.609c0-0.93,0.754-1.684,1.684-1.684l0,0c0.93,0,1.684,0.754,1.684,1.684v3.609
					v1.925l0,0c0,0.598-0.485,1.083-1.083,1.083h-3.729v4.09h-4.691v-5.293h-3.248c-0.731,0-1.323-0.592-1.323-1.323l0,0v-1.804
					v-4.992c0-0.83,0.673-1.504,1.504-1.504l0,0C169.865,235.762,170.538,236.435,170.538,237.266z"/>
				<g>
					
						<rect x="168.367" y="250.235" style="fill:#FFFFFF;stroke:#263238;stroke-linecap:round;stroke-linejoin:round;stroke-miterlimit:10;" width="11.129" height="10.319"/>
					
						<rect x="167.705" y="247.79" style="fill:#FFFFFF;stroke:#263238;stroke-linecap:round;stroke-linejoin:round;stroke-miterlimit:10;" width="12.454" height="3.322"/>
				</g>
			</g>
			<g>
				<path style="fill:#C6FF00;" d="M127.565,315.814v4.992h1.564v-5.474c0-1.296,1.05-2.346,2.346-2.346l0,0
					c1.296,0,2.346,1.05,2.346,2.346v6.797h1.443v-3.609c0-0.93,0.754-1.684,1.684-1.684l0,0c0.93,0,1.684,0.754,1.684,1.684v3.609
					v1.925l0,0c0,0.598-0.485,1.083-1.083,1.083h-3.729v4.09h-4.692v-5.293h-3.248c-0.731,0-1.323-0.592-1.323-1.323l0,0v-1.804
					v-4.992c0-0.83,0.673-1.504,1.504-1.504l0,0C126.892,314.311,127.565,314.984,127.565,315.814z"/>
				<g>
					
						<rect x="125.394" y="328.784" style="fill:#FFFFFF;stroke:#263238;stroke-linecap:round;stroke-linejoin:round;stroke-miterlimit:10;" width="11.129" height="10.319"/>
					
						<rect x="124.732" y="326.338" style="fill:#FFFFFF;stroke:#263238;stroke-linecap:round;stroke-linejoin:round;stroke-miterlimit:10;" width="12.454" height="3.322"/>
				</g>
			</g>
			<g>
				<path style="fill:#C6FF00;" d="M182.764,315.814v4.992h1.564v-5.474c0-1.296,1.05-2.346,2.346-2.346l0,0
					c1.296,0,2.346,1.05,2.346,2.346v6.797h1.443v-3.609c0-0.93,0.754-1.684,1.684-1.684l0,0c0.93,0,1.684,0.754,1.684,1.684v3.609
					v1.925l0,0c0,0.598-0.485,1.083-1.083,1.083h-3.729v4.09h-4.692v-5.293h-3.248c-0.731,0-1.323-0.592-1.323-1.323l0,0v-1.804
					v-4.992c0-0.83,0.673-1.504,1.504-1.504l0,0C182.091,314.311,182.764,314.984,182.764,315.814z"/>
				<g>
					
						<rect x="180.593" y="328.784" style="fill:#FFFFFF;stroke:#263238;stroke-linecap:round;stroke-linejoin:round;stroke-miterlimit:10;" width="11.129" height="10.319"/>
					
						<rect x="179.931" y="326.338" style="fill:#FFFFFF;stroke:#263238;stroke-linecap:round;stroke-linejoin:round;stroke-miterlimit:10;" width="12.454" height="3.322"/>
				</g>
			</g>
			<g>
				<g>
					<path style="fill:#C6FF00;" d="M154.456,328.566c0,0-1.409-2.466-3.875-4.579c-2.466-2.113-3.17-7.045-3.17-7.045
						s1.057-0.352,3.17,1.761c2.114,2.113,3.522,4.931,3.522,4.931s-1.409-5.988-1.409-8.102c0-2.113,3.522-7.397,3.522-7.397
						s1.057,3.875,1.057,5.636c0,1.761,0,8.101,0,8.101s2.113-4.227,4.931-6.693c2.818-2.466,7.045-3.522,7.045-3.522
						s0.352,4.227-1.057,5.636c-1.409,1.409-7.397,6.34-7.397,6.34l8.101-1.409l-8.101,4.931c0,0-1.511,1.975-2.818,1.409
						S154.456,328.566,154.456,328.566z"/>
					
						<rect x="151.108" y="328.784" style="fill:#FFFFFF;stroke:#263238;stroke-linecap:round;stroke-linejoin:round;stroke-miterlimit:10;" width="11.129" height="10.319"/>
					
						<rect x="150.445" y="326.338" style="fill:#FFFFFF;stroke:#263238;stroke-linecap:round;stroke-linejoin:round;stroke-miterlimit:10;" width="12.454" height="3.322"/>
				</g>
			</g>
			<g>
				<path style="fill:#C6FF00;" d="M189.244,247.972c0,0-3.519-2.977-4.601-4.06c-1.083-1.083-3.789-4.06-1.624-2.977
					c2.165,1.083,4.601,2.977,4.601,2.977s-1.895-5.684-1.895-7.308c0-1.624,2.707-0.541,4.06,2.165
					c1.353,2.707,2.165,4.601,2.165,4.601s-2.436-10.827-0.271-11.368c2.165-0.541,2.707,7.037,2.707,7.037
					s1.895-13.263,4.601-10.285c2.707,2.977-1.895,10.827-1.895,10.827s5.413-3.789,4.331-0.812c-1.083,2.977-4.06,4.06-4.06,4.06
					s7.849-1.895,5.684,1.083c-2.165,2.977-9.203,5.413-9.203,5.413L189.244,247.972z"/>
				<g>
					
						<rect x="187.56" y="250.235" style="fill:#FFFFFF;stroke:#263238;stroke-linecap:round;stroke-linejoin:round;stroke-miterlimit:10;" width="11.129" height="10.319"/>
					
						<rect x="186.898" y="247.79" style="fill:#FFFFFF;stroke:#263238;stroke-linecap:round;stroke-linejoin:round;stroke-miterlimit:10;" width="12.454" height="3.322"/>
				</g>
			</g>
			<g>
				<path style="fill:#C6FF00;" d="M145.938,247.972c0,0-3.519-2.977-4.601-4.06c-1.083-1.083-3.789-4.06-1.624-2.977
					c2.165,1.083,4.601,2.977,4.601,2.977s-1.895-5.684-1.895-7.308c0-1.624,2.707-0.541,4.06,2.165
					c1.353,2.707,2.165,4.601,2.165,4.601s-2.436-10.827-0.271-11.368c2.165-0.541,2.707,7.037,2.707,7.037
					s1.895-13.263,4.601-10.285c2.707,2.977-1.895,10.827-1.895,10.827s5.413-3.789,4.331-0.812c-1.083,2.977-4.06,4.06-4.06,4.06
					s7.849-1.895,5.684,1.083c-2.165,2.977-9.203,5.413-9.203,5.413L145.938,247.972z"/>
				<g>
					
						<rect x="144.254" y="250.235" style="fill:#FFFFFF;stroke:#263238;stroke-linecap:round;stroke-linejoin:round;stroke-miterlimit:10;" width="11.129" height="10.319"/>
					
						<rect x="143.591" y="247.79" style="fill:#FFFFFF;stroke:#263238;stroke-linecap:round;stroke-linejoin:round;stroke-miterlimit:10;" width="12.454" height="3.322"/>
				</g>
			</g>
		</g>
		<g>
			
				<rect x="111" y="260" style="fill:#C6FF00;stroke:#263238;stroke-linecap:round;stroke-linejoin:round;stroke-miterlimit:10;" width="99" height="5"/>
			
				<rect x="111" y="299.418" style="fill:#C6FF00;stroke:#263238;stroke-linecap:round;stroke-linejoin:round;stroke-miterlimit:10;" width="99" height="5"/>
			
				<rect x="111" y="338.836" style="fill:#C6FF00;stroke:#263238;stroke-linecap:round;stroke-linejoin:round;stroke-miterlimit:10;" width="99" height="5"/>
			
				<rect x="111" y="260" style="fill:#C6FF00;stroke:#263238;stroke-linecap:round;stroke-linejoin:round;stroke-miterlimit:10;" width="3.495" height="126.485"/>
			
				<rect x="206.505" y="260" style="fill:#C6FF00;stroke:#263238;stroke-linecap:round;stroke-linejoin:round;stroke-miterlimit:10;" width="3.495" height="126.485"/>
		</g>
	</g>
	<g>
		<g>
			<path style="fill:#C6FF00;" d="M352.274,358.328c0,0-3.272-4.605-4.635-11.36c-1.363-6.755-1.636-9.825-2.181-14.738
				c-0.545-4.912-1.636-12.895-1.636-12.895s5.453,7.369,6.271,10.746c0.818,3.377,2.181,7.062,2.727,11.36
				c0.545,4.298,1.363,7.062,1.636,8.904c0.273,1.842,0.273,6.448,0.273,6.448s0.273-13.816-0.545-20.264
				c-0.818-6.448-1.636-11.667-1.363-16.58c0.273-4.913,0.273-5.834,0.545-8.904c0.273-3.07,0.545-8.904,0.545-8.904
				s3.272,10.132,4.635,16.58c1.363,6.448,0.818,8.597,1.363,14.123c0.545,5.527,0.818,6.755,0.273,9.518
				c-0.545,2.763-0.273,3.07-1.09,6.755c-0.818,3.684-1.363,4.605-1.363,4.605s3.817-9.825,4.908-15.045
				c1.091-5.219,2.727-9.518,3.817-11.974c1.091-2.456,1.091-2.456,2.727-5.22c1.636-2.763,4.362-7.369,4.362-7.369
				s0.273,11.053-1.091,15.045s-1.909,7.062-3.544,10.746c-1.636,3.684-1.909,5.527-2.181,7.983
				c-0.273,2.456-0.273,4.605-1.363,6.141c-1.091,1.535-1.363,3.684-2.181,4.605c-0.818,0.921-2.181,1.842-2.181,1.842
				s6.543-10.132,8.179-12.588c1.636-2.456,1.636-3.07,4.09-4.605c2.454-1.535,3.817-2.456,3.817-2.456s-4.908,11.053-6.271,13.202
				s-2.181,4.912-4.09,6.448c-1.909,1.535-2.999,2.763-2.999,2.763h-16.086c0,0-3.272-4.298-3.817-8.29s-0.818-7.983-0.818-7.983
				s2.999,2.456,4.362,3.991C348.729,352.494,352.274,358.328,352.274,358.328z"/>
			<g>
				
					<rect x="343.859" y="363.023" style="fill:#FFFFFF;stroke:#263238;stroke-linecap:round;stroke-linejoin:round;stroke-miterlimit:10;" width="27.773" height="23.365"/>
				
					<rect x="342.206" y="359.937" style="fill:#FFFFFF;stroke:#263238;stroke-linecap:round;stroke-linejoin:round;stroke-miterlimit:10;" width="31.079" height="5.07"/>
			</g>
		</g>
		<g>
			<g>
				<path style="fill:#C6FF00;" d="M384.246,284.027c1.096-0.318,5.063-1.716,7.275-5.817c2.583-4.788,1.478-8.908,1.478-8.908
					s-6.717,2.854-8.436,6.77c-0.777,1.77-0.975,3.577-0.961,5.031c-2.59-4.897-13.273-8.129-13.273-8.129s1.535,8.597,4.912,11.36
					c2.515,2.058,5.708,4.283,7.176,5.287v7.614c-0.603-0.905-2.641-3.646-5.948-4.918c-3.992-1.535-10.746,1.228-10.746,1.228
					s2.149,3.684,7.369,5.219c4.572,1.345,8.437-0.608,9.325-1.114v11.865c-0.603-0.905-2.641-3.646-5.948-4.918
					c-3.992-1.535-10.746,1.228-10.746,1.228s2.149,3.684,7.369,5.22c4.572,1.345,8.437-0.608,9.325-1.114v8.795
					c-0.603-0.905-2.641-3.646-5.948-4.918c-3.992-1.535-10.746,1.228-10.746,1.228s2.149,3.684,7.369,5.22
					c4.572,1.345,8.437-0.608,9.325-1.114v13.4c-0.603-0.905-2.641-3.646-5.948-4.918c-3.992-1.535-10.746,1.228-10.746,1.228
					s2.149,3.684,7.369,5.219c4.572,1.345,8.437-0.608,9.325-1.114v11.865c-0.603-0.905-2.641-3.646-5.948-4.918
					c-3.992-1.535-10.746,1.228-10.746,1.228s2.149,3.684,7.369,5.22c4.572,1.345,8.437-0.608,9.325-1.114v19.843
					c0,0.276,0.224,0.5,0.5,0.5c0.276,0,0.5-0.224,0.5-0.5v-75.187C383.771,289.315,384.465,287.674,384.246,284.027z"/>
				<path style="fill:#C6FF00;" d="M389.672,292.316c-3.991,1.535-6.141,5.22-6.141,5.22s4.298,2.763,9.518,1.228
					c5.22-1.535,7.369-5.219,7.369-5.219S393.664,290.781,389.672,292.316z"/>
				<path style="fill:#C6FF00;" d="M389.672,304.29c-3.991,1.535-6.141,5.219-6.141,5.219s4.298,2.763,9.518,1.228
					c5.22-1.535,7.369-5.22,7.369-5.22S393.664,302.755,389.672,304.29z"/>
				<path style="fill:#C6FF00;" d="M389.672,313.501c-3.991,1.535-6.141,5.22-6.141,5.22s4.298,2.763,9.518,1.228
					c5.22-1.535,7.369-5.22,7.369-5.22S393.664,311.966,389.672,313.501z"/>
				<path style="fill:#C6FF00;" d="M389.672,327.625c-3.991,1.535-6.141,5.22-6.141,5.22s4.298,2.763,9.518,1.228
					c5.22-1.535,7.369-5.219,7.369-5.219S393.664,326.09,389.672,327.625z"/>
				<path style="fill:#C6FF00;" d="M389.672,339.906c-3.991,1.535-6.141,5.219-6.141,5.219s4.298,2.763,9.518,1.228
					c5.22-1.535,7.369-5.22,7.369-5.22S393.664,338.371,389.672,339.906z"/>
			</g>
			<g style="opacity:0.5;">
				<path d="M384.246,284.027c1.096-0.318,5.063-1.716,7.275-5.817c2.583-4.788,1.478-8.908,1.478-8.908s-6.717,2.854-8.436,6.77
					c-0.777,1.77-0.975,3.577-0.961,5.031c-2.59-4.897-13.273-8.129-13.273-8.129s1.535,8.597,4.912,11.36
					c2.515,2.058,5.708,4.283,7.176,5.287v7.614c-0.603-0.905-2.641-3.646-5.948-4.918c-3.992-1.535-10.746,1.228-10.746,1.228
					s2.149,3.684,7.369,5.219c4.572,1.345,8.437-0.608,9.325-1.114v11.865c-0.603-0.905-2.641-3.646-5.948-4.918
					c-3.992-1.535-10.746,1.228-10.746,1.228s2.149,3.684,7.369,5.22c4.572,1.345,8.437-0.608,9.325-1.114v8.795
					c-0.603-0.905-2.641-3.646-5.948-4.918c-3.992-1.535-10.746,1.228-10.746,1.228s2.149,3.684,7.369,5.22
					c4.572,1.345,8.437-0.608,9.325-1.114v13.4c-0.603-0.905-2.641-3.646-5.948-4.918c-3.992-1.535-10.746,1.228-10.746,1.228
					s2.149,3.684,7.369,5.219c4.572,1.345,8.437-0.608,9.325-1.114v11.865c-0.603-0.905-2.641-3.646-5.948-4.918
					c-3.992-1.535-10.746,1.228-10.746,1.228s2.149,3.684,7.369,5.22c4.572,1.345,8.437-0.608,9.325-1.114v19.843
					c0,0.276,0.224,0.5,0.5,0.5c0.276,0,0.5-0.224,0.5-0.5v-75.187C383.771,289.315,384.465,287.674,384.246,284.027z"/>
				<path d="M389.672,292.316c-3.991,1.535-6.141,5.22-6.141,5.22s4.298,2.763,9.518,1.228c5.22-1.535,7.369-5.219,7.369-5.219
					S393.664,290.781,389.672,292.316z"/>
				<path d="M389.672,304.29c-3.991,1.535-6.141,5.219-6.141,5.219s4.298,2.763,9.518,1.228c5.22-1.535,7.369-5.22,7.369-5.22
					S393.664,302.755,389.672,304.29z"/>
				<path d="M389.672,313.501c-3.991,1.535-6.141,5.22-6.141,5.22s4.298,2.763,9.518,1.228c5.22-1.535,7.369-5.22,7.369-5.22
					S393.664,311.966,389.672,313.501z"/>
				<path d="M389.672,327.625c-3.991,1.535-6.141,5.22-6.141,5.22s4.298,2.763,9.518,1.228c5.22-1.535,7.369-5.219,7.369-5.219
					S393.664,326.09,389.672,327.625z"/>
				<path d="M389.672,339.906c-3.991,1.535-6.141,5.219-6.141,5.219s4.298,2.763,9.518,1.228c5.22-1.535,7.369-5.22,7.369-5.22
					S393.664,338.371,389.672,339.906z"/>
			</g>
			<g>
				
					<rect x="378.191" y="363.023" style="fill:#FFFFFF;stroke:#263238;stroke-linecap:round;stroke-linejoin:round;stroke-miterlimit:10;" width="11.129" height="23.365"/>
				
					<rect x="377.529" y="359.937" style="fill:#FFFFFF;stroke:#263238;stroke-linecap:round;stroke-linejoin:round;stroke-miterlimit:10;" width="12.454" height="5.07"/>
			</g>
		</g>
		<g>
			<g>
				
					<rect x="301.759" y="363.023" style="fill:#FFFFFF;stroke:#263238;stroke-linecap:round;stroke-linejoin:round;stroke-miterlimit:10;" width="27.773" height="23.365"/>
				
					<rect x="300.106" y="359.937" style="fill:#FFFFFF;stroke:#263238;stroke-linecap:round;stroke-linejoin:round;stroke-miterlimit:10;" width="31.079" height="5.07"/>
			</g>
			<g>
				<path style="fill:#C6FF00;" d="M306.467,319.028c0,0-0.614-2.763-3.991-4.913c-3.377-2.149-10.132-4.605-10.132-4.605
					s-0.307,1.842,2.456,5.219c2.763,3.377,8.597,7.676,8.597,7.676s-2.149,0.307-6.141,0.307c-3.991,0-7.676,5.219-7.676,5.219
					s5.526,0.921,7.369,0.921c1.842,0,8.597-2.149,8.597-2.149s-2.149,3.377-2.149,5.834c0,2.456,1.228,9.518,1.228,9.518
					s3.684-1.535,4.605-4.605c0.921-3.07,1.535-9.518,1.535-9.518s0.614,1.228,3.07,3.07c2.456,1.842,9.211,4.298,9.211,4.298
					s-0.614-3.684-3.377-7.676c-2.763-3.991-7.676-5.219-7.676-5.219s2.149,0,3.684-1.842c1.535-1.842,3.991-8.29,3.991-8.29
					s-3.07-0.921-6.141,0.614C310.458,314.422,306.467,319.028,306.467,319.028z"/>
				<path style="opacity:0.5;" d="M306.467,319.028c0,0-0.614-2.763-3.991-4.913c-3.377-2.149-10.132-4.605-10.132-4.605
					s-0.307,1.842,2.456,5.219c2.763,3.377,8.597,7.676,8.597,7.676s-2.149,0.307-6.141,0.307c-3.991,0-7.676,5.219-7.676,5.219
					s5.526,0.921,7.369,0.921c1.842,0,8.597-2.149,8.597-2.149s-2.149,3.377-2.149,5.834c0,2.456,1.228,9.518,1.228,9.518
					s3.684-1.535,4.605-4.605c0.921-3.07,1.535-9.518,1.535-9.518s0.614,1.228,3.07,3.07c2.456,1.842,9.211,4.298,9.211,4.298
					s-0.614-3.684-3.377-7.676c-2.763-3.991-7.676-5.219-7.676-5.219s2.149,0,3.684-1.842c1.535-1.842,3.991-8.29,3.991-8.29
					s-3.07-0.921-6.141,0.614C310.458,314.422,306.467,319.028,306.467,319.028z"/>
			</g>
			<g>
				<path style="fill:#C6FF00;" d="M321.045,343.255c0,0-0.373-1.68-2.426-2.986c-2.053-1.306-6.159-2.8-6.159-2.8
					s-0.187,1.12,1.493,3.173c1.68,2.053,5.226,4.666,5.226,4.666s-1.306,0.187-3.733,0.187s-4.666,3.173-4.666,3.173
					s3.359,0.56,4.479,0.56c1.12,0,5.226-1.307,5.226-1.307s-1.306,2.053-1.306,3.546s0.747,5.786,0.747,5.786s2.24-0.933,2.799-2.8
					c0.56-1.866,0.933-5.786,0.933-5.786s0.373,0.746,1.866,1.866c1.493,1.12,5.599,2.613,5.599,2.613s-0.373-2.24-2.053-4.666
					c-1.68-2.426-4.666-3.173-4.666-3.173s1.306,0,2.24-1.12c0.933-1.12,2.426-5.039,2.426-5.039s-1.866-0.56-3.733,0.373
					C323.472,340.456,321.045,343.255,321.045,343.255z"/>
				<path style="opacity:0.5;" d="M321.045,343.255c0,0-0.373-1.68-2.426-2.986c-2.053-1.306-6.159-2.8-6.159-2.8
					s-0.187,1.12,1.493,3.173c1.68,2.053,5.226,4.666,5.226,4.666s-1.306,0.187-3.733,0.187s-4.666,3.173-4.666,3.173
					s3.359,0.56,4.479,0.56c1.12,0,5.226-1.307,5.226-1.307s-1.306,2.053-1.306,3.546s0.747,5.786,0.747,5.786s2.24-0.933,2.799-2.8
					c0.56-1.866,0.933-5.786,0.933-5.786s0.373,0.746,1.866,1.866c1.493,1.12,5.599,2.613,5.599,2.613s-0.373-2.24-2.053-4.666
					c-1.68-2.426-4.666-3.173-4.666-3.173s1.306,0,2.24-1.12c0.933-1.12,2.426-5.039,2.426-5.039s-1.866-0.56-3.733,0.373
					C323.472,340.456,321.045,343.255,321.045,343.255z"/>
			</g>
			<path style="fill:#C6FF00;" d="M312.138,354.893c0,0-0.452-2.033-2.937-3.615s-7.456-3.389-7.456-3.389s-0.226,1.355,1.807,3.841
				c2.033,2.485,6.326,5.648,6.326,5.648s-1.581,0.226-4.519,0.226c-2.937,0-5.648,3.841-5.648,3.841s4.067,0.678,5.422,0.678
				c1.356,0,6.326-1.582,6.326-1.582s-1.582,2.485-1.582,4.293s0.904,7.004,0.904,7.004s2.711-1.13,3.389-3.389
				c0.678-2.259,1.13-7.004,1.13-7.004s0.452,0.904,2.259,2.259c1.807,1.356,6.778,3.163,6.778,3.163s-0.452-2.711-2.485-5.648
				c-2.033-2.937-5.648-3.841-5.648-3.841s1.582,0,2.711-1.356c1.13-1.356,2.937-6.1,2.937-6.1s-2.259-0.678-4.519,0.452
				C315.075,351.504,312.138,354.893,312.138,354.893z"/>
			<path style="fill:#C6FF00;" d="M303.704,341.748c0,0-0.452-2.033-2.937-3.615c-2.485-1.581-7.456-3.389-7.456-3.389
				s-0.226,1.355,1.807,3.841c2.033,2.485,6.326,5.648,6.326,5.648s-1.582,0.226-4.518,0.226c-2.937,0-5.648,3.841-5.648,3.841
				s4.067,0.678,5.422,0.678c1.356,0,6.326-1.582,6.326-1.582s-1.581,2.485-1.581,4.293c0,1.807,0.904,7.004,0.904,7.004
				s2.711-1.13,3.389-3.389c0.678-2.259,1.13-7.004,1.13-7.004s0.452,0.904,2.259,2.259c1.807,1.356,6.778,3.163,6.778,3.163
				s-0.452-2.711-2.485-5.648c-2.033-2.937-5.648-3.841-5.648-3.841s1.582,0,2.711-1.355c1.13-1.356,2.937-6.1,2.937-6.1
				s-2.259-0.678-4.518,0.452C306.641,338.359,303.704,341.748,303.704,341.748z"/>
			<path style="fill:#C6FF00;" d="M318.391,330.914c0,0-1.984-0.634-4.602,0.715c-2.618,1.35-6.684,4.732-6.684,4.732
				s1.057,0.878,4.228,0.375c3.171-0.504,8.066-2.618,8.066-2.618s-0.602,1.48-2.082,4.017c-1.48,2.537,0.471,6.814,0.471,6.814
				s2.635-3.171,3.318-4.342c0.683-1.171,1.822-6.261,1.822-6.261s1.35,2.618,2.911,3.529c1.561,0.911,6.505,2.749,6.505,2.749
				s0.391-2.911-1.219-4.635c-1.61-1.724-5.48-4.505-5.48-4.505s1.008,0.065,3.09-0.813s6.148-4.26,6.148-4.26
				s-2.569-0.976-6.131-0.7c-3.562,0.276-6.164,2.943-6.164,2.943s0.797-1.366,0.195-3.025c-0.602-1.659-3.789-5.611-3.789-5.611
				s-1.724,1.61-1.887,4.13C316.943,326.669,318.391,330.914,318.391,330.914z"/>
		</g>
		<g>
			<g>
				
					<rect x="321.571" y="370.422" style="fill:#FFFFFF;stroke:#263238;stroke-linecap:round;stroke-linejoin:round;stroke-miterlimit:10;" width="37.523" height="15.966"/>
				
					<rect x="319.338" y="368.313" style="fill:#FFFFFF;stroke:#263238;stroke-linecap:round;stroke-linejoin:round;stroke-miterlimit:10;" width="41.99" height="3.464"/>
			</g>
			<path id="XMLID_4_" style="fill:#C6FF00;" d="M335.635,361.705c0,0,1.842-0.921-1.228-3.07c-3.07-2.149-3.991-2.149-3.991-2.149
				l3.07,5.22c0,0-3.684-1.228-6.141-1.228c-2.456,0-4.298,0.921-4.298,0.921l6.296,3.302c0,0-6.603-0.538-7.832-0.538
				c-1.228,0-4.605,1.228-4.605,1.228l4.605,0.921l-7.062,2.149l7.369,0.614v3.07l4.606-2.763c0,0,0.307,0.921,0.921,1.842
				c0.614,0.921,2.763,3.377,2.763,3.377l2.763-4.298c0,0,0.921,2.763,1.842,2.763c0.921,0,3.07,0.614,3.07,0.614l0.706-3.941
				l4.513,3.327v-2.763l2.456,2.763l2.149-3.377l0.307,2.763l3.991-1.842l1.842,3.684l0.921-4.605l2.581,0.427l0.489-1.348
				c0,0-0.614-0.307,1.228,0.614c1.842,0.921,4.913,1.228,4.913,1.228s-1.535-2.149-2.456-3.07
				c-0.921-0.921-3.377-1.842-3.377-1.842l2.149-0.921c0,0-4.298-1.535-5.526-1.535c-1.228,0-3.377,1.228-3.377,1.228
				s1.842-1.228,2.456-2.456c0.614-1.228,1.228-3.377,1.228-3.377s-4.605,0-5.22,1.535c-0.614,1.535-1.842,3.991-1.842,3.991
				l-2.149-4.605c0,0-1.228,1.228-1.535,2.149c-0.307,0.921-0.614,2.456-0.614,2.456s-1.228-2.456-1.842-3.684
				c-0.614-1.228-2.149-2.456-2.149-2.456s-0.307,2.149-0.307,3.377c0,1.228,0,2.149,0,2.149l-1.535-3.684v3.07L335.635,361.705z"/>
			<path id="XMLID_3_" style="opacity:0.3;" d="M335.635,361.705c0,0,1.842-0.921-1.228-3.07c-3.07-2.149-3.991-2.149-3.991-2.149
				l3.07,5.22c0,0-3.684-1.228-6.141-1.228c-2.456,0-4.298,0.921-4.298,0.921l6.296,3.302c0,0-6.603-0.538-7.832-0.538
				c-1.228,0-4.605,1.228-4.605,1.228l4.605,0.921l-7.062,2.149l7.369,0.614v3.07l4.606-2.763c0,0,0.307,0.921,0.921,1.842
				c0.614,0.921,2.763,3.377,2.763,3.377l2.763-4.298c0,0,0.921,2.763,1.842,2.763c0.921,0,3.07,0.614,3.07,0.614l0.706-3.941
				l4.513,3.327v-2.763l2.456,2.763l2.149-3.377l0.307,2.763l3.991-1.842l1.842,3.684l0.921-4.605l2.581,0.427l0.489-1.348
				c0,0-0.614-0.307,1.228,0.614c1.842,0.921,4.913,1.228,4.913,1.228s-1.535-2.149-2.456-3.07
				c-0.921-0.921-3.377-1.842-3.377-1.842l2.149-0.921c0,0-4.298-1.535-5.526-1.535c-1.228,0-3.377,1.228-3.377,1.228
				s1.842-1.228,2.456-2.456c0.614-1.228,1.228-3.377,1.228-3.377s-4.605,0-5.22,1.535c-0.614,1.535-1.842,3.991-1.842,3.991
				l-2.149-4.605c0,0-1.228,1.228-1.535,2.149c-0.307,0.921-0.614,2.456-0.614,2.456s-1.228-2.456-1.842-3.684
				c-0.614-1.228-2.149-2.456-2.149-2.456s-0.307,2.149-0.307,3.377c0,1.228,0,2.149,0,2.149l-1.535-3.684v3.07L335.635,361.705z"/>
		</g>
	</g>
</g>
</svg>
