<?xml version="1.0" encoding="utf-8"?>
<!-- Generator: Adobe Illustrator 27.5.0, SVG Export Plug-In . SVG Version: 6.00 Build 0)  -->
<svg version="1.1" id="Layer_1" xmlns="http://www.w3.org/2000/svg" xmlns:xlink="http://www.w3.org/1999/xlink" x="0px" y="0px"
	 viewBox="0 0 800 800" style="enable-background:new 0 0 800 800;" xml:space="preserve">
<g>
	<rect style="fill:#FFFFFF;" width="800" height="800"/>
</g>
<g>
	<g>
		<g>
			<path style="fill:#D1D3D4;" d="M577.541,697.799c0,12.498,10.122,22.631,22.624,22.631h123.531
				c12.495,0,22.628-10.133,22.628-22.631v-17.444H577.541V697.799z"/>
			<path d="M723.696,722.39H600.165c-13.555,0-24.583-11.032-24.583-24.591v-17.444c0-1.083,0.876-1.96,1.959-1.96h168.783
				c1.083,0,1.96,0.877,1.96,1.96v17.444C748.284,711.357,737.255,722.39,723.696,722.39z M579.502,682.315v15.484
				c0,11.4,9.271,20.672,20.663,20.672h123.531c11.396,0,20.668-9.271,20.668-20.672v-15.484H579.502z"/>
		</g>
		<g>
			<rect x="577.541" y="462.053" style="fill:#FFFFFF;" width="168.783" height="218.302"/>
			<path d="M746.324,682.315H577.541c-1.083,0-1.959-0.877-1.959-1.96V462.053c0-1.083,0.876-1.96,1.959-1.96h168.783
				c1.083,0,1.96,0.877,1.96,1.96v218.302C748.284,681.438,747.407,682.315,746.324,682.315z M579.502,678.394h164.862V464.012
				H579.502V678.394z"/>
		</g>
		<g>
			<path style="fill:#D1D3D4;" d="M746.324,446.971c0-12.499-10.133-22.633-22.628-22.633H600.165
				c-12.502,0-22.624,10.134-22.624,22.633v15.082h168.783V446.971z"/>
			<path d="M746.324,464.012H577.541c-1.083,0-1.959-0.876-1.959-1.959v-15.082c0-13.56,11.028-24.592,24.583-24.592h123.531
				c13.559,0,24.588,11.032,24.588,24.592v15.082C748.284,463.136,747.407,464.012,746.324,464.012z M579.502,460.093h164.862
				v-13.122c0-11.4-9.271-20.672-20.668-20.672H600.165c-11.392,0-20.663,9.272-20.663,20.672V460.093z"/>
		</g>
	</g>
	<g>
		<path style="fill:#FFFFFF;" d="M675.363,700.39c0,7.424-6.006,13.442-13.429,13.442c-7.427,0-13.444-6.018-13.444-13.442
			c0-7.418,6.018-13.435,13.444-13.435C669.357,686.954,675.363,692.972,675.363,700.39z"/>
		<path d="M661.935,715.791c-8.494,0-15.404-6.91-15.404-15.401c0-8.489,6.91-15.396,15.404-15.396
			c8.487,0,15.389,6.906,15.389,15.396C677.323,708.881,670.422,715.791,661.935,715.791z M661.935,688.914
			c-6.331,0-11.483,5.148-11.483,11.475c0,6.333,5.152,11.481,11.483,11.481c6.324,0,11.47-5.147,11.47-11.481
			C673.404,694.063,668.259,688.914,661.935,688.914z"/>
	</g>
	<g>
		<line style="fill:#FFFFFF;" x1="684.559" y1="700.39" x2="702.796" y2="700.39"/>
		<path d="M702.796,702.351h-18.237c-1.083,0-1.96-0.877-1.96-1.961c0-1.082,0.877-1.959,1.96-1.959h18.237
			c1.083,0,1.96,0.877,1.96,1.959C704.756,701.474,703.879,702.351,702.796,702.351z"/>
	</g>
	<g>
		<line style="fill:#FFFFFF;" x1="621.066" y1="700.39" x2="639.304" y2="700.39"/>
		<path d="M639.304,702.351h-18.237c-1.083,0-1.96-0.877-1.96-1.961c0-1.082,0.877-1.959,1.96-1.959h18.237
			c1.083,0,1.959,0.877,1.959,1.959C641.263,701.474,640.387,702.351,639.304,702.351z"/>
	</g>
	<g>
		<line style="fill:#FFFFFF;" x1="711.913" y1="443.199" x2="682.208" y2="443.199"/>
		<path d="M711.913,445.159h-29.705c-1.083,0-1.96-0.876-1.96-1.96c0-1.083,0.877-1.96,1.96-1.96h29.705
			c1.084,0,1.961,0.877,1.961,1.96C713.874,444.283,712.997,445.159,711.913,445.159z"/>
	</g>
	<g>
		<polyline style="fill:#FFFFFF;" points="598.719,578.004 630.063,546.656 648.904,565.498 724.186,490.212 		"/>
		<path d="M598.719,579.964c-0.502,0-1.004-0.191-1.386-0.574c-0.767-0.766-0.767-2.006,0-2.771l31.344-31.349
			c0.734-0.735,2.037-0.735,2.771,0l17.456,17.456l73.896-73.9c0.766-0.767,2.006-0.767,2.771,0c0.766,0.766,0.766,2.006,0,2.771
			l-75.282,75.286c-0.735,0.735-2.037,0.735-2.772,0l-17.455-17.456l-29.958,29.962
			C599.721,579.773,599.221,579.964,598.719,579.964z"/>
	</g>
	<g>
		<polyline style="fill:#FFFFFF;" points="707.431,490.212 725.144,490.212 725.144,507.924 		"/>
		<path d="M725.144,509.884c-1.083,0-1.96-0.877-1.96-1.96v-15.752h-15.753c-1.083,0-1.959-0.877-1.959-1.96
			c0-1.083,0.876-1.96,1.959-1.96h17.713c1.084,0,1.959,0.877,1.959,1.96v17.712C727.102,509.007,726.227,509.884,725.144,509.884z"
			/>
	</g>
	<g>
		<polygon style="fill:#3CA6CF;" points="607.691,680.354 621.741,680.354 621.741,586.744 607.691,600.788 		"/>
		<path d="M621.741,682.315h-14.05c-1.083,0-1.96-0.877-1.96-1.96v-79.566c0-0.521,0.206-1.018,0.574-1.386l14.049-14.045
			c0.563-0.563,1.408-0.723,2.137-0.425c0.73,0.303,1.209,1.019,1.209,1.811v93.61C623.7,681.438,622.823,682.315,621.741,682.315z
			 M609.651,678.394h10.129v-86.92L609.651,601.6V678.394z"/>
	</g>
	<g>
		
			<rect x="644.038" y="585.508" transform="matrix(0.7072 -0.707 0.707 0.7072 -230.2547 628.7358)" style="fill:#FFFFFF;" width="0.002" height="13.762"/>
		<path d="M648.904,599.216c-0.218,0-0.44-0.039-0.648-0.111c-0.004,0-0.004,0-0.004,0s0,0-0.004,0l0,0
			c-0.003,0-0.003-0.005-0.003-0.005c-0.004,0-0.004,0-0.004,0h-0.004c-0.168-0.06-0.333-0.145-0.483-0.256l0,0
			c-0.003-0.004-0.007-0.004-0.011-0.007l0,0c0,0,0-0.004-0.004-0.004l0,0c0,0-0.004,0-0.004-0.005l0,0
			c-0.003,0-0.003,0-0.003-0.004c0,0,0,0-0.004,0l0,0c-0.004-0.004-0.004-0.004-0.004-0.004s-0.009-0.003-0.005-0.003h-0.004v-0.004
			c-0.003,0-0.003,0-0.003,0l-0.004-0.004l0,0l-0.004-0.004l0,0c-0.004,0-0.004-0.004-0.004-0.004h-0.004c0,0,0-0.003-0.004-0.003
			l0,0l-0.003-0.004l0,0l-0.005-0.005l0,0c-0.004,0-0.004-0.004-0.004-0.004c-0.004,0-0.004,0-0.004,0s0-0.004-0.004-0.004l0,0
			l-0.003-0.003l0,0c-0.016-0.012-0.031-0.027-0.046-0.039l0,0c-0.027-0.022-0.051-0.045-0.077-0.068l0,0l-0.004-0.004l0,0
			c-0.004-0.004-0.004-0.004-0.004-0.004s0,0-0.004-0.003l0,0c-0.003,0-0.003-0.005-0.003-0.005s0,0-0.004-0.004l0,0
			c0,0,0,0-0.004-0.004l0,0l-0.004-0.004l0,0c-0.005-0.004-0.005-0.004-0.005-0.004l0,0l-9.73-9.73
			c-0.386-0.387-0.578-0.893-0.574-1.393c0-0.502,0.192-1,0.574-1.383c0.767-0.766,2.006-0.766,2.772,0l9.73,9.734
			c0,0,0,0,0.004,0.004l0,0l0.003,0.005l0,0c0.004,0.003,0.004,0.003,0.004,0.003s0,0,0.004,0.004l0,0c0,0,0,0,0.005,0.004l0,0
			l0.004,0.004l0,0l0.003,0.004l0,0c0.732,0.762,0.732,1.964-0.003,2.722l0,0c-0.004,0.003-0.004,0.003-0.004,0.003l-0.005,0.004
			c0,0,0,0-0.004,0.005l0,0c0,0,0,0-0.004,0.004l0,0l-0.003,0.004l0,0c-0.004,0.003-0.004,0.003-0.004,0.003l0,0l0,0
			c0,0,0,0-0.004,0.004l0,0c0,0,0,0-0.004,0.004l0,0c0,0.004-0.004,0.004-0.004,0.004s0,0-0.003,0.004l0,0c0,0,0,0-0.004,0.005l0,0
			l-0.005,0.003l0,0l-0.004,0.004l0,0C649.884,599.031,649.394,599.216,648.904,599.216z"/>
	</g>
	<g>
		<polygon style="fill:#3CA6CF;" points="648.904,597.255 639.174,587.524 639.174,680.354 653.214,680.354 653.214,601.559 
			648.904,597.255 		"/>
		<path d="M653.214,682.315h-14.04c-1.084,0-1.961-0.877-1.961-1.96v-92.83c0-0.793,0.479-1.509,1.21-1.812
			c0.731-0.294,1.573-0.134,2.137,0.426l14.041,14.033c0.367,0.368,0.574,0.865,0.574,1.387v78.796
			C655.175,681.438,654.298,682.315,653.214,682.315z M641.133,678.394h10.121V602.37l-10.121-10.114V678.394z"/>
	</g>
	<g>
		<polygon style="fill:#3CA6CF;" points="670.644,680.354 684.688,680.354 684.688,561.471 670.644,575.512 		"/>
		<path d="M684.688,682.315h-14.045c-1.084,0-1.96-0.877-1.96-1.96V575.512c0-0.521,0.207-1.018,0.574-1.386l14.045-14.041
			c0.564-0.564,1.413-0.728,2.137-0.425c0.73,0.302,1.209,1.017,1.209,1.81v118.884
			C686.648,681.438,685.772,682.315,684.688,682.315z M672.603,678.394h10.125V566.202l-10.125,10.121V678.394z"/>
	</g>
	<g>
		<polygon style="fill:#3CA6CF;" points="702.114,544.042 702.114,680.354 716.162,680.354 716.162,529.996 		"/>
		<path d="M716.162,682.315h-14.048c-1.084,0-1.96-0.877-1.96-1.96V544.042c0-0.521,0.206-1.019,0.574-1.386l14.049-14.046
			c0.563-0.562,1.404-0.723,2.136-0.424c0.731,0.302,1.21,1.018,1.21,1.81v150.358C718.123,681.438,717.246,682.315,716.162,682.315
			z M704.073,678.394h10.13V534.727l-10.13,10.125V678.394z"/>
	</g>
</g>
<g>
	<polygon style="fill:#857C42;" points="409.644,531.902 409.659,531.902 483.051,531.902 483.051,456.961 482.848,456.961 
		409.659,456.961 409.644,456.961 336.256,456.961 336.256,531.902 	"/>
	<path d="M483.051,533.863H336.256c-1.083,0-1.96-0.877-1.96-1.961v-74.941c0-1.083,0.877-1.96,1.96-1.96h146.591
		c1.083,0,2.162,0.877,2.162,1.96v74.941C485.01,532.986,484.133,533.863,483.051,533.863z M338.216,529.943h142.875v-71.022
		H338.216V529.943z"/>
</g>
<g>
	<polygon style="fill:#ADA358;" points="288.165,456.961 223.463,531.902 282.958,531.902 336.256,456.961 	"/>
	<path d="M282.958,533.863h-59.495c-0.766,0-1.462-0.448-1.784-1.146c-0.318-0.696-0.199-1.515,0.298-2.098l64.702-74.941
		c0.375-0.428,0.915-0.678,1.485-0.678h48.092c0.735,0,1.405,0.41,1.742,1.06c0.337,0.655,0.279,1.44-0.146,2.036l-53.298,74.942
		C284.187,533.557,283.594,533.863,282.958,533.863z M227.743,529.943h54.205l50.511-71.022H289.06L227.743,529.943z"/>
</g>
<g>
	<polygon style="fill:#756F3B;" points="336.256,456.961 282.958,531.902 336.256,531.902 	"/>
	<path d="M336.256,533.863h-53.298c-0.735,0-1.405-0.41-1.742-1.061c-0.337-0.655-0.279-1.439,0.146-2.036l53.298-74.942
		c0.494-0.692,1.371-0.988,2.193-0.73c0.812,0.26,1.363,1.014,1.363,1.867v74.941C338.216,532.986,337.34,533.863,336.256,533.863z
		 M286.756,529.943h47.54v-66.846L286.756,529.943z"/>
</g>
<g>
	<path d="M210.842,491.731c-1.064,0-1.941-0.854-1.96-1.922c-0.019-1.083,0.842-1.979,1.922-1.998
		c10.772-0.203,22.547-1.298,35.003-3.25c1.045-0.164,2.067,0.559,2.239,1.635c0.168,1.067-0.563,2.071-1.634,2.239
		c-12.629,1.98-24.584,3.089-35.532,3.296C210.865,491.731,210.854,491.731,210.842,491.731z M187.265,490.629
		c-0.08,0-0.16-0.004-0.245-0.015c-13.762-1.7-25.326-5.287-34.372-10.658c-0.934-0.551-1.24-1.753-0.685-2.683
		c0.547-0.935,1.753-1.245,2.684-0.686c8.579,5.092,19.63,8.502,32.856,10.137c1.072,0.134,1.837,1.11,1.704,2.185
		C189.083,489.902,188.237,490.629,187.265,490.629z M269.311,484.01c-0.9,0-1.707-0.62-1.914-1.531
		c-0.233-1.056,0.429-2.105,1.486-2.343c10.979-2.461,22.448-5.522,34.092-9.099c1.026-0.321,2.132,0.26,2.446,1.297
		c0.318,1.034-0.26,2.129-1.298,2.447c-11.736,3.605-23.305,6.695-34.384,9.184C269.595,483.995,269.453,484.01,269.311,484.01z
		 M325.978,467.439c-0.808,0-1.561-0.501-1.849-1.305c-0.359-1.019,0.172-2.141,1.194-2.504
		c10.811-3.832,21.893-8.131,32.933-12.778c1.007-0.409,2.151,0.054,2.568,1.045c0.421,0.999-0.049,2.147-1.044,2.568
		c-11.113,4.675-22.264,9-33.147,12.862C326.418,467.404,326.196,467.439,325.978,467.439z M135.257,462.769l1.753-0.877
		l-1.757,0.869c-3.989-6.955-6.014-15.021-6.014-23.956c0-3.709,0.352-7.618,1.044-11.606c0.184-1.068,1.221-1.811,2.263-1.596
		c1.068,0.183,1.784,1.197,1.596,2.262c-0.651,3.774-0.983,7.453-0.983,10.94c0,8.242,1.852,15.653,5.501,22.023l-1.65,1.064
		L135.257,462.769z M380.631,445.079c-0.739,0-1.448-0.421-1.78-1.137c-0.452-0.983-0.024-2.148,0.956-2.604
		c10.55-4.872,21.219-10.121,31.716-15.607c0.961-0.494,2.14-0.13,2.646,0.83c0.501,0.961,0.129,2.144-0.831,2.646
		c-10.55,5.513-21.28,10.792-31.884,15.691C381.186,445.022,380.907,445.079,380.631,445.079z M433.201,418.168
		c-0.681,0-1.348-0.36-1.707-1c-0.532-0.94-0.199-2.135,0.747-2.667c1.695-0.957,3.392-1.918,5.087-2.887
		c8.51-4.873,17.027-9.972,25.318-15.151c0.912-0.57,2.124-0.299,2.699,0.624c0.574,0.915,0.295,2.125-0.624,2.699
		c-8.33,5.21-16.893,10.332-25.448,15.228c-1.704,0.977-3.408,1.944-5.111,2.901C433.859,418.087,433.531,418.168,433.201,418.168z
		 M139.165,406.982c-0.26,0-0.521-0.05-0.773-0.161c-0.996-0.425-1.455-1.581-1.026-2.572c4.238-9.861,10.152-20.342,17.575-31.152
		c0.612-0.888,1.83-1.114,2.726-0.505c0.892,0.612,1.117,1.833,0.505,2.726c-7.277,10.6-13.065,20.855-17.207,30.479
		C140.647,406.538,139.924,406.982,139.165,406.982z M483.52,387.237c-0.631,0-1.247-0.307-1.626-0.869
		c-0.604-0.899-0.364-2.117,0.535-2.718c9.884-6.63,19.589-13.501,28.845-20.422c0.865-0.655,2.09-0.475,2.744,0.394
		c0.647,0.869,0.472,2.098-0.394,2.745c-9.31,6.963-19.071,13.872-29.014,20.537C484.279,387.13,483.895,387.237,483.52,387.237z
		 M170.773,357.294c-0.436,0-0.876-0.145-1.24-0.444c-0.838-0.685-0.96-1.918-0.275-2.756c7.094-8.67,15.128-17.567,23.879-26.437
		c0.758-0.769,1.999-0.776,2.771-0.015c0.769,0.758,0.777,1.998,0.015,2.771c-8.663,8.781-16.617,17.585-23.634,26.161
		C171.903,357.049,171.34,357.294,170.773,357.294z M531.111,352.26c-0.57,0-1.137-0.249-1.523-0.727
		c-0.681-0.842-0.552-2.079,0.291-2.756c9.394-7.587,18.405-15.332,26.789-23.018c0.792-0.728,2.036-0.678,2.767,0.119
		c0.731,0.796,0.678,2.036-0.118,2.768c-8.441,7.744-17.518,15.542-26.972,23.178C531.98,352.119,531.544,352.26,531.111,352.26z
		 M211.55,314.611c-0.528,0-1.056-0.214-1.443-0.635c-0.731-0.796-0.682-2.037,0.119-2.768c8.483-7.787,17.556-15.584,26.969-23.183
		c0.842-0.681,2.075-0.547,2.756,0.291c0.681,0.842,0.551,2.078-0.291,2.756c-9.352,7.549-18.363,15.293-26.785,23.022
		C212.499,314.44,212.025,314.611,211.55,314.611z M575.016,312.771c-0.498,0-0.995-0.188-1.379-0.566
		c-0.768-0.758-0.777-2.002-0.015-2.772c8.655-8.762,16.609-17.563,23.642-26.149c0.685-0.842,1.918-0.961,2.756-0.276
		c0.839,0.685,0.961,1.922,0.276,2.756c-7.108,8.682-15.148,17.574-23.888,26.425C576.026,312.575,575.521,312.771,575.016,312.771z
		 M257.085,277.009c-0.597,0-1.183-0.272-1.569-0.785c-0.647-0.869-0.471-2.098,0.395-2.745
		c9.333-6.978,19.094-13.892,29.009-20.541c0.884-0.597,2.109-0.371,2.718,0.536c0.605,0.9,0.364,2.117-0.536,2.718
		c-9.857,6.615-19.561,13.486-28.841,20.426C257.908,276.882,257.494,277.009,257.085,277.009z M613.001,267.623
		c-0.383,0-0.77-0.111-1.109-0.345c-0.894-0.612-1.118-1.834-0.506-2.726c7.276-10.584,13.073-20.836,17.227-30.475
		c0.424-0.991,1.585-1.462,2.576-1.022c0.991,0.429,1.45,1.58,1.022,2.576c-4.253,9.873-10.175,20.35-17.594,31.142
		C614.237,267.324,613.621,267.623,613.001,267.623z M305.846,243.674c-0.651,0-1.29-0.325-1.662-0.922
		c-0.574-0.915-0.294-2.124,0.624-2.699c8.299-5.19,16.89-10.335,25.529-15.286c1.677-0.961,3.354-1.914,5.03-2.852
		c0.938-0.52,2.136-0.195,2.668,0.754c0.528,0.945,0.191,2.14-0.754,2.668c-1.669,0.93-3.331,1.875-4.992,2.829
		c-8.601,4.927-17.146,10.045-25.407,15.209C306.563,243.579,306.202,243.674,305.846,243.674z M357.092,214.317
		c-0.705,0-1.386-0.383-1.738-1.053c-0.501-0.961-0.129-2.144,0.831-2.646c10.584-5.527,21.311-10.81,31.88-15.695
		c0.984-0.451,2.148-0.026,2.604,0.957c0.451,0.984,0.022,2.148-0.958,2.604c-10.516,4.857-21.184,10.109-31.711,15.61
		C357.708,214.244,357.399,214.317,357.092,214.317z M637.389,214.313c-0.114,0-0.225-0.008-0.34-0.031
		c-1.068-0.184-1.78-1.202-1.593-2.266c0.666-3.813,1.003-7.526,1.003-11.04c0-8.238-1.85-15.649-5.497-22.023l1.597-1.152
		l1.707-0.961l-1.707,0.961l1.784-0.827c4.012,7.009,6.036,15.071,6.036,24.002c0,3.74-0.356,7.679-1.064,11.714
		C639.15,213.643,638.323,214.313,637.389,214.313z M410.509,189.121c-0.766,0-1.493-0.452-1.807-1.198
		c-0.421-0.999,0.05-2.147,1.045-2.568c11.143-4.686,22.295-9.015,33.142-12.866c1.004-0.368,2.137,0.172,2.504,1.194
		c0.36,1.018-0.172,2.14-1.194,2.504c-10.775,3.82-21.858,8.123-32.929,12.781C411.022,189.071,410.762,189.121,410.509,189.121z
		 M465.966,168.863c-0.838,0-1.615-0.54-1.872-1.386c-0.317-1.034,0.261-2.128,1.298-2.446c11.764-3.614,23.332-6.707,34.38-9.188
		c1.071-0.226,2.106,0.433,2.343,1.486c0.237,1.056-0.429,2.105-1.485,2.342c-10.948,2.458-22.417,5.52-34.09,9.103
		C466.349,168.836,466.157,168.863,465.966,168.863z M615.887,163.412c-0.341,0-0.685-0.088-0.995-0.271
		c-8.59-5.073-19.649-8.468-32.875-10.095c-1.076-0.13-1.841-1.11-1.707-2.182c0.134-1.076,1.143-1.853,2.182-1.707
		c13.766,1.692,25.338,5.26,34.392,10.608c0.934,0.551,1.244,1.753,0.692,2.683C617.208,163.067,616.558,163.412,615.887,163.412z
		 M523.406,155.258c-0.946,0-1.781-0.689-1.934-1.658c-0.168-1.068,0.563-2.071,1.635-2.239c12.62-1.983,24.571-3.097,35.528-3.311
		c0.983-0.172,1.975,0.843,1.998,1.922c0.018,1.083-0.839,1.976-1.922,1.998c-10.776,0.21-22.552,1.309-35,3.265
		C523.612,155.25,523.509,155.258,523.406,155.258z"/>
</g>
<g>
	<path style="fill:#FFEBDA;" d="M440.822,331.715c-8.788-11.829-22.765-18.455-41.518-19.684c-0.536-0.038-1.057,0.02-1.577,0.046
		c-0.532,0.034-1.068,0.065-1.588,0.157c-0.218,0.042-0.437,0.103-0.651,0.153c-0.662,0.161-1.32,0.345-1.94,0.605
		c-0.069,0.031-0.138,0.065-0.207,0.092c-4.598,2.006-7.81,6.569-7.81,11.898c0,0.865,0.092,1.707,0.249,2.526
		c0.026,0.099,0.05,0.195,0.076,0.295c0.127,0.586,0.318,1.144,0.524,1.699c0.241,0.571,0.471,1.137,0.781,1.666
		c0.015,0.031,0.038,0.065,0.053,0.1c2.102,3.529,5.892,6.01,10.355,6.305c1.409,0.092,2.76,0.233,4.061,0.409
		c8.511,1.156,14.6,4.085,18.123,8.748c1.045,1.386,1.799,2.939,2.415,4.537c1.332,3.395,1.854,7.047,1.906,10.324
		c-0.704,0.157-1.394,0.349-2.097,0.54c-6.21,1.715-11.833,4.824-16.56,8.927c-2.439,2.113-4.625,4.49-6.535,7.101
		c-5.129,7.024-8.18,15.657-8.18,25.024c0,2.936,0.298,5.803,0.869,8.57c-5.903-7.844-15.267-12.942-25.835-12.942
		c-14.39,0-26.563,9.397-30.763,22.387c-1.014,3.135-1.581,6.477-1.581,9.952c0,17.862,14.482,32.34,32.344,32.34
		c1.087,0,2.155-0.058,3.211-0.161v69.051h81.207v-50.936v-34.859v-0.375v-3.858v-78.337v-0.804v-1.164v-0.218
		C450.121,353.095,448.27,341.733,440.822,331.715z"/>
	<path d="M450.155,534.338h-81.207c-1.083,0-1.96-0.877-1.96-1.96v-66.953c-0.414,0.016-0.831,0.023-1.251,0.023
		c-18.915,0-34.303-15.385-34.303-34.3c0-3.567,0.563-7.12,1.677-10.558c4.59-14.198,17.701-23.742,32.626-23.742
		c8.686,0,16.816,3.205,23.083,8.958c-0.05-0.872-0.077-1.749-0.077-2.625c0-9.46,2.959-18.513,8.559-26.181
		c1.995-2.729,4.292-5.225,6.833-7.427c5.03-4.368,11.021-7.595,17.322-9.336c0.21-0.058,0.409-0.111,0.598-0.161
		c-0.189-2.932-0.773-5.703-1.712-8.096c-0.654-1.699-1.34-2.989-2.155-4.073c-3.181-4.215-8.842-6.902-16.82-7.985
		c-1.255-0.169-2.564-0.306-3.923-0.395c-4.95-0.325-9.402-3.039-11.913-7.258c-0.382-0.663-0.639-1.252-0.888-1.849
		c-0.337-0.876-0.556-1.527-0.701-2.205c-0.276-1.32-0.372-2.297-0.372-3.234c0-5.938,3.525-11.312,8.985-13.693
		c0.949-0.406,1.707-0.621,2.469-0.808l0.743-0.172c0.59-0.104,1.164-0.146,1.734-0.18l0.601,1.926l-0.126-1.956
		c0.313-0.02,0.627-0.039,0.949-0.039c0.045,0,0.471,0.012,0.517,0.015c19.347,1.268,33.805,8.158,42.955,20.473
		c7.974,10.726,9.686,22.926,9.72,31.271v170.559C452.116,533.461,451.239,534.338,450.155,534.338z M370.908,530.417h77.288
		V362.045c-0.029-7.966-1.607-19.286-8.945-29.162c-8.434-11.346-21.916-17.705-40.072-18.895c-0.471-0.015-0.716,0.007-0.946,0.023
		c-0.012,0-0.395,0.023-0.406,0.023c-0.501,0.034-0.931,0.058-1.348,0.13c-0.012,0.004-0.536,0.13-0.547,0.134
		c-0.544,0.13-1.102,0.283-1.627,0.501c-4.211,1.842-6.814,5.804-6.814,10.183c0,0.738,0.08,1.458,0.214,2.159
		c0.172,0.743,0.337,1.21,0.513,1.677c0.218,0.52,0.395,0.953,0.636,1.359c1.899,3.196,5.187,5.198,8.847,5.439
		c1.455,0.096,2.848,0.241,4.196,0.425c9.049,1.229,15.583,4.429,19.423,9.505c1.041,1.381,1.892,2.974,2.68,5.015
		c1.267,3.227,1.971,7.032,2.036,10.998c0.015,0.93-0.623,1.741-1.534,1.944c-0.606,0.134-1.198,0.295-1.804,0.46
		c-5.941,1.642-11.403,4.586-15.993,8.575c-2.32,2.006-4.418,4.287-6.24,6.776c-5.103,6.99-7.801,15.243-7.801,23.868
		c0,2.756,0.28,5.508,0.827,8.176c0.188,0.897-0.275,1.803-1.11,2.183c-0.834,0.367-1.822,0.126-2.373-0.608
		c-5.815-7.73-14.662-12.163-24.27-12.163c-13.219,0-24.829,8.453-28.898,21.032c-0.983,3.047-1.485,6.189-1.485,9.348
		c0,16.752,13.631,30.379,30.383,30.379c1.022,0,2.028-0.053,3.021-0.152c0.555-0.02,1.098,0.131,1.508,0.502
		c0.409,0.371,0.643,0.899,0.643,1.45V530.417z"/>
</g>
<g>
	<polygon style="fill:#A7A9AC;" points="377.48,411.993 355.649,411.993 377.484,428.538 399.323,411.993 	"/>
	<path d="M377.484,430.498c-0.417,0-0.834-0.134-1.182-0.398l-21.836-16.545c-0.67-0.509-0.941-1.389-0.674-2.186
		c0.268-0.8,1.015-1.336,1.857-1.336h43.674c0.842,0,1.589,0.536,1.857,1.336c0.268,0.797-0.004,1.677-0.673,2.186L378.667,430.1
		C378.318,430.364,377.901,430.498,377.484,430.498z M361.479,413.953l16.004,12.128l16.005-12.128H361.479z"/>
</g>
<g>
	<g>
		<path style="fill:#FFE696;" d="M461.752,232.382c0-46.542-37.73-84.271-84.268-84.271c-46.544,0-84.278,37.729-84.278,84.271
			c0,27.917,13.632,52.582,34.533,67.924l-0.13,0.031c0,0,0.237,0.119,0.563,0.298c1.443,1.038,2.921,2.04,4.425,2.994
			c5.29,4.138,12.889,12.281,12.889,24.94v21.341h63.994v-21.341c0-12.659,7.587-20.802,12.877-24.94
			c1.509-0.953,2.978-1.956,4.418-2.994c0.341-0.18,0.563-0.298,0.563-0.298l-0.115-0.031
			C448.123,284.963,461.752,260.299,461.752,232.382z"/>
		<path d="M409.479,351.87h-63.994c-1.083,0-1.96-0.877-1.96-1.96v-21.341c0-11.492-6.6-19.063-12.135-23.397
			c-1.378-0.861-2.89-1.883-4.364-2.944l-0.295-0.138c-0.298-0.15-0.547-0.368-0.731-0.632
			c-21.774-16.266-34.755-42.036-34.755-69.077c0-47.548,38.686-86.231,86.238-86.231c47.544,0,86.227,38.683,86.227,86.231
			c0,27.075-13.008,52.873-34.827,69.134c-0.161,0.227-0.368,0.414-0.624,0.552l-0.57,0.302c-1.241,0.915-2.745,1.941-4.283,2.917
			c-5.376,4.214-11.967,11.783-11.967,23.282v21.341C411.439,350.993,410.563,351.87,409.479,351.87z M347.446,347.95h60.073
			v-19.381c0-13.766,8.541-22.501,13.632-26.482c1.635-1.045,3.071-2.025,4.479-3.039l0.195-0.111
			c0.072-0.076,0.148-0.145,0.237-0.21c21.119-15.503,33.728-40.305,33.728-66.343c0-45.386-36.921-82.311-82.307-82.311
			c-45.389,0-82.318,36.925-82.318,82.311c0,26.038,12.61,50.84,33.733,66.343c0.085,0.065,0.164,0.134,0.237,0.207
			c1.6,1.133,3.043,2.113,4.509,3.039c5.252,4.1,13.8,12.839,13.8,26.598V347.95z"/>
	</g>
	<g>
		<g>
			<path style="fill:#D1D3D4;" d="M346.141,411.993h62.688c5.563-5.068,9.865-11.48,12.46-18.708h-87.604
				C336.283,400.513,340.586,406.925,346.141,411.993z"/>
			<path d="M408.828,413.953h-62.688c-0.49,0-0.961-0.184-1.321-0.513c-5.814-5.302-10.301-12.043-12.98-19.492
				c-0.214-0.602-0.126-1.268,0.241-1.788c0.368-0.525,0.964-0.834,1.604-0.834h87.604c0.64,0,1.237,0.31,1.604,0.831
				c0.367,0.524,0.456,1.19,0.241,1.792c-2.676,7.449-7.166,14.19-12.985,19.492C409.789,413.77,409.318,413.953,408.828,413.953z
				 M346.91,410.033h61.149c4.402-4.149,7.94-9.21,10.347-14.788h-81.839C338.978,400.823,342.515,405.88,346.91,410.033z"/>
		</g>
		<g>
			<path style="fill:#A7A9AC;" d="M424.049,374.165h-93.133v3.468c0,5.497,1.003,10.765,2.768,15.653h87.604
				c1.758-4.888,2.761-10.156,2.761-15.653V374.165z"/>
			<path d="M421.288,395.246h-87.604c-0.827,0-1.562-0.517-1.845-1.294c-1.914-5.302-2.883-10.792-2.883-16.319v-3.468
				c0-1.084,0.877-1.96,1.96-1.96h93.133c1.083,0,1.96,0.876,1.96,1.96v3.468c0,5.516-0.969,11.005-2.875,16.315
				C422.853,394.725,422.116,395.246,421.288,395.246z M335.081,391.326h84.807c1.462-4.475,2.201-9.076,2.201-13.693v-1.508
				h-89.213v1.508C332.876,382.257,333.619,386.854,335.081,391.326z"/>
		</g>
		<g>
			<rect x="330.916" y="349.91" style="fill:#D1D3D4;" width="93.133" height="24.254"/>
			<path d="M424.049,376.125h-93.133c-1.083,0-1.96-0.877-1.96-1.96V349.91c0-1.083,0.877-1.96,1.96-1.96h93.133
				c1.083,0,1.96,0.877,1.96,1.96v24.254C426.009,375.248,425.132,376.125,424.049,376.125z M332.876,372.205h89.213V351.87h-89.213
				V372.205z"/>
		</g>
	</g>
	<g>
		<path d="M377.484,351.87c-1.082,0-1.96-0.877-1.96-1.96v-51.315l-28.84-29.928c-0.353-0.364-0.547-0.85-0.547-1.359v-21.337
			c0-0.697,0.367-1.34,0.968-1.692c0.604-0.356,1.351-0.352,1.948-0.019l24.779,13.892h28.871c1.084,0,1.96,0.877,1.96,1.96
			c0,1.083-0.876,1.96-1.96,1.96h-29.384c-0.337,0-0.666-0.088-0.957-0.249l-22.306-12.506v17.199l28.84,29.928
			c0.353,0.364,0.548,0.85,0.548,1.359v52.107C379.444,350.993,378.567,351.87,377.484,351.87z"/>
	</g>
</g>
<g>
	<path style="fill:#FFEBDA;" d="M360.836,348.831c0,7.181-5.814,13-12.984,13h-35.084c-7.17,0-12.993-5.819-12.993-13l0,0
		c0-7.166,5.823-12.993,12.993-12.993h35.084C355.021,335.838,360.836,341.665,360.836,348.831L360.836,348.831z"/>
	<path d="M347.852,363.79h-35.084c-8.246,0-14.953-6.71-14.953-14.96c0-8.246,6.707-14.952,14.953-14.952h35.084
		c8.242,0,14.944,6.707,14.944,14.952C362.796,357.08,356.093,363.79,347.852,363.79z M312.768,337.798
		c-6.083,0-11.033,4.95-11.033,11.033c0,6.086,4.95,11.04,11.033,11.04h35.084c6.079,0,11.025-4.954,11.025-11.04
		c0-6.083-4.946-11.033-11.025-11.033H312.768z"/>
</g>
<g>
	<path style="fill:#FFEBDA;" d="M341.849,322.846c0,7.174-5.818,12.992-12.989,12.992h-10.615c-7.173,0-12.992-5.818-12.992-12.992
		l0,0c0-7.182,5.819-13,12.992-13h10.615C336.031,309.846,341.849,315.664,341.849,322.846L341.849,322.846z"/>
	<path d="M328.86,337.798h-10.615c-8.245,0-14.952-6.707-14.952-14.952c0-8.25,6.707-14.96,14.952-14.96h10.615
		c8.242,0,14.949,6.71,14.949,14.96C343.809,331.091,337.102,337.798,328.86,337.798z M318.245,311.806
		c-6.082,0-11.032,4.954-11.032,11.04c0,6.082,4.95,11.033,11.032,11.033h10.615c6.083,0,11.029-4.95,11.029-11.033
		c0-6.086-4.946-11.04-11.029-11.04H318.245z"/>
</g>
<g>
	<path style="fill:#FFEBDA;" d="M346.672,374.823c0,7.181-5.818,13-13,13h-19.014c-7.177,0-12.996-5.819-12.996-13l0,0
		c0-7.174,5.819-12.993,12.996-12.993h19.014C340.854,361.831,346.672,367.649,346.672,374.823L346.672,374.823z"/>
	<path d="M333.672,389.783h-19.014c-8.245,0-14.956-6.71-14.956-14.96c0-8.246,6.71-14.953,14.956-14.953h19.014
		c8.249,0,14.96,6.706,14.96,14.953C348.632,383.072,341.921,389.783,333.672,389.783z M314.658,363.79
		c-6.086,0-11.036,4.949-11.036,11.033c0,6.086,4.95,11.04,11.036,11.04h19.014c6.086,0,11.04-4.954,11.04-11.04
		c0-6.084-4.954-11.033-11.04-11.033H314.658z"/>
</g>
<g>
	<path style="fill:#FFEBDA;" d="M338.412,400.815c0,7.182-5.815,12.993-12.985,12.993h-7.182c-7.173,0-12.992-5.811-12.992-12.993
		l0,0c0-7.174,5.819-12.993,12.992-12.993h7.182C332.597,387.823,338.412,393.642,338.412,400.815L338.412,400.815z"/>
	<path d="M325.427,415.768h-7.182c-8.245,0-14.952-6.707-14.952-14.952c0-8.246,6.707-14.952,14.952-14.952h7.182
		c8.242,0,14.944,6.706,14.944,14.952C340.371,409.06,333.669,415.768,325.427,415.768z M318.245,389.783
		c-6.082,0-11.032,4.95-11.032,11.033c0,6.083,4.95,11.032,11.032,11.032h7.182c6.079,0,11.024-4.949,11.024-11.032
		c0-6.082-4.945-11.033-11.024-11.033H318.245z"/>
</g>
<g>
	<path style="fill:#FFEBDA;" d="M368.948,463.327v69.051h81.207v-50.936v-34.859v-0.375v-3.797v-0.061v-78.337v-0.061v-0.742v-1.164
		v-0.218c-0.034-8.732-1.886-20.093-9.333-30.111c-8.788-11.829-22.765-18.455-41.518-19.684c-0.536-0.038-1.057,0.02-1.577,0.046
		c-0.532,0.034-1.068,0.065-1.588,0.157c-0.218,0.042-0.437,0.103-0.651,0.153c-0.662,0.161-1.32,0.345-1.94,0.605
		c-0.069,0.031-0.138,0.065-0.207,0.092c-4.598,2.006-7.81,6.569-7.81,11.898c0,0.865,0.092,1.707,0.249,2.526
		c0.026,0.099,0.05,0.195,0.076,0.295c0.127,0.586,0.318,1.144,0.524,1.699c0.241,0.571,0.471,1.137,0.781,1.666
		c0.015,0.031,0.038,0.065,0.053,0.1c2.102,3.529,5.892,6.01,10.355,6.305c1.409,0.092,2.76,0.233,4.061,0.409
		c8.511,1.156,14.6,4.085,18.123,8.748c1.045,1.386,1.799,2.939,2.415,4.537c1.332,3.395,1.854,7.047,1.906,10.324
		c-0.704,0.157-1.394,0.349-2.097,0.54c-0.123,0.035-0.246,0.092-0.372,0.13c-1.141,0.325-2.255,0.716-3.357,1.133
		c-0.333,0.13-0.685,0.237-1.015,0.375c-2.782,1.141-5.405,2.572-7.854,4.249c-0.468,0.322-0.908,0.678-1.367,1.019
		c-0.689,0.517-1.389,1.041-2.06,1.6c-0.578,0.494-1.137,1.018-1.691,1.542c-0.471,0.44-0.942,0.892-1.393,1.351
		c-0.67,0.689-1.314,1.394-1.93,2.121c-0.26,0.298-0.505,0.608-0.754,0.915c-0.429,0.536-0.896,1.038-1.302,1.593
		c-5.129,7.024-8.18,15.657-8.18,25.024c0,2.936,0.298,5.803,0.869,8.57l0.275,0.321c2.446,11.504,9.459,21.318,19.132,27.336
		c2.305,1.44,4.759,2.657,7.335,3.633"/>
	<path d="M450.155,534.338h-81.207c-1.083,0-1.96-0.877-1.96-1.96v-69.051c0-1.084,0.876-1.959,1.96-1.959s1.96,0.875,1.96,1.959
		v67.09h77.288V362.045c-0.029-7.966-1.607-19.286-8.945-29.162c-8.434-11.346-21.916-17.705-40.072-18.895
		c-0.333-0.027-0.64,0.004-0.946,0.023c-0.012,0-0.395,0.023-0.406,0.023c-0.498,0.034-0.931,0.058-1.348,0.13
		c-0.012,0.004-0.536,0.13-0.547,0.134c-0.544,0.13-1.102,0.283-1.627,0.501c-4.211,1.842-6.814,5.804-6.814,10.183
		c0,0.738,0.08,1.458,0.214,2.159c0.172,0.743,0.337,1.21,0.513,1.677c0.218,0.52,0.395,0.953,0.636,1.359
		c1.899,3.196,5.187,5.198,8.847,5.439c1.455,0.096,2.848,0.241,4.196,0.425c9.049,1.229,15.583,4.429,19.423,9.505
		c1.041,1.381,1.892,2.974,2.68,5.015c1.267,3.227,1.971,7.032,2.036,10.998c0.015,0.93-0.623,1.741-1.534,1.944
		c-0.606,0.134-1.198,0.295-1.804,0.46l-0.915-1.765l0.391,1.937c-1.118,0.318-2.179,0.693-3.232,1.091l-0.949,0.349
		c-2.61,1.072-5.133,2.435-7.506,4.062c-0.272,0.184-0.536,0.387-0.801,0.593l-0.505,0.379c-0.678,0.509-1.34,1.003-1.972,1.532
		c-0.535,0.46-1.071,0.961-1.6,1.463c-0.46,0.429-0.911,0.861-1.344,1.301c-0.632,0.647-1.245,1.321-1.83,2.014l-1.267,1.527
		c-0.241,0.287-0.482,0.566-0.704,0.869c-5.103,6.99-7.801,15.243-7.801,23.868c0,2.587,0.245,5.175,0.731,7.69
		c0.184,0.233,0.31,0.505,0.371,0.796c2.293,10.783,8.946,20.289,18.249,26.076c2.201,1.375,4.555,2.542,6.993,3.465
		c1.015,0.382,1.524,1.516,1.142,2.527c-0.388,1.01-1.524,1.515-2.527,1.14c-2.684-1.019-5.268-2.296-7.679-3.805
		c-10.06-6.259-17.295-16.479-19.906-28.098c-0.191-0.241-0.321-0.525-0.382-0.827c-0.605-2.925-0.911-5.945-0.911-8.965
		c0-9.46,2.959-18.513,8.559-26.181c0.276-0.379,0.578-0.735,0.877-1.091l1.282-1.547c0.628-0.742,1.302-1.478,2.002-2.201
		c0.478-0.486,0.969-0.957,1.459-1.417c0.574-0.54,1.156-1.087,1.757-1.6c0.705-0.586,1.42-1.125,2.125-1.654l0.501-0.379
		c0.317-0.241,0.636-0.486,0.965-0.712c2.607-1.784,5.371-3.277,8.223-4.448c0.206-0.084,0.436-0.168,0.666-0.249l0.379-0.138
		c1.171-0.444,2.339-0.85,3.533-1.19c0.008-0.004,0.387-0.138,0.394-0.138c0.208-0.058,0.402-0.111,0.591-0.161
		c-0.189-2.932-0.773-5.703-1.712-8.096c-0.654-1.699-1.34-2.989-2.155-4.073c-3.181-4.215-8.842-6.902-16.82-7.985
		c-1.255-0.169-2.564-0.306-3.923-0.395c-4.95-0.325-9.402-3.039-11.913-7.258c-0.382-0.663-0.639-1.252-0.888-1.849
		c-0.337-0.876-0.556-1.527-0.701-2.205c-0.276-1.32-0.372-2.297-0.372-3.234c0-5.938,3.525-11.312,8.985-13.693
		c0.949-0.406,1.707-0.621,2.469-0.808l0.743-0.172c0.59-0.104,1.164-0.146,1.738-0.18l0.597,1.926l-0.126-1.956
		c0.486-0.031,0.98-0.054,1.466-0.023c19.347,1.268,33.805,8.158,42.955,20.473c7.974,10.726,9.686,22.926,9.72,31.271v170.559
		C452.116,533.461,451.239,534.338,450.155,534.338z"/>
</g>
<g>
	<path d="M327.073,330.988c-1.083,0-1.96-0.877-1.96-1.961v-12.372c0-1.083,0.876-1.96,1.96-1.96s1.96,0.877,1.96,1.96v12.372
		C329.033,330.111,328.156,330.988,327.073,330.988z"/>
</g>
<g>
	<path d="M346.672,356.98c-1.083,0-1.96-0.877-1.96-1.96v-12.373c0-1.083,0.876-1.959,1.96-1.959s1.96,0.876,1.96,1.959v12.373
		C348.632,356.103,347.756,356.98,346.672,356.98z"/>
</g>
<g>
	<path d="M331.644,382.973c-1.083,0-1.96-0.876-1.96-1.96v-12.372c0-1.083,0.877-1.96,1.96-1.96c1.083,0,1.96,0.877,1.96,1.96
		v12.372C333.603,382.096,332.727,382.973,331.644,382.973z"/>
</g>
<g>
	<path d="M323.551,408.961c-1.083,0-1.961-0.876-1.961-1.959v-12.373c0-1.083,0.877-1.96,1.961-1.96s1.959,0.877,1.959,1.96v12.373
		C325.511,408.085,324.635,408.961,323.551,408.961z"/>
</g>
<g>
	<path d="M405.185,334.058c-0.119,0-0.234-0.011-0.353-0.031c-1.064-0.195-1.772-1.213-1.581-2.278l2.205-12.177
		c0.191-1.072,1.221-1.75,2.277-1.581c1.064,0.195,1.772,1.214,1.581,2.277l-2.205,12.177
		C406.938,333.396,406.11,334.058,405.185,334.058z"/>
</g>
<g>
	<path d="M418.314,482.602c-1.083,0-1.96-0.877-1.96-1.96v-37.6c0-1.083,0.877-1.96,1.96-1.96c1.084,0,1.959,0.877,1.959,1.96v37.6
		C420.273,481.725,419.398,482.602,418.314,482.602z"/>
</g>
<g>
	<path d="M396.318,510.37c-1.083,0-1.96-0.877-1.96-1.96v-53.248c0-1.083,0.877-1.96,1.96-1.96s1.96,0.877,1.96,1.96v53.248
		C398.278,509.493,397.401,510.37,396.318,510.37z"/>
</g>
<g>
	<path d="M434.216,516.575c-1.083,0-1.96-0.877-1.96-1.96v-23.519c0-1.083,0.877-1.96,1.96-1.96c1.084,0,1.961,0.877,1.961,1.96
		v23.519C436.177,515.698,435.3,516.575,434.216,516.575z"/>
</g>
<g>
	<g>
		<polygon style="fill:#B2E3FF;" points="504.048,291.284 473.925,325.839 547.001,336.026 642.273,226.735 540.333,285.208 		"/>
		<path d="M547.001,337.986c-0.087,0-0.18-0.008-0.271-0.02l-73.077-10.186c-0.712-0.1-1.313-0.582-1.565-1.256
			c-0.249-0.674-0.11-1.432,0.359-1.971l30.123-34.556c0.299-0.345,0.708-0.571,1.152-0.647l35.941-6.018l101.635-58.298
			c0.827-0.478,1.884-0.287,2.492,0.456c0.604,0.738,0.589,1.811-0.038,2.53l-95.273,109.291
			C548.104,337.744,547.565,337.986,547.001,337.986z M477.778,324.396l68.442,9.544l86.912-99.701l-91.823,52.67
			c-0.203,0.115-0.426,0.195-0.651,0.233l-35.597,5.961L477.778,324.396z"/>
	</g>
	<g>
		<polygon style="fill:#AAD9F5;" points="567.065,407.036 597.188,372.48 598.259,335.704 642.273,226.735 547.001,336.026 		"/>
		<path d="M567.065,408.996c-0.142,0-0.288-0.016-0.429-0.046c-0.704-0.161-1.264-0.689-1.459-1.382l-20.063-71.011
			c-0.181-0.635-0.026-1.32,0.41-1.818l95.272-109.291c0.627-0.72,1.688-0.884,2.503-0.383c0.815,0.498,1.148,1.516,0.793,2.404
			l-43.885,108.644l-1.062,36.424c-0.015,0.452-0.183,0.888-0.482,1.229l-30.123,34.556
			C568.167,408.755,567.623,408.996,567.065,408.996z M549.176,336.516l18.793,66.505l27.282-31.298l1.049-36.075
			c0.007-0.234,0.057-0.46,0.142-0.678l39.65-98.159L549.176,336.516z"/>
	</g>
</g>
<g>
	<path d="M377.484,122.107c-1.082,0-1.96-0.876-1.96-1.96V75.723c0-1.084,0.877-1.96,1.96-1.96c1.083,0,1.96,0.876,1.96,1.96v44.424
		C379.444,121.23,378.567,122.107,377.484,122.107z"/>
</g>
<g>
	<path d="M421.288,129.568c-0.5,0-1.002-0.191-1.386-0.574c-0.765-0.766-0.765-2.006,0-2.771l35.931-35.934
		c0.766-0.766,2.006-0.766,2.771,0c0.765,0.766,0.765,2.006,0,2.771l-35.931,35.934C422.292,129.376,421.79,129.568,421.288,129.568
		z"/>
</g>
<g>
	<path d="M333.68,129.568c-0.501,0-1.003-0.191-1.385-0.574L296.36,93.06c-0.766-0.766-0.766-2.006,0-2.771
		c0.766-0.766,2.006-0.766,2.771,0l35.934,35.934c0.766,0.766,0.766,2.006,0,2.771C334.683,129.376,334.182,129.568,333.68,129.568z
		"/>
</g>
<g>
	<g>
		<path d="M326.127,467.435c-0.807,0-1.562-0.501-1.849-1.305c-0.36-1.019,0.168-2.14,1.191-2.504
			c10.814-3.832,21.892-8.131,32.936-12.778c1.003-0.409,2.151,0.055,2.568,1.046c0.421,0.998-0.053,2.147-1.044,2.567
			c-11.117,4.675-22.268,9-33.148,12.863C326.567,467.4,326.35,467.435,326.127,467.435z M380.788,445.079
			c-0.735,0-1.451-0.421-1.78-1.137c-0.451-0.983-0.026-2.148,0.957-2.604c10.546-4.872,21.219-10.121,31.715-15.607
			c0.962-0.49,2.137-0.134,2.646,0.83c0.502,0.961,0.127,2.144-0.834,2.646c-10.543,5.513-21.281,10.792-31.88,15.691
			C381.339,445.022,381.063,445.079,380.788,445.079z M433.351,418.168c-0.673,0-1.344-0.36-1.703-1
			c-0.532-0.94-0.203-2.135,0.746-2.667c1.696-0.957,3.388-1.918,5.084-2.887c8.498-4.865,17.024-9.961,25.327-15.151
			c0.914-0.574,2.124-0.299,2.701,0.624c0.571,0.915,0.296,2.125-0.627,2.699c-8.349,5.217-16.908,10.339-25.457,15.228
			c-1.699,0.977-3.403,1.944-5.11,2.901C434.01,418.087,433.68,418.168,433.351,418.168z"/>
	</g>
</g>
<g>
	<polygon style="fill:#ADA358;" points="530.938,456.961 483.051,456.961 536.359,531.902 595.648,531.902 	"/>
	<path d="M595.648,533.863h-59.289c-0.636,0-1.229-0.307-1.596-0.823l-53.31-74.942c-0.425-0.597-0.482-1.381-0.146-2.036
		c0.337-0.65,1.007-1.06,1.742-1.06h47.888c0.571,0,1.11,0.25,1.486,0.678l64.709,74.941c0.498,0.583,0.616,1.401,0.299,2.098
		C597.111,533.415,596.414,533.863,595.648,533.863z M537.37,529.943h53.994l-61.321-71.022h-43.191L537.37,529.943z"/>
</g>
<g>
	<polygon style="fill:#9E944F;" points="536.137,531.902 483.051,531.902 409.659,531.902 409.644,531.902 336.256,531.902 
		282.958,531.902 282.958,692.593 536.359,692.593 536.359,531.902 	"/>
	<path d="M536.359,694.553H282.958c-1.083,0-1.96-0.877-1.96-1.96v-160.69c0-1.083,0.876-1.959,1.96-1.959h253.178
		c1.084,0,2.184,0.876,2.184,1.959v160.69C538.32,693.676,537.443,694.553,536.359,694.553z M284.918,690.633h249.481v-156.77
		H284.918V690.633z"/>
</g>
<g>
	<polygon style="fill:#756F3B;" points="483.051,531.902 536.137,531.902 536.359,531.902 483.051,456.961 	"/>
	<path d="M536.359,533.863h-53.309c-1.084,0-1.96-0.877-1.96-1.961v-74.941c0-0.854,0.551-1.607,1.362-1.867
		c0.819-0.261,1.696,0.038,2.194,0.73l53.309,74.942c0.425,0.597,0.482,1.381,0.145,2.036
		C537.765,533.453,537.095,533.863,536.359,533.863z M485.01,529.943h47.549l-47.549-66.846V529.943z"/>
</g>
<g>
	<path style="fill:#FFFFFF;" d="M154.818,249.986c43.954,0,82.51-21.429,104.758-53.749
		c-22.249-32.316-60.805-53.742-104.758-53.742c-43.927,0-82.487,21.426-104.731,53.742
		C72.331,228.557,110.892,249.986,154.818,249.986z"/>
	<path d="M154.818,251.947c-43.062,0-82.815-20.411-106.347-54.6c-0.459-0.67-0.459-1.55,0-2.22
		c23.531-34.185,63.285-54.592,106.347-54.592c43.073,0,82.839,20.407,106.374,54.592c0.46,0.666,0.46,1.55,0,2.22
		C237.657,231.536,197.892,251.947,154.818,251.947z M52.476,196.237c22.892,32.454,61.042,51.79,102.343,51.79
		c41.312,0,79.474-19.336,102.37-51.79c-22.895-32.45-61.053-51.782-102.37-51.782C113.518,144.455,75.368,163.787,52.476,196.237z"
		/>
</g>
<g>
	<path style="fill:#B2E3FF;" d="M198.925,196.237c0,24.358-19.737,44.099-44.091,44.099c-24.347,0-44.096-19.741-44.096-44.099
		c0-24.35,19.749-44.087,44.096-44.087C179.188,152.15,198.925,171.887,198.925,196.237z"/>
	<path d="M154.834,242.296c-25.396,0-46.055-20.664-46.055-46.059c0-25.392,20.66-46.047,46.055-46.047
		c25.391,0,46.051,20.656,46.051,46.047C200.885,221.632,180.225,242.296,154.834,242.296z M154.834,154.109
		c-23.232,0-42.135,18.899-42.135,42.127c0,23.237,18.903,42.14,42.135,42.14s42.131-18.903,42.131-42.14
		C196.965,173.009,178.066,154.109,154.834,154.109z"/>
</g>
<g>
	<path style="fill:#A7A9AC;" d="M178.177,196.237c0,12.893-10.447,23.344-23.343,23.344c-12.901,0-23.351-10.451-23.351-23.344
		c0-12.889,10.45-23.347,23.351-23.347C167.73,172.89,178.177,183.348,178.177,196.237z"/>
	<path d="M154.834,221.54c-13.957,0-25.312-11.35-25.312-25.303c0-13.953,11.355-25.307,25.312-25.307
		c13.953,0,25.303,11.354,25.303,25.307C180.137,210.19,168.787,221.54,154.834,221.54z M154.834,174.85
		c-11.794,0-21.392,9.593-21.392,21.387c0,11.791,9.597,21.383,21.392,21.383c11.79,0,21.383-9.592,21.383-21.383
		C176.217,184.443,166.624,174.85,154.834,174.85z"/>
</g>
<g>
	<path style="fill:#FFFFFF;" d="M187.223,188.531c0,6.52-5.291,11.802-11.802,11.802c-6.515,0-11.798-5.282-11.798-11.802
		c0-6.516,5.283-11.806,11.798-11.806C181.932,176.726,187.223,182.016,187.223,188.531z"/>
	<path d="M175.421,202.293c-7.587,0-13.758-6.175-13.758-13.762c0-7.591,6.17-13.766,13.758-13.766s13.762,6.175,13.762,13.766
		C189.183,196.118,183.008,202.293,175.421,202.293z M175.421,178.686c-5.424,0-9.838,4.417-9.838,9.846
		c0,5.428,4.414,9.842,9.838,9.842c5.429,0,9.842-4.414,9.842-9.842C185.263,183.103,180.85,178.686,175.421,178.686z"/>
</g>
<g>
	<g>
		<path d="M218.265,123.141c-1.083,0-1.96-0.876-1.96-1.96V65.498c0-1.083,0.877-1.96,1.96-1.96c1.083,0,1.96,0.877,1.96,1.96
			v55.683C220.225,122.264,219.348,123.141,218.265,123.141z"/>
	</g>
	<g>
		<path d="M218.276,123.872c-0.501,0-1.003-0.192-1.385-0.575l-16.515-16.506c-0.766-0.766-0.766-2.006,0-2.771
			c0.766-0.766,2.006-0.766,2.771,0l15.128,15.121l15.121-15.121c0.766-0.766,2.006-0.766,2.772,0c0.766,0.766,0.766,2.006,0,2.771
			l-16.507,16.506C219.279,123.68,218.777,123.872,218.276,123.872z"/>
	</g>
</g>
<g>
	<g>
		<path d="M154.834,123.141c-1.083,0-1.961-0.876-1.961-1.96V65.498c0-1.083,0.877-1.96,1.961-1.96c1.083,0,1.96,0.877,1.96,1.96
			v55.683C156.794,122.264,155.917,123.141,154.834,123.141z"/>
	</g>
	<g>
		<path d="M154.834,123.872c-0.502,0-1.003-0.192-1.386-0.575l-16.503-16.506c-0.766-0.766-0.766-2.006,0-2.771
			c0.766-0.766,2.006-0.766,2.771,0l15.117,15.121l15.128-15.121c0.766-0.766,2.006-0.766,2.772,0c0.766,0.766,0.766,2.006,0,2.771
			l-16.515,16.506C155.837,123.68,155.335,123.872,154.834,123.872z"/>
	</g>
</g>
<g>
	<g>
		<path d="M91.403,123.141c-1.083,0-1.96-0.876-1.96-1.96V65.498c0-1.083,0.876-1.96,1.96-1.96c1.083,0,1.96,0.877,1.96,1.96v55.683
			C93.363,122.264,92.486,123.141,91.403,123.141z"/>
	</g>
	<g>
		<path d="M91.403,123.872L91.403,123.872c-0.521,0-1.018-0.208-1.386-0.575l-16.502-16.506c-0.766-0.766-0.766-2.006,0-2.771
			c0.766-0.766,2.006-0.766,2.771,0l15.117,15.121l15.124-15.121c0.766-0.766,2.006-0.766,2.772,0c0.766,0.766,0.766,2.006,0,2.771
			l-16.51,16.506C92.421,123.665,91.924,123.872,91.403,123.872z"/>
	</g>
</g>
<g>
	<g>
		<path d="M154.834,328.174c-1.083,0-1.961-0.876-1.961-1.959v-55.679c0-1.084,0.877-1.96,1.961-1.96c1.083,0,1.96,0.876,1.96,1.96
			v55.679C156.794,327.298,155.917,328.174,154.834,328.174z"/>
	</g>
	<g>
		<path d="M171.344,288.267c-0.502,0-1.003-0.191-1.386-0.574l-15.124-15.121l-15.121,15.121c-0.766,0.765-2.006,0.765-2.771,0
			c-0.766-0.766-0.766-2.006,0-2.772l16.506-16.507c0.766-0.766,2.006-0.766,2.771,0l16.51,16.507c0.766,0.766,0.766,2.006,0,2.772
			C172.347,288.076,171.845,288.267,171.344,288.267z"/>
	</g>
</g>
<g>
	<path style="fill:#857C42;" d="M465.22,612.25c0,30.685-24.875,55.56-55.561,55.56c-30.686,0-55.568-24.874-55.568-55.56
		c0-30.69,24.882-55.565,55.568-55.565C440.345,556.685,465.22,581.56,465.22,612.25z"/>
	<path d="M409.659,669.769c-31.719,0-57.528-25.805-57.528-57.519c0-31.72,25.809-57.524,57.528-57.524
		c31.716,0,57.52,25.805,57.52,57.524C467.179,643.965,441.375,669.769,409.659,669.769z M409.659,558.646
		c-29.561,0-53.608,24.047-53.608,53.604s24.048,53.601,53.608,53.601c29.556,0,53.601-24.044,53.601-53.601
		S439.215,558.646,409.659,558.646z"/>
</g>
<g>
	<polyline style="fill:#857C42;" points="371.379,616.655 398.803,644.08 447.939,594.943 	"/>
	<path d="M398.803,646.039c-0.501,0-1.003-0.191-1.386-0.574l-27.424-27.424c-0.766-0.765-0.766-2.006,0-2.772
		c0.766-0.765,2.006-0.765,2.772,0l26.039,26.039l47.751-47.752c0.766-0.765,2.006-0.765,2.772,0c0.766,0.767,0.766,2.006,0,2.773
		l-49.137,49.136C399.806,645.849,399.304,646.039,398.803,646.039z"/>
</g>
<g>
	<rect x="680.945" y="278.935" style="fill:#FFE696;" width="51.434" height="51.437"/>
	<path d="M732.379,332.332h-51.434c-1.083,0-1.96-0.877-1.96-1.96v-51.437c0-1.083,0.877-1.961,1.96-1.961h51.434
		c1.083,0,1.959,0.877,1.959,1.961v51.437C734.338,331.455,733.462,332.332,732.379,332.332z M682.904,328.412h47.514v-47.518
		h-47.514V328.412z"/>
</g>
<g>
	<path d="M667.054,324.258h-39.157c-1.084,0-1.961-0.876-1.961-1.96s0.877-1.959,1.961-1.959h39.157
		c1.082,0,1.959,0.876,1.959,1.959S668.136,324.258,667.054,324.258z"/>
</g>
<g>
	<path d="M725.144,354.584h-97.247c-1.084,0-1.961-0.877-1.961-1.96c0-1.083,0.877-1.96,1.961-1.96h97.247
		c1.084,0,1.959,0.877,1.959,1.96C727.102,353.707,726.227,354.584,725.144,354.584z"/>
</g>
<g>
	<path d="M725.144,387.222h-97.247c-1.084,0-1.961-0.877-1.961-1.961c0-1.083,0.877-1.96,1.961-1.96h97.247
		c1.084,0,1.959,0.877,1.959,1.96C727.102,386.345,726.227,387.222,725.144,387.222z"/>
</g>
<g>
	<path d="M653.658,215.638c-0.459,0-0.915-0.157-1.286-0.482c-0.819-0.712-0.903-1.948-0.19-2.764l62.102-71.244
		c0.708-0.824,1.948-0.908,2.764-0.192c0.82,0.712,0.903,1.949,0.191,2.764l-62.102,71.244
		C654.749,215.412,654.206,215.638,653.658,215.638z"/>
</g>
<g>
	<path style="fill:#3CA6CF;" d="M88.785,547.965l-11.897-2.085c-2.84,5.01-5.171,10.293-6.921,15.755l9.57,7.369l-2.511,10.792
		l0.314,11.074l-10.856,5.325c0.631,5.653,1.833,11.288,3.655,16.813l12.093,0.329l4.31,10.209l6.768,8.782l-5.654,10.684
		c3.908,4.311,8.223,8.123,12.835,11.449l9.976-6.836l9.486,5.727l10.646,3.115l1.7,11.972c5.608,1.159,11.346,1.73,17.123,1.714
		l4.039-11.381l11.048-0.953l10.439-3.725l8.422,8.693c2.591-1.179,5.141-2.495,7.645-3.954c2.507-1.466,4.908-3.047,7.212-4.724
		l-3.43-11.6l8.376-7.254l6.263-9.153l11.901,2.084c2.841-5.022,5.183-10.298,6.921-15.761l-9.57-7.361l2.511-10.795l-0.314-11.082
		l10.856-5.31c-0.631-5.658-1.826-11.293-3.66-16.828l-12.089-0.321l-4.318-10.21l-6.753-8.781l5.654-10.685
		c-3.924-4.314-8.234-8.13-12.851-11.445l-9.968,6.832l-9.482-5.729l-10.642-3.12l-1.7-11.962c-5.62-1.165-11.358-1.73-17.13-1.72
		l-4.042,11.385l-11.04,0.945l-10.451,3.726l-8.414-8.687c-2.58,1.18-5.138,2.495-7.641,3.963c-2.507,1.458-4.916,3.035-7.22,4.72
		l3.43,11.595l-8.375,7.254L88.785,547.965z M126.859,548.899c21.054-12.284,48.091-5.176,60.375,15.886
		c12.292,21.055,5.195,48.089-15.878,60.381c-21.051,12.283-48.088,5.179-60.373-15.88
		C98.688,588.225,105.796,561.195,126.859,548.899z"/>
	<path d="M149.195,672.112c-5.842,0-11.661-0.589-17.295-1.757c-0.808-0.165-1.428-0.823-1.543-1.642l-1.523-10.72l-9.433-2.763
		c-0.161-0.046-0.317-0.115-0.463-0.203l-8.402-5.072l-8.938,6.121c-0.682,0.464-1.585,0.459-2.25-0.027
		c-4.816-3.472-9.237-7.414-13.142-11.721c-0.555-0.613-0.666-1.505-0.283-2.232l5.064-9.569l-5.999-7.783
		c-0.1-0.133-0.188-0.279-0.253-0.435l-3.816-9.047l-10.834-0.294c-0.827-0.023-1.551-0.563-1.807-1.348
		c-1.826-5.535-3.085-11.323-3.744-17.207c-0.092-0.823,0.344-1.615,1.087-1.979l9.723-4.769l-0.279-9.811
		c-0.003-0.169,0.012-0.337,0.05-0.502l2.228-9.563l-8.571-6.6c-0.654-0.506-0.922-1.366-0.673-2.151
		c1.776-5.539,4.157-10.964,7.086-16.124c0.41-0.723,1.24-1.121,2.04-0.964l10.657,1.868l5.547-8.116
		c0.096-0.138,0.211-0.264,0.337-0.375l7.419-6.427l-3.07-10.386c-0.234-0.792,0.053-1.65,0.724-2.137
		c2.369-1.733,4.853-3.356,7.392-4.834c2.477-1.451,5.107-2.813,7.81-4.051c0.754-0.345,1.646-0.176,2.224,0.422l7.533,7.778
		l9.264-3.3c0.157-0.058,0.325-0.092,0.49-0.107l9.784-0.839l3.621-10.194c0.276-0.781,1.015-1.306,1.841-1.306
		c6.052,0,11.894,0.594,17.533,1.761c0.808,0.165,1.428,0.823,1.543,1.643l1.523,10.711l9.429,2.768
		c0.161,0.046,0.318,0.115,0.463,0.203l8.402,5.076l8.927-6.117c0.678-0.471,1.574-0.46,2.251,0.022
		c4.778,3.434,9.207,7.376,13.157,11.721c0.555,0.609,0.666,1.506,0.283,2.232l-5.068,9.574l5.987,7.782
		c0.099,0.131,0.188,0.275,0.252,0.433l3.824,9.046l10.83,0.287c0.823,0.023,1.546,0.559,1.807,1.344
		c1.826,5.508,3.085,11.308,3.748,17.226c0.091,0.823-0.345,1.616-1.087,1.979l-9.723,4.754l0.279,9.823
		c0.004,0.165-0.011,0.333-0.05,0.497l-2.228,9.566l8.571,6.592c0.655,0.506,0.922,1.363,0.674,2.148
		c-1.742,5.471-4.123,10.899-7.082,16.132c-0.406,0.725-1.229,1.142-2.044,0.965l-10.661-1.864l-5.547,8.112
		c-0.095,0.138-0.21,0.264-0.337,0.375l-7.419,6.427l3.07,10.39c0.234,0.796-0.057,1.653-0.728,2.14
		c-2.403,1.749-4.888,3.376-7.376,4.831c-2.534,1.478-5.164,2.84-7.82,4.046c-0.751,0.345-1.639,0.176-2.22-0.421l-7.541-7.786
		l-9.253,3.299c-0.157,0.058-0.321,0.093-0.49,0.108l-9.792,0.846l-3.614,10.189c-0.28,0.781-1.015,1.303-1.845,1.306H149.195z
		 M134.044,666.784c4.578,0.865,9.275,1.336,13.995,1.4l3.571-10.067c0.26-0.723,0.915-1.232,1.681-1.297l10.795-0.932l10.202-3.64
		c0.72-0.252,1.531-0.073,2.067,0.482l7.45,7.691c2.113-1.003,4.199-2.105,6.22-3.281c1.991-1.163,3.977-2.442,5.926-3.813
		l-3.036-10.263c-0.218-0.735,0.016-1.534,0.597-2.036l8.185-7.09l6.117-8.942c0.433-0.636,1.198-0.98,1.956-0.822l10.527,1.841
		c2.29-4.203,4.192-8.525,5.666-12.881l-8.472-6.516c-0.609-0.472-0.888-1.252-0.716-1.999l2.454-10.55l-0.306-10.829
		c-0.019-0.766,0.41-1.479,1.099-1.815l9.605-4.696c-0.605-4.713-1.607-9.325-2.985-13.758l-10.704-0.284
		c-0.766-0.023-1.451-0.489-1.753-1.198l-4.218-9.975l-6.6-8.583c-0.467-0.608-0.536-1.432-0.18-2.109l5.007-9.459
		c-3.216-3.411-6.738-6.551-10.508-9.355l-8.824,6.048c-0.635,0.436-1.462,0.464-2.121,0.061l-9.264-5.597l-10.397-3.051
		c-0.739-0.215-1.282-0.843-1.39-1.605l-1.504-10.585c-4.571-0.864-9.268-1.335-14.003-1.404l-3.579,10.071
		c-0.256,0.727-0.911,1.233-1.677,1.299l-10.788,0.922l-10.213,3.641c-0.712,0.257-1.531,0.076-2.067-0.482l-7.441-7.683
		c-2.144,1.021-4.23,2.124-6.213,3.287c-2.028,1.18-4.019,2.455-5.937,3.81L105.303,531c0.218,0.734-0.016,1.535-0.597,2.036
		l-8.185,7.089l-6.117,8.947c-0.437,0.631-1.206,0.953-1.956,0.822l-10.527-1.845c-2.266,4.157-4.165,8.479-5.658,12.882
		l8.468,6.519c0.608,0.472,0.888,1.252,0.715,1.999l-2.454,10.546l0.306,10.817c0.019,0.769-0.406,1.477-1.099,1.818l-9.604,4.713
		c0.601,4.682,1.604,9.294,2.986,13.742l10.703,0.291c0.77,0.023,1.455,0.489,1.753,1.198l4.211,9.976l6.615,8.578
		c0.467,0.609,0.536,1.437,0.18,2.114l-5.007,9.459c3.182,3.388,6.703,6.526,10.493,9.354l8.832-6.047
		c0.631-0.441,1.454-0.468,2.121-0.062l9.268,5.592l10.4,3.048c0.739,0.214,1.283,0.843,1.39,1.604L134.044,666.784z
		 M149.153,633.148c-16.357,0-31.631-8.763-39.861-22.873c-6.213-10.639-7.905-23.056-4.773-34.966
		c3.131-11.913,10.714-21.892,21.353-28.101c7.052-4.115,15.071-6.29,23.19-6.29c16.361,0,31.635,8.767,39.865,22.88
		c6.209,10.635,7.905,23.053,4.777,34.961c-3.131,11.914-10.719,21.893-21.36,28.099
		C165.291,630.973,157.272,633.148,149.153,633.148z M149.061,544.838c-7.426,0-14.761,1.991-21.215,5.753
		c-9.734,5.686-16.675,14.815-19.539,25.713c-2.867,10.898-1.313,22.261,4.368,31.995c7.53,12.908,21.51,20.928,36.478,20.928
		c7.426,0,14.761-1.99,21.215-5.753c9.739-5.681,16.679-14.81,19.543-25.709c2.864-10.899,1.313-22.26-4.368-31.991
		C178.009,552.861,164.032,544.838,149.061,544.838z"/>
</g>
<g>
	<g>
		<g>
			<rect x="57.808" y="607.644" style="fill:#FFFFFF;" width="182.605" height="112.942"/>
			<path d="M240.414,722.548H57.808c-1.083,0-1.96-0.877-1.96-1.961V607.644c0-1.083,0.877-1.96,1.96-1.96h182.605
				c1.083,0,1.96,0.877,1.96,1.96v112.942C242.373,721.671,241.497,722.548,240.414,722.548z M59.768,718.627h178.686V609.604
				H59.768V718.627z"/>
		</g>
		<g>
			<g>
				<polygon style="fill:#FFE696;" points="163.745,669.843 134.469,669.843 130.464,666.592 57.808,720.587 240.414,720.587 
					167.749,666.592 				"/>
				<path d="M240.49,722.548c-0.02,0-0.046,0-0.077,0H57.808c-0.846,0-1.596-0.544-1.86-1.345c-0.264-0.803,0.012-1.684,0.693-2.189
					l72.656-53.994c0.712-0.528,1.708-0.51,2.404,0.05l3.464,2.813h27.883l3.465-2.813c0.696-0.563,1.692-0.583,2.404-0.05
					l72.373,53.775c0.686,0.307,1.16,0.992,1.16,1.792C242.45,721.671,241.573,722.548,240.49,722.548z M63.73,718.627h170.761
					l-66.689-49.553l-2.821,2.292c-0.352,0.283-0.785,0.436-1.237,0.436h-29.276c-0.452,0-0.884-0.153-1.236-0.436l-2.821-2.292
					L63.73,718.627z"/>
			</g>
			<g>
				<polygon style="fill:#FFE696;" points="57.808,607.644 130.464,666.592 134.469,669.843 163.745,669.843 167.749,666.592 
					240.414,607.644 				"/>
				<path d="M163.745,671.803h-29.276c-0.452,0-0.884-0.153-1.236-0.436l-76.661-62.198c-0.643-0.524-0.888-1.397-0.612-2.178
					c0.279-0.781,1.018-1.306,1.849-1.306h182.605c0.831,0,1.569,0.524,1.849,1.306c0.275,0.781,0.03,1.653-0.613,2.178
					l-76.668,62.198C164.63,671.649,164.197,671.803,163.745,671.803z M135.165,667.882h27.883l71.837-58.277H63.336
					L135.165,667.882z"/>
			</g>
		</g>
	</g>
	<g>
		<line style="fill:#FFFFFF;" x1="112.538" y1="679.906" x2="83.295" y2="679.906"/>
		<path d="M112.538,681.866H83.295c-1.084,0-1.96-0.877-1.96-1.96c0-1.084,0.876-1.959,1.96-1.959h29.242
			c1.083,0,1.96,0.875,1.96,1.959C114.498,680.989,113.621,681.866,112.538,681.866z"/>
	</g>
	<g>
		<line style="fill:#FFFFFF;" x1="214.926" y1="679.906" x2="185.688" y2="679.906"/>
		<path d="M214.926,681.866h-29.239c-1.083,0-1.96-0.877-1.96-1.96c0-1.084,0.876-1.959,1.96-1.959h29.239
			c1.083,0,1.96,0.875,1.96,1.959C216.886,680.989,216.01,681.866,214.926,681.866z"/>
	</g>
</g>
<g>
	<path d="M330.308,722.39h-32.561c-1.083,0-1.96-0.876-1.96-1.96c0-1.082,0.877-1.959,1.96-1.959h32.561
		c1.083,0,1.96,0.877,1.96,1.959C332.268,721.514,331.391,722.39,330.308,722.39z"/>
</g>
<g>
	<path d="M521.894,722.548H355.649c-1.083,0-1.96-0.877-1.96-1.961c0-1.083,0.877-1.96,1.96-1.96h166.244
		c1.083,0,1.96,0.877,1.96,1.96C523.854,721.671,522.977,722.548,521.894,722.548z"/>
</g>
<g>
	<g>
		<path style="fill:#FFFFFF;" d="M638.277,146.009c0-38.839-31.481-70.329-70.321-70.329c-38.839,0-70.328,31.49-70.328,70.329
			c0,20.04,8.398,38.112,21.85,50.92v-29.564c0,0-2.656-24.771,18.383-28.768h18.91l11.178,14.386l11.201-14.386h18.895
			c21.047,3.997,18.382,28.768,18.382,28.768v29.564C629.886,184.121,638.277,166.049,638.277,146.009z"/>
		<path d="M616.427,198.89c-0.261,0-0.523-0.054-0.773-0.157c-0.72-0.31-1.186-1.018-1.186-1.803v-29.564
			c0.111-1.145,2.209-23.237-16.79-26.843l-17.566,0.035l-10.614,13.632c-0.373,0.475-0.942,0.754-1.548,0.754l0,0
			c-0.604,0-1.175-0.279-1.547-0.758l-10.591-13.627h-17.95c-18.623,3.571-16.534,25.663-16.435,26.601l0.013,29.771
			c0,0.785-0.468,1.493-1.188,1.803c-0.728,0.299-1.558,0.153-2.124-0.383c-14.482-13.792-22.459-32.378-22.459-52.341
			c0-39.861,32.428-72.289,72.288-72.289c39.858,0,72.281,32.427,72.281,72.289c0,19.971-7.978,38.556-22.459,52.341
			C617.407,198.703,616.921,198.89,616.427,198.89z M579.149,136.638h18.895c22.926,4.318,20.36,30.67,20.33,30.939l0.012,24.568
			c11.599-12.621,17.931-28.829,17.931-46.135c0-37.699-30.666-68.369-68.361-68.369c-37.698,0-68.369,30.67-68.369,68.369
			c0,17.299,6.332,33.503,17.931,46.132v-24.775c-0.019-0.058-2.576-26.41,19.975-30.694l19.278-0.034
			c0.605,0,1.175,0.28,1.547,0.758l9.631,12.396l9.654-12.399C577.975,136.918,578.545,136.638,579.149,136.638z"/>
	</g>
	<g>
		<path style="fill:#3CA6CF;" d="M598.045,138.598h-18.895l-11.201,14.386l-11.178-14.386h-18.91
			c-21.039,3.997-18.383,28.768-18.383,28.768v29.564c0.468,0.448,0.931,0.896,1.417,1.328
			c12.464,11.236,28.955,18.077,47.062,18.077c18.1,0,34.599-6.841,47.062-18.077c0.482-0.432,0.949-0.88,1.408-1.328v-29.564
			C616.427,167.366,619.092,142.595,598.045,138.598z"/>
		<path d="M567.956,218.294c-17.903,0-35.084-6.599-48.375-18.581c-0.451-0.402-0.892-0.823-1.335-1.248
			c-0.388-0.372-0.729-1.003-0.729-1.536v-29.564c-0.019-0.058-2.576-26.41,19.975-30.694l19.278-0.034
			c0.605,0,1.175,0.28,1.547,0.758l9.631,12.396l9.654-12.399c0.372-0.475,0.942-0.754,1.547-0.754h18.895
			c22.926,4.318,20.36,30.67,20.33,30.939l0.012,29.353c0,0.528-0.215,1.034-0.594,1.405c-0.479,0.467-0.964,0.93-1.466,1.382
			C603.04,211.695,585.859,218.294,567.956,218.294z M521.438,196.092c0.268,0.252,0.509,0.478,0.758,0.7
			c12.582,11.343,28.829,17.582,45.76,17.582c16.932,0,33.178-6.239,45.749-17.57c0.261-0.234,0.513-0.467,0.762-0.705v-28.733
			c0.111-1.145,2.209-23.237-16.79-26.843l-17.566,0.035l-10.614,13.632c-0.373,0.475-0.942,0.754-1.548,0.754l0,0
			c-0.604,0-1.175-0.279-1.547-0.758l-10.591-13.627h-17.95c-18.678,3.583-16.534,25.66-16.435,26.597L521.438,196.092z"/>
	</g>
	<g>
		<line style="fill:#FFFFFF;" x1="539.453" y1="210.316" x2="539.453" y2="164.908"/>
		<path d="M539.453,212.277c-1.084,0-1.961-0.877-1.961-1.96v-45.408c0-1.083,0.877-1.96,1.961-1.96c1.083,0,1.96,0.877,1.96,1.96
			v45.408C541.413,211.4,540.536,212.277,539.453,212.277z"/>
	</g>
	<g>
		<line style="fill:#FFFFFF;" x1="596.46" y1="210.316" x2="596.46" y2="164.908"/>
		<path d="M596.46,212.277c-1.084,0-1.96-0.877-1.96-1.96v-45.408c0-1.083,0.876-1.96,1.96-1.96c1.083,0,1.96,0.877,1.96,1.96
			v45.408C598.42,211.4,597.543,212.277,596.46,212.277z"/>
	</g>
	<g>
		<path style="fill:#FFEBDA;" d="M589.072,111.469c0,11.664-9.451,21.12-21.124,21.12c-11.655,0-21.108-9.456-21.108-21.12
			c0-11.656,9.453-21.119,21.108-21.119C579.621,90.35,589.072,99.813,589.072,111.469z"/>
		<path d="M567.948,134.548c-12.721,0-23.067-10.355-23.067-23.079c0-12.725,10.347-23.08,23.067-23.08
			c12.729,0,23.083,10.355,23.083,23.08C591.031,124.193,580.678,134.548,567.948,134.548z M567.948,92.31
			c-10.558,0-19.147,8.594-19.147,19.159c0,10.565,8.59,19.159,19.147,19.159c10.565,0,19.163-8.594,19.163-19.159
			C587.111,100.903,578.514,92.31,567.948,92.31z"/>
	</g>
</g>
<g>
	<path d="M726.992,167.676c-1.083,0-1.959-0.877-1.959-1.96v-32.584h-32.585c-1.084,0-1.96-0.877-1.96-1.96
		c0-1.083,0.876-1.96,1.96-1.96h34.544c1.083,0,1.96,0.877,1.96,1.96v34.544C728.952,166.799,728.075,167.676,726.992,167.676z"/>
</g>
<g>
	<path d="M736.405,222.123h-34.191c-1.084,0-1.96-0.877-1.96-1.961c0-1.083,0.876-1.959,1.96-1.959h34.191
		c1.083,0,1.96,0.876,1.96,1.959C738.365,221.246,737.488,222.123,736.405,222.123z"/>
</g>
<g>
	<path d="M719.317,239.222c-1.084,0-1.96-0.876-1.96-1.96v-34.2c0-1.083,0.876-1.96,1.96-1.96c1.083,0,1.96,0.877,1.96,1.96v34.2
		C721.277,238.346,720.4,239.222,719.317,239.222z"/>
</g>
<g>
	<path d="M666.969,173.885c-0.455,0-0.915-0.157-1.286-0.482c-0.815-0.708-0.903-1.949-0.191-2.764l19.109-21.954
		c0.708-0.812,1.949-0.907,2.765-0.191c0.815,0.708,0.902,1.948,0.19,2.764l-19.109,21.954
		C668.06,173.655,667.516,173.885,666.969,173.885z"/>
</g>
<g>
	<path d="M655.289,243.958c-0.437,0-0.877-0.146-1.24-0.444c-0.838-0.685-0.961-1.918-0.275-2.756l19.626-23.991
		c0.686-0.838,1.918-0.96,2.757-0.275c0.838,0.685,0.961,1.918,0.275,2.756l-19.626,23.991
		C656.418,243.712,655.855,243.958,655.289,243.958z"/>
</g>
<g>
	<path d="M504.702,251.947c-6.405,0-11.615-5.21-11.615-11.611c0-6.4,5.21-11.61,11.615-11.61c6.4,0,11.61,5.21,11.61,11.61
		C516.313,246.737,511.102,251.947,504.702,251.947z M504.702,232.645c-4.242,0-7.695,3.449-7.695,7.69
		c0,4.242,3.453,7.691,7.695,7.691c4.241,0,7.69-3.449,7.69-7.691C512.392,236.095,508.943,232.645,504.702,232.645z"/>
</g>
<g>
	<path d="M544.222,254.244c-0.716,0-1.404-0.395-1.749-1.08c-0.485-0.965-0.1-2.144,0.869-2.63l23.727-11.947
		c0.96-0.482,2.14-0.104,2.629,0.869c0.487,0.965,0.1,2.144-0.868,2.63l-23.727,11.947
		C544.819,254.175,544.521,254.244,544.222,254.244z"/>
</g>
<g>
	<polygon style="fill:#FFFFFF;" points="239.885,341.588 54.666,341.588 54.666,452.321 239.885,452.321 239.885,374.165 
		262.972,341.588 	"/>
	<path d="M239.885,454.281H54.666c-1.083,0-1.96-0.876-1.96-1.96V341.588c0-1.083,0.877-1.96,1.96-1.96h208.307
		c0.731,0,1.405,0.409,1.742,1.061c0.337,0.65,0.28,1.435-0.142,2.032l-22.727,32.067v77.533
		C241.845,453.405,240.968,454.281,239.885,454.281z M56.625,450.362h181.3v-76.198c0-0.406,0.126-0.804,0.36-1.133l20.897-29.483
		H56.625V450.362z"/>
</g>
<g>
	<rect x="71.31" y="358.232" style="fill:#FFE696;" width="51.017" height="51.02"/>
	<path d="M122.326,411.213H71.31c-1.083,0-1.96-0.877-1.96-1.961v-51.02c0-1.083,0.877-1.96,1.96-1.96h51.017
		c1.083,0,1.96,0.877,1.96,1.96v51.02C124.286,410.336,123.409,411.213,122.326,411.213z M73.27,407.293h47.096v-47.101H73.27
		V407.293z"/>
</g>
<g>
	<rect x="137.447" y="392.925" style="fill:#D1D3D4;" width="86.017" height="16.327"/>
	<path d="M223.463,411.213h-86.017c-1.083,0-1.96-0.877-1.96-1.961v-16.327c0-1.082,0.876-1.96,1.96-1.96h86.017
		c1.083,0,1.96,0.877,1.96,1.96v16.327C225.423,410.336,224.546,411.213,223.463,411.213z M139.407,407.293h82.096v-12.407h-82.096
		V407.293z"/>
</g>
<g>
	<path d="M223.463,430.498H71.31c-1.083,0-1.96-0.877-1.96-1.96c0-1.084,0.877-1.96,1.96-1.96h152.154c1.083,0,1.96,0.876,1.96,1.96
		C225.423,429.621,224.546,430.498,223.463,430.498z"/>
</g>
<g>
	<path d="M223.463,376.125h-86.017c-1.083,0-1.96-0.877-1.96-1.96c0-1.084,0.876-1.96,1.96-1.96h86.017
		c1.083,0,1.96,0.876,1.96,1.96C225.423,375.248,224.546,376.125,223.463,376.125z"/>
</g>
</svg>
