<?xml version="1.0" encoding="utf-8"?>
<!-- Generator: Adobe Illustrator 27.5.0, SVG Export Plug-In . SVG Version: 6.00 Build 0)  -->
<svg version="1.1" xmlns="http://www.w3.org/2000/svg" xmlns:xlink="http://www.w3.org/1999/xlink" x="0px" y="0px"
	 viewBox="0 0 500 500" style="enable-background:new 0 0 500 500;" xml:space="preserve">
<g id="Background">
	<rect style="fill:#FFFFFF;" width="500" height="500"/>
</g>
<g id="Objects">
	<g>
		<g>
			
				<path style="fill:none;stroke:#CCCCCC;stroke-width:1.9176;stroke-linecap:round;stroke-miterlimit:10;stroke-dasharray:0,3.8353;" d="
				M163.324,408.943v9.863c0,5.777,4.647,10.461,10.378,10.461h151.082c5.732,0,10.379-4.683,10.379-10.461v-14.744"/>
			<path style="fill:#304B6E;" d="M263.403,226.618v116.716c0,4.13-3.324,7.476-7.418,7.476H71.162
				c-4.097,0-7.418-3.347-7.418-7.476V226.618c0-4.126,3.32-7.476,7.418-7.476h184.823
				C260.079,219.142,263.403,222.492,263.403,226.618z"/>
			<path style="fill:#1D2C52;" d="M254.719,345.609H72.426c-1.955,0-3.54-1.585-3.54-3.54V227.885c0-1.955,1.585-3.54,3.54-3.54
				h182.294c1.955,0,3.54,1.585,3.54,3.54v114.184C258.26,344.024,256.675,345.609,254.719,345.609z"/>
			
				<text transform="matrix(0.9921 0 0 1 79.1909 257.2255)" style="fill:#D9DFE6; font-family:'Montserrat-Bold'; font-size:22.291px;">cms</text>
			<g>
				<path style="fill:#FFFFFF;" d="M241.747,285.649H199.48c-1.864,0-3.374-1.511-3.374-3.374V244.32
					c0-1.864,1.511-3.374,3.374-3.374h42.267c1.864,0,3.374,1.511,3.374,3.374v37.954
					C245.122,284.138,243.611,285.649,241.747,285.649z"/>
				<g>
					<path style="fill:#34909D;" d="M241.529,245.238c0,0.949-0.763,1.719-1.705,1.719c-0.942,0-1.705-0.769-1.705-1.719
						c0-0.949,0.763-1.719,1.705-1.719C240.766,243.52,241.529,244.289,241.529,245.238z"/>
					<path style="fill:#F8B85E;" d="M236.476,245.238c0,0.949-0.763,1.719-1.705,1.719c-0.942,0-1.705-0.769-1.705-1.719
						c0-0.949,0.763-1.719,1.705-1.719C235.713,243.52,236.476,244.289,236.476,245.238z"/>
					<path style="fill:#BA0034;" d="M231.423,245.238c0,0.949-0.763,1.719-1.705,1.719s-1.705-0.769-1.705-1.719
						c0-0.949,0.763-1.719,1.705-1.719S231.423,244.289,231.423,245.238z"/>
				</g>
			</g>
			<g>
				<path style="fill:#D9DFE6;" d="M187.426,285.649H145.16c-1.864,0-3.374-1.511-3.374-3.374V244.32
					c0-1.864,1.511-3.374,3.374-3.374h42.267c1.864,0,3.374,1.511,3.374,3.374v37.954
					C190.801,284.138,189.29,285.649,187.426,285.649z"/>
				<g>
					<path style="fill:#34909D;" d="M187.208,245.238c0,0.949-0.763,1.719-1.705,1.719c-0.942,0-1.705-0.769-1.705-1.719
						c0-0.949,0.763-1.719,1.705-1.719C186.445,243.52,187.208,244.289,187.208,245.238z"/>
					<path style="fill:#F8B85E;" d="M182.155,245.238c0,0.949-0.763,1.719-1.705,1.719c-0.942,0-1.705-0.769-1.705-1.719
						c0-0.949,0.763-1.719,1.705-1.719C181.392,243.52,182.155,244.289,182.155,245.238z"/>
					<path style="fill:#BA0034;" d="M177.102,245.238c0,0.949-0.763,1.719-1.705,1.719c-0.942,0-1.705-0.769-1.705-1.719
						c0-0.949,0.763-1.719,1.705-1.719C176.339,243.52,177.102,244.289,177.102,245.238z"/>
				</g>
			</g>
			<g>
				<path style="fill:#D9DFE6;" d="M241.747,335.63H199.48c-1.864,0-3.374-1.511-3.374-3.374v-37.954
					c0-1.864,1.511-3.374,3.374-3.374h42.267c1.864,0,3.374,1.511,3.374,3.374v37.954
					C245.122,334.119,243.611,335.63,241.747,335.63z"/>
				<g>
					<path style="fill:#34909D;" d="M241.529,295.219c0,0.949-0.763,1.719-1.705,1.719c-0.942,0-1.705-0.769-1.705-1.719
						c0-0.949,0.763-1.719,1.705-1.719C240.766,293.5,241.529,294.27,241.529,295.219z"/>
					<path style="fill:#F8B85E;" d="M236.476,295.219c0,0.949-0.763,1.719-1.705,1.719c-0.942,0-1.705-0.769-1.705-1.719
						c0-0.949,0.763-1.719,1.705-1.719C235.713,293.5,236.476,294.27,236.476,295.219z"/>
					<path style="fill:#BA0034;" d="M231.423,295.219c0,0.949-0.763,1.719-1.705,1.719s-1.705-0.769-1.705-1.719
						c0-0.949,0.763-1.719,1.705-1.719S231.423,294.27,231.423,295.219z"/>
				</g>
			</g>
			<g>
				<path style="fill:#FFFFFF;" d="M187.426,335.63H145.16c-1.864,0-3.374-1.511-3.374-3.374v-37.954
					c0-1.864,1.511-3.374,3.374-3.374h42.267c1.864,0,3.374,1.511,3.374,3.374v37.954C190.801,334.119,189.29,335.63,187.426,335.63
					z"/>
				<g>
					<path style="fill:#34909D;" d="M187.208,295.219c0,0.949-0.763,1.719-1.705,1.719c-0.942,0-1.705-0.769-1.705-1.719
						c0-0.949,0.763-1.719,1.705-1.719C186.445,293.5,187.208,294.27,187.208,295.219z"/>
					<path style="fill:#F8B85E;" d="M182.155,295.219c0,0.949-0.763,1.719-1.705,1.719c-0.942,0-1.705-0.769-1.705-1.719
						c0-0.949,0.763-1.719,1.705-1.719C181.392,293.5,182.155,294.27,182.155,295.219z"/>
					<path style="fill:#BA0034;" d="M177.102,295.219c0,0.949-0.763,1.719-1.705,1.719c-0.942,0-1.705-0.769-1.705-1.719
						c0-0.949,0.763-1.719,1.705-1.719C176.339,293.5,177.102,294.27,177.102,295.219z"/>
				</g>
			</g>
			<rect x="80.916" y="263.418" style="fill:#304B6E;" width="47.561" height="3.818"/>
			<rect x="80.916" y="269.922" style="fill:#304B6E;" width="47.561" height="3.818"/>
			<rect x="80.916" y="276.427" style="fill:#304B6E;" width="47.561" height="3.818"/>
			<rect x="80.916" y="282.932" style="fill:#304B6E;" width="22.002" height="3.818"/>
			<g>
				<path style="fill:#34909D;" d="M103.028,318.133H83.056c-1.98,0-3.599,1.62-3.599,3.599v0.028c0,1.98,1.62,3.599,3.599,3.599
					h19.972c1.979,0,3.599-1.62,3.599-3.599v-0.028C106.627,319.753,105.007,318.133,103.028,318.133z"/>
				<path style="fill:#BA0034;" d="M103.028,328.403H83.056c-1.98,0-3.599,1.62-3.599,3.599v0.028c0,1.98,1.62,3.599,3.599,3.599
					h19.972c1.979,0,3.599-1.62,3.599-3.599v-0.028C106.627,330.022,105.007,328.403,103.028,328.403z"/>
				<rect x="86.49" y="320.911" style="fill:#D9DFE6;" width="13.104" height="2.125"/>
				<rect x="86.49" y="331.082" style="fill:#D9DFE6;" width="13.104" height="2.125"/>
			</g>
			
				<path style="fill:none;stroke:#1D2C52;stroke-width:2.5568;stroke-linecap:round;stroke-miterlimit:10;stroke-dasharray:0,3.8353;" d="
				M233.699,148.644H137.74c-16.866,0-30.539,13.781-30.539,30.781v34.082"/>
			<path style="fill:#BA0034;" d="M110.914,218.807c0,2.036-1.637,3.686-3.657,3.686c-2.02,0-3.657-1.65-3.657-3.686
				c0-2.036,1.637-3.686,3.657-3.686C109.277,215.12,110.914,216.771,110.914,218.807z"/>
			<path style="opacity:0.49;fill:#1D2C52;" d="M263.403,226.618v116.716c0,4.13-3.324,7.476-7.418,7.476h-29.272l5.979-131.669
				h23.293C260.079,219.142,263.403,222.492,263.403,226.618z"/>
			
				<ellipse style="fill:none;stroke:#CCCCCC;stroke-width:1.9176;stroke-linecap:round;stroke-miterlimit:10;stroke-dasharray:0,3.8353;" cx="425.687" cy="307.535" rx="23.772" ry="23.96"/>
			<path style="fill:#D9DFE6;" d="M425.941,102.859v276.92c0,3.831-3.082,6.937-6.883,6.937H246.743
				c-3.801,0-6.883-3.106-6.883-6.937v-276.92c0-3.831,3.082-6.937,6.883-6.937h172.315
				C422.86,95.921,425.941,99.027,425.941,102.859z"/>
			<rect x="239.861" y="126.625" style="fill:#1D2C52;" width="186.081" height="66.475"/>
			<path style="fill:#C5CBD1;" d="M425.941,102.859v7.797H239.861v-7.797c0-3.831,3.082-6.937,6.883-6.937h172.315
				C422.86,95.921,425.941,99.027,425.941,102.859z"/>
			<path style="fill:#BA0034;" d="M243.263,148.695c0,2.036-1.637,3.686-3.657,3.686c-2.02,0-3.657-1.65-3.657-3.686
				s1.637-3.686,3.657-3.686C241.626,145.008,243.263,146.659,243.263,148.695z"/>
			<g>
				<ellipse style="fill:#34909D;" cx="416" cy="104.239" rx="3.236" ry="3.261"/>
				<path style="fill:#F8B85E;" d="M409.647,104.239c0,1.801-1.449,3.261-3.236,3.261c-1.787,0-3.236-1.46-3.236-3.261
					s1.449-3.261,3.236-3.261C408.198,100.978,409.647,102.438,409.647,104.239z"/>
				<ellipse style="fill:#BA0034;" cx="396.822" cy="104.239" rx="3.236" ry="3.261"/>
			</g>
			<path style="fill:#FFFFFF;" d="M413.255,203.482H252.543c-3.043,0-5.51-2.467-5.51-5.51v-73.58c0-3.043,2.467-5.51,5.51-5.51
				h160.712c3.043,0,5.51,2.467,5.51,5.51v73.58C418.765,201.016,416.298,203.482,413.255,203.482z"/>
			<path style="fill:#1D2C52;" d="M327.754,256.284h-77.241c-1.922,0-3.48-1.558-3.48-3.48v-37.806c0-1.922,1.558-3.48,3.48-3.48
				h77.241c1.922,0,3.48,1.558,3.48,3.48v37.806C331.234,254.726,329.676,256.284,327.754,256.284z"/>
			<path style="fill:#1D2C52;" d="M327.754,305.302h-77.241c-1.922,0-3.48-1.558-3.48-3.48v-37.806c0-1.922,1.558-3.48,3.48-3.48
				h77.241c1.922,0,3.48,1.558,3.48,3.48v37.806C331.234,303.744,329.676,305.302,327.754,305.302z"/>
			<path style="fill:#1D2C52;" d="M415.467,256.284h-77.241c-1.922,0-3.48-1.558-3.48-3.48v-37.806c0-1.922,1.558-3.48,3.48-3.48
				h77.241c1.922,0,3.48,1.558,3.48,3.48v37.806C418.946,254.726,417.388,256.284,415.467,256.284z"/>
			<path style="fill:#1D2C52;" d="M415.467,305.302h-77.241c-1.922,0-3.48-1.558-3.48-3.48v-37.806c0-1.922,1.558-3.48,3.48-3.48
				h77.241c1.922,0,3.48,1.558,3.48,3.48v37.806C418.946,303.744,417.388,305.302,415.467,305.302z"/>
			<path style="fill:#FFFFFF;" d="M296.496,365.612h-44.697c-2.632,0-4.765-2.134-4.765-4.765v-46.527
				c0-2.632,2.133-4.765,4.765-4.765h44.697c2.632,0,4.765,2.134,4.765,4.765v46.527
				C301.261,363.478,299.127,365.612,296.496,365.612z"/>
			<path style="fill:#FFFFFF;" d="M355.247,365.612h-44.697c-2.632,0-4.765-2.134-4.765-4.765v-46.527
				c0-2.632,2.134-4.765,4.765-4.765h44.697c2.632,0,4.765,2.134,4.765,4.765v46.527
				C360.013,363.478,357.879,365.612,355.247,365.612z"/>
			<path style="fill:#FFFFFF;" d="M413.999,365.612h-44.697c-2.632,0-4.765-2.134-4.765-4.765v-46.527
				c0-2.632,2.133-4.765,4.765-4.765h44.697c2.632,0,4.765,2.134,4.765,4.765v46.527
				C418.765,363.478,416.631,365.612,413.999,365.612z"/>
			<g>
				<rect x="368.841" y="344.291" style="fill:#D9DFE6;" width="45.571" height="3.363"/>
				<rect x="368.841" y="350.882" style="fill:#D9DFE6;" width="45.571" height="3.363"/>
				<rect x="368.841" y="357.473" style="fill:#D9DFE6;" width="28.212" height="3.363"/>
			</g>
			<g>
				<rect x="310.114" y="344.291" style="fill:#D9DFE6;" width="45.571" height="3.363"/>
				<rect x="310.114" y="350.882" style="fill:#D9DFE6;" width="45.571" height="3.363"/>
				<rect x="310.114" y="357.473" style="fill:#D9DFE6;" width="28.212" height="3.363"/>
			</g>
			<g>
				<rect x="251.387" y="344.291" style="fill:#D9DFE6;" width="45.571" height="3.363"/>
				<rect x="251.387" y="350.882" style="fill:#D9DFE6;" width="45.571" height="3.363"/>
				<rect x="251.387" y="357.473" style="fill:#D9DFE6;" width="28.212" height="3.363"/>
			</g>
			<rect x="400.846" y="260.536" style="fill:#34909D;" width="9.28" height="9.354"/>
			<rect x="317.41" y="211.519" style="fill:#34909D;" width="9.28" height="9.354"/>
			
				<text transform="matrix(0.9921 0 0 1 268.3779 172.7899)" style="fill:#34909D; font-family:'BebasNeueBold'; font-size:29.635px;">yoursite.com</text>
			<path style="fill:#34909D;" d="M214.783,168.881h-22.178c-4.937,0-8.938-4.002-8.938-8.938v-22.496
				c0-4.936,4.002-8.938,8.938-8.938h22.178c4.936,0,8.938,4.002,8.938,8.938v22.496
				C223.721,164.879,219.719,168.881,214.783,168.881z"/>
			<path style="fill:#34909D;" d="M168.295,168.881h-22.178c-4.936,0-8.938-4.002-8.938-8.938v-22.496
				c0-4.936,4.002-8.938,8.938-8.938h22.178c4.937,0,8.938,4.002,8.938,8.938v22.496
				C177.234,164.879,173.232,168.881,168.295,168.881z"/>
			<g>
				<g>
					<path style="fill:#1D2C52;" d="M206.958,138.423c0,3.135-2.521,5.676-5.631,5.676c-3.11,0-5.631-2.541-5.631-5.676
						s2.521-5.676,5.631-5.676C204.437,132.747,206.958,135.288,206.958,138.423z"/>
					<path style="fill:#FFFFFF;" d="M199.613,150.707v-12.074c0-1.018,0.819-1.844,1.83-1.844l0,0c1.01,0,1.829,0.826,1.829,1.844
						v9.216h6.106c1.852,0,3.353,1.513,3.353,3.38v7.262c0,0.63-0.248,1.234-0.691,1.68l0,0c-0.442,0.445-0.69,1.05-0.69,1.68v4.374
						h-9.942v-4.096c0-0.63-0.248-1.234-0.69-1.68l-0.723-0.729c-0.116-0.117-0.219-0.245-0.309-0.383l-5.665-8.769l0,0
						c1.339-1.227,3.335-1.378,4.84-0.366L199.613,150.707z"/>
				</g>
				<rect x="203.272" y="147.85" style="fill:#D9DFE6;" width="0.475" height="2.977"/>
				<rect x="206.199" y="147.85" style="fill:#D9DFE6;" width="0.475" height="2.977"/>
				<rect x="209.126" y="147.85" style="fill:#D9DFE6;" width="0.475" height="2.977"/>
			</g>
			<g>
				<rect x="146.364" y="134.12" style="fill:#FFFFFF;" width="22.072" height="30.733"/>
				<polygon style="fill:#1D2C52;" points="152.125,134.12 146.364,134.12 146.364,139.932 				"/>
				<rect x="151.007" y="137.565" style="fill:#D9DFE6;" width="12.786" height="0.719"/>
				<rect x="151.007" y="139.631" style="fill:#D9DFE6;" width="12.786" height="0.719"/>
				<rect x="151.007" y="141.698" style="fill:#D9DFE6;" width="12.786" height="0.719"/>
				<rect x="151.007" y="143.765" style="fill:#D9DFE6;" width="12.786" height="0.719"/>
				<rect x="151.007" y="145.831" style="fill:#D9DFE6;" width="12.786" height="0.719"/>
				<rect x="151.007" y="147.898" style="fill:#D9DFE6;" width="12.786" height="0.719"/>
				<rect x="151.007" y="149.965" style="fill:#D9DFE6;" width="12.786" height="0.719"/>
				<rect x="151.007" y="152.031" style="fill:#D9DFE6;" width="12.786" height="0.719"/>
				<rect x="151.007" y="154.098" style="fill:#D9DFE6;" width="12.786" height="0.719"/>
				<rect x="151.007" y="156.165" style="fill:#D9DFE6;" width="12.786" height="0.719"/>
				<rect x="151.007" y="158.232" style="fill:#D9DFE6;" width="12.786" height="0.719"/>
				<rect x="151.007" y="160.298" style="fill:#D9DFE6;" width="7.734" height="0.719"/>
			</g>
			<g>
				<path style="fill:#304B6E;" d="M345.708,386.726c0-1.144,0.875-2.083,1.986-2.175c-0.058-0.348-0.128-0.69-0.212-1.026
					c-0.096-0.388-0.21-0.77-0.34-1.144c-1.02,0.461-2.235,0.066-2.785-0.937c-0.549-1.002-0.233-2.248,0.694-2.871
					c-0.519-0.659-1.098-1.264-1.731-1.811c-0.652,0.913-1.9,1.183-2.873,0.594c-0.973-0.589-1.32-1.829-0.827-2.837
					c-0.766-0.304-1.569-0.537-2.399-0.691c-0.109,1.12-1.053,1.986-2.19,1.968c-1.137-0.018-2.054-0.916-2.128-2.04
					c-0.835,0.128-1.644,0.335-2.42,0.615c0.464,1.025,0.079,2.253-0.915,2.811c-0.991,0.558-2.229,0.248-2.854-0.685
					c-0.649,0.526-1.248,1.113-1.786,1.755c0.907,0.652,1.183,1.908,0.604,2.892c-0.58,0.986-1.808,1.342-2.812,0.848
					c-0.191,0.497-0.352,1.008-0.482,1.533c-0.074,0.293-0.137,0.589-0.189,0.89c1.111,0.105,1.975,1.052,1.964,2.196
					c-0.013,1.146-0.898,2.075-2.012,2.156c0.13,0.842,0.341,1.656,0.622,2.438c1.013-0.474,2.235-0.092,2.796,0.906
					c0.559,0.997,0.257,2.247-0.666,2.88c0.527,0.652,1.113,1.253,1.75,1.792c0.644-0.919,1.888-1.204,2.868-0.625
					c0.981,0.579,1.341,1.816,0.856,2.831c0.771,0.295,1.575,0.518,2.407,0.664c0.098-1.122,1.034-1.997,2.169-1.991
					c1.137,0.005,2.064,0.892,2.149,2.015c0.835-0.136,1.643-0.351,2.415-0.638c-0.475-1.02-0.103-2.253,0.885-2.823
					c0.986-0.57,2.229-0.27,2.862,0.656c0.644-0.533,1.237-1.127,1.77-1.774c-0.917-0.643-1.208-1.895-0.638-2.888
					c0.57-0.991,1.795-1.36,2.804-0.877c0.291-0.777,0.507-1.589,0.646-2.43C346.583,388.811,345.708,387.872,345.708,386.726z
					 M334.848,391.661c-2.711,0-4.908-2.214-4.908-4.946c0-1.214,0.435-2.328,1.158-3.19c0.899-1.073,2.245-1.756,3.75-1.756
					s2.85,0.683,3.75,1.756c0.723,0.863,1.158,1.976,1.158,3.19C339.755,389.447,337.559,391.661,334.848,391.661z"/>
				<path style="fill:#1D2C52;" d="M337.645,386.715c0,1.557-1.253,2.82-2.797,2.82c-1.545,0-2.798-1.262-2.798-2.82
					c0-1.557,1.253-2.82,2.798-2.82C336.393,383.895,337.645,385.158,337.645,386.715z"/>
			</g>
			<g>
				<path style="fill:#34909D;" d="M183.088,386.734c0-2.019,1.544-3.676,3.505-3.838c-0.102-0.614-0.227-1.217-0.374-1.811
					c-0.17-0.685-0.371-1.359-0.601-2.019c-1.799,0.814-3.944,0.117-4.913-1.654c-0.969-1.768-0.411-3.967,1.224-5.066
					c-0.915-1.162-1.938-2.23-3.054-3.196c-1.15,1.611-3.352,2.088-5.069,1.048c-1.717-1.04-2.329-3.227-1.459-5.006
					c-1.352-0.537-2.768-0.948-4.233-1.219c-0.193,1.976-1.859,3.504-3.865,3.473c-2.006-0.031-3.624-1.616-3.754-3.598
					c-1.473,0.226-2.901,0.591-4.27,1.085c0.819,1.808,0.139,3.975-1.615,4.961c-1.748,0.985-3.933,0.437-5.035-1.208
					c-1.145,0.928-2.202,1.965-3.151,3.096c1.601,1.151,2.088,3.367,1.065,5.103c-1.023,1.739-3.19,2.367-4.961,1.496
					c-0.337,0.877-0.62,1.779-0.85,2.704c-0.13,0.517-0.241,1.039-0.334,1.571c1.961,0.186,3.485,1.856,3.465,3.875
					c-0.023,2.022-1.584,3.661-3.55,3.804c0.23,1.485,0.601,2.922,1.097,4.301c1.788-0.837,3.944-0.163,4.933,1.599
					c0.986,1.759,0.453,3.964-1.176,5.081c0.929,1.151,1.964,2.21,3.088,3.161c1.136-1.622,3.332-2.125,5.061-1.102
					c1.731,1.022,2.366,3.204,1.51,4.995c1.36,0.52,2.78,0.914,4.247,1.171c0.173-1.979,1.825-3.524,3.828-3.513
					c2.006,0.009,3.641,1.574,3.791,3.556c1.473-0.24,2.899-0.62,4.261-1.125c-0.839-1.799-0.181-3.975,1.561-4.981
					c1.74-1.005,3.933-0.477,5.049,1.157c1.136-0.94,2.182-1.988,3.122-3.13c-1.618-1.134-2.131-3.344-1.125-5.095
					c1.006-1.748,3.168-2.399,4.947-1.548c0.513-1.371,0.895-2.804,1.139-4.287C184.632,390.413,183.088,388.756,183.088,386.734z
					 M163.926,395.442c-4.783,0-8.659-3.907-8.659-8.727c0-2.142,0.768-4.107,2.043-5.629c1.587-1.893,3.961-3.099,6.616-3.099
					c2.655,0,5.029,1.205,6.616,3.099c1.275,1.522,2.043,3.487,2.043,5.629C172.584,391.535,168.708,395.442,163.926,395.442z"/>
				<ellipse style="fill:#1D2C52;" cx="163.926" cy="386.715" rx="4.497" ry="4.532"/>
			</g>
			<path style="fill:#F2F2F2;" d="M107.386,371.064l-22.297,22.473c-1.943,1.958-2.147,5.119-0.366,7.229
				c1.998,2.367,5.565,2.473,7.703,0.318l3.773-3.802c0.707-0.713,1.854-0.713,2.561,0h0c0.707,0.713,0.707,1.868,0,2.581
				l-17.391,17.529c-0.778,0.784-0.886,2.05-0.188,2.907c0.802,0.984,2.263,1.037,3.135,0.158L111.06,393.5
				c0.778-0.784,0.886-2.05,0.188-2.907c-0.802-0.984-2.263-1.037-3.135-0.158l-2.586,2.606c-0.707,0.713-1.854,0.713-2.561,0l0,0
				c-0.707-0.713-0.707-1.868,0-2.581l11.757-11.85c1.943-1.958,2.147-5.12,0.366-7.229
				C113.091,369.014,109.524,368.909,107.386,371.064z"/>
			<g>
				<path style="fill:#D9DFE6;" d="M436.162,444.69c0,3.852-3.097,6.974-6.919,6.974h-73.401c-6.6,0-11.951-5.393-11.951-12.046
					c0-6.65,5.35-12.043,11.951-12.043c1.543,0,3.019,0.295,4.375,0.832c-0.002-0.079-0.005-0.161-0.005-0.24
					c0-8.654,4.642-16.216,11.554-20.291c3.45-2.039,7.47-3.206,11.757-3.206c11.386,0,20.865,8.229,22.904,19.108
					c2.163-1.248,4.67-1.962,7.341-1.962c8.176,0,14.804,6.683,14.804,14.923c0,0.339-0.012,0.679-0.035,1.013
					c0.233-0.026,0.468-0.037,0.706-0.037C433.064,437.716,436.162,440.838,436.162,444.69z"/>
				<path style="fill:#E5EBF2;" d="M400.458,451.664h-44.617c-6.6,0-11.951-5.393-11.951-12.046c0-6.65,5.35-12.043,11.951-12.043
					c1.543,0,3.019,0.295,4.375,0.832c-0.002-0.079-0.005-0.161-0.005-0.24c0-8.654,4.642-16.216,11.554-20.291
					c3.743-0.188,7.509,0.165,10.999,1.492c4.53,1.723,8.54,5.267,10,9.916c1.462,4.651-0.102,10.333-4.209,12.915
					c2.505-0.351,4.929,0.051,7.085,1.376c2.159,1.325,3.614,4.01,2.961,6.469c-0.406,1.527-1.543,2.771-2.862,3.626
					c-1.278,0.83-2.731,1.334-4.17,1.827c0.664-0.216,0.98-0.219,1.737-0.249c0.807-0.035,1.66,0.193,2.212,0.788
					c0.553,0.593,0.699,1.595,0.194,2.227c0.895-0.89,2.253-0.158,3.213,0.663C399.748,449.63,400.244,450.604,400.458,451.664z"/>
			</g>
			<g>
				<path style="fill:#D9DFE6;" d="M138.661,193.789c0,3.567-2.869,6.459-6.408,6.459H64.268c-6.113,0-11.069-4.995-11.069-11.157
					c0-6.16,4.956-11.155,11.069-11.155c1.429,0,2.796,0.273,4.052,0.771c-0.002-0.073-0.004-0.149-0.004-0.222
					c0-8.016,4.3-15.019,10.702-18.793c3.196-1.888,6.919-2.969,10.89-2.969c10.546,0,19.325,7.622,21.213,17.698
					c2.004-1.156,4.326-1.817,6.799-1.817c7.572,0,13.711,6.19,13.711,13.822c0,0.314-0.011,0.629-0.032,0.939
					c0.216-0.024,0.434-0.035,0.654-0.035C135.792,187.33,138.661,190.222,138.661,193.789z"/>
				<path style="fill:#E5EBF2;" d="M105.592,200.248H64.268c-6.113,0-11.069-4.995-11.069-11.157c0-6.16,4.956-11.155,11.069-11.155
					c1.429,0,2.796,0.273,4.052,0.771c-0.002-0.073-0.004-0.149-0.004-0.222c0-8.016,4.3-15.019,10.702-18.793
					c3.467-0.174,6.955,0.153,10.187,1.382c4.195,1.595,7.91,4.879,9.262,9.185c1.354,4.308-0.094,9.57-3.898,11.962
					c2.32-0.325,4.565,0.047,6.562,1.275c1.999,1.227,3.347,3.714,2.743,5.992c-0.376,1.415-1.429,2.566-2.651,3.359
					c-1.183,0.769-2.529,1.236-3.862,1.692c0.615-0.2,0.908-0.202,1.608-0.23c0.748-0.032,1.538,0.179,2.049,0.73
					c0.513,0.549,0.647,1.477,0.18,2.063c0.829-0.825,2.087-0.146,2.975,0.614C104.935,198.364,105.394,199.266,105.592,200.248z"/>
			</g>
			<path style="fill:#34909D;" d="M215.372,103.342c0,1.508-1.213,2.73-2.709,2.73s-2.709-1.222-2.709-2.73
				c0-1.508,1.213-2.73,2.709-2.73S215.372,101.834,215.372,103.342z"/>
			<path style="fill:#1D2C52;" d="M451.373,182.177c0,1.885-1.516,3.413-3.386,3.413s-3.386-1.528-3.386-3.413
				c0-1.885,1.516-3.413,3.386-3.413S451.373,180.292,451.373,182.177z"/>
			<path style="fill:none;stroke:#1D2C52;stroke-width:0.9588;stroke-miterlimit:10;" d="M448.938,254.637
				c0,1.225-0.985,2.218-2.201,2.218c-1.215,0-2.201-0.993-2.201-2.218c0-1.225,0.985-2.218,2.201-2.218
				C447.953,252.418,448.938,253.411,448.938,254.637z"/>
			<path style="fill:#1D2C52;" d="M242.799,403.495c0,1.037-0.834,1.877-1.862,1.877c-1.028,0-1.862-0.84-1.862-1.877
				c0-1.037,0.834-1.877,1.862-1.877C241.965,401.618,242.799,402.458,242.799,403.495z"/>
			<path style="fill:#1D2C52;" d="M134.525,425.356c0,1.225-0.985,2.218-2.201,2.218s-2.201-0.993-2.201-2.218
				c0-1.225,0.985-2.218,2.201-2.218S134.525,424.131,134.525,425.356z"/>
			<ellipse style="fill:#1D2C52;" cx="60.465" cy="369.367" rx="2.201" ry="2.218"/>
			<ellipse style="fill:#1D2C52;" cx="39.695" cy="264.645" rx="2.201" ry="2.218"/>
			<g>
				<path style="fill:#BA0034;" d="M215.656,233.148h-47.544c-4.79,0-8.672-3.883-8.672-8.672v-36.292
					c0-4.79,3.883-8.672,8.672-8.672h47.544c4.79,0,8.672,3.883,8.672,8.672v36.292
					C224.328,229.265,220.445,233.148,215.656,233.148z"/>
				<g>
					<path style="fill:#D9DFE6;" d="M184.397,202.482l-9.422,4.531l9.422,4.494v4.642l-13.468-6.722v-4.828l13.468-6.722V202.482z"
						/>
					<path style="fill:#D9DFE6;" d="M194.526,188.741h3.933l-9.337,34.983h-3.933L194.526,188.741z"/>
					<path style="fill:#D9DFE6;" d="M212.437,204.599v4.828l-13.468,6.722v-4.642l9.422-4.494l-9.422-4.531v-4.605L212.437,204.599z
						"/>
				</g>
			</g>
			<ellipse style="fill:#1D2C52;" cx="335.832" cy="68.898" rx="20.4" ry="20.562"/>
			
				<text transform="matrix(0.9921 0 0 1 321.9604 75.1688)" style="fill:#FFFFFF; font-family:'BebasNeueBold'; font-size:16.8211px;">www</text>
			<g>
				<path style="fill:#304B6E;" d="M336.055,101.705L336.055,101.705c-0.323,0-0.587-0.264-0.587-0.588v-9.777
					c0-0.323,0.264-0.588,0.587-0.588l0,0c0.323,0,0.587,0.264,0.587,0.588v9.777C336.642,101.441,336.378,101.705,336.055,101.705z
					"/>
				<path style="fill:#304B6E;" d="M336.055,108.087L336.055,108.087c-0.323,0-0.587-0.264-0.587-0.588v-2.855
					c0-0.323,0.264-0.587,0.587-0.587l0,0c0.323,0,0.587,0.264,0.587,0.587v2.855C336.642,107.823,336.378,108.087,336.055,108.087z
					"/>
			</g>
			<path style="fill:#D9DFE6;" d="M397.944,80.86c0,1.044-0.84,1.891-1.876,1.891c-1.036,0-1.876-0.846-1.876-1.891
				c0-1.044,0.84-1.891,1.876-1.891C397.104,78.97,397.944,79.816,397.944,80.86z"/>
			<path style="fill:none;stroke:#D9DFE6;stroke-width:1.598;stroke-miterlimit:10;" d="M286.639,84.327
				c0,1.392-1.12,2.521-2.501,2.521c-1.381,0-2.501-1.129-2.501-2.521c0-1.392,1.12-2.521,2.501-2.521
				C285.52,81.806,286.639,82.935,286.639,84.327z"/>
			<path style="fill:none;stroke:#D9DFE6;stroke-width:1.598;stroke-miterlimit:10;" d="M469.161,206.833h-2.738
				c-0.809,0-1.465-0.661-1.465-1.477v-2.741c0-1.476-1.098-2.77-2.559-2.874c-1.604-0.114-2.953,1.177-2.953,2.771v2.844
				c0,0.816-0.656,1.477-1.465,1.477h-2.738c-1.37,0-2.594,0.973-2.805,2.338c-0.266,1.72,1.063,3.218,2.722,3.218h2.822
				c0.809,0,1.465,0.661,1.465,1.477v2.76c0,1.381,0.966,2.615,2.32,2.828c1.706,0.268,3.192-1.071,3.192-2.743v-2.844
				c0-0.816,0.656-1.477,1.465-1.477h2.822c1.659,0,2.988-1.497,2.722-3.218C471.755,207.807,470.531,206.833,469.161,206.833z"/>
			<path style="fill:#D9DFE6;" d="M44.635,330.555h-2c-0.591,0-1.07-0.483-1.07-1.079v-2.002c0-1.078-0.802-2.023-1.869-2.099
				c-1.172-0.083-2.157,0.86-2.157,2.024v2.077c0,0.596-0.479,1.079-1.07,1.079h-2c-1.001,0-1.895,0.711-2.049,1.708
				c-0.194,1.256,0.776,2.35,1.988,2.35h2.061c0.591,0,1.07,0.483,1.07,1.079v2.016c0,1.009,0.705,1.91,1.694,2.065
				c1.246,0.196,2.332-0.783,2.332-2.004v-2.077c0-0.596,0.479-1.079,1.07-1.079h2.061c1.212,0,2.182-1.094,1.988-2.35
				C46.53,331.265,45.636,330.554,44.635,330.555z"/>
		</g>
	</g>
</g>
</svg>
